<svg id="eSofHXxMQN31" xmlns="http://www.w3.org/2000/svg" xmlns:xlink="http://www.w3.org/1999/xlink" viewBox="0 0 540 549" shape-rendering="geometricPrecision" text-rendering="geometricPrecision">
<style><![CDATA[
#eSofHXxMQN383 {animation: eSofHXxMQN383_c_o 4000ms linear infinite normal forwards}@keyframes eSofHXxMQN383_c_o { 0% {opacity: 0} 5% {opacity: 0} 50% {opacity: 0} 52.5% {opacity: 1} 100% {opacity: 1}} #eSofHXxMQN384 {animation: eSofHXxMQN384_c_o 4000ms linear infinite normal forwards}@keyframes eSofHXxMQN384_c_o { 0% {opacity: 0} 50% {opacity: 0} 62.5% {opacity: 1} 100% {opacity: 1}} #eSofHXxMQN385 {animation: eSofHXxMQN385_c_o 4000ms linear infinite normal forwards}@keyframes eSofHXxMQN385_c_o { 0% {opacity: 0} 50% {opacity: 0} 62.5% {opacity: 0} 72.5% {opacity: 1} 100% {opacity: 1}} #eSofHXxMQN386 {animation: eSofHXxMQN386_c_o 4000ms linear infinite normal forwards}@keyframes eSofHXxMQN386_c_o { 0% {opacity: 0} 50% {opacity: 0} 62.5% {opacity: 0} 72.5% {opacity: 0} 80% {opacity: 1} 100% {opacity: 1}} #eSofHXxMQN387 {animation: eSofHXxMQN387_c_o 4000ms linear infinite normal forwards}@keyframes eSofHXxMQN387_c_o { 0% {opacity: 0} 50% {opacity: 0} 62.5% {opacity: 0} 72.5% {opacity: 0} 80% {opacity: 0} 87.5% {opacity: 1} 100% {opacity: 1}} #eSofHXxMQN388 {animation: eSofHXxMQN388_c_o 4000ms linear infinite normal forwards}@keyframes eSofHXxMQN388_c_o { 0% {opacity: 0} 50% {opacity: 0} 62.5% {opacity: 0} 72.5% {opacity: 0} 80% {opacity: 0} 87.5% {opacity: 0} 97.5% {opacity: 1} 100% {opacity: 1}} #eSofHXxMQN3101 {animation: eSofHXxMQN3101_c_o 4000ms linear infinite normal forwards}@keyframes eSofHXxMQN3101_c_o { 0% {opacity: 0} 5% {opacity: 1} 100% {opacity: 1}} #eSofHXxMQN3102 {animation: eSofHXxMQN3102_c_o 4000ms linear infinite normal forwards}@keyframes eSofHXxMQN3102_c_o { 0% {opacity: 0} 5% {opacity: 0} 12.5% {opacity: 1} 100% {opacity: 1}} #eSofHXxMQN3103 {animation: eSofHXxMQN3103_c_o 4000ms linear infinite normal forwards}@keyframes eSofHXxMQN3103_c_o { 0% {opacity: 0} 5% {opacity: 0} 12.5% {opacity: 0} 22.5% {opacity: 1} 100% {opacity: 1}} #eSofHXxMQN3104 {animation: eSofHXxMQN3104_c_o 4000ms linear infinite normal forwards}@keyframes eSofHXxMQN3104_c_o { 0% {opacity: 0} 5% {opacity: 0} 12.5% {opacity: 0} 22.5% {opacity: 0} 30% {opacity: 1} 100% {opacity: 1}} #eSofHXxMQN3105 {animation: eSofHXxMQN3105_c_o 4000ms linear infinite normal forwards}@keyframes eSofHXxMQN3105_c_o { 0% {opacity: 0} 5% {opacity: 0} 12.5% {opacity: 0} 22.5% {opacity: 0} 30% {opacity: 0} 40% {opacity: 1} 100% {opacity: 1}} #eSofHXxMQN3106 {animation: eSofHXxMQN3106_c_o 4000ms linear infinite normal forwards}@keyframes eSofHXxMQN3106_c_o { 0% {opacity: 0} 5% {opacity: 0} 12.5% {opacity: 0} 22.5% {opacity: 0} 30% {opacity: 0} 40% {opacity: 0} 50% {opacity: 1} 100% {opacity: 1}} #eSofHXxMQN3107_ts {animation: eSofHXxMQN3107_ts__ts 4000ms linear infinite normal forwards}@keyframes eSofHXxMQN3107_ts__ts { 0% {transform: translate(157px,145px) scale(0.207855,0.207399)} 37.5% {transform: translate(157px,145px) scale(1.380681,1.258064)} 100% {transform: translate(157px,145px) scale(1.380681,1.258064)}} #eSofHXxMQN3110 {animation: eSofHXxMQN3110_c_o 4000ms linear infinite normal forwards}@keyframes eSofHXxMQN3110_c_o { 0% {opacity: 0} 37.5% {opacity: 0} 47.5% {opacity: 0.99} 100% {opacity: 0.99}} #eSofHXxMQN3111 {animation: eSofHXxMQN3111_c_o 4000ms linear infinite normal forwards}@keyframes eSofHXxMQN3111_c_o { 0% {opacity: 0} 40% {opacity: 0} 47.5% {opacity: 1} 100% {opacity: 1}} #eSofHXxMQN3114 {animation: eSofHXxMQN3114_c_o 4000ms linear infinite normal forwards}@keyframes eSofHXxMQN3114_c_o { 0% {opacity: 0} 35% {opacity: 0} 47.5% {opacity: 1} 100% {opacity: 1}} #eSofHXxMQN3115 {animation: eSofHXxMQN3115_c_o 4000ms linear infinite normal forwards}@keyframes eSofHXxMQN3115_c_o { 0% {opacity: 0} 32.5% {opacity: 0} 47.5% {opacity: 1} 100% {opacity: 1}} #eSofHXxMQN3129 {animation: eSofHXxMQN3129_c_o 4000ms linear infinite normal forwards}@keyframes eSofHXxMQN3129_c_o { 0% {opacity: 0} 35% {opacity: 1} 100% {opacity: 1}} #eSofHXxMQN3130 {animation: eSofHXxMQN3130_c_o 4000ms linear infinite normal forwards}@keyframes eSofHXxMQN3130_c_o { 0% {opacity: 0} 55% {opacity: 1} 100% {opacity: 1}} #eSofHXxMQN3131 {animation: eSofHXxMQN3131_c_o 4000ms linear infinite normal forwards}@keyframes eSofHXxMQN3131_c_o { 0% {opacity: 0} 67.5% {opacity: 1} 100% {opacity: 1}} #eSofHXxMQN3132 {animation: eSofHXxMQN3132_c_o 4000ms linear infinite normal forwards}@keyframes eSofHXxMQN3132_c_o { 0% {opacity: 0} 82.5% {opacity: 1} 100% {opacity: 1}} #eSofHXxMQN3133 {animation: eSofHXxMQN3133_c_o 4000ms linear infinite normal forwards}@keyframes eSofHXxMQN3133_c_o { 0% {opacity: 0} 100% {opacity: 1}} #eSofHXxMQN3134 {animation: eSofHXxMQN3134_c_o 4000ms linear infinite normal forwards}@keyframes eSofHXxMQN3134_c_o { 0% {opacity: 0} 12.5% {opacity: 1} 35% {opacity: 0.98} 100% {opacity: 0.98}} #eSofHXxMQN3135 {animation: eSofHXxMQN3135_c_o 4000ms linear infinite normal forwards}@keyframes eSofHXxMQN3135_c_o { 0% {opacity: 0} 12.5% {opacity: 0} 25% {opacity: 1} 37.5% {opacity: 1} 100% {opacity: 1}} #eSofHXxMQN3138 {animation: eSofHXxMQN3138_c_o 4000ms linear infinite normal forwards}@keyframes eSofHXxMQN3138_c_o { 0% {opacity: 0} 12.5% {opacity: 0} 25% {opacity: 0} 32.5% {opacity: 1} 40% {opacity: 1} 100% {opacity: 1}} #eSofHXxMQN3141 {animation: eSofHXxMQN3141_c_o 4000ms linear infinite normal forwards}@keyframes eSofHXxMQN3141_c_o { 0% {opacity: 0} 12.5% {opacity: 0} 25% {opacity: 0} 37.5% {opacity: 1} 45% {opacity: 1} 100% {opacity: 1}} #eSofHXxMQN3142 {animation: eSofHXxMQN3142_c_o 4000ms linear infinite normal forwards}@keyframes eSofHXxMQN3142_c_o { 0% {opacity: 0} 12.5% {opacity: 0} 25% {opacity: 0} 40% {opacity: 1} 50% {opacity: 1} 100% {opacity: 1}} #eSofHXxMQN3143 {animation: eSofHXxMQN3143_c_o 4000ms linear infinite normal forwards}@keyframes eSofHXxMQN3143_c_o { 0% {opacity: 0} 12.5% {opacity: 0} 25% {opacity: 0} 40% {opacity: 0} 47.5% {opacity: 1} 57.5% {opacity: 1} 100% {opacity: 1}} #eSofHXxMQN3151 {animation: eSofHXxMQN3151_c_o 4000ms linear infinite normal forwards}@keyframes eSofHXxMQN3151_c_o { 0% {opacity: 0} 12.5% {opacity: 0} 25% {opacity: 0} 40% {opacity: 0} 47.5% {opacity: 0} 55% {opacity: 1} 67.5% {opacity: 1} 100% {opacity: 1}} #eSofHXxMQN3158 {animation: eSofHXxMQN3158_c_o 4000ms linear infinite normal forwards}@keyframes eSofHXxMQN3158_c_o { 0% {opacity: 0} 12.5% {opacity: 0} 25% {opacity: 0} 40% {opacity: 0} 47.5% {opacity: 0} 55% {opacity: 0} 60% {opacity: 1} 100% {opacity: 1}} #eSofHXxMQN3164 {animation: eSofHXxMQN3164_c_o 4000ms linear infinite normal forwards}@keyframes eSofHXxMQN3164_c_o { 0% {opacity: 0} 12.5% {opacity: 0} 25% {opacity: 0} 40% {opacity: 0} 47.5% {opacity: 0} 55% {opacity: 0} 60% {opacity: 0} 67.5% {opacity: 1} 100% {opacity: 1}} #eSofHXxMQN3168 {animation: eSofHXxMQN3168_c_o 4000ms linear infinite normal forwards}@keyframes eSofHXxMQN3168_c_o { 0% {opacity: 0} 12.5% {opacity: 0} 35% {opacity: 0} 55% {opacity: 0} 65% {opacity: 0} 70% {opacity: 1} 100% {opacity: 1}} #eSofHXxMQN3169 {animation: eSofHXxMQN3169_c_o 4000ms linear infinite normal forwards}@keyframes eSofHXxMQN3169_c_o { 0% {opacity: 0} 12.5% {opacity: 0} 25% {opacity: 0} 40% {opacity: 0} 47.5% {opacity: 0} 55% {opacity: 0} 60% {opacity: 0} 67.5% {opacity: 1} 100% {opacity: 1}} #eSofHXxMQN3170 {animation: eSofHXxMQN3170_c_o 4000ms linear infinite normal forwards}@keyframes eSofHXxMQN3170_c_o { 0% {opacity: 0} 12.5% {opacity: 0} 25% {opacity: 0} 40% {opacity: 0} 47.5% {opacity: 0} 55% {opacity: 0} 60% {opacity: 0} 67.5% {opacity: 0} 77.5% {opacity: 1} 100% {opacity: 1}} #eSofHXxMQN3174 {animation: eSofHXxMQN3174_c_o 4000ms linear infinite normal forwards}@keyframes eSofHXxMQN3174_c_o { 0% {opacity: 0} 12.5% {opacity: 0} 25% {opacity: 0} 40% {opacity: 0} 47.5% {opacity: 0} 55% {opacity: 0} 60% {opacity: 0} 67.5% {opacity: 0} 77.5% {opacity: 0} 87.5% {opacity: 1} 100% {opacity: 1}} #eSofHXxMQN3177 {animation: eSofHXxMQN3177_c_o 4000ms linear infinite normal forwards}@keyframes eSofHXxMQN3177_c_o { 0% {opacity: 0} 12.5% {opacity: 0} 25% {opacity: 0} 40% {opacity: 0} 47.5% {opacity: 0} 55% {opacity: 0} 60% {opacity: 0} 67.5% {opacity: 0} 77.5% {opacity: 0} 87.5% {opacity: 0} 92.5% {opacity: 1} 100% {opacity: 1}} #eSofHXxMQN3180_tr {animation: eSofHXxMQN3180_tr__tr 4000ms linear infinite normal forwards}@keyframes eSofHXxMQN3180_tr__tr { 0% {transform: translate(484.945999px,326.500504px) rotate(0deg)} 47.5% {transform: translate(484.945999px,326.500504px) rotate(0deg)} 62.5% {transform: translate(484.945999px,326.500504px) rotate(450deg)} 100% {transform: translate(484.945999px,326.500504px) rotate(360deg)}} #eSofHXxMQN3180_ts {animation: eSofHXxMQN3180_ts__ts 4000ms linear infinite normal forwards}@keyframes eSofHXxMQN3180_ts__ts { 0% {transform: scale(0,0)} 22.5% {transform: scale(0.5,0.5)} 42.5% {transform: scale(1.1,1.1)} 55% {transform: scale(0.8,0.8)} 67.5% {transform: scale(1,1)} 100% {transform: scale(1,1)}}
]]></style>
<g clip-path="url(#eSofHXxMQN327)"><g opacity="0.3"><g opacity="0.9"><path d="M539.108,188.003c3.001-41.505-67.557-80.426-157.594-86.931-90.038-6.5056-165.46,21.867-168.461,63.372s67.556,80.425,157.594,86.931c90.037,6.505,165.46-21.867,168.461-63.372Z" fill="none" stroke="#36b7ff" stroke-width="0.8" stroke-miterlimit="10"/><path d="M533.114,179.399c1.177-40.508-69.254-75.42-157.313-77.978-88.059-2.5572-160.399,28.208-161.576,68.716-1.178,40.508,69.254,75.42,157.312,77.978c88.059,2.558,160.399-28.207,161.577-68.716Z" opacity="0.5" fill="none" stroke="#36b7ff" stroke-width="0.8" stroke-miterlimit="10"/><path d="M372.455,245.097c86.028-1.391,155.247-34.681,154.605-74.355s-70.902-70.708-156.93-69.317c-86.028,1.392-155.248,34.681-154.606,74.355s70.902,70.708,156.931,69.317Z" opacity="0.5" fill="none" stroke="#36b7ff" stroke-width="0.8" stroke-miterlimit="10"/><path d="M373.335,241.897c84.054-5.34,150.195-41.085,147.731-79.838-2.464-38.754-72.6-65.8403-156.653-60.5-84.053,5.34-150.195,41.085-147.731,79.839c2.464,38.753,72.6,65.839,156.653,60.499Z" opacity="0.5" fill="none" stroke="#36b7ff" stroke-width="0.8" stroke-miterlimit="10"/><path d="M374.206,238.75c82.12-9.295,145.226-47.425,140.951-85.166-4.274-37.741-74.311-60.8012-156.43-51.506-82.12,9.295-145.226,47.425-140.951,85.166c4.274,37.741,74.311,60.801,156.43,51.506Z" opacity="0.5" fill="none" stroke="#36b7ff" stroke-width="0.8" stroke-miterlimit="10"/><path d="M375.335,235.635c80.109-13.247,140.103-53.881,134-90.76-6.102-36.878-75.99-56.0354-156.098-42.788-80.109,13.246-140.103,53.881-134,90.76c6.102,36.878,75.99,56.035,156.098,42.788Z" opacity="0.5" fill="none" stroke="#36b7ff" stroke-width="0.8" stroke-miterlimit="10"/><path d="M376.197,232.361c78.115-17.199,135.025-60.256,127.112-96.17s-77.652-51.0851-155.767-33.886c-78.114,17.2-135.024,60.257-127.112,96.171c7.913,35.914,77.652,51.085,155.767,33.885Z" opacity="0.5" fill="none" stroke="#36b7ff" stroke-width="0.8" stroke-miterlimit="10"/><path d="M377.051,229.129c76.134-21.154,129.972-66.649,120.251-101.615-9.722-34.9655-79.322-46.1622-155.457-25.008-76.134,21.154-129.972,66.649-120.25,101.615s79.322,46.162,155.456,25.008Z" opacity="0.5" fill="none" stroke="#36b7ff" stroke-width="0.8" stroke-miterlimit="10"/><path d="M377.975,226.107c74.036-25.077,124.673-73.083,113.101-107.225-11.572-34.1415-80.971-41.4899-155.007-16.413-74.036,25.077-124.673,73.083-113.101,107.225s80.97,41.49,155.007,16.413Z" opacity="0.5" fill="none" stroke="#36b7ff" stroke-width="0.8" stroke-miterlimit="10"/><path d="M378.92,223.116c72.055-29.03,119.613-79.486,106.224-112.697-13.389-33.2103-82.655-36.5994-154.71-7.569-72.055,29.03-119.613,79.486-106.224,112.696c13.389,33.211,82.655,36.6,154.71,7.57Z" opacity="0.5" fill="none" stroke="#36b7ff" stroke-width="0.8" stroke-miterlimit="10"/><path d="M379.989,219.838c70.065-32.981,114.536-85.889,99.329-118.174-15.207-32.2852-84.334-31.721-154.398,1.26-70.065,32.981-114.536,85.889-99.329,118.174s84.334,31.721,154.398-1.26Z" opacity="0.5" fill="none" stroke="#36b7ff" stroke-width="0.8" stroke-miterlimit="10"/><path d="M380.865,216.658c68.067-36.929,109.442-92.292,92.415-123.6562-17.028-31.3642-86.011-26.8528-154.077,10.0762-68.067,36.93-109.442,92.293-92.415,123.657c17.028,31.364,86.011,26.853,154.077-10.077Z" opacity="0.5" fill="none" stroke="#36b7ff" stroke-width="0.8" stroke-miterlimit="10"/><path d="M381.744,213.483c66.057-40.874,104.326-98.69,85.474-129.1363-18.851-30.4465-87.683-21.9938-153.741,18.8793-66.057,40.874-104.325,98.69-85.474,129.137c18.851,30.446,87.683,21.993,153.741-18.88Z" opacity="0.5" fill="none" stroke="#36b7ff" stroke-width="0.8" stroke-miterlimit="10"/><path d="M382.623,210.337c64.046-44.809,99.203-105.076,78.526-134.6106-20.677-29.5347-89.358-17.1526-153.404,27.6566-64.046,44.808-99.203,105.076-78.526,134.61c20.677,29.535,89.358,17.153,153.404-27.656Z" opacity="0.5" fill="none" stroke="#36b7ff" stroke-width="0.8" stroke-miterlimit="10"/><path d="M383.512,207.194c62.125-48.818,94.299-111.5215,71.864-140.0531-22.435-28.5317-90.984-12.0869-153.108,36.7301-62.124,48.818-94.299,111.522-71.864,140.053c22.435,28.532,90.984,12.087,153.108-36.73Z" opacity="0.5" fill="none" stroke="#36b7ff" stroke-width="0.8" stroke-miterlimit="10"/><path d="M384.565,203.942c60.11-52.749,89.166-117.915,64.897-145.5511-24.268-27.636-92.669-7.2773-152.779,45.4721-60.11,52.75-89.166,117.916-64.898,145.552c24.269,27.636,92.67,7.277,152.78-45.473Z" opacity="0.5" fill="none" stroke="#36b7ff" stroke-width="0.8" stroke-miterlimit="10"/><path d="M385.489,200.831c58.104-56.697,84.034-124.343,57.916-151.0917s-94.394-2.4705-152.498,54.2267c-58.104,56.697-84.034,124.344-57.916,151.092c26.118,26.749,94.394,2.471,152.498-54.227Z" opacity="0.5" fill="none" stroke="#36b7ff" stroke-width="0.8" stroke-miterlimit="10"/><path d="M386.291,197.608c56.118-60.661,78.996-130.7443,51.099-156.5356s-96.005,2.4761-152.123,63.1366c-56.119,60.661-78.997,130.744-51.1,156.536c27.898,25.791,96.006-2.476,152.124-63.137Z" opacity="0.5" fill="none" stroke="#36b7ff" stroke-width="0.8" stroke-miterlimit="10"/><path d="M387.262,194.563c54.071-64.552,73.761-137.0906,43.979-162.0201-29.781-24.9295-97.756,7.1907-151.827,71.7421-54.07,64.552-73.76,137.091-43.979,162.02c29.782,24.93,97.757-7.19,151.827-71.742Z" opacity="0.3" fill="none" stroke="#36b7ff" stroke-width="0.8" stroke-miterlimit="10"/><path d="M388.312,191.552c52.134-68.577,68.779-143.6319,37.177-167.6409s-99.483,12.1201-151.617,80.6969c-52.134,68.576-68.779,143.632-37.177,167.641c31.601,24.009,99.483-12.121,151.617-80.697Z" opacity="0.3" fill="none" stroke="#36b7ff" stroke-width="0.8" stroke-miterlimit="10"/><path d="M389.053,188.311c50.081-72.451,63.644-149.8603,30.294-172.8985-33.351-23.03821-100.985,17.019-151.067,89.4705-50.081,72.451-63.645,149.861-30.294,172.899c33.35,23.038,100.985-17.019,151.067-89.471Z" opacity="0.3" fill="none" stroke="#36b7ff" stroke-width="0.8" stroke-miterlimit="10"/><path d="M390.15,185.051c48.07-76.382,58.476-156.2645,23.243-178.42354s-102.763,21.79684-150.833,98.17854c-48.07,76.381-58.477,156.264-23.244,178.423s102.764-21.797,150.834-98.178Z" opacity="0.3" fill="none" stroke="#36b7ff" stroke-width="0.8" stroke-miterlimit="10"/></g></g><clipPath id="eSofHXxMQN327"><rect width="328" height="257" rx="0" ry="0" transform="translate(212 0)" fill="#fff"/></clipPath></g><g clip-path="url(#eSofHXxMQN354)"><g opacity="0.3"><g opacity="0.9"><path d="M0.789107,377.386C-1.86407,414.167,60.5188,448.656,140.125,454.421c79.606,5.765,146.291-19.378,148.944-56.158s-59.73-71.27-139.336-77.035C70.1268,315.463,3.44228,340.606,0.789107,377.386Z" fill="none" stroke="#36b7ff" stroke-width="0.8" stroke-miterlimit="10"/><path d="M6.08852,385.01C5.04757,420.907,67.3192,451.845,145.176,454.111c77.857,2.267,141.816-24.996,142.857-60.893s-61.23-66.834-139.087-69.101C71.0888,321.851,7.12948,349.113,6.08852,385.01Z" opacity="0.5" fill="none" stroke="#36b7ff" stroke-width="0.8" stroke-miterlimit="10"/><path d="M148.134,326.791c-76.0612,1.233-137.2611,30.733-136.6935,65.891.5676,35.157,62.6878,62.658,138.7495,61.426c76.062-1.233,137.261-30.733,136.694-65.891-.568-35.157-62.688-62.658-138.75-61.426Z" opacity="0.5" fill="none" stroke="#36b7ff" stroke-width="0.8" stroke-miterlimit="10"/><path d="M147.356,329.627c-74.3153,4.732-132.7939,36.408-130.6155,70.75c2.1783,34.341,64.1888,58.344,138.5045,53.612c74.315-4.732,132.794-36.408,130.615-70.75-2.178-34.342-64.188-58.345-138.504-53.612Z" opacity="0.5" fill="none" stroke="#36b7ff" stroke-width="0.8" stroke-miterlimit="10"/><path d="M146.586,332.416c-72.6054,8.236-128.4003,42.026-124.6209,75.471c3.7794,33.444,65.7019,53.879,138.3079,45.643c72.606-8.237,128.401-42.027,124.621-75.472-3.779-33.444-65.702-53.879-138.308-45.642Z" opacity="0.5" fill="none" stroke="#36b7ff" stroke-width="0.8" stroke-miterlimit="10"/><path d="M145.588,335.176C74.7604,346.915,21.717,382.924,27.1123,415.604s67.1863,49.657,138.0137,37.918c70.828-11.739,123.871-47.748,118.476-80.429-5.395-32.68-67.186-49.656-138.014-37.917Z" opacity="0.5" fill="none" stroke="#36b7ff" stroke-width="0.8" stroke-miterlimit="10"/><path d="M144.826,338.077C75.7609,353.319,25.4442,391.474,32.4402,423.3c6.9961,31.825,68.6558,45.269,137.7208,30.028c69.065-15.242,119.381-53.397,112.385-85.223-6.996-31.825-68.655-45.269-137.72-30.028Z" opacity="0.5" fill="none" stroke="#36b7ff" stroke-width="0.8" stroke-miterlimit="10"/><path d="M144.071,340.941C76.7568,359.687,29.1562,400.003,37.7517,430.988c8.5955,30.986,70.1323,40.908,137.4463,22.162c67.313-18.746,114.914-59.061,106.319-90.047-8.596-30.986-70.133-40.908-137.446-22.162Z" opacity="0.5" fill="none" stroke="#36b7ff" stroke-width="0.8" stroke-miterlimit="10"/><path d="M143.254,343.619c-65.4585,22.223-110.2292,64.764-99.9981,95.019c10.2312,30.255,71.5901,36.767,137.0491,14.545c65.458-22.222,110.229-64.764,99.998-95.019s-71.59-36.767-137.049-14.545Z" opacity="0.5" fill="none" stroke="#36b7ff" stroke-width="0.8" stroke-miterlimit="10"/><path d="M142.419,346.27c-63.7074,25.725-105.7559,70.437-93.9181,99.868c11.8378,29.43,73.0791,32.433,136.7861,6.708c63.707-25.726,105.756-70.438,93.918-99.868s-73.079-32.433-136.786-6.708Z" opacity="0.5" fill="none" stroke="#36b7ff" stroke-width="0.8" stroke-miterlimit="10"/><path d="M141.473,349.175C79.5255,378.401,40.2067,425.287,53.652,453.896c13.4453,28.61,74.563,28.11,136.511-1.117c61.947-29.226,101.266-76.111,87.821-104.721-13.446-28.61-74.564-28.11-136.511,1.117Z" opacity="0.5" fill="none" stroke="#36b7ff" stroke-width="0.8" stroke-miterlimit="10"/><path d="M140.699,351.993c-60.1813,32.725-96.7631,81.786-81.7082,109.58c15.055,27.793,76.0462,23.796,136.2262-8.93c60.181-32.725,96.763-81.786,81.708-109.579-15.055-27.794-76.046-23.796-136.226,8.929Z" opacity="0.5" fill="none" stroke="#36b7ff" stroke-width="0.8" stroke-miterlimit="10"/><path d="M139.922,354.806c-58.405,36.221-92.2397,87.455-75.5724,114.436c16.6673,26.98,77.5254,19.49,135.9294-16.731c58.405-36.22,92.239-87.455,75.572-114.435-16.667-26.981-77.525-19.49-135.929,16.73Z" opacity="0.5" fill="none" stroke="#36b7ff" stroke-width="0.8" stroke-miterlimit="10"/><path d="M139.144,357.594c-56.6255,39.708-87.7097,93.114-69.4281,119.287c18.2816,26.172,79.0061,15.2,135.6321-24.508s87.71-93.114,69.428-119.287c-18.281-26.172-79.006-15.2-135.632,24.508Z" opacity="0.5" fill="none" stroke="#36b7ff" stroke-width="0.8" stroke-miterlimit="10"/><path d="M138.358,360.379c-54.9266,43.261-83.3736,98.826-63.5379,124.11C94.6559,509.773,155.263,495.2,210.19,451.94s83.374-98.826,63.538-124.11c-19.836-25.283-80.443-10.711-135.37,32.549Z" opacity="0.5" fill="none" stroke="#36b7ff" stroke-width="0.8" stroke-miterlimit="10"/><path d="M137.427,363.261C84.2814,410.006,58.5921,467.753,80.0486,492.243s81.9334,6.449,135.0794-40.296s78.835-104.492,57.379-128.982c-21.457-24.49-81.934-6.449-135.08,40.296Z" opacity="0.5" fill="none" stroke="#36b7ff" stroke-width="0.8" stroke-miterlimit="10"/><path d="M136.61,366.018C85.2378,416.261,62.3119,476.206,85.4041,499.91c23.0919,23.703,83.4579,2.189,134.8299-48.054c51.373-50.243,74.299-110.188,51.207-133.892s-83.458-2.189-134.831,48.054Z" opacity="0.5" fill="none" stroke="#36b7ff" stroke-width="0.8" stroke-miterlimit="10"/><path d="M135.901,368.875C86.2844,422.63,66.057,484.735,90.7221,507.59c24.6649,22.855,84.8829-2.194,134.4999-55.949c49.617-53.756,69.844-115.861,45.179-138.716s-84.883,2.194-134.5,55.95Z" opacity="0.5" fill="none" stroke="#36b7ff" stroke-width="0.8" stroke-miterlimit="10"/><path d="M135.042,371.573C87.2362,428.776,69.8273,493.057,96.1585,515.149C122.49,537.24,182.59,508.777,230.396,451.573c47.806-57.203,65.215-121.484,38.884-143.576-26.331-22.091-86.432,6.372-134.238,63.576Z" opacity="0.3" fill="none" stroke="#36b7ff" stroke-width="0.8" stroke-miterlimit="10"/><path d="M134.115,374.241c-46.0946,60.77-60.811,127.281-32.87,148.557c27.94,21.276,87.957-10.741,134.051-71.511c46.095-60.769,60.811-127.281,32.87-148.556-27.94-21.276-87.957,10.74-134.051,71.51Z" opacity="0.3" fill="none" stroke="#36b7ff" stroke-width="0.8" stroke-miterlimit="10"/><path d="M133.46,377.112c-44.2798,64.204-56.2716,132.801-26.785,153.217c29.487,20.416,89.286-15.082,133.565-79.285c44.28-64.204,56.271-132.801,26.785-153.217-29.487-20.415-89.286,15.082-133.565,79.285Z" opacity="0.3" fill="none" stroke="#36b7ff" stroke-width="0.8" stroke-miterlimit="10"/><path d="M132.49,380.002c-42.5012,67.686-51.702,138.475-20.551,158.112c31.151,19.636,90.858-19.316,133.359-87.002s51.701-138.475,20.55-158.112c-31.151-19.636-90.857,19.316-133.358,87.002Z" opacity="0.3" fill="none" stroke="#36b7ff" stroke-width="0.8" stroke-miterlimit="10"/></g></g><clipPath id="eSofHXxMQN354"><rect width="290" height="262" rx="0" ry="0" transform="matrix(-1 0 0-1 290 549)" fill="#fff"/></clipPath></g><rect width="350" height="200" rx="0" ry="0" transform="translate(20 73)" fill="#0b2158"/><rect width="346" height="19" rx="0" ry="0" transform="translate(22 75)" fill="#001241"/><rect width="42" height="177" rx="0" ry="0" transform="translate(23 94)" fill="#11275f"/><rect width="27" height="5" rx="0" ry="0" transform="translate(29 107)" fill="#1d3574"/><rect width="27" height="2" rx="0" ry="0" transform="translate(29 115)" fill="#1d3574"/><rect width="27" height="2" rx="0" ry="0" transform="translate(29 126)" fill="#1d3574"/><rect width="19" height="2" rx="0" ry="0" transform="translate(29 131)" fill="#1d3574"/><rect width="22" height="2" rx="0" ry="0" transform="translate(29 141)" fill="#1d3574"/><rect width="14" height="2" rx="0" ry="0" transform="translate(29 136)" fill="#1d3574"/><rect width="27" height="2" rx="0" ry="0" transform="translate(29 245)" fill="#1d3574"/><rect width="19" height="2" rx="0" ry="0" transform="translate(29 250)" fill="#1d3574"/><rect width="22" height="2" rx="0" ry="0" transform="translate(29 260)" fill="#1d3574"/><rect width="14" height="2" rx="0" ry="0" transform="translate(29 255)" fill="#1d3574"/><rect width="27" height="2" rx="0" ry="0" transform="translate(29 152)" fill="#1d3574"/><rect width="19" height="2" rx="0" ry="0" transform="translate(29 157)" fill="#1d3574"/><rect width="22" height="2" rx="0" ry="0" transform="translate(29 167)" fill="#1d3574"/><rect width="14" height="2" rx="0" ry="0" transform="translate(29 162)" fill="#1d3574"/><rect width="27" height="1" rx="0" ry="0" transform="matrix(1 0 0-1 29 199)" fill="#1d3574"/><rect width="19" height="1" rx="0" ry="0" transform="matrix(1 0 0-1 29 194)" fill="#1d3574"/><rect width="22" height="1" rx="0" ry="0" transform="matrix(1 0 0-1 29 184)" fill="#1d3574"/><rect width="14" height="1" rx="0" ry="0" transform="matrix(1 0 0-1 29 189)" fill="#1d3574"/><circle r="2" transform="translate(31 84)" fill="#ff5652"/><circle r="2" transform="translate(37 84)" fill="#ffbd2f"/><circle r="2" transform="translate(43 84)" fill="#00c83a"/><path d="M154.049,86.5338c.45-.307.919-.5352,1.408-.6846.488-.1493,1.003-.224,1.543-.224.541,0,1.055.0747,1.543.224.489.1494.958.3776,1.408.6846.311-.3416.547-.7288.708-1.1615s.241-.8901.241-1.3721c0-1.0806-.38-2.0008-1.14-2.7605s-1.681-1.1395-2.763-1.1395c-1.081,0-2.001.3798-2.759,1.1395-.759.7597-1.138,1.6799-1.138,2.7605c0,.482.081.9394.242,1.3721.16.4327.396.8199.707,1.1615ZM157,84.7752c-.465,0-.86-.163-1.186-.4888-.326-.3259-.489-.7212-.489-1.1861s.163-.8602.489-1.1862.721-.4889,1.186-.4889.86.1629,1.186.4888c.326.3258.489.7212.489,1.186c0,.4649-.163.8603-.489,1.1862-.325.326-.721.489-1.186.489Zm.004,3.775c-.629,0-1.22-.1178-1.773-.3534-.552-.2356-1.036-.5609-1.451-.976-.416-.415-.741-.8988-.976-1.4514-.236-.5525-.354-1.1442-.354-1.7749c0-.6308.118-1.2206.354-1.7693.235-.5487.56-1.0306.976-1.4457.415-.415.898-.7404,1.451-.9759.552-.2356,1.144-.3534,1.775-.3534s1.22.1178,1.769.3534c.549.2355,1.031.5609,1.446.9759.415.4151.74.8979.976,1.4485.235.5506.353,1.1402.353,1.7687s-.118,1.2193-.353,1.7722c-.236.5529-.561,1.0369-.976,1.4519-.415.4151-.898.7404-1.449.976-.55.2356-1.14.3534-1.768.3534Zm-.004-.65c.443,0,.878-.0768,1.305-.2303.428-.1535.816-.3732,1.166-.6591-.358-.2347-.746-.4159-1.164-.5438-.417-.1279-.853-.1918-1.307-.1918s-.892.061-1.316.1831c-.423.1222-.808.3063-1.155.5525.35.2859.739.5056,1.166.6591s.862.2303,1.305.2303Zm0-3.775c.282,0,.524-.1003.724-.301.201-.2006.301-.442.301-.724c0-.2821-.1-.5234-.301-.7241-.2-.2006-.442-.3009-.724-.3009s-.523.1003-.724.3009c-.201.2007-.301.442-.301.7241c0,.282.1.5234.301.724s.442.301.724.301Z" fill="#9db9ff"/><path d="M165.56,87.5v-5.76h1.748c.061,0,.165.0013.312.004.149.0027.292.0133.428.032.437.0613.803.224,1.096.488s.513.6.66,1.008.22.8573.22,1.348-.073.94-.22,1.348-.367.744-.66,1.008-.659.4267-1.096.488c-.133.016-.276.0267-.428.032-.152.0027-.256.004-.312.004h-1.748Zm.608-.564h1.14c.109,0,.227-.0027.352-.008.128-.008.237-.0213.328-.04.336-.0587.607-.1947.812-.408.208-.2133.36-.48.456-.8.096-.3227.144-.676.144-1.06c0-.3867-.048-.7413-.144-1.064s-.248-.5893-.456-.8-.479-.3453-.812-.404c-.091-.0187-.201-.0307-.332-.036-.128-.008-.244-.012-.348-.012h-1.14v4.632Zm4.767.564v-4.32h.528v1.04l-.104-.136c.048-.128.111-.2453.188-.352.077-.1093.161-.1987.252-.268.112-.0987.243-.1733.392-.224.149-.0533.3-.084.452-.092.152-.0107.291,0,.416.032v.552c-.157-.04-.329-.0493-.516-.028s-.359.096-.516.224c-.144.112-.252.2467-.324.404-.072.1547-.12.32-.144.496-.024.1733-.036.3453-.036.516v2.156h-.588Zm3.955.12c-.326,0-.599-.0587-.82-.176-.219-.1173-.383-.2733-.492-.468-.11-.1947-.164-.4067-.164-.636c0-.2347.046-.4347.14-.6.096-.168.225-.3053.388-.412.165-.1067.356-.188.572-.244.218-.0533.46-.1.724-.14.266-.0427.526-.0787.78-.108.256-.032.48-.0627.672-.092l-.208.128c.008-.4267-.075-.7427-.248-.948-.174-.2053-.475-.308-.904-.308-.296,0-.547.0667-.752.2-.203.1333-.346.344-.428.632l-.572-.168c.098-.3867.297-.6867.596-.9.298-.2133.686-.32,1.164-.32.394,0,.729.0747,1.004.224.277.1467.473.36.588.64.053.1253.088.2653.104.42s.024.312.024.472v2.684h-.524v-1.084l.152.064c-.147.3707-.375.6533-.684.848-.31.1947-.68.292-1.112.292Zm.068-.508c.274,0,.514-.0493.72-.148.205-.0987.37-.2333.496-.404.125-.1733.206-.368.244-.584.032-.1387.049-.2907.052-.456.002-.168.004-.2933.004-.376l.224.116c-.2.0267-.418.0533-.652.08-.232.0267-.462.0573-.688.092-.224.0347-.427.076-.608.124-.123.0347-.242.084-.356.148-.115.0613-.21.144-.284.248-.072.104-.108.2333-.108.388c0,.1253.03.2467.092.364.064.1173.165.2147.304.292.141.0773.328.116.56.116Zm3.569.388v-4.64c0-.112.005-.2227.016-.332.013-.1093.039-.2133.076-.312.037-.1013.096-.1947.176-.28.088-.096.184-.1653.288-.208.104-.0453.212-.0747.324-.088.115-.0133.227-.02.336-.02h.552v.496h-.512c-.224,0-.392.0547-.504.164-.109.1093-.164.2813-.164.516v4.704h-.588Zm-.748-3.816v-.504h2.516v.504h-2.516Zm5.508,3.816c-.243.0507-.483.0707-.72.06-.235-.0107-.445-.0613-.632-.152-.184-.0907-.324-.232-.42-.424-.077-.16-.12-.3213-.128-.484-.005-.1653-.008-.3533-.008-.564v-3.956h.584v3.932c0,.1813.001.3333.004.456.005.12.033.2267.084.32.096.1787.248.2853.456.32.211.0347.471.0267.78-.024v.516Zm-2.832-3.816v-.504h2.832v.504h-2.832Zm5.295,3.932c-.507,0-.924-.1093-1.252-.328-.325-.2187-.525-.5227-.6-.912l.6-.1c.064.2453.209.4413.436.588.229.144.512.216.848.216.328,0,.587-.068.776-.204.189-.1387.284-.3267.284-.564c0-.1333-.031-.2413-.092-.324-.059-.0853-.18-.164-.364-.236s-.459-.1573-.824-.256c-.392-.1067-.699-.2133-.92-.32s-.379-.2293-.472-.368c-.093-.1413-.14-.3133-.14-.516c0-.2453.069-.46.208-.644.139-.1867.331-.3307.576-.432.245-.104.531-.156.856-.156s.616.0533.872.16c.259.104.467.2507.624.44s.251.4093.28.66l-.6.108c-.04-.2533-.167-.4533-.38-.6-.211-.1493-.479-.2267-.804-.232-.307-.008-.556.0507-.748.176-.192.1227-.288.2867-.288.492c0,.1147.035.2133.104.296.069.08.195.156.376.228.184.072.445.1507.784.236.397.1013.709.208.936.32s.388.244.484.396.144.34.144.564c0,.408-.152.7293-.456.964-.301.232-.717.348-1.248.348Zm5.649-5.876h.604l-1.536,5.76h-.604l1.536-5.76Zm3.863,7.68l.836-2.268.012.672-1.892-4.644h.624l1.552,3.884h-.256l1.432-3.884h.6l-2.32,6.24h-.588Zm5.25-1.8c-.429,0-.796-.0973-1.1-.292s-.537-.464-.7-.808c-.162-.344-.244-.7387-.244-1.184c0-.4533.083-.8507.248-1.192.166-.3413.4-.6067.704-.796.307-.192.671-.288,1.092-.288.432,0,.8.0973,1.104.292.307.192.54.46.7.804.163.3413.244.7347.244,1.18c0,.4533-.081.852-.244,1.196-.162.3413-.397.608-.704.8-.306.192-.673.288-1.1.288Zm0-.564c.48,0,.838-.1587,1.072-.476.235-.32.352-.7347.352-1.244c0-.5227-.118-.9387-.356-1.248-.234-.3093-.59-.464-1.068-.464-.322,0-.589.0733-.8.22-.208.144-.364.3453-.468.604-.101.256-.152.552-.152.888c0,.52.12.9373.36,1.252.24.312.594.468,1.06.468Zm4.583.552c-.259,0-.486-.04-.68-.12-.192-.08-.356-.188-.492-.324-.134-.136-.242-.2907-.324-.464-.083-.176-.143-.3613-.18-.556-.038-.1973-.056-.3933-.056-.588v-2.376h.592v2.204c0,.2373.022.4573.068.66.045.2027.117.38.216.532.101.1493.23.2653.388.348.16.0827.353.124.58.124.208,0,.39-.036.548-.108.16-.072.293-.1747.4-.308.109-.136.192-.3.248-.492.056-.1947.084-.4133.084-.656l.416.092c0,.4427-.078.8147-.232,1.116-.155.3013-.368.5293-.64.684s-.584.232-.936.232Zm1.452-.108v-1.064h-.06v-3.256h.588v4.32h-.528Zm1.646,0v-4.32h.528v1.04l-.104-.136c.048-.128.11-.2453.188-.352.077-.1093.161-.1987.252-.268.112-.0987.242-.1733.392-.224.149-.0533.3-.084.452-.092.152-.0107.29,0,.416.032v.552c-.158-.04-.33-.0493-.516-.028-.187.0213-.359.096-.516.224-.144.112-.252.2467-.324.404-.072.1547-.12.32-.144.496-.024.1733-.036.3453-.036.516v2.156h-.588Zm6.16.12c-.402,0-.746-.1-1.032-.3-.285-.2027-.504-.476-.656-.82s-.228-.732-.228-1.164c0-.4293.075-.816.224-1.16.152-.344.37-.616.652-.816.283-.2.622-.3,1.016-.3.406,0,.747.0987,1.024.296.278.1973.487.468.628.812.144.3413.216.7307.216,1.168c0,.4293-.07.8173-.212,1.164-.141.344-.349.6173-.624.82-.274.2-.61.3-1.008.3Zm.06-.548c.307,0,.56-.0747.76-.224s.35-.3547.448-.616c.099-.264.148-.5627.148-.896c0-.3387-.049-.6373-.148-.896-.098-.2613-.248-.4653-.448-.612-.197-.1467-.446-.22-.748-.22-.309,0-.565.076-.768.228-.202.152-.353.3587-.452.62-.096.2613-.144.5547-.144.88c0,.328.05.624.148.888.102.2613.252.468.452.62s.451.228.752.228Zm1.356.428v-3.252h-.064v-2.508h.592v5.76h-.528Zm3.478.12c-.421,0-.786-.0933-1.096-.28-.306-.1867-.545-.4493-.716-.788-.17-.3387-.256-.736-.256-1.192c0-.472.084-.88.252-1.224s.404-.6093.708-.796c.307-.1867.668-.28,1.084-.28.427,0,.791.0987,1.092.296.302.1947.53.4747.684.84.155.3653.226.8013.212,1.308h-.6v-.208c-.01-.56-.132-.9827-.364-1.268-.229-.2853-.565-.428-1.008-.428-.464,0-.82.1507-1.068.452-.245.3013-.368.7307-.368,1.288c0,.544.123.9667.368,1.268.248.2987.599.448,1.052.448.31,0,.579-.0707.808-.212.232-.144.415-.3507.548-.62l.548.212c-.17.376-.422.668-.756.876-.33.2053-.705.308-1.124.308Zm-1.652-2.116v-.492h3.3v.492h-3.3Zm6.116,2.112c-.507,0-.924-.1093-1.252-.328-.325-.2187-.525-.5227-.6-.912l.6-.1c.064.2453.209.4413.436.588.229.144.512.216.848.216.328,0,.587-.068.776-.204.189-.1387.284-.3267.284-.564c0-.1333-.031-.2413-.092-.324-.059-.0853-.18-.164-.364-.236s-.459-.1573-.824-.256c-.392-.1067-.699-.2133-.92-.32s-.379-.2293-.472-.368c-.093-.1413-.14-.3133-.14-.516c0-.2453.069-.46.208-.644.139-.1867.331-.3307.576-.432.245-.104.531-.156.856-.156s.616.0533.872.16c.259.104.467.2507.624.44s.251.4093.28.66l-.6.108c-.04-.2533-.167-.4533-.38-.6-.211-.1493-.479-.2267-.804-.232-.307-.008-.556.0507-.748.176-.192.1227-.288.2867-.288.492c0,.1147.035.2133.104.296.069.08.195.156.376.228.184.072.445.1507.784.236.397.1013.709.208.936.32s.388.244.484.396.144.34.144.564c0,.408-.152.7293-.456.964-.301.232-.717.348-1.248.348Zm2.671-5.256v-.66h.588v.66h-.588Zm0,5.14v-4.32h.588v4.32h-.588Zm3.503,2.04c-.221,0-.44-.0333-.656-.1-.213-.064-.41-.1667-.592-.308-.181-.1387-.333-.32-.456-.544l.532-.296c.12.24.288.412.504.516.219.1067.442.16.668.16.312,0,.564-.0587.756-.176.195-.1147.336-.2853.424-.512s.131-.5093.128-.848v-1.152h.068v-3.1h.524v4.26c0,.1227-.004.24-.012.352-.005.1147-.017.2267-.036.336-.05.3227-.156.588-.316.796-.157.208-.365.3627-.624.464-.256.1013-.56.152-.912.152Zm-.04-1.92c-.402,0-.746-.1-1.032-.3-.285-.2027-.504-.476-.656-.82s-.228-.732-.228-1.164c0-.4293.075-.816.224-1.16.152-.344.37-.616.652-.816.283-.2.622-.3,1.016-.3.406,0,.747.0987,1.024.296.278.1973.487.468.628.812.144.3413.216.7307.216,1.168c0,.4293-.07.8173-.212,1.164-.141.344-.349.6173-.624.82-.274.2-.61.3-1.008.3Zm.06-.548c.307,0,.56-.0747.76-.224s.35-.3547.448-.616c.099-.264.148-.5627.148-.896c0-.3387-.049-.6373-.148-.896-.098-.2613-.248-.4653-.448-.612-.197-.1467-.446-.22-.748-.22-.309,0-.565.076-.768.228-.202.152-.353.3587-.452.62-.096.2613-.144.5547-.144.88c0,.328.05.624.148.888.102.2613.252.468.452.62s.451.228.752.228Zm6.119.428v-2.204c0-.24-.023-.46-.068-.66-.046-.2027-.119-.3787-.22-.528-.099-.152-.228-.2693-.388-.352-.158-.0827-.35-.124-.576-.124-.208,0-.392.036-.552.108-.158.072-.291.176-.4.312-.107.1333-.188.296-.244.488s-.084.4107-.084.656l-.416-.092c0-.4427.077-.8147.232-1.116.154-.3013.368-.5293.64-.684s.584-.232.936-.232c.258,0,.484.04.676.12.194.08.358.188.492.324.136.136.245.292.328.468.082.1733.142.3587.18.556.037.1947.056.3893.056.584v2.376h-.592Zm-3.124,0v-4.32h.532v1.064h.06v3.256h-.592Z" fill="#9db9ff"/><rect width="238" height="177" rx="0" ry="0" transform="translate(65 94)" fill="#061c53"/><rect id="eSofHXxMQN383" width="6" height="6" rx="0" ry="0" transform="translate(312.314065 144)" opacity="0" fill="#6e8ddc"/><rect id="eSofHXxMQN384" width="6" height="6" rx="0" ry="0" transform="translate(320 144)" opacity="0" fill="#4e6dbb"/><rect id="eSofHXxMQN385" width="6" height="6" rx="0" ry="0" transform="translate(328 144)" opacity="0" fill="#3c59a3"/><rect id="eSofHXxMQN386" width="6" height="6" rx="0" ry="0" transform="translate(336 144)" opacity="0" fill="#2a468c"/><rect id="eSofHXxMQN387" width="6" height="6" rx="0" ry="0" transform="translate(344 144)" opacity="0" fill="#1d3574"/><rect id="eSofHXxMQN388" width="6" height="6" rx="0" ry="0" transform="translate(352 144)" opacity="0" fill="#11275f"/><path d="M58.1576,80.1617l7.7711,4.5781-4.0805.6354-2.2347,3.6876-1.4559-8.9011Z" fill="#32509f"/><rect width="7" height="7" rx="0" ry="0" transform="translate(73.5 80.5)" fill="none" stroke="#32509f"/><path d="M83,83l2,2l2-2" fill="none" stroke="#32509f"/><path d="M96.5966,89c-.5523,0-1.0685-.137-1.5487-.4109s-.8931-.6492-1.2386-1.1259L92,85.158l.401-.4696c.1825-.2135.4075-.3433.6748-.3896.2673-.0462.5151.0054.7433.1548l.5574.2454v-4.0875c0-.1352.0461-.2561.1382-.3628s.2046-.1601.3374-.1601c.1263,0,.2384.0533.3362.1601s.1467.2276.1467.3628v5.8805l-1.9658-1.1846l1.2225,1.5901c.2477.3416.5477.6048.8997.7898.3521.185.727.2739,1.1247.2668.6716,0,1.2437-.2579,1.7164-.7737.4727-.5159.7091-1.1488.7091-1.8988v-4.1578c0-.1352.046-.2561.1382-.3629.0921-.1067.2046-.16.3374-.16.1263,0,.2383.0533.3361.16s.1467.2277.1467.3629v4.2689c0,1.0175-.3341,1.873-1.0024,2.5667s-1.4687,1.0406-2.401,1.0406Zm-.6651-4.8239v-4.6532c0-.1351.0461-.2561.1383-.3628.0921-.1067.2046-.1601.3374-.1601.1262,0,.2383.0534.3361.1601s.1467.2277.1467.3628v4.6532h-.9585Zm1.5551,0v-4.0768c0-.1352.046-.2562.1382-.3629s.2046-.1601.3374-.1601c.1263,0,.2383.0534.3361.1601s.1467.2277.1467.3629v4.0768h-.9584Z" fill="#32509f"/><rect width="27" height="2" rx="0" ry="0" transform="translate(312 107)" fill="#1d3574"/><rect width="19" height="2" rx="0" ry="0" transform="translate(312 112)" fill="#1d3574"/><rect width="22" height="2" rx="0" ry="0" transform="translate(312 122)" fill="#1d3574"/><rect width="14" height="2" rx="0" ry="0" transform="translate(312 117)" fill="#1d3574"/><rect width="27" height="1" rx="0" ry="0" transform="matrix(1 0 0-1 312 178)" fill="#1d3574"/><rect width="19" height="1" rx="0" ry="0" transform="matrix(1 0 0-1 312 173)" fill="#1d3574"/><rect width="22" height="1" rx="0" ry="0" transform="matrix(1 0 0-1 312 163)" fill="#1d3574"/><rect width="14" height="1" rx="0" ry="0" transform="matrix(1 0 0-1 312 168)" fill="#1d3574"/><rect id="eSofHXxMQN3101" width="6" height="6" rx="0" ry="0" transform="translate(312 136)" opacity="0" fill="#5648ff"/><rect id="eSofHXxMQN3102" width="6" height="6" rx="0" ry="0" transform="translate(320 136)" opacity="0" fill="#36b7ff"/><rect id="eSofHXxMQN3103" width="6" height="6" rx="0" ry="0" transform="translate(328 136)" opacity="0" fill="#cdd940"/><rect id="eSofHXxMQN3104" width="6" height="6" rx="0" ry="0" transform="translate(336 136)" opacity="0" fill="#ff368b"/><rect id="eSofHXxMQN3105" width="6" height="6" rx="0" ry="0" transform="translate(344 136)" opacity="0" fill="#b336ff"/><rect id="eSofHXxMQN3106" width="6" height="6" rx="0" ry="0" transform="translate(352 136)" opacity="0" fill="#3dcc65"/><g id="eSofHXxMQN3107_ts" transform="translate(157,145) scale(0.207855,0.207399)"><g transform="translate(-156.999987,-144.999987)"><path d="M234.994,221.103l14.752,8.691L242,231l-4.242,7-2.764-16.897Z" fill="#b336ff"/><rect width="78" height="75" rx="0" ry="0" transform="translate(154.500002 141.500005)" fill="none" stroke="#0a67b9"/></g></g><rect id="eSofHXxMQN3110" width="30" height="29" rx="0" ry="0" transform="translate(159 184)" opacity="0" fill="#cdd940"/><g id="eSofHXxMQN3111" opacity="0"><rect width="30" height="2" rx="0" ry="0" transform="translate(199 197)" fill="#385297"/><rect width="30" height="2" rx="0" ry="0" transform="matrix(0 1-1 0 215 183)" fill="#385297"/></g><rect id="eSofHXxMQN3114" width="30" height="30" rx="15" ry="15" transform="translate(199 145)" opacity="0" fill="#ff368b"/><path id="eSofHXxMQN3115" d="M173.5,146L189,173h-31l15.5-27Z" transform="translate(.000004 0.000004)" opacity="0" fill="#3dcc65"/><g transform="matrix(.962608 0 0 1.05916 4.224816-23.489211)"><path d="M169,293h350l-5,195-345,5v-200Z" transform="translate(.662816 5.124001)" fill="#0b2158"/><g transform="translate(.556814 0.257919)"><path d="M190.564,324v-5.104l-1.084.652v-.66l1.084-.648h.596v5.76h-.596Z" fill="#37539c"/><path d="M189.4,339.996l.004-.536l2.604-2.352c.224-.203.372-.395.444-.576.075-.184.112-.376.112-.576c0-.237-.056-.452-.168-.644s-.263-.344-.452-.456c-.189-.115-.401-.172-.636-.172-.245,0-.464.059-.656.176s-.344.272-.456.464c-.109.192-.163.401-.16.628h-.6c0-.349.083-.663.248-.94s.389-.495.672-.652c.283-.16.603-.24.96-.24.349,0,.663.083.94.248.28.163.5.384.66.664.163.277.244.587.244.928c0,.24-.029.452-.088.636-.056.181-.145.351-.268.508-.12.155-.273.315-.46.48l-2.312,2.088-.092-.24h3.22v.564h-3.76Z" fill="#37539c"/><path d="M191.108,356.116c-.285,0-.548-.051-.788-.152s-.447-.245-.62-.432c-.173-.189-.3-.415-.38-.676l.56-.168c.096.285.253.501.472.648.221.147.471.217.748.212.256-.005.476-.063.66-.172.187-.109.329-.261.428-.456s.148-.42.148-.676c0-.392-.115-.707-.344-.944-.227-.24-.527-.36-.9-.36-.104,0-.213.015-.328.044-.115.027-.221.065-.32.116l-.296-.468l2.24-2.068.096.24h-2.936v-.564h3.328v.572l-1.952,1.864-.008-.232c.4-.051.752-.005,1.056.136s.541.357.712.648c.173.288.26.627.26,1.016c0,.368-.08.693-.24.976-.157.28-.375.5-.652.66-.277.157-.592.236-.944.236Z" fill="#37539c"/><path d="M192.096,372v-1.116h-2.696v-.56l1.928-4.084h.66l-1.928,4.084h2.036v-1.68h.592v1.68h.628v.56h-.628v1.116h-.592Z" fill="#37539c"/><path d="M191.26,388.12c-.299,0-.575-.061-.828-.184s-.469-.292-.648-.508-.307-.464-.384-.744l.564-.152c.051.208.143.388.276.54.133.149.289.265.468.348.181.083.371.124.568.124.256,0,.485-.061.688-.184.205-.125.368-.291.488-.496s.18-.431.18-.676c0-.253-.063-.481-.188-.684-.125-.205-.291-.368-.496-.488s-.429-.18-.672-.18c-.272,0-.507.06-.704.18-.197.117-.355.265-.472.444l-.536-.224.176-2.996h3.076v.564h-2.816l.292-.276-.156,2.556-.148-.196c.165-.189.365-.337.6-.444s.481-.16.74-.16c.355,0,.675.085.96.256.285.168.512.396.68.684s.252.609.252.964c0,.352-.089.675-.268.968-.179.291-.416.524-.712.7s-.623.264-.98.264Z" fill="#37539c"/><path d="M191.508,404.12c-.36,0-.688-.087-.984-.26-.293-.176-.528-.413-.704-.712-.173-.301-.26-.64-.26-1.016v-1.996c0-.387.087-.731.26-1.032.173-.304.409-.543.708-.716.301-.176.643-.264,1.024-.264.328,0,.632.072.912.216.283.144.513.345.692.604l-.452.372c-.123-.192-.285-.345-.488-.46s-.424-.172-.664-.172c-.269,0-.509.065-.72.196s-.376.303-.496.516c-.12.211-.18.44-.18.688v1.256l-.148-.168c.168-.264.388-.477.66-.64.275-.163.573-.244.896-.244.357,0,.679.085.964.256.285.168.512.396.68.684s.252.611.252.968c0,.355-.089.677-.268.968-.176.291-.412.523-.708.696-.293.173-.619.26-.976.26Zm0-.572c.251,0,.479-.06.684-.18.208-.12.372-.283.492-.488.123-.205.184-.433.184-.684s-.061-.479-.184-.684c-.12-.208-.283-.372-.488-.492-.205-.123-.433-.184-.684-.184s-.479.061-.684.184c-.205.12-.369.284-.492.492-.12.205-.18.433-.18.684c0,.248.06.475.18.68s.283.369.488.492c.205.12.433.18.684.18Z" fill="#37539c"/><path d="M189.868,420l2.12-5.188h-2.668v-.572h3.296v.572L190.5,420h-.632Z" fill="#37539c"/><path d="M191.316,436.12c-.36,0-.679-.072-.956-.216-.275-.144-.491-.345-.648-.604-.155-.261-.232-.567-.232-.916c0-.357.087-.675.26-.952.173-.28.437-.492.792-.636l-.008.232c-.296-.109-.521-.288-.676-.536s-.232-.523-.232-.824c0-.32.073-.595.22-.824.147-.232.347-.411.6-.536.256-.125.549-.188.88-.188s.624.063.88.188.457.304.604.536c.147.229.22.504.22.824c0,.301-.075.575-.224.82-.147.245-.372.425-.676.54l-.02-.232c.355.141.62.352.796.632.179.28.268.599.268.956c0,.349-.079.655-.236.916-.157.259-.375.46-.652.604s-.597.216-.96.216Zm0-.564c.363,0,.657-.1.884-.3.227-.203.34-.493.34-.872c0-.384-.112-.675-.336-.872-.224-.2-.52-.3-.888-.3s-.663.1-.884.3c-.221.197-.332.488-.332.872c0,.379.112.669.336.872.224.2.517.3.88.3Zm0-2.912c.32,0,.58-.081.78-.244.2-.165.3-.409.3-.732s-.1-.564-.3-.724c-.2-.163-.46-.244-.78-.244s-.58.081-.78.244c-.197.16-.296.401-.296.724s.099.567.296.732c.2.163.46.244.78.244Z" fill="#37539c"/><path d="M191.456,446.124c.363,0,.691.088.984.264.296.173.531.411.704.712.173.299.26.635.26,1.008v2c0,.384-.087.728-.26,1.032s-.411.544-.712.72c-.299.173-.639.26-1.02.26-.328,0-.632-.072-.912-.216-.277-.147-.507-.348-.688-.604l.448-.372c.123.189.285.341.488.456.205.115.427.172.664.172.272,0,.512-.064.72-.192.211-.131.376-.301.496-.512.123-.213.184-.444.184-.692v-1.256l.144.168c-.165.264-.385.477-.66.64-.272.163-.571.244-.896.244-.355,0-.676-.085-.964-.256-.285-.171-.512-.4-.68-.688-.165-.288-.248-.609-.248-.964s.088-.677.264-.968c.176-.293.412-.525.708-.696.296-.173.621-.26.976-.26Zm0,.568c-.251,0-.479.061-.684.184-.205.12-.369.283-.492.488-.12.205-.18.433-.18.684s.06.479.18.684.283.369.488.492c.205.12.433.18.684.18s.479-.06.684-.18c.208-.123.372-.287.492-.492.123-.205.184-.433.184-.684c0-.248-.061-.475-.184-.68-.12-.205-.283-.369-.488-.492s-.433-.184-.684-.184Z" fill="#37539c"/><path d="M190.564,468v-5.104l-1.084.652v-.66l1.084-.648h.596v5.76h-.596Zm3.993.12c-.354,0-.674-.083-.96-.248-.282-.165-.506-.389-.672-.672-.165-.285-.248-.605-.248-.96v-2.24c0-.355.083-.673.248-.956.166-.285.39-.511.672-.676.286-.165.606-.248.96-.248.355,0,.674.083.956.248.286.165.511.391.676.676.166.283.248.601.248.956v2.24c0,.355-.082.675-.248.96-.165.283-.39.507-.676.672-.282.165-.601.248-.956.248Zm0-.568c.238,0,.454-.057.648-.172.195-.117.35-.273.464-.468.115-.195.172-.409.172-.644v-2.296c0-.237-.057-.453-.172-.648-.114-.195-.269-.349-.464-.464-.194-.117-.41-.176-.648-.176-.237,0-.453.059-.648.176-.194.115-.349.269-.464.464-.114.195-.172.411-.172.648v2.296c0,.235.058.449.172.644.115.195.27.351.464.468.195.115.411.172.648.172Z" fill="#37539c"/><rect id="eSofHXxMQN3129" width="1" height="136" rx="0" ry="0" transform="translate(205 324)" opacity="0" fill="#1d3574"/><rect id="eSofHXxMQN3130" width="1" height="104" rx="0" ry="0" transform="translate(216 340)" opacity="0" fill="#1d3574"/><rect id="eSofHXxMQN3131" width="1" height="72" rx="0" ry="0" transform="translate(227 356)" opacity="0" fill="#1d3574"/><rect id="eSofHXxMQN3132" width="1" height="40" rx="0" ry="0" transform="translate(238 372)" opacity="0" fill="#1d3574"/><rect id="eSofHXxMQN3133" width="1" height="8" rx="0" ry="0" transform="translate(249 388)" opacity="0" fill="#1d3574"/><rect id="eSofHXxMQN3134" width="30" height="2" rx="0" ry="0" transform="translate(205.662809 320.078514)" opacity="0" fill="#5648ff"/><g id="eSofHXxMQN3135" opacity="0"><rect width="30" height="2" rx="0" ry="0" transform="matrix(1 0 0-.199157 216 336.199157)" fill="#36b7ff"/><rect width="30" height="2" rx="0" ry="0" transform="matrix(1 0 0-.199156 249 336.199156)" fill="#5648ff"/></g><g id="eSofHXxMQN3138" opacity="0"><rect width="30" height="2" rx="0" ry="0" transform="translate(227 351)" fill="#36b7ff"/><rect width="30" height="2" rx="0" ry="0" transform="translate(260 351)" fill="#36b7ff"/></g><rect id="eSofHXxMQN3141" width="30" height="2" rx="0" ry="0" transform="translate(293 351)" opacity="0" fill="#32509f"/><rect id="eSofHXxMQN3142" width="30" height="2" rx="0" ry="0" transform="translate(326 351)" opacity="0" fill="#32509f"/><g id="eSofHXxMQN3143" opacity="0"><rect width="30" height="2" rx="0" ry="0" transform="translate(238.5 367.12)" fill="#32509f"/><rect width="30" height="2" rx="0" ry="0" transform="translate(271.5 367)" fill="#32509f"/><rect width="30" height="2" rx="0" ry="0" transform="translate(304.5 367)" fill="#32509f"/><rect width="30" height="2" rx="0" ry="0" transform="translate(337 367)" fill="#32509f"/><rect width="30" height="2" rx="0" ry="0" transform="translate(370 367)" fill="#32509f"/><rect width="30" height="2" rx="0" ry="0" transform="translate(403 367)" fill="#32509f"/><rect width="30" height="2" rx="0" ry="0" transform="translate(436 367)" fill="#32509f"/></g><g id="eSofHXxMQN3151" opacity="0"><rect width="30" height="2" rx="0" ry="0" transform="translate(249 382.240001)" fill="#5648ff"/><rect width="30" height="2" rx="0" ry="0" transform="translate(282 383)" fill="#32509f"/><rect width="30" height="2" rx="0" ry="0" transform="translate(315 383)" fill="#36b7ff"/><rect width="30" height="2" rx="0" ry="0" transform="translate(348 383)" fill="#32509f"/><rect width="30" height="2" rx="0" ry="0" transform="translate(381 383)" fill="#5648ff"/><rect width="30" height="2" rx="0" ry="0" transform="translate(414 383)" fill="#32509f"/></g><g id="eSofHXxMQN3158" opacity="0"><rect width="30" height="2" rx="0" ry="0" transform="translate(249 399)" fill="#5648ff"/><rect width="30" height="2" rx="0" ry="0" transform="translate(282 399)" fill="#36b7ff"/></g><g opacity="0"><rect width="30" height="2" rx="0" ry="0" transform="translate(315 399)" fill="#5648ff"/><rect width="30" height="2" rx="0" ry="0" transform="translate(348 399)" fill="#32509f"/></g><g id="eSofHXxMQN3164" opacity="0"><rect width="30" height="2" rx="0" ry="0" transform="translate(238 415)" fill="#32509f"/><rect width="30" height="2" rx="0" ry="0" transform="translate(271 415)" fill="#32509f"/><rect width="30" height="2" rx="0" ry="0" transform="translate(304 415)" fill="#36b7ff"/></g><rect id="eSofHXxMQN3168" width="30" height="2" rx="0" ry="0" transform="translate(337 415)" opacity="0" fill="#32509f"/><rect id="eSofHXxMQN3169" width="30" height="2" rx="0" ry="0" transform="translate(370 415)" opacity="0" fill="#32509f"/><g id="eSofHXxMQN3170" opacity="0"><rect width="30" height="2" rx="0" ry="0" transform="translate(227 431)" fill="#36b7ff"/><rect width="30" height="2" rx="0" ry="0" transform="translate(260 431)" fill="#5648ff"/><rect width="30" height="2" rx="0" ry="0" transform="translate(293 431)" fill="#32509f"/></g><g id="eSofHXxMQN3174" opacity="0"><rect width="30" height="2" rx="0" ry="0" transform="translate(216 447)" fill="#36b7ff"/><rect width="30" height="2" rx="0" ry="0" transform="translate(249 447)" fill="#5648ff"/></g><rect id="eSofHXxMQN3177" width="30" height="2" rx="0" ry="0" transform="translate(205 463)" opacity="0" fill="#5648ff"/><g clip-path="url(#eSofHXxMQN3181)"><g><g id="eSofHXxMQN3180_tr" transform="translate(484.945999,326.500504) rotate(0)"><g id="eSofHXxMQN3180_ts" transform="scale(0,0)"><path d="M472.982,326.5c0,4.584,2.752,8.546,6.743,10.423l-5.707-15.136c-.664,1.44-1.036,3.034-1.036,4.713Zm20.04-.584c0-1.432-.531-2.423-.986-3.194-.607-.954-1.175-1.762-1.175-2.716c0-1.065.834-2.056,2.009-2.056.053,0,.103.006.155.009-2.129-1.887-4.965-3.04-8.079-3.04-4.18,0-7.857,2.076-9.996,5.22.281.008.545.014.77.014c1.251,0,3.188-.147,3.188-.147.645-.037.721.88.077.954c0,0-.648.074-1.369.111l4.356,12.544l2.618-7.601-1.863-4.944c-.645-.037-1.255-.11-1.255-.11-.645-.037-.569-.991.076-.954c0,0,1.975.147,3.151.147c1.251,0,3.188-.147,3.188-.147.646-.037.721.88.077.954c0,0-.65.073-1.369.11l4.323,12.45l1.193-3.86c.518-1.602.911-2.753.911-3.744Zm-7.866,1.597l-3.59,10.097c1.072.305,2.205.472,3.38.472c1.393,0,2.729-.233,3.973-.656-.032-.05-.062-.103-.086-.16l-3.677-9.753Zm10.287-6.569c.052.368.081.764.081,1.19c0,1.176-.227,2.497-.91,4.149l-3.654,10.228c3.557-2.008,5.949-5.738,5.949-10.011c0-2.013-.531-3.907-1.466-5.556ZM484.946,313c-7.69,0-13.946,6.056-13.946,13.5c0,7.445,6.256,13.501,13.946,13.501c7.689,0,13.946-6.056,13.946-13.501c0-7.444-6.257-13.5-13.946-13.5Zm0,26.382c-7.337,0-13.307-5.779-13.307-12.882s5.97-12.881,13.307-12.881s13.306,5.778,13.306,12.881-5.969,12.882-13.306,12.882Z" transform="translate(-484.945999,-326.500504)" fill="#32509f"/></g></g></g><clipPath id="eSofHXxMQN3181"><rect width="28" height="27" rx="0" ry="0" transform="translate(471 313)" fill="#fff"/></clipPath></g></g></g></svg>
