<svg width="20" height="20" viewBox="0 0 20 20" fill="none" xmlns="http://www.w3.org/2000/svg">
<path d="M18.2333 19.75L11.4083 12.925C10.8667 13.3583 10.2437 13.7014 9.53958 13.9542C8.83542 14.2069 8.08611 14.3333 7.29167 14.3333C5.32361 14.3333 3.65799 13.6517 2.29479 12.2885C0.931597 10.9253 0.25 9.25972 0.25 7.29167C0.25 5.32361 0.931597 3.65799 2.29479 2.29479C3.65799 0.931597 5.32361 0.25 7.29167 0.25C9.25972 0.25 10.9253 0.931597 12.2885 2.29479C13.6517 3.65799 14.3333 5.32361 14.3333 7.29167C14.3333 8.08611 14.2069 8.83542 13.9542 9.53958C13.7014 10.2437 13.3583 10.8667 12.925 11.4083L19.75 18.2333L18.2333 19.75ZM7.29167 12.1667C8.64583 12.1667 9.79688 11.6927 10.7448 10.7448C11.6927 9.79688 12.1667 8.64583 12.1667 7.29167C12.1667 5.9375 11.6927 4.78646 10.7448 3.83854C9.79688 2.89062 8.64583 2.41667 7.29167 2.41667C5.9375 2.41667 4.78646 2.89062 3.83854 3.83854C2.89062 4.78646 2.41667 5.9375 2.41667 7.29167C2.41667 8.64583 2.89062 9.79688 3.83854 10.7448C4.78646 11.6927 5.9375 12.1667 7.29167 12.1667Z" fill="#5648FF"/>
</svg>
