<svg width="500" height="449" viewBox="0 0 500 449" fill="none" xmlns="http://www.w3.org/2000/svg">
<g opacity="0.3" clip-path="url(#clip0_872_11416)">
<g opacity="0.9">
<path d="M499.107 260.997C502.108 302.502 431.551 341.423 341.513 347.928C251.476 354.434 176.053 326.061 173.053 284.556C170.052 243.051 240.609 204.131 330.646 197.625C420.684 191.12 496.106 219.492 499.107 260.997Z" stroke="#36B7FF" stroke-width="0.8" stroke-miterlimit="10"/>
<path opacity="0.5" d="M493.115 269.601C494.292 310.109 423.861 345.021 335.802 347.579C247.743 350.136 175.403 319.371 174.226 278.863C173.048 238.355 243.48 203.443 331.538 200.885C419.597 198.327 491.937 229.092 493.115 269.601Z" stroke="#36B7FF" stroke-width="0.8" stroke-miterlimit="10"/>
<path opacity="0.5" d="M332.456 203.903C418.484 205.294 487.704 238.584 487.062 278.258C486.42 317.932 416.16 348.966 330.131 347.575C244.103 346.183 174.884 312.894 175.526 273.22C176.168 233.546 246.428 202.512 332.456 203.903Z" stroke="#36B7FF" stroke-width="0.8" stroke-miterlimit="10"/>
<path opacity="0.5" d="M333.335 207.103C417.388 212.443 483.53 248.188 481.066 286.941C478.602 325.695 408.466 352.781 324.413 347.441C240.359 342.101 174.218 306.356 176.682 267.602C179.146 228.849 249.282 201.763 333.335 207.103Z" stroke="#36B7FF" stroke-width="0.8" stroke-miterlimit="10"/>
<path opacity="0.5" d="M334.206 210.25C416.326 219.545 479.431 257.675 475.157 295.416C470.882 333.157 400.846 356.217 318.726 346.922C236.606 337.627 173.5 299.497 177.775 261.756C182.05 224.015 252.086 200.955 334.206 210.25Z" stroke="#36B7FF" stroke-width="0.8" stroke-miterlimit="10"/>
<path opacity="0.5" d="M335.335 213.365C415.444 226.612 475.438 267.246 469.335 304.125C463.233 341.003 393.345 360.16 313.237 346.913C233.128 333.667 173.134 293.032 179.237 256.153C185.339 219.275 255.227 200.118 335.335 213.365Z" stroke="#36B7FF" stroke-width="0.8" stroke-miterlimit="10"/>
<path opacity="0.5" d="M336.196 216.639C414.31 233.838 471.22 276.895 463.308 312.809C455.395 348.723 385.656 363.894 307.541 346.695C229.426 329.495 172.516 286.438 180.429 250.524C188.342 214.61 258.081 199.439 336.196 216.639Z" stroke="#36B7FF" stroke-width="0.8" stroke-miterlimit="10"/>
<path opacity="0.5" d="M337.051 219.871C413.185 241.025 467.023 286.52 457.302 321.486C447.58 356.452 377.98 367.648 301.845 346.494C225.711 325.34 171.873 279.845 181.595 244.879C191.317 209.913 260.917 198.717 337.051 219.871Z" stroke="#36B7FF" stroke-width="0.8" stroke-miterlimit="10"/>
<path opacity="0.5" d="M337.975 222.893C412.011 247.97 462.648 295.976 451.077 330.118C439.505 364.259 370.106 371.608 296.07 346.531C222.034 321.454 171.396 273.448 182.968 239.306C194.54 205.164 263.939 197.816 337.975 222.893Z" stroke="#36B7FF" stroke-width="0.8" stroke-miterlimit="10"/>
<path opacity="0.5" d="M338.92 225.884C410.975 254.914 458.533 305.37 445.144 338.581C431.755 371.791 362.489 375.18 290.434 346.15C218.379 317.12 170.821 266.664 184.21 233.454C197.599 200.243 266.865 196.854 338.92 225.884Z" stroke="#36B7FF" stroke-width="0.8" stroke-miterlimit="10"/>
<path opacity="0.5" d="M339.988 229.162C410.053 262.143 454.524 315.051 439.317 347.336C424.109 379.621 354.983 379.057 284.918 346.076C214.853 313.095 170.382 260.187 185.59 227.902C200.797 195.617 269.923 196.181 339.988 229.162Z" stroke="#36B7FF" stroke-width="0.8" stroke-miterlimit="10"/>
<path opacity="0.5" d="M340.865 232.342C408.932 269.271 450.307 324.634 433.28 355.998C416.252 387.362 347.269 382.851 279.203 345.922C211.136 308.992 169.761 253.629 186.788 222.265C203.816 190.901 272.799 195.412 340.865 232.342Z" stroke="#36B7FF" stroke-width="0.8" stroke-miterlimit="10"/>
<path opacity="0.5" d="M341.745 235.517C407.803 276.391 446.071 334.207 427.22 364.653C408.368 395.1 339.536 386.647 273.479 345.774C207.421 304.9 169.153 247.084 188.004 216.637C206.856 186.191 275.688 194.644 341.745 235.517Z" stroke="#36B7FF" stroke-width="0.8" stroke-miterlimit="10"/>
<path opacity="0.5" d="M342.623 238.663C406.669 283.472 441.826 343.739 421.149 373.274C400.472 402.808 331.79 390.426 267.744 345.617C203.699 300.809 168.541 240.541 189.218 211.007C209.896 181.472 278.577 193.854 342.623 238.663Z" stroke="#36B7FF" stroke-width="0.8" stroke-miterlimit="10"/>
<path opacity="0.5" d="M343.511 241.806C405.636 290.624 437.81 353.327 415.375 381.859C392.94 410.391 324.391 393.946 262.267 345.129C200.143 296.311 167.968 233.607 190.403 205.076C212.838 176.544 281.387 192.989 343.511 241.806Z" stroke="#36B7FF" stroke-width="0.8" stroke-miterlimit="10"/>
<path opacity="0.5" d="M344.565 245.058C404.675 297.807 433.73 362.973 409.462 390.609C385.194 418.245 316.792 397.886 256.682 345.137C196.572 292.387 167.517 227.221 191.785 199.585C216.053 171.949 284.455 192.308 344.565 245.058Z" stroke="#36B7FF" stroke-width="0.8" stroke-miterlimit="10"/>
<path opacity="0.5" d="M345.49 248.169C403.594 304.866 429.524 372.512 403.406 399.261C377.288 426.009 309.012 401.731 250.908 345.034C192.804 288.337 166.874 220.69 192.992 193.942C219.11 167.193 287.386 191.471 345.49 248.169Z" stroke="#36B7FF" stroke-width="0.8" stroke-miterlimit="10"/>
<path opacity="0.5" d="M346.29 251.392C402.409 312.053 425.286 382.136 397.389 407.928C369.492 433.719 301.384 405.452 245.266 344.791C189.147 284.13 166.269 214.047 194.166 188.255C222.064 162.464 290.172 190.731 346.29 251.392Z" stroke="#36B7FF" stroke-width="0.8" stroke-miterlimit="10"/>
<path opacity="0.3" d="M347.263 254.437C401.333 318.989 421.023 391.528 391.242 416.457C361.46 441.387 293.485 409.266 239.415 344.715C185.344 280.163 165.654 207.624 195.436 182.695C225.217 157.765 293.193 189.885 347.263 254.437Z" stroke="#36B7FF" stroke-width="0.8" stroke-miterlimit="10"/>
<path opacity="0.3" d="M348.312 257.448C400.446 326.025 417.091 401.08 385.489 425.089C353.887 449.098 286.006 412.969 233.872 344.392C181.738 275.816 165.093 200.76 196.695 176.751C228.296 152.742 296.178 188.872 348.312 257.448Z" stroke="#36B7FF" stroke-width="0.8" stroke-miterlimit="10"/>
<path opacity="0.3" d="M349.053 260.689C399.134 333.14 412.697 410.549 379.347 433.588C345.996 456.626 278.362 416.568 228.28 344.117C178.199 271.666 164.635 194.256 197.986 171.218C231.336 148.18 298.971 188.237 349.053 260.689Z" stroke="#36B7FF" stroke-width="0.8" stroke-miterlimit="10"/>
<path opacity="0.3" d="M350.15 263.949C398.22 340.331 408.626 420.213 373.393 442.373C338.16 464.532 270.63 420.576 222.56 344.194C174.49 267.813 164.083 187.93 199.316 165.771C234.549 143.612 302.08 187.568 350.15 263.949Z" stroke="#36B7FF" stroke-width="0.8" stroke-miterlimit="10"/>
</g>
</g>
<g opacity="0.3" clip-path="url(#clip1_872_11416)">
<g opacity="0.9">
<path d="M0.789107 171.614C-1.86407 134.833 60.5188 100.344 140.125 94.579C219.731 88.814 286.416 113.957 289.069 150.737C291.722 187.517 229.339 222.007 149.733 227.772C70.1268 233.537 3.44228 208.394 0.789107 171.614Z" stroke="#36B7FF" stroke-width="0.8" stroke-miterlimit="10"/>
<path opacity="0.5" d="M6.08852 163.99C5.04757 128.093 67.3192 97.1551 145.176 94.8885C223.033 92.622 286.992 119.885 288.033 155.782C289.074 191.679 226.803 222.616 148.946 224.883C71.0888 227.149 7.12948 199.887 6.08852 163.99Z" stroke="#36B7FF" stroke-width="0.8" stroke-miterlimit="10"/>
<path opacity="0.5" d="M148.135 222.209C72.0733 220.976 10.8734 191.476 11.441 156.318C12.0086 121.161 74.1288 93.6596 150.19 94.8923C226.252 96.1251 287.452 125.625 286.884 160.783C286.317 195.94 224.197 223.441 148.135 222.209Z" stroke="#36B7FF" stroke-width="0.8" stroke-miterlimit="10"/>
<path opacity="0.5" d="M147.356 219.373C73.0407 214.641 14.5621 182.965 16.7405 148.623C18.9188 114.282 80.9293 90.2785 155.245 95.0108C229.56 99.7432 288.039 131.419 285.86 165.761C283.682 200.102 221.672 224.105 147.356 219.373Z" stroke="#36B7FF" stroke-width="0.8" stroke-miterlimit="10"/>
<path opacity="0.5" d="M146.585 216.585C73.9796 208.348 18.1848 174.558 21.9641 141.114C25.7435 107.669 87.666 87.2339 160.272 95.4707C232.878 103.708 288.673 137.497 284.893 170.942C281.114 204.386 219.191 224.821 146.585 216.585Z" stroke="#36B7FF" stroke-width="0.8" stroke-miterlimit="10"/>
<path opacity="0.5" d="M145.588 213.824C74.7604 202.085 21.717 166.076 27.1123 133.396C32.5077 100.716 94.2986 83.7392 165.126 95.4782C235.954 107.217 288.997 143.226 283.602 175.906C278.207 208.587 216.416 225.563 145.588 213.824Z" stroke="#36B7FF" stroke-width="0.8" stroke-miterlimit="10"/>
<path opacity="0.5" d="M144.827 210.922C75.7619 195.681 25.4451 157.526 32.4412 125.7C39.4372 93.8744 101.097 80.4303 170.162 95.6718C239.227 110.913 289.543 149.069 282.547 180.894C275.551 212.72 213.892 226.164 144.827 210.922Z" stroke="#36B7FF" stroke-width="0.8" stroke-miterlimit="10"/>
<path opacity="0.5" d="M144.071 208.059C76.7568 189.313 29.1562 148.997 37.7517 118.012C46.3472 87.0262 107.884 77.1042 175.198 95.8502C242.511 114.596 290.112 154.912 281.517 185.897C272.921 216.883 211.384 226.805 144.071 208.059Z" stroke="#36B7FF" stroke-width="0.8" stroke-miterlimit="10"/>
<path opacity="0.5" d="M143.254 205.381C77.7955 183.158 33.0248 140.617 43.2559 110.362C53.4871 80.1068 114.846 73.595 180.305 95.8172C245.763 118.039 290.534 160.581 280.303 190.836C270.072 221.091 208.713 227.603 143.254 205.381Z" stroke="#36B7FF" stroke-width="0.8" stroke-miterlimit="10"/>
<path opacity="0.5" d="M142.418 202.73C78.7111 177.005 36.6627 132.293 48.5004 102.863C60.3382 73.4326 121.58 70.4293 185.287 96.1546C248.994 121.88 291.042 166.592 279.204 196.022C267.367 225.452 206.125 228.456 142.418 202.73Z" stroke="#36B7FF" stroke-width="0.8" stroke-miterlimit="10"/>
<path opacity="0.5" d="M141.472 199.825C79.525 170.599 40.2062 123.713 53.6515 95.1038C67.0968 66.4941 128.215 66.9941 190.162 96.2205C252.11 125.447 291.429 172.332 277.983 200.942C264.538 229.552 203.42 229.052 141.472 199.825Z" stroke="#36B7FF" stroke-width="0.8" stroke-miterlimit="10"/>
<path opacity="0.5" d="M140.698 197.007C80.5167 164.282 43.9349 115.221 58.9899 87.4274C74.0448 59.6336 135.036 63.6315 195.216 96.3568C255.397 129.082 291.979 178.143 276.924 205.936C261.869 233.73 200.879 229.732 140.698 197.007Z" stroke="#36B7FF" stroke-width="0.8" stroke-miterlimit="10"/>
<path opacity="0.5" d="M139.921 194.194C81.5165 157.973 47.6818 106.739 64.3491 79.7583C81.0164 52.7778 141.874 60.2682 200.279 96.4887C258.683 132.709 292.518 183.944 275.851 210.924C259.183 237.905 198.326 230.414 139.921 194.194Z" stroke="#36B7FF" stroke-width="0.8" stroke-miterlimit="10"/>
<path opacity="0.5" d="M139.143 191.406C82.5176 151.698 51.4334 98.2916 69.7149 72.1191C87.9965 45.9466 148.721 56.9192 205.347 96.627C261.973 136.335 293.057 189.741 274.775 215.914C256.494 242.086 195.769 231.114 139.143 191.406Z" stroke="#36B7FF" stroke-width="0.8" stroke-miterlimit="10"/>
<path opacity="0.5" d="M138.357 188.621C83.4299 145.36 54.9829 89.7947 74.8187 64.511C94.6544 39.2273 155.262 53.8001 210.189 97.0603C265.115 140.32 293.563 195.886 273.727 221.17C253.891 246.453 193.284 231.881 138.357 188.621Z" stroke="#36B7FF" stroke-width="0.8" stroke-miterlimit="10"/>
<path opacity="0.5" d="M137.425 185.739C84.2795 138.994 58.5902 81.2467 80.0467 56.7568C101.503 32.2668 161.98 50.3079 215.126 97.0528C268.272 143.798 293.962 201.545 272.505 226.035C251.048 250.525 190.571 232.484 137.425 185.739Z" stroke="#36B7FF" stroke-width="0.8" stroke-miterlimit="10"/>
<path opacity="0.5" d="M136.609 182.982C85.2368 132.739 62.3109 72.7938 85.4031 49.0902C108.495 25.3865 168.861 46.9009 220.234 97.1438C271.606 147.387 294.532 207.332 271.44 231.036C248.348 254.74 187.982 233.225 136.609 182.982Z" stroke="#36B7FF" stroke-width="0.8" stroke-miterlimit="10"/>
<path opacity="0.5" d="M135.901 180.125C86.2839 126.37 66.0565 64.2651 90.7216 41.4098C115.387 18.5546 175.604 43.604 225.221 97.3593C274.838 151.115 295.066 213.22 270.4 236.075C245.735 258.93 185.518 233.881 135.901 180.125Z" stroke="#36B7FF" stroke-width="0.8" stroke-miterlimit="10"/>
<path opacity="0.3" d="M135.043 177.427C87.2367 120.224 69.8278 55.9429 96.159 33.8513C122.49 11.7598 182.59 40.2235 230.396 97.4268C278.203 154.63 295.611 218.911 269.28 241.003C242.949 263.094 182.849 234.631 135.043 177.427Z" stroke="#36B7FF" stroke-width="0.8" stroke-miterlimit="10"/>
<path opacity="0.3" d="M134.113 174.759C88.0189 113.989 73.3025 47.4782 101.243 26.2023C129.184 4.92644 189.201 36.9427 235.295 97.7125C281.389 158.482 296.106 224.994 268.165 246.269C240.224 267.545 180.207 235.529 134.113 174.759Z" stroke="#36B7FF" stroke-width="0.8" stroke-miterlimit="10"/>
<path opacity="0.3" d="M133.459 171.888C89.1793 107.684 77.1874 39.0866 106.674 18.6711C136.161 -1.74451 195.96 33.7527 240.239 97.9562C284.519 162.16 296.51 230.757 267.024 251.173C237.537 271.588 177.738 236.091 133.459 171.888Z" stroke="#36B7FF" stroke-width="0.8" stroke-miterlimit="10"/>
<path opacity="0.3" d="M132.489 168.998C89.9883 101.312 80.7875 30.5227 111.939 10.8862C143.09 -8.75033 202.796 30.2017 245.297 97.888C287.798 165.574 296.999 236.363 265.848 256C234.697 275.636 174.99 236.684 132.489 168.998Z" stroke="#36B7FF" stroke-width="0.8" stroke-miterlimit="10"/>
</g>
</g>
<path d="M75 124H425L420 319L75 324V124Z" fill="#0B2158"/>
<circle cx="86" cy="135" r="2" fill="#FF5652"/>
<circle cx="92" cy="135" r="2" fill="#FFBD2F"/>
<circle cx="98" cy="135" r="2" fill="#00C83A"/>
<rect x="113.583" y="149.583" width="59.5" height="68.8333" stroke="#1D3574" stroke-width="1.16667"/>
<rect x="116.5" y="188.667" width="40.8333" height="5.83333" fill="#1D3574"/>
<rect x="116.5" y="206.167" width="18.6667" height="5.83333" fill="#5648FF"/>
<rect x="116.5" y="198" width="31.5" height="2.33333" fill="#1D3574"/>
<rect x="116.5" y="152.5" width="53.6667" height="30.3333" fill="#1D3574"/>
<rect x="184.749" y="149.583" width="59.5" height="68.8333" stroke="#1D3574" stroke-width="1.16667"/>
<rect x="187.666" y="188.667" width="40.8333" height="5.83333" fill="#1D3574"/>
<rect x="187.666" y="206.167" width="18.6667" height="5.83333" fill="#1D3574"/>
<rect x="187.666" y="198" width="31.5" height="2.33333" fill="#1D3574"/>
<rect x="187.666" y="152.5" width="53.6667" height="30.3333" fill="#1D3574"/>
<rect x="184.749" y="229.583" width="59.5" height="68.8333" stroke="#1D3574" stroke-width="1.16667"/>
<rect x="187.666" y="268.667" width="40.8333" height="5.83333" fill="#1D3574"/>
<rect x="187.666" y="286.167" width="18.6667" height="5.83333" fill="#1D3574"/>
<rect x="187.666" y="278" width="31.5" height="2.33333" fill="#1D3574"/>
<rect x="187.666" y="232.5" width="53.6667" height="30.3333" fill="#1D3574"/>
<rect x="113.583" y="229.583" width="59.5" height="68.8333" stroke="#1D3574" stroke-width="1.16667"/>
<rect x="116.5" y="268.667" width="40.8333" height="5.83333" fill="#1D3574"/>
<rect x="116.5" y="286.167" width="18.6667" height="5.83333" fill="#1D3574"/>
<rect x="116.5" y="278" width="31.5" height="2.33333" fill="#1D3574"/>
<rect x="116.5" y="232.5" width="53.6667" height="30.3333" fill="#1D3574"/>
<rect x="255.917" y="149.583" width="59.5" height="68.8333" stroke="#1D3574" stroke-width="1.16667"/>
<rect x="258.834" y="188.667" width="40.8333" height="5.83333" fill="#1D3574"/>
<rect x="258.834" y="206.167" width="18.6667" height="5.83333" fill="#1D3574"/>
<rect x="258.834" y="198" width="31.5" height="2.33333" fill="#1D3574"/>
<rect x="258.834" y="152.5" width="53.6667" height="30.3333" fill="#1D3574"/>
<rect x="255.917" y="229.583" width="59.5" height="68.8333" stroke="#1D3574" stroke-width="1.16667"/>
<rect x="258.834" y="268.667" width="40.8333" height="5.83333" fill="#1D3574"/>
<rect x="258.834" y="286.167" width="18.6667" height="5.83333" fill="#1D3574"/>
<rect x="258.834" y="278" width="31.5" height="2.33333" fill="#1D3574"/>
<rect x="258.834" y="232.5" width="53.6667" height="30.3333" fill="#1D3574"/>
<rect x="327.083" y="149.583" width="59.5" height="68.8333" stroke="#1D3574" stroke-width="1.16667"/>
<rect x="330" y="188.667" width="40.8333" height="5.83333" fill="#1D3574"/>
<rect x="330" y="206.167" width="18.6667" height="5.83333" fill="#1D3574"/>
<rect x="330" y="198" width="31.5" height="2.33333" fill="#1D3574"/>
<rect x="330" y="152.5" width="53.6667" height="30.3333" fill="#1D3574"/>
<rect x="327.083" y="229.583" width="59.5" height="68.8333" stroke="#1D3574" stroke-width="1.16667"/>
<rect x="330" y="268.667" width="40.8333" height="5.83333" fill="#1D3574"/>
<rect x="330" y="286.167" width="18.6667" height="5.83333" fill="#1D3574"/>
<rect x="330" y="278" width="31.5" height="2.33333" fill="#1D3574"/>
<rect x="330" y="232.5" width="53.6667" height="30.3333" fill="#1D3574"/>
<defs>
<clipPath id="clip0_872_11416">
<rect width="328" height="257" fill="white" transform="matrix(1 0 0 -1 172 449)"/>
</clipPath>
<clipPath id="clip1_872_11416">
<rect width="290" height="262" fill="white" transform="matrix(-1 0 0 1 290 0)"/>
</clipPath>
</defs>
</svg>
