<svg width="16" height="15" viewBox="0 0 16 15" fill="none" xmlns="http://www.w3.org/2000/svg">
<path d="M10.5781 6.79688C10.9036 6.79688 11.1803 6.68294 11.4082 6.45508C11.6361 6.22721 11.75 5.95052 11.75 5.625C11.75 5.29948 11.6361 5.02279 11.4082 4.79492C11.1803 4.56706 10.9036 4.45312 10.5781 4.45312C10.2526 4.45312 9.97591 4.56706 9.74805 4.79492C9.52018 5.02279 9.40625 5.29948 9.40625 5.625C9.40625 5.95052 9.52018 6.22721 9.74805 6.45508C9.97591 6.68294 10.2526 6.79688 10.5781 6.79688ZM5.42188 6.79688C5.7474 6.79688 6.02409 6.68294 6.25195 6.45508C6.47982 6.22721 6.59375 5.95052 6.59375 5.625C6.59375 5.29948 6.47982 5.02279 6.25195 4.79492C6.02409 4.56706 5.7474 4.45312 5.42188 4.45312C5.09635 4.45312 4.81966 4.56706 4.5918 4.79492C4.36393 5.02279 4.25 5.29948 4.25 5.625C4.25 5.95052 4.36393 6.22721 4.5918 6.45508C4.81966 6.68294 5.09635 6.79688 5.42188 6.79688ZM8 11.25C8.80729 11.25 9.55273 11.0612 10.2363 10.6836C10.9199 10.306 11.4115 9.74609 11.7109 9.00391H4.28906C4.58854 9.74609 5.08008 10.306 5.76367 10.6836C6.44727 11.0612 7.19271 11.25 8 11.25ZM8.00539 15C6.97315 15 6.0013 14.8047 5.08984 14.4141C4.17839 14.0234 3.38086 13.4863 2.69727 12.8027C2.01367 12.1191 1.47656 11.3219 1.08594 10.411C0.695312 9.50005 0.5 8.52674 0.5 7.49105C0.5 6.45535 0.695312 5.48503 1.08594 4.58008C1.47656 3.67513 2.01367 2.88086 2.69727 2.19727C3.38086 1.51367 4.17811 0.976562 5.08902 0.585938C5.99995 0.195312 6.97326 0 8.00895 0C9.04465 0 10.015 0.195312 10.9199 0.585938C11.8249 0.976562 12.6191 1.51367 13.3027 2.19727C13.9863 2.88086 14.5234 3.67659 14.9141 4.58445C15.3047 5.49233 15.5 6.46238 15.5 7.49461C15.5 8.52685 15.3047 9.4987 14.9141 10.4102C14.5234 11.3216 13.9863 12.1191 13.3027 12.8027C12.6191 13.4863 11.8234 14.0234 10.9155 14.4141C10.0077 14.8047 9.03762 15 8.00539 15Z" fill="#36B7FF"/>
</svg>
