<svg width="137" height="34" viewBox="0 0 137 34" fill="none" xmlns="http://www.w3.org/2000/svg">
<path d="M17 0C7.61385 0 0 7.61289 0 17C0 26.3871 7.61385 34 17 34C26.3862 34 34 26.3871 34 17C34 7.61289 26.3862 0 17 0ZM22.6856 6.67277C24.0325 6.67277 25.1243 7.78254 25.1243 9.15385C25.1243 10.5252 24.0325 11.6349 22.6856 11.6349C21.3386 11.6349 20.2469 10.5252 20.2469 9.15385C20.2469 7.78254 21.3386 6.67277 22.6856 6.67277ZM25.1597 19.9476C25.1597 24.6058 21.4308 27.3414 17.0142 27.3414C12.5409 27.3414 8.84029 24.6058 8.84029 19.9476V8.99834C8.84029 7.71892 9.84696 6.6657 11.1372 6.6657C12.4558 6.6657 13.5475 7.71185 13.5475 8.99834V19.9193C13.5475 22.5418 15.2986 23.383 17.0213 23.383C18.744 23.383 20.4595 22.5347 20.4595 19.9193V15.9538C20.4595 14.6744 21.5513 13.6212 22.8699 13.6212C24.1601 13.6212 25.1668 14.6674 25.1668 15.9538V19.9476H25.1597Z" fill="white"/>
<path d="M50.0569 25.2644C48.9077 25.2644 47.8911 25.0298 47.0071 24.5606C46.1299 24.0846 45.4431 23.4216 44.9467 22.5716C44.4503 21.7148 44.2021 20.7084 44.2021 19.5524V10.2806L46.3645 10.2704V19.4402C46.3645 20.0658 46.4699 20.6166 46.6807 21.0926C46.8915 21.5686 47.1737 21.9664 47.5273 22.286C47.8809 22.6056 48.2753 22.847 48.7105 23.0102C49.1525 23.1734 49.6013 23.255 50.0569 23.255C50.5193 23.255 50.9681 23.1734 51.4033 23.0102C51.8453 22.8402 52.2431 22.5954 52.5967 22.2758C52.9503 21.9562 53.2291 21.5584 53.4331 21.0824C53.6439 20.6064 53.7493 20.059 53.7493 19.4402V10.2704H55.9117V19.5524C55.9117 20.7016 55.6635 21.7046 55.1671 22.5614C54.6707 23.4182 53.9805 24.0846 53.0965 24.5606C52.2193 25.0298 51.2061 25.2644 50.0569 25.2644Z" fill="white"/>
<path d="M58.969 12.137V10.0664H61.1008V12.137H58.969ZM58.969 24.9584V13.9424H61.1008V24.9584H58.969Z" fill="white"/>
<path d="M64.1639 24.9584V10.2704H73.5479V12.2798H66.2957V16.4006H72.3239V18.41H66.2957V22.949H73.5479V24.9584H64.1639Z" fill="white"/>
<path d="M74.7735 24.9584L78.8943 19.3892L74.8653 13.9424H77.3949L80.1387 17.7266L82.8519 13.9424H85.3815L81.3525 19.3892L85.4835 24.9584H82.9437L80.1387 21.0518L77.3133 24.9584H74.7735Z" fill="white"/>
<path d="M92.2853 25.2644C91.2313 25.2644 90.3473 25.0094 89.6333 24.4994C88.9193 23.9826 88.3787 23.2856 88.0115 22.4084C87.6443 21.5312 87.4607 20.5418 87.4607 19.4402C87.4607 18.3386 87.6409 17.3492 88.0013 16.472C88.3685 15.5948 88.9057 14.9046 89.6129 14.4014C90.3269 13.8914 91.2041 13.6364 92.2445 13.6364C93.2781 13.6364 94.1689 13.8914 94.9169 14.4014C95.6717 14.9046 96.2531 15.5948 96.6611 16.472C97.0691 17.3424 97.2731 18.3318 97.2731 19.4402C97.2731 20.5418 97.0691 21.5346 96.6611 22.4186C96.2599 23.2958 95.6853 23.9894 94.9373 24.4994C94.1961 25.0094 93.3121 25.2644 92.2853 25.2644ZM87.1037 29.8544V13.9424H89.0009V21.8678H89.2457V29.8544H87.1037ZM91.9895 23.3366C92.6695 23.3366 93.2305 23.1632 93.6725 22.8164C94.1213 22.4696 94.4545 22.0038 94.6721 21.419C94.8965 20.8274 95.0087 20.1678 95.0087 19.4402C95.0087 18.7194 94.8965 18.0666 94.6721 17.4818C94.4545 16.897 94.1179 16.4312 93.6623 16.0844C93.2067 15.7376 92.6253 15.5642 91.9181 15.5642C91.2517 15.5642 90.7009 15.7274 90.2657 16.0538C89.8373 16.3802 89.5177 16.8358 89.3069 17.4206C89.1029 18.0054 89.0009 18.6786 89.0009 19.4402C89.0009 20.2018 89.1029 20.875 89.3069 21.4598C89.5109 22.0446 89.8339 22.5036 90.2759 22.8368C90.7179 23.17 91.2891 23.3366 91.9895 23.3366Z" fill="white"/>
<path d="M104.411 25.2644C103.316 25.2644 102.354 25.0264 101.524 24.5504C100.702 24.0676 100.059 23.3978 99.5966 22.541C99.141 21.6774 98.9132 20.6778 98.9132 19.5422C98.9132 18.3386 99.1376 17.2948 99.5864 16.4108C100.042 15.5268 100.674 14.8434 101.484 14.3606C102.293 13.8778 103.235 13.6364 104.309 13.6364C105.431 13.6364 106.386 13.8982 107.175 14.4218C107.964 14.9386 108.552 15.6764 108.94 16.6352C109.334 17.594 109.491 18.733 109.409 20.0522H107.277V19.277C107.264 17.9986 107.019 17.0534 106.543 16.4414C106.074 15.8294 105.356 15.5234 104.391 15.5234C103.323 15.5234 102.521 15.86 101.983 16.5332C101.446 17.2064 101.178 18.1788 101.178 19.4504C101.178 20.6608 101.446 21.5992 101.983 22.2656C102.521 22.9252 103.296 23.255 104.309 23.255C104.975 23.255 105.55 23.1054 106.033 22.8062C106.522 22.5002 106.903 22.065 107.175 21.5006L109.266 22.1636C108.838 23.1496 108.188 23.9146 107.318 24.4586C106.448 24.9958 105.479 25.2644 104.411 25.2644ZM100.484 20.0522V18.3896H108.348V20.0522H100.484Z" fill="white"/>
<path d="M111.697 24.9584V13.9424H113.595V16.6148L113.329 16.268C113.465 15.9144 113.642 15.5914 113.86 15.299C114.077 14.9998 114.329 14.755 114.615 14.5646C114.893 14.3606 115.203 14.2042 115.543 14.0954C115.89 13.9798 116.243 13.9118 116.604 13.8914C116.964 13.8642 117.311 13.8812 117.644 13.9424V15.9416C117.284 15.8464 116.882 15.8192 116.44 15.86C116.005 15.9008 115.604 16.0402 115.237 16.2782C114.89 16.5026 114.615 16.7746 114.411 17.0942C114.213 17.4138 114.071 17.7708 113.982 18.1652C113.894 18.5528 113.85 18.9642 113.85 19.3994V24.9584H111.697Z" fill="white"/>
<path d="M125.89 24.9584C125.197 25.0944 124.517 25.1522 123.85 25.1318C123.184 25.1114 122.589 24.9822 122.065 24.7442C121.542 24.5062 121.147 24.1322 120.882 23.6222C120.644 23.1666 120.515 22.7042 120.494 22.235C120.481 21.759 120.474 21.2218 120.474 20.6234V10.8824H122.616V20.5214C122.616 20.9634 122.619 21.3476 122.626 21.674C122.64 22.0004 122.711 22.2758 122.84 22.5002C123.085 22.9218 123.473 23.1632 124.003 23.2244C124.54 23.2788 125.169 23.255 125.89 23.153V24.9584ZM118.363 15.656V13.9424H125.89V15.656H118.363Z" fill="white"/>
<path d="M127.193 24.9584V24.6218L133.445 15.8498H127.764V13.9424H136.832V14.2892L130.589 23.051H136.526V24.9584H127.193Z" fill="white"/>
</svg>
