<svg width="158" height="42" viewBox="0 0 158 42" fill="none" xmlns="http://www.w3.org/2000/svg">
<path d="M54.4103 30.9998C53.0313 30.9998 52.3418 30.3103 52.3418 28.9313V11.6232C52.3418 10.2442 53.0313 9.55469 54.4103 9.55469H65.2697C66.3242 9.55469 66.8515 10.0617 66.8515 11.0756C66.8515 12.1301 66.3242 12.6574 65.2697 12.6574H56.0833V18.5586H64.6005C65.655 18.5586 66.1823 19.0757 66.1823 20.1099C66.1823 21.1442 65.655 21.6613 64.6005 21.6613H56.0833V27.8971H65.2697C66.3242 27.8971 66.8515 28.4142 66.8515 29.4485C66.8515 30.4827 66.3242 30.9998 65.2697 30.9998H54.4103Z" fill="white"/>
<path d="M71.1612 31.1519C70.715 31.1519 70.3399 31.0302 70.0357 30.7869C69.7518 30.5232 69.5997 30.1886 69.5794 29.7831C69.5794 29.3775 69.7518 28.9516 70.0965 28.5055L74.2943 23.3343L70.4007 18.5282C70.0357 18.082 69.8633 17.6562 69.8836 17.2506C69.9039 16.845 70.056 16.5205 70.3399 16.2772C70.6441 16.0136 71.0192 15.8818 71.4654 15.8818C71.9318 15.8818 72.3171 15.9629 72.6213 16.1251C72.9457 16.2873 73.2398 16.5408 73.5034 16.8856L76.4844 20.7183L79.4959 16.8856C79.7798 16.5408 80.0738 16.2873 80.378 16.1251C80.6822 15.9629 81.0574 15.8818 81.5035 15.8818C81.9699 15.8818 82.3451 16.0136 82.629 16.2772C82.9129 16.5408 83.0548 16.8754 83.0548 17.281C83.0751 17.6866 82.9028 18.1125 82.5377 18.5586L78.6441 23.3343L82.8723 28.5055C83.2374 28.9313 83.4097 29.3471 83.3894 29.7526C83.3692 30.1582 83.2069 30.4928 82.9028 30.7565C82.6188 31.0201 82.2437 31.1519 81.7773 31.1519C80.9661 31.1519 80.2969 30.8173 79.7696 30.1481L76.454 25.9807L73.1688 30.1481C72.9052 30.4725 72.6213 30.726 72.3171 30.9086C72.0129 31.0708 71.6276 31.1519 71.1612 31.1519Z" fill="white"/>
<path d="M88.6184 36.7185C87.3611 36.7185 86.7324 36.0797 86.7324 34.8021V17.7981C86.7324 16.5205 87.3509 15.8818 88.5879 15.8818C89.8452 15.8818 90.4739 16.5205 90.4739 17.7981V18.4369C90.8998 17.646 91.5385 17.0174 92.3903 16.551C93.242 16.0643 94.2154 15.8209 95.3105 15.8209C96.6083 15.8209 97.7439 16.1352 98.7173 16.7639C99.711 17.3925 100.482 18.2848 101.029 19.4407C101.577 20.5764 101.85 21.9452 101.85 23.5472C101.85 25.129 101.577 26.508 101.029 27.6842C100.482 28.8401 99.7211 29.7324 98.7478 30.361C97.7744 30.9897 96.6286 31.304 95.3105 31.304C94.2559 31.304 93.3028 31.0809 92.4511 30.6348C91.6197 30.1684 90.9809 29.5499 90.5347 28.7792V34.8021C90.5347 36.0797 89.8959 36.7185 88.6184 36.7185ZM94.2458 28.4142C95.3814 28.4142 96.294 28.0086 96.9835 27.1975C97.673 26.366 98.0177 25.1493 98.0177 23.5472C98.0177 21.9249 97.673 20.7183 96.9835 19.9274C96.294 19.1163 95.3814 18.7107 94.2458 18.7107C93.1102 18.7107 92.1976 19.1163 91.5081 19.9274C90.8186 20.7183 90.4739 21.9249 90.4739 23.5472C90.4739 25.1493 90.8186 26.366 91.5081 27.1975C92.1976 28.0086 93.1102 28.4142 94.2458 28.4142Z" fill="white"/>
<path d="M112.303 31.304C110.619 31.304 109.169 30.9897 107.953 30.361C106.736 29.7324 105.793 28.8401 105.124 27.6842C104.475 26.5283 104.15 25.1594 104.15 23.5777C104.15 22.0365 104.465 20.6879 105.093 19.532C105.742 18.3761 106.624 17.4737 107.74 16.8247C108.875 16.1555 110.163 15.8209 111.603 15.8209C113.712 15.8209 115.375 16.4901 116.592 17.8285C117.829 19.167 118.447 20.9921 118.447 23.3039C118.447 24.0542 117.96 24.4294 116.987 24.4294H107.801C108.085 27.0859 109.605 28.4142 112.363 28.4142C112.891 28.4142 113.479 28.3534 114.128 28.2317C114.797 28.0898 115.426 27.8565 116.014 27.5321C116.541 27.2279 116.987 27.1366 117.352 27.2583C117.717 27.3597 117.971 27.5726 118.113 27.8971C118.275 28.2216 118.295 28.5866 118.173 28.9922C118.072 29.3775 117.788 29.7121 117.322 29.996C116.612 30.4421 115.791 30.7767 114.858 30.9998C113.945 31.2026 113.093 31.304 112.303 31.304ZM111.755 18.4065C110.64 18.4065 109.737 18.7512 109.048 19.4407C108.358 20.1302 107.943 21.0631 107.801 22.2392H115.284C115.202 21.0022 114.858 20.0592 114.249 19.4103C113.661 18.7411 112.83 18.4065 111.755 18.4065Z" fill="white"/>
<path d="M123.405 31.2432C122.107 31.2432 121.458 30.5942 121.458 29.2964V17.7981C121.458 16.5205 122.077 15.8818 123.314 15.8818C124.551 15.8818 125.169 16.5205 125.169 17.7981V18.7411C125.899 16.9971 127.461 16.0237 129.854 15.8209C130.726 15.7195 131.213 16.2164 131.314 17.3114C131.415 18.3862 130.888 18.9845 129.732 19.1061L129.063 19.167C126.569 19.4103 125.321 20.6879 125.321 22.9997V29.2964C125.321 30.5942 124.683 31.2432 123.405 31.2432Z" fill="white"/>
<path d="M141.046 31.304C137.111 31.304 135.144 29.3572 135.144 25.4636V18.9845H133.563C132.549 18.9845 132.042 18.5079 132.042 17.5548C132.042 16.6017 132.549 16.1251 133.563 16.1251H135.144V13.357C135.144 12.0794 135.783 11.4406 137.061 11.4406C138.318 11.4406 138.947 12.0794 138.947 13.357V16.1251H142.171C143.185 16.1251 143.692 16.6017 143.692 17.5548C143.692 18.5079 143.185 18.9845 142.171 18.9845H138.947V25.2507C138.947 26.2241 139.16 26.9541 139.585 27.4408C140.011 27.9275 140.701 28.1709 141.654 28.1709C141.999 28.1709 142.303 28.1405 142.566 28.0796C142.83 28.0188 143.063 27.9782 143.266 27.9579C143.509 27.9377 143.712 28.0188 143.874 28.2013C144.037 28.3635 144.118 28.7083 144.118 29.2355C144.118 29.6411 144.047 30.0061 143.905 30.3306C143.783 30.6348 143.55 30.8477 143.205 30.9694C142.942 31.0505 142.597 31.1215 142.171 31.1823C141.745 31.2634 141.37 31.304 141.046 31.304Z" fill="white"/>
<path d="M146.878 30.9998C146.351 30.9998 145.955 30.8376 145.692 30.5131C145.428 30.1684 145.317 29.7628 145.357 29.2964C145.398 28.8299 145.611 28.3838 145.996 27.9579L153.144 18.9845H146.696C145.722 18.9845 145.235 18.5079 145.235 17.5548C145.235 16.6017 145.722 16.1251 146.696 16.1251H155.699C156.308 16.1251 156.754 16.2873 157.038 16.6118C157.342 16.9363 157.474 17.3317 157.433 17.7981C157.413 18.2443 157.21 18.6803 156.825 19.1061L149.585 28.1405H156.399C157.372 28.1405 157.859 28.617 157.859 29.5701C157.859 30.5232 157.372 30.9998 156.399 30.9998H146.878Z" fill="white"/>
<path d="M39 21C39 30.9411 30.9411 39 21 39C11.0589 39 3 30.9411 3 21C3 11.0589 11.0589 3 21 3C30.9411 3 39 11.0589 39 21Z" fill="white"/>
<path d="M21 0C9.40534 0 0 9.40416 0 21C0 32.5958 9.40534 42 21 42C32.5947 42 42 32.5958 42 21C42 9.40416 32.5947 0 21 0ZM28.0234 8.24283C29.6872 8.24283 31.0359 9.61372 31.0359 11.3077C31.0359 13.0017 29.6872 14.3726 28.0234 14.3726C26.3595 14.3726 25.0108 13.0017 25.0108 11.3077C25.0108 9.61372 26.3595 8.24283 28.0234 8.24283ZM31.0797 24.6412C31.0797 30.3954 26.4733 33.7746 21.0175 33.7746C15.4917 33.7746 10.9204 30.3954 10.9204 24.6412V11.1156C10.9204 9.53514 12.1639 8.2341 13.7577 8.2341C15.3866 8.2341 16.7352 9.5264 16.7352 11.1156V24.6062C16.7352 27.8457 18.8982 28.8848 21.0263 28.8848C23.1543 28.8848 25.2736 27.837 25.2736 24.6062V19.7077C25.2736 18.1272 26.6222 16.8262 28.251 16.8262C29.8449 16.8262 31.0884 18.1185 31.0884 19.7077V24.6412H31.0797Z" fill="#5648FF"/>
</svg>
