<svg width="113" height="28" viewBox="0 0 113 28" fill="none" xmlns="http://www.w3.org/2000/svg">
<g id="Group 1000005895">
<path id="Vector" d="M14 0C6.27023 0 0 6.26944 0 14C0 21.7306 6.27023 28 14 28C21.7298 28 28 21.7306 28 14C28 6.26944 21.7298 0 14 0ZM18.6822 5.49522C19.7915 5.49522 20.6906 6.40915 20.6906 7.53846C20.6906 8.66778 19.7915 9.58171 18.6822 9.58171C17.573 9.58171 16.6739 8.66778 16.6739 7.53846C16.6739 6.40915 17.573 5.49522 18.6822 5.49522ZM20.7198 16.4274C20.7198 20.2636 17.6489 22.5164 14.0117 22.5164C10.3278 22.5164 7.28023 20.2636 7.28023 16.4274V7.4104C7.28023 6.35676 8.10926 5.4894 9.17181 5.4894C10.2577 5.4894 11.1568 6.35094 11.1568 7.4104V16.4042C11.1568 18.5638 12.5988 19.2565 14.0175 19.2565C15.4362 19.2565 16.849 18.558 16.849 16.4042V13.1385C16.849 12.0848 17.7481 11.2175 18.834 11.2175C19.8966 11.2175 20.7256 12.079 20.7256 13.1385V16.4274H20.7198Z" fill="white"/>
<g id="UiExpertz">
<path d="M41.2239 20.806C40.2775 20.806 39.4403 20.6128 38.7123 20.2264C37.9899 19.8344 37.4243 19.2884 37.0155 18.5884C36.6067 17.8828 36.4023 17.054 36.4023 16.102V8.46644L38.1831 8.45804V16.0096C38.1831 16.5248 38.2699 16.9784 38.4435 17.3704C38.6171 17.7624 38.8495 18.09 39.1407 18.3532C39.4319 18.6164 39.7567 18.8152 40.1151 18.9496C40.4791 19.084 40.8487 19.1512 41.2239 19.1512C41.6047 19.1512 41.9743 19.084 42.3327 18.9496C42.6967 18.8096 43.0243 18.608 43.3155 18.3448C43.6067 18.0816 43.8363 17.754 44.0043 17.362C44.1779 16.97 44.2647 16.5192 44.2647 16.0096V8.45804H46.0455V16.102C46.0455 17.0484 45.8411 17.8744 45.4323 18.58C45.0235 19.2856 44.4551 19.8344 43.7271 20.2264C43.0047 20.6128 42.1703 20.806 41.2239 20.806Z" fill="white"/>
<path d="M48.5633 9.99524V8.29004H50.3189V9.99524H48.5633ZM48.5633 20.554V11.482H50.3189V20.554H48.5633Z" fill="white"/>
<path d="M52.8414 20.554V8.45804H60.5694V10.1128H54.597V13.5064H59.5614V15.1612H54.597V18.8992H60.5694V20.554H52.8414Z" fill="white"/>
<path d="M61.5787 20.554L64.9723 15.9676L61.6543 11.482H63.7375L65.9971 14.5984L68.2315 11.482H70.3147L66.9967 15.9676L70.3987 20.554H68.3071L65.9971 17.3368L63.6703 20.554H61.5787Z" fill="white"/>
<path d="M76.0002 20.806C75.1322 20.806 74.4042 20.596 73.8162 20.176C73.2282 19.7504 72.783 19.1764 72.4806 18.454C72.1782 17.7316 72.027 16.9168 72.027 16.0096C72.027 15.1024 72.1754 14.2876 72.4722 13.5652C72.7746 12.8428 73.217 12.2744 73.7994 11.86C74.3874 11.44 75.1098 11.23 75.9666 11.23C76.8178 11.23 77.5514 11.44 78.1674 11.86C78.789 12.2744 79.2678 12.8428 79.6038 13.5652C79.9398 14.282 80.1078 15.0968 80.1078 16.0096C80.1078 16.9168 79.9398 17.7344 79.6038 18.4624C79.2734 19.1848 78.8002 19.756 78.1842 20.176C77.5738 20.596 76.8458 20.806 76.0002 20.806ZM71.733 24.586V11.482H73.2954V18.0088H73.497V24.586H71.733ZM75.7566 19.2184C76.3166 19.2184 76.7786 19.0756 77.1426 18.79C77.5122 18.5044 77.7866 18.1208 77.9658 17.6392C78.1506 17.152 78.243 16.6088 78.243 16.0096C78.243 15.416 78.1506 14.8784 77.9658 14.3968C77.7866 13.9152 77.5094 13.5316 77.1342 13.246C76.759 12.9604 76.2802 12.8176 75.6978 12.8176C75.149 12.8176 74.6954 12.952 74.337 13.2208C73.9842 13.4896 73.721 13.8648 73.5474 14.3464C73.3794 14.828 73.2954 15.3824 73.2954 16.0096C73.2954 16.6368 73.3794 17.1912 73.5474 17.6728C73.7154 18.1544 73.9814 18.5324 74.3454 18.8068C74.7094 19.0812 75.1798 19.2184 75.7566 19.2184Z" fill="white"/>
<path d="M85.9861 20.806C85.0845 20.806 84.2921 20.61 83.6089 20.218C82.9313 19.8204 82.4021 19.2688 82.0213 18.5632C81.6461 17.852 81.4585 17.0288 81.4585 16.0936C81.4585 15.1024 81.6433 14.2428 82.0129 13.5148C82.3881 12.7868 82.9089 12.224 83.5753 11.8264C84.2417 11.4288 85.0173 11.23 85.9021 11.23C86.8261 11.23 87.6129 11.4456 88.2625 11.8768C88.9121 12.3024 89.3965 12.91 89.7157 13.6996C90.0405 14.4892 90.1693 15.4272 90.1021 16.5136H88.3465V15.8752C88.3353 14.8224 88.1337 14.044 87.7417 13.54C87.3553 13.036 86.7645 12.784 85.9693 12.784C85.0901 12.784 84.4293 13.0612 83.9869 13.6156C83.5445 14.17 83.3233 14.9708 83.3233 16.018C83.3233 17.0148 83.5445 17.7876 83.9869 18.3364C84.4293 18.8796 85.0677 19.1512 85.9021 19.1512C86.4509 19.1512 86.9241 19.028 87.3217 18.7816C87.7249 18.5296 88.0385 18.1712 88.2625 17.7064L89.9845 18.2524C89.6317 19.0644 89.0969 19.6944 88.3801 20.1424C87.6633 20.5848 86.8653 20.806 85.9861 20.806ZM82.7521 16.5136V15.1444H89.2285V16.5136H82.7521Z" fill="white"/>
<path d="M91.9867 20.554V11.482H93.5491V13.6828L93.3307 13.3972C93.4427 13.106 93.5883 12.84 93.7675 12.5992C93.9467 12.3528 94.1539 12.1512 94.3891 11.9944C94.6187 11.8264 94.8735 11.6976 95.1535 11.608C95.4391 11.5128 95.7303 11.4568 96.0271 11.44C96.3239 11.4176 96.6095 11.4316 96.8839 11.482V13.1284C96.5871 13.05 96.2567 13.0276 95.8927 13.0612C95.5343 13.0948 95.2039 13.2096 94.9015 13.4056C94.6159 13.5904 94.3891 13.8144 94.2211 14.0776C94.0587 14.3408 93.9411 14.6348 93.8683 14.9596C93.7955 15.2788 93.7591 15.6176 93.7591 15.976V20.554H91.9867Z" fill="white"/>
<path d="M103.675 20.554C103.104 20.666 102.544 20.7136 101.995 20.6968C101.446 20.68 100.956 20.5736 100.525 20.3776C100.094 20.1816 99.7688 19.8736 99.5504 19.4536C99.3544 19.0784 99.248 18.6976 99.2312 18.3112C99.22 17.9192 99.2144 17.4768 99.2144 16.984V8.96204H100.978V16.9C100.978 17.264 100.981 17.5804 100.987 17.8492C100.998 18.118 101.057 18.3448 101.163 18.5296C101.365 18.8768 101.684 19.0756 102.121 19.126C102.563 19.1708 103.081 19.1512 103.675 19.0672V20.554ZM97.4756 12.8932V11.482H103.675V12.8932H97.4756Z" fill="white"/>
<path d="M104.747 20.554V20.2768L109.897 13.0528H105.218V11.482H112.685V11.7676L107.545 18.9832H112.434V20.554H104.747Z" fill="white"/>
</g>
</g>
</svg>
