<svg width="70" height="30" viewBox="0 0 70 30" fill="none" xmlns="http://www.w3.org/2000/svg">
<path d="M67.2451 9.71643C69.0968 10.5711 70 12.1455 70 14.4397C70 15.4743 69.7742 16.374 69.3226 17.1837C68.871 17.9934 68.1935 18.6681 67.3355 19.2079C66.4774 19.7478 65.4387 20.1526 64.2645 20.4675C63.0451 20.7824 61.7354 20.9173 60.2451 20.9173H55.9096L42.2708 0H58.7096C62.2774 0 64.9871 0.449835 66.7032 1.3495C68.4645 2.24917 69.3226 3.68865 69.3226 5.7129C69.3226 6.56759 69.1419 7.33231 68.7806 8.00706C68.4193 8.59185 67.9226 9.17663 67.2451 9.71643ZM56.7676 7.73716H59.3419C60.6967 7.73716 61.5999 7.60221 62.0515 7.37729C62.5032 7.10739 62.729 6.65756 62.729 6.02779C62.729 5.48799 62.458 5.12812 61.9612 4.85822C61.4645 4.58832 60.4257 4.45337 58.8902 4.45337H56.7225V7.73716H56.7676ZM56.7676 12.1905V16.239H59.7031C61.058 16.239 62.0064 16.0591 62.5483 15.7442C63.0903 15.4293 63.3612 14.8895 63.3612 14.1248C63.3612 12.8203 62.0516 12.1455 59.4773 12.1455H56.7676V12.1905Z" fill="white"/>
<path d="M38.5682 4.44727L29.0842 20.8212H39.3359H49.5425L38.5682 4.44727Z" fill="#1AE3E3"/>
<path d="M29.5811 0H34.9101L22.8971 20.8274L17.4777 11.6957L12.0132 20.8274L9.5293 16.284L18.8778 0H24.2068L20.1423 7.01742L22.7617 11.5158L29.5811 0Z" fill="white"/>
<path d="M0 0H13.3227L6.63876 11.5158L0 0Z" fill="white"/>
<path fill-rule="evenodd" clip-rule="evenodd" d="M22.979 25.5954L23.2048 25.8203C23.25 25.8428 23.2838 25.8766 23.3177 25.9103C23.3516 25.944 23.3854 25.9778 23.4306 26.0003C23.504 25.9516 23.5773 25.8897 23.6578 25.8217C23.726 25.7642 23.7994 25.7023 23.8822 25.6404C23.95 25.5729 24.0177 25.4942 24.0854 25.4155C24.1532 25.3368 24.2209 25.258 24.2887 25.1906L24.2887 25.1905C24.1532 25.0556 24.0177 24.9207 23.8822 24.7407C23.7467 24.6058 23.5661 24.4708 23.4306 24.3809C23.4119 24.3995 23.3854 24.4181 23.3544 24.44L23.3544 24.44C23.3106 24.4708 23.2577 24.5081 23.2048 24.5608C23.1465 24.5898 23.107 24.6376 23.062 24.6921C23.0373 24.722 23.011 24.7538 22.979 24.7857L22.7532 25.0106C22.6628 25.1006 22.6177 25.1456 22.5725 25.2355C22.5951 25.2805 22.629 25.3143 22.6628 25.348C22.6967 25.3817 22.7306 25.4155 22.7532 25.4605C22.7983 25.4605 22.8887 25.5054 22.979 25.5954ZM19.5025 26.266C19.7735 26.176 20.0896 26.1311 20.4509 26.1311V24.5566H21.8961V29.9097H20.4057V29.145C20.2703 29.4598 20.0896 29.6848 19.909 29.8197C19.7283 29.9547 19.5025 29.9996 19.2767 29.9996C19.096 29.9996 18.9154 29.9547 18.7799 29.8647C18.6444 29.7747 18.5089 29.6398 18.4186 29.5048C18.3283 29.3249 18.238 29.145 18.1928 28.965C18.1476 28.7851 18.1025 28.5602 18.1025 28.3353C18.1025 27.9304 18.1476 27.5705 18.2831 27.3006C18.4186 27.0307 18.5541 26.8058 18.7799 26.6259C18.9606 26.4459 19.2315 26.356 19.5025 26.266ZM20.3154 28.4702C20.3606 28.3352 20.4057 28.2003 20.4509 27.9754C20.4961 27.7955 20.5412 27.5256 20.5864 27.2107H20.4057H20.2703C20.0896 27.2107 19.9541 27.2107 19.8638 27.2556C19.7735 27.2556 19.6831 27.3006 19.638 27.3456C19.5928 27.3906 19.5477 27.4806 19.5477 27.5255C19.5025 27.5705 19.5025 27.6605 19.5025 27.7505C19.5025 27.7909 19.5116 27.8404 19.5217 27.895L19.5217 27.895C19.534 27.9618 19.5477 28.036 19.5477 28.1103C19.5684 28.1722 19.5796 28.2341 19.59 28.2917C19.6023 28.3596 19.6135 28.4215 19.638 28.4702C19.6831 28.6052 19.7283 28.6951 19.7735 28.7401C19.8186 28.7851 19.909 28.8301 19.9541 28.8301C19.9993 28.8301 20.0896 28.7851 20.1348 28.7401C20.2251 28.6951 20.2703 28.6052 20.3154 28.4702L20.3154 28.4702ZM11.509 28.3846L10.6509 24.8309H9.16039L8.3474 28.3846H8.30224L7.57959 24.8309H5.99878L7.17309 29.869H8.07641H8.07642C8.30224 29.869 8.52807 29.869 8.70873 29.824C8.8894 29.779 9.02489 29.7341 9.16039 29.6441C9.29589 29.5541 9.38622 29.4192 9.47655 29.2392C9.53488 29.1231 9.57438 28.9881 9.61936 28.8344L9.61936 28.8344L9.61937 28.8344L9.61937 28.8344L9.61937 28.8344L9.61937 28.8344C9.64405 28.7501 9.67038 28.6601 9.70238 28.5645L9.88305 27.7548L10.3799 29.869H11.3284H11.3284C11.5542 29.869 11.78 29.869 11.9607 29.824C12.1413 29.779 12.2768 29.7341 12.4123 29.6441C12.5478 29.5541 12.6382 29.4192 12.7285 29.2392C12.8188 29.0593 12.864 28.8344 12.9092 28.5645L13.5867 24.8309H12.051L11.509 28.3846ZM16.1154 26.1309C15.7541 26.1309 15.4379 26.1758 15.167 26.2208C14.896 26.3108 14.625 26.4008 14.3992 26.5807C14.1734 26.7606 14.0379 26.9855 13.9024 27.2554C13.767 27.5253 13.7218 27.8852 13.7218 28.2901C13.7218 28.515 13.767 28.7399 13.8121 28.9198C13.8573 29.0998 13.9476 29.2797 14.0379 29.4596C14.1283 29.5946 14.2637 29.7295 14.3992 29.8195C14.5347 29.9095 14.7154 29.9545 14.896 29.9545C15.1218 29.9545 15.3476 29.9095 15.5283 29.7745C15.7089 29.6396 15.8896 29.4147 16.025 29.0998V29.8645H17.5154V26.1758C17.2444 26.1309 16.9735 26.1309 16.7477 26.1309H16.7476H16.1154ZM16.0702 27.9752C16.0251 28.2001 15.9799 28.335 15.9347 28.47L15.9347 28.47C15.8896 28.6049 15.8444 28.6949 15.7541 28.7399C15.7089 28.7849 15.6186 28.8299 15.5734 28.8299C15.5283 28.8299 15.4379 28.7849 15.3928 28.7399C15.3476 28.6949 15.3025 28.6049 15.2573 28.47C15.2328 28.4213 15.2216 28.3594 15.2093 28.2915C15.1989 28.2339 15.1877 28.172 15.167 28.1101C15.167 28.0358 15.1533 27.9615 15.141 27.8948C15.1309 27.8402 15.1218 27.7907 15.1218 27.7503C15.1218 27.6603 15.1218 27.5703 15.167 27.5253C15.167 27.4804 15.2121 27.3904 15.2573 27.3454C15.3025 27.3004 15.3928 27.2554 15.4831 27.2554C15.5734 27.2105 15.7089 27.2105 15.8896 27.2105H15.8896H16.025H16.2057C16.1605 27.5253 16.1154 27.7952 16.0702 27.9752ZM36.3927 25.101C36.483 25.1909 36.5734 25.3259 36.6637 25.5058C36.7213 25.5918 36.7789 25.7144 36.8481 25.8619L36.8482 25.862L36.8483 25.8624C36.8877 25.9461 36.9308 26.0379 36.9798 26.1356L38.0637 29.8692H36.5282L36.1669 28.6996H34.8572L34.5411 29.8692H33.0056H24.1991H22.7087V26.1806H24.1991V28.3848H33.4121L34.3604 24.8311H35.3992C35.625 24.8311 35.8056 24.8311 35.9863 24.876C36.1217 24.921 36.2572 25.011 36.3927 25.101ZM35.354 26.3155L35.0379 27.62H35.7605L35.3992 26.3155H35.354ZM50.2574 27.2556C50.438 27.1207 50.5735 26.9857 50.6638 26.8058C50.7542 26.6259 50.7993 26.4459 50.7993 26.221C50.7993 25.8162 50.6638 25.4563 50.3477 25.1864C50.0316 24.9165 49.6251 24.8265 49.0832 24.8265H46.6445V28.3802H40.0057V24.5566H38.5154V29.8647H39.825H40.0057H46.6445H47.5477H48.18V29.1899C48.3154 29.4598 48.4509 29.6848 48.6767 29.7747C48.8574 29.8647 49.1283 29.9547 49.3993 29.9547C49.6703 29.9547 49.8961 29.9097 50.1219 29.8197C50.3025 29.7297 50.4832 29.6398 50.6187 29.5048C50.7542 29.3699 50.8445 29.2349 50.9348 29.055C50.98 28.8751 51.0251 28.6951 51.0251 28.4702C51.0251 28.2453 50.98 28.0204 50.8445 27.7954C50.709 27.5705 50.5284 27.3906 50.2574 27.2556ZM48.2251 26.1311H48.8122C48.9477 26.1311 49.038 26.1311 49.1283 26.176C49.2187 26.221 49.2638 26.311 49.2638 26.4459C49.2638 26.5527 49.2356 26.6032 49.2014 26.6642L49.2013 26.6642L49.2013 26.6643L49.2012 26.6644C49.1923 26.6804 49.1829 26.6972 49.1735 26.7158C49.0832 26.7608 48.9929 26.8058 48.8574 26.8058H48.2251V26.1311ZM49.2638 28.5152C49.1735 28.5602 49.0832 28.6052 48.9477 28.6052H48.1348V27.9304H48.9477C49.0832 27.9304 49.1735 27.9754 49.2638 28.0204C49.3542 28.0654 49.3542 28.1553 49.3542 28.2903C49.3993 28.3802 49.3542 28.4702 49.2638 28.5152ZM52.877 26.2208C53.148 26.1758 53.4641 26.1309 53.8254 26.1309H54.4577C54.6835 26.1309 54.9545 26.1309 55.2255 26.1758V29.8645H53.7351V29.0998C53.5996 29.4147 53.419 29.6396 53.2383 29.7745C53.0577 29.9095 52.8319 29.9545 52.6061 29.9545C52.4254 29.9545 52.2448 29.9095 52.1093 29.8195C51.9738 29.7295 51.8383 29.5946 51.748 29.4596C51.6577 29.2797 51.5673 29.0998 51.5222 28.9198C51.477 28.7399 51.4319 28.515 51.4319 28.2901C51.4319 27.8852 51.477 27.5253 51.6125 27.2554C51.748 26.9855 51.8835 26.7606 52.1093 26.5807C52.3351 26.4008 52.6061 26.3108 52.877 26.2208ZM53.6448 28.47C53.69 28.335 53.7351 28.2001 53.7803 27.9752C53.8254 27.7952 53.8706 27.5253 53.9158 27.2105H53.7351H53.5996C53.419 27.2105 53.2835 27.2105 53.1932 27.2554C53.1029 27.2554 53.0125 27.3004 52.9674 27.3454C52.9222 27.3904 52.877 27.4804 52.877 27.5253C52.8319 27.5703 52.8319 27.6603 52.8319 27.7503C52.8319 27.7907 52.841 27.8402 52.8511 27.8948C52.8634 27.9615 52.877 28.0358 52.877 28.1101C52.8978 28.172 52.909 28.2339 52.9194 28.2915C52.9317 28.3594 52.9429 28.4213 52.9674 28.47C53.0125 28.6049 53.0577 28.6949 53.1029 28.7399C53.148 28.7849 53.2383 28.8299 53.2835 28.8299C53.3287 28.8299 53.419 28.7849 53.4641 28.7399C53.5545 28.6949 53.5996 28.6049 53.6448 28.47ZM58.1607 26.1311C57.7994 26.1311 57.4833 26.176 57.2123 26.266C56.9414 26.356 56.6704 26.4459 56.4897 26.6259C56.2639 26.8058 56.1284 27.0307 55.993 27.3006C55.8575 27.5705 55.8123 27.9304 55.8123 28.3353C55.8123 28.5602 55.8575 28.7851 55.9026 28.965C55.9478 29.145 56.0381 29.3249 56.1284 29.5048C56.2188 29.6398 56.3543 29.7747 56.4897 29.8647C56.6252 29.9547 56.8059 29.9996 56.9865 29.9996C57.2123 29.9996 57.4381 29.9547 57.6188 29.8197C57.7994 29.6848 57.9801 29.4598 58.1156 29.145V29.9097H59.6059V24.5566H58.1156V26.1311H58.1607ZM58.1607 27.9754C58.1156 28.2003 58.0704 28.3353 58.0252 28.4702C57.9801 28.6052 57.9349 28.6951 57.8446 28.7401C57.7994 28.7851 57.7091 28.8301 57.6639 28.8301C57.6188 28.8301 57.5285 28.7851 57.4833 28.7401C57.4381 28.6951 57.393 28.6052 57.3478 28.4702C57.3234 28.4215 57.3122 28.3596 57.2998 28.2917C57.2894 28.2341 57.2782 28.1722 57.2575 28.1103C57.2575 28.036 57.2438 27.9618 57.2315 27.895C57.2215 27.8404 57.2123 27.7909 57.2123 27.7505C57.2123 27.6605 57.2123 27.5705 57.2575 27.5255C57.2575 27.4806 57.3027 27.3906 57.3478 27.3456C57.393 27.3006 57.4833 27.2556 57.5736 27.2556C57.6639 27.2107 57.7994 27.2107 57.9801 27.2107H58.1156H58.2962C58.2511 27.5256 58.2059 27.7955 58.1607 27.9754ZM62.5861 26.1309H63.2635C63.3764 26.1309 63.5006 26.1421 63.6248 26.1534C63.749 26.1646 63.8732 26.1758 63.9861 26.1758V29.8645H62.4958V29.0998C62.3603 29.4147 62.1796 29.6396 61.999 29.7745C61.8183 29.9095 61.5925 29.9545 61.3667 29.9545C61.1861 29.9545 61.0054 29.9095 60.8699 29.8195C60.7345 29.7295 60.599 29.5946 60.5086 29.4596C60.4183 29.2797 60.328 29.0998 60.2828 28.9198C60.2377 28.7399 60.1925 28.515 60.1925 28.2901C60.1925 27.8852 60.2377 27.5253 60.3732 27.2554C60.5086 26.9855 60.6441 26.7606 60.8699 26.5807C61.0958 26.4008 61.3667 26.3108 61.6377 26.2208C61.9087 26.1758 62.2248 26.1309 62.5861 26.1309ZM62.4054 28.47C62.4506 28.335 62.4958 28.2001 62.5409 27.9752C62.5861 27.7952 62.6313 27.5253 62.6764 27.2105H62.4958H62.3603C62.1796 27.2105 62.0442 27.2105 61.9538 27.2554C61.8635 27.2554 61.7732 27.3004 61.728 27.3454C61.6829 27.3904 61.6377 27.4804 61.6377 27.5253C61.5925 27.5703 61.5925 27.6603 61.5925 27.7503C61.5925 27.7907 61.6017 27.8402 61.6117 27.8948C61.624 27.9615 61.6377 28.0358 61.6377 28.1101C61.6584 28.172 61.6696 28.2339 61.68 28.2915C61.6924 28.3594 61.7036 28.4213 61.728 28.47C61.7732 28.6049 61.8183 28.6949 61.8635 28.7399C61.9087 28.7849 61.999 28.8299 62.0442 28.8299C62.0893 28.8299 62.1796 28.7849 62.2248 28.7399C62.3151 28.6949 62.3603 28.6049 62.4054 28.47Z" fill="#1AE3E3"/>
</svg>
