<svg width="36" height="36" viewBox="0 0 36 36" fill="none" xmlns="http://www.w3.org/2000/svg">
<g clip-path="url(#clip0_5824_93401)">
<path d="M33.4719 11.3232H32.4859V22.1605C32.4859 23.8478 31.5035 25.3736 29.534 25.3736H10.2377V25.8888C10.2377 27.3806 11.9344 28.8865 13.6768 28.8865H28.4297L34.0738 32.205L33.2553 28.8865H33.4719C35.2131 28.8865 35.9988 27.3841 35.9988 25.8888V13.8958C35.9988 12.404 35.2131 11.3232 33.4719 11.3232Z" fill="#50FF81"/>
<path d="M26.6534 3.79395H4.24122C2.26932 3.79395 0 5.5457 0 7.23423V20.8174C0 22.3724 1.92272 23.4953 3.76698 23.6687L2.56674 28.2249L10.2576 23.7003H26.6534C28.6253 23.7003 30.445 22.5047 30.445 20.8174V9.8279V7.23423C30.445 5.5457 28.6241 3.79395 26.6534 3.79395ZM7.66042 15.26C6.54215 15.26 5.63583 14.3537 5.63583 13.2354C5.63583 12.1171 6.54215 11.2108 7.66042 11.2108C8.77752 11.2108 9.68501 12.1171 9.68501 13.2354C9.68501 14.3537 8.77752 15.26 7.66042 15.26ZM15.2225 15.26C14.1042 15.26 13.1979 14.3537 13.1979 13.2354C13.1979 12.1171 14.1042 11.2108 15.2225 11.2108C16.3407 11.2108 17.2471 12.1171 17.2471 13.2354C17.2471 14.3537 16.3407 15.26 15.2225 15.26ZM22.7857 15.26C21.6674 15.26 20.76 14.3537 20.76 13.2354C20.76 12.1171 21.6674 11.2108 22.7857 11.2108C23.9016 11.2108 24.8103 12.1171 24.8103 13.2354C24.8103 14.3537 23.9016 15.26 22.7857 15.26Z" fill="#00C7C7"/>
</g>
<defs>
<clipPath id="clip0_5824_93401">
<rect width="35.9988" height="36" fill="white"/>
</clipPath>
</defs>
</svg>
