<svg width="120" height="71" viewBox="0 0 120 71" fill="none" xmlns="http://www.w3.org/2000/svg">
<rect y="0.19873" width="120" height="70.1987" fill="#E7F1FF"/>
<g clip-path="url(#clip0_1168_7176)">
<g opacity="0.9">
<path d="M88.0698 42.6619C88.5898 35.4585 76.3639 28.7037 60.7626 27.5746C45.1612 26.4456 32.0923 31.3698 31.5724 38.5732C31.0524 45.7767 43.2783 52.5315 58.8796 53.6606C74.4809 54.7896 87.5499 49.8654 88.0698 42.6619Z" stroke="#022A5D" stroke-width="0.211921" stroke-miterlimit="10"/>
<path opacity="0.5" d="M87.0315 41.1688C87.2355 34.1384 75.0315 28.0792 59.773 27.6353C44.5145 27.1914 31.9796 32.5308 31.7756 39.5613C31.5716 46.5917 43.7757 52.6509 59.0342 53.0948C74.2927 53.5387 86.8275 48.1992 87.0315 41.1688Z" stroke="#022A5D" stroke-width="0.211921" stroke-miterlimit="10"/>
<path opacity="0.5" d="M59.1935 52.5708C74.1002 52.3294 86.0942 46.5518 85.983 39.6661C85.8717 32.7805 73.6973 27.3944 58.7907 27.6358C43.884 27.8773 31.89 33.6549 32.0012 40.5405C32.1125 47.4261 44.2869 52.8123 59.1935 52.5708Z" stroke="#022A5D" stroke-width="0.211921" stroke-miterlimit="10"/>
<path opacity="0.5" d="M59.346 52.0157C73.9104 51.0888 85.3711 44.8851 84.9442 38.1592C84.5173 31.4334 72.3644 26.7324 57.8 27.6592C43.2355 28.586 31.7748 34.7898 32.2017 41.5156C32.6286 48.2415 44.7815 52.9425 59.346 52.0157Z" stroke="#022A5D" stroke-width="0.211921" stroke-miterlimit="10"/>
<path opacity="0.5" d="M59.4967 51.4695C73.7261 49.8563 84.6608 43.2386 83.9201 36.6884C83.1794 30.1383 71.0438 26.136 56.8144 27.7492C42.585 29.3624 31.6503 35.9801 32.3909 42.5303C33.1316 49.0805 45.2673 53.0827 59.4967 51.4695Z" stroke="#022A5D" stroke-width="0.211921" stroke-miterlimit="10"/>
<path opacity="0.5" d="M59.6922 50.9288C73.5731 48.6298 83.9686 41.5774 82.9112 35.1769C81.8539 28.7765 69.744 25.4516 55.8631 27.7507C41.9822 30.0498 31.5867 37.1022 32.6441 43.5026C33.7014 49.9031 45.8113 53.2279 59.6922 50.9288Z" stroke="#022A5D" stroke-width="0.211921" stroke-miterlimit="10"/>
<path opacity="0.5" d="M59.8414 50.3606C73.3768 47.3755 83.238 39.9028 81.8669 33.6697C80.4958 27.4366 68.4117 24.8036 54.8762 27.7887C41.3408 30.7737 31.4797 38.2465 32.8508 44.4796C34.2218 50.7126 46.306 53.3457 59.8414 50.3606Z" stroke="#022A5D" stroke-width="0.211921" stroke-miterlimit="10"/>
<path opacity="0.5" d="M59.9899 49.7996C73.1822 46.1282 82.511 38.2324 80.8265 32.1638C79.1419 26.0953 67.0819 24.152 53.8896 27.8235C40.6974 31.4949 31.3685 39.3907 33.0531 45.4593C34.7376 51.5278 46.7977 53.4711 59.9899 49.7996Z" stroke="#022A5D" stroke-width="0.211921" stroke-miterlimit="10"/>
<path opacity="0.5" d="M60.1497 49.2751C72.9784 44.9229 81.7527 36.5911 79.7475 30.6657C77.7424 24.7402 65.7172 23.4648 52.8886 27.8171C40.0599 32.1693 31.2856 40.5011 33.2907 46.4265C35.2959 52.352 47.321 53.6274 60.1497 49.2751Z" stroke="#022A5D" stroke-width="0.211921" stroke-miterlimit="10"/>
<path opacity="0.5" d="M60.3129 48.7561C72.7983 43.7178 81.0391 34.9609 78.7191 29.197C76.3991 23.433 64.3969 22.8448 51.9115 27.8832C39.4261 32.9215 31.1854 41.6784 33.5054 47.4423C35.8254 53.2063 47.8275 53.7945 60.3129 48.7561Z" stroke="#022A5D" stroke-width="0.211921" stroke-miterlimit="10"/>
<path opacity="0.5" d="M60.4983 48.1871C72.6389 42.4631 80.3446 33.2805 77.7096 27.6773C75.0746 22.074 63.0966 22.172 50.9561 27.896C38.8155 33.62 31.1097 42.8026 33.7448 48.4058C36.3798 54.009 48.3578 53.9111 60.4983 48.1871Z" stroke="#022A5D" stroke-width="0.211921" stroke-miterlimit="10"/>
<path opacity="0.5" d="M60.6506 47.6352C72.4449 41.2259 79.6142 31.6174 76.6637 26.1739C73.7133 20.7305 61.7602 21.5135 49.9659 27.9228C38.1715 34.3321 31.0022 43.9406 33.9527 49.384C36.9032 54.8275 48.8562 54.0445 60.6506 47.6352Z" stroke="#022A5D" stroke-width="0.211921" stroke-miterlimit="10"/>
<path opacity="0.5" d="M60.8031 47.0841C72.2493 39.9903 78.8803 29.9559 75.6138 24.6718C72.3474 19.3876 60.4204 20.8547 48.9742 27.9485C37.528 35.0423 30.897 45.0766 34.1635 50.3608C37.43 55.6449 49.3569 54.1779 60.8031 47.0841Z" stroke="#022A5D" stroke-width="0.211921" stroke-miterlimit="10"/>
<path opacity="0.5" d="M60.9553 46.5383C72.053 38.7615 78.1449 28.3017 74.562 23.1758C70.9792 18.0499 59.0783 20.1989 47.9807 27.9757C36.8831 35.7525 30.7912 46.2123 34.374 51.3382C37.9569 56.4641 49.8577 54.3151 60.9553 46.5383Z" stroke="#022A5D" stroke-width="0.211921" stroke-miterlimit="10"/>
<path opacity="0.5" d="M61.1088 45.9927C71.8735 37.5201 77.4486 26.6375 73.5611 21.6857C69.6737 16.7339 57.7958 19.588 47.0312 28.0605C36.2665 36.533 30.6914 47.4156 34.5789 52.3675C38.4663 57.3193 50.3442 54.4652 61.1088 45.9927Z" stroke="#022A5D" stroke-width="0.211921" stroke-miterlimit="10"/>
<path opacity="0.5" d="M61.2911 45.4284C71.7068 36.2733 76.7414 24.9635 72.5363 20.1671C68.3312 15.3707 56.4788 18.9041 46.0632 28.0591C35.6476 37.2141 30.613 48.524 34.8181 53.3204C39.0231 58.1168 50.8755 54.5834 61.2911 45.4284Z" stroke="#022A5D" stroke-width="0.211921" stroke-miterlimit="10"/>
<path opacity="0.5" d="M61.4516 44.8885C71.5197 35.0483 76.0128 23.3079 71.4871 18.6656C66.9615 14.0232 55.131 18.2368 45.0629 28.0769C34.9948 37.917 30.5018 49.6574 35.0274 54.2998C39.553 58.9422 51.3835 54.7286 61.4516 44.8885Z" stroke="#022A5D" stroke-width="0.211921" stroke-miterlimit="10"/>
<path opacity="0.5" d="M61.5905 44.3288C71.3145 33.8008 75.2787 21.6374 70.4448 17.1612C65.6108 12.685 53.8093 17.5909 44.0854 28.119C34.3614 38.647 30.3972 50.8103 35.2311 55.2865C40.065 59.7628 51.8665 54.8568 61.5905 44.3288Z" stroke="#022A5D" stroke-width="0.211921" stroke-miterlimit="10"/>
<path opacity="0.3" d="M61.7592 43.8005C71.1283 32.5972 74.5401 20.0077 69.3797 15.681C64.2193 11.3544 52.4408 16.929 43.0717 28.1323C33.7026 39.3356 30.2908 51.9252 35.4512 56.2518C40.6116 60.5785 52.3901 55.0038 61.7592 43.8005Z" stroke="#022A5D" stroke-width="0.211921" stroke-miterlimit="10"/>
<path opacity="0.3" d="M61.9404 43.2778C70.974 31.3759 73.8582 18.3497 68.3824 14.1828C62.9065 10.0159 51.1443 16.2863 42.1107 28.1881C33.0771 40.0899 30.1929 53.1162 35.6688 57.2831C41.1446 61.45 52.9068 55.1796 61.9404 43.2778Z" stroke="#022A5D" stroke-width="0.211921" stroke-miterlimit="10"/>
<path opacity="0.3" d="M62.0695 42.7156C70.7474 30.1413 73.0976 16.7064 67.3187 12.708C61.5399 8.7096 49.8204 15.6618 41.1425 28.2361C32.4645 40.8104 30.1144 54.2453 35.8932 58.2437C41.672 62.2421 53.3915 55.2899 62.0695 42.7156Z" stroke="#022A5D" stroke-width="0.211921" stroke-miterlimit="10"/>
<path opacity="0.3" d="M62.2593 42.1497C70.5887 28.8933 72.3918 15.0292 66.2868 11.1833C60.1818 7.3375 48.4804 14.9663 40.151 28.2227C31.8216 41.4791 30.0184 55.3432 36.1235 59.1891C42.2285 63.0349 53.9299 55.4061 62.2593 42.1497Z" stroke="#022A5D" stroke-width="0.211921" stroke-miterlimit="10"/>
</g>
</g>
<defs>
<clipPath id="clip0_1168_7176">
<rect width="56.8346" height="50.3311" fill="white" transform="translate(31.3906 10.0332)"/>
</clipPath>
</defs>
</svg>
