<?xml version="1.0" encoding="UTF-8"?>
<svg xmlns="http://www.w3.org/2000/svg" width="170" height="42" viewBox="0 0 170 42" fill="none">
  <path d="M21 0C9.40534 0 0 9.40416 0 21C0 32.5958 9.40534 42 21 42C32.5947 42 42 32.5958 42 21C42 9.40416 32.5947 0 21 0ZM28.0234 8.24283C29.6872 8.24283 31.0359 9.61372 31.0359 11.3077C31.0359 13.0017 29.6872 14.3726 28.0234 14.3726C26.3595 14.3726 25.0108 13.0017 25.0108 11.3077C25.0108 9.61372 26.3595 8.24283 28.0234 8.24283ZM31.0797 24.6412C31.0797 30.3954 26.4733 33.7746 21.0175 33.7746C15.4917 33.7746 10.9204 30.3954 10.9204 24.6412V11.1156C10.9204 9.53514 12.1639 8.2341 13.7577 8.2341C15.3866 8.2341 16.7352 9.5264 16.7352 11.1156V24.6062C16.7352 27.8457 18.8982 28.8848 21.0263 28.8848C23.1543 28.8848 25.2736 27.837 25.2736 24.6062V19.7077C25.2736 18.1272 26.6222 16.8262 28.251 16.8262C29.8449 16.8262 31.0884 18.1185 31.0884 19.7077V24.6412H31.0797Z" fill="#5648FF"></path>
  <path d="M61.8354 31.2093C60.4158 31.2093 59.16 30.9195 58.068 30.3399C56.9844 29.7519 56.136 28.9329 55.5228 27.8829C54.9096 26.8245 54.603 25.5813 54.603 24.1533V12.6999L57.2742 12.6873V24.0147C57.2742 24.7875 57.4044 25.4679 57.6648 26.0559C57.9252 26.6439 58.2738 27.1353 58.7106 27.5301C59.1474 27.9249 59.6346 28.2231 60.1722 28.4247C60.7182 28.6263 61.2726 28.7271 61.8354 28.7271C62.4066 28.7271 62.961 28.6263 63.4986 28.4247C64.0446 28.2147 64.536 27.9123 64.9728 27.5175C65.4096 27.1227 65.754 26.6313 66.006 26.0433C66.2664 25.4553 66.3966 24.7791 66.3966 24.0147V12.6873H69.0678V24.1533C69.0678 25.5729 68.7612 26.8119 68.148 27.8703C67.5348 28.9287 66.6822 29.7519 65.5902 30.3399C64.5066 30.9195 63.255 31.2093 61.8354 31.2093Z" fill="#001345"></path>
  <path d="M72.8445 14.9931V12.4353H75.4779V14.9931H72.8445ZM72.8445 30.8313V17.2233H75.4779V30.8313H72.8445Z" fill="#001345"></path>
  <path d="M79.2616 30.8313V12.6873H90.8536V15.1695H81.895V20.2599H89.3416V22.7421H81.895V28.3491H90.8536V30.8313H79.2616Z" fill="#001345"></path>
  <path d="M92.3676 30.8313L97.458 23.9517L92.481 17.2233H95.6058L98.9952 21.8979L102.347 17.2233H105.472L100.495 23.9517L105.598 30.8313H102.46L98.9952 26.0055L95.505 30.8313H92.3676Z" fill="#001345"></path>
  <path d="M114 31.2093C112.698 31.2093 111.606 30.8943 110.724 30.2643C109.842 29.6259 109.174 28.7649 108.72 27.6813C108.267 26.5977 108.04 25.3755 108.04 24.0147C108.04 22.6539 108.263 21.4317 108.708 20.3481C109.161 19.2645 109.825 18.4119 110.699 17.7903C111.581 17.1603 112.664 16.8453 113.949 16.8453C115.226 16.8453 116.327 17.1603 117.251 17.7903C118.183 18.4119 118.901 19.2645 119.405 20.3481C119.909 21.4233 120.161 22.6455 120.161 24.0147C120.161 25.3755 119.909 26.6019 119.405 27.6939C118.91 28.7775 118.2 29.6343 117.276 30.2643C116.36 30.8943 115.268 31.2093 114 31.2093ZM107.599 36.8793V17.2233H109.943V27.0135H110.245V36.8793H107.599ZM113.634 28.8279C114.474 28.8279 115.167 28.6137 115.713 28.1853C116.268 27.7569 116.679 27.1815 116.948 26.4591C117.225 25.7283 117.364 24.9135 117.364 24.0147C117.364 23.1243 117.225 22.3179 116.948 21.5955C116.679 20.8731 116.264 20.2977 115.701 19.8693C115.138 19.4409 114.42 19.2267 113.546 19.2267C112.723 19.2267 112.043 19.4283 111.505 19.8315C110.976 20.2347 110.581 20.7975 110.321 21.5199C110.069 22.2423 109.943 23.0739 109.943 24.0147C109.943 24.9555 110.069 25.7871 110.321 26.5095C110.573 27.2319 110.972 27.7989 111.518 28.2105C112.064 28.6221 112.769 28.8279 113.634 28.8279Z" fill="#001345"></path>
  <path d="M128.979 31.2093C127.626 31.2093 126.438 30.9153 125.413 30.3273C124.396 29.7309 123.603 28.9035 123.031 27.8451C122.469 26.7783 122.187 25.5435 122.187 24.1407C122.187 22.6539 122.464 21.3645 123.019 20.2725C123.582 19.1805 124.363 18.3363 125.362 17.7399C126.362 17.1435 127.525 16.8453 128.853 16.8453C130.239 16.8453 131.419 17.1687 132.393 17.8155C133.368 18.4539 134.094 19.3653 134.573 20.5497C135.06 21.7341 135.253 23.1411 135.153 24.7707H132.519V23.8131C132.502 22.2339 132.2 21.0663 131.612 20.3103C131.032 19.5543 130.146 19.1763 128.953 19.1763C127.635 19.1763 126.643 19.5921 125.98 20.4237C125.316 21.2553 124.984 22.4565 124.984 24.0273C124.984 25.5225 125.316 26.6817 125.98 27.5049C126.643 28.3197 127.601 28.7271 128.853 28.7271C129.676 28.7271 130.386 28.5423 130.982 28.1727C131.587 27.7947 132.057 27.2571 132.393 26.5599L134.976 27.3789C134.447 28.5969 133.645 29.5419 132.57 30.2139C131.494 30.8775 130.297 31.2093 128.979 31.2093ZM124.128 24.7707V22.7169H133.842V24.7707H124.128Z" fill="#001345"></path>
  <path d="M137.98 30.8313V17.2233H140.323V20.5245L139.996 20.0961C140.164 19.6593 140.382 19.2603 140.651 18.8991C140.92 18.5295 141.23 18.2271 141.583 17.9919C141.928 17.7399 142.31 17.5467 142.73 17.4123C143.158 17.2695 143.595 17.1855 144.04 17.1603C144.485 17.1267 144.914 17.1477 145.325 17.2233V19.6929C144.88 19.5753 144.385 19.5417 143.839 19.5921C143.301 19.6425 142.805 19.8147 142.352 20.1087C141.923 20.3859 141.583 20.7219 141.331 21.1167C141.088 21.5115 140.911 21.9525 140.802 22.4397C140.693 22.9185 140.638 23.4267 140.638 23.9643V30.8313H137.98Z" fill="#001345"></path>
  <path d="M155.512 30.8313C154.655 30.9993 153.815 31.0707 152.992 31.0455C152.168 31.0203 151.433 30.8607 150.787 30.5667C150.14 30.2727 149.653 29.8107 149.325 29.1807C149.031 28.6179 148.871 28.0467 148.846 27.4671C148.829 26.8791 148.821 26.2155 148.821 25.4763V13.4433H151.467V25.3503C151.467 25.8963 151.471 26.3709 151.48 26.7741C151.496 27.1773 151.585 27.5175 151.744 27.7947C152.047 28.3155 152.525 28.6137 153.181 28.6893C153.844 28.7565 154.621 28.7271 155.512 28.6011V30.8313ZM146.213 19.3401V17.2233H155.512V19.3401H146.213Z" fill="#001345"></path>
  <path d="M157.121 30.8313V30.4155L164.845 19.5795H157.826V17.2233H169.028V17.6517L161.317 28.4751H168.65V30.8313H157.121Z" fill="#001345"></path>
</svg>
