<?xml version="1.0" encoding="UTF-8"?>
<svg xmlns="http://www.w3.org/2000/svg" width="24" height="24" viewBox="0 0 24 24" fill="none">
  <path d="M20.9997 12.4235V10.9995C20.9997 8.61256 20.0515 6.32338 18.3637 4.63555C16.6758 2.94772 14.3867 1.99951 11.9997 1.99951C9.61276 1.99951 7.32357 2.94772 5.63575 4.63555C3.94792 6.32338 2.99971 8.61256 2.99971 10.9995V12.4235C1.95087 12.8853 1.09251 13.6935 0.568328 14.7126C0.0441491 15.7317 -0.114033 16.8999 0.120264 18.0218C0.354561 19.1436 0.967114 20.1508 1.85538 20.875C2.74364 21.5991 3.85369 21.9961 4.99971 21.9995H6.99971V11.9995H4.99971V10.9995C4.99971 9.143 5.7372 7.36252 7.04996 6.04976C8.36271 4.73701 10.1432 3.99951 11.9997 3.99951C13.8562 3.99951 15.6367 4.73701 16.9495 6.04976C18.2622 7.36252 18.9997 9.143 18.9997 10.9995V11.9995H16.9997V19.9995H12.9997V21.9995H18.9997C20.1457 21.9961 21.2558 21.5991 22.144 20.875C23.0323 20.1508 23.6449 19.1436 23.8791 18.0218C24.1134 16.8999 23.9553 15.7317 23.4311 14.7126C22.9069 13.6935 22.0485 12.8853 20.9997 12.4235ZM4.99971 19.9995C4.20406 19.9995 3.441 19.6834 2.87839 19.1208C2.31578 18.5582 1.99971 17.7952 1.99971 16.9995C1.99971 16.2039 2.31578 15.4408 2.87839 14.8782C3.441 14.3156 4.20406 13.9995 4.99971 13.9995V19.9995ZM18.9997 19.9995V13.9995C19.7954 13.9995 20.5584 14.3156 21.121 14.8782C21.6836 15.4408 21.9997 16.2039 21.9997 16.9995C21.9997 17.7952 21.6836 18.5582 21.121 19.1208C20.5584 19.6834 19.7954 19.9995 18.9997 19.9995Z" fill="#5648FF"></path>
</svg>
