<?xml version="1.0" encoding="UTF-8"?>
<svg xmlns="http://www.w3.org/2000/svg" width="24" height="20" viewBox="0 0 24 20" fill="none">
  <path d="M20.9997 10.4235V8.99951C20.9997 6.61256 20.0515 4.32338 18.3637 2.63555C16.6758 0.947723 14.3867 -0.000488281 11.9997 -0.000488281C9.61276 -0.000488281 7.32357 0.947723 5.63575 2.63555C3.94792 4.32338 2.99971 6.61256 2.99971 8.99951V10.4235C1.95087 10.8853 1.09251 11.6935 0.568328 12.7126C0.0441491 13.7317 -0.114033 14.8999 0.120264 16.0218C0.354561 17.1436 0.967114 18.1508 1.85538 18.875C2.74364 19.5991 3.85369 19.9961 4.99971 19.9995H6.99971V9.99951H4.99971V8.99951C4.99971 7.143 5.7372 5.36252 7.04996 4.04976C8.36271 2.73701 10.1432 1.99951 11.9997 1.99951C13.8562 1.99951 15.6367 2.73701 16.9495 4.04976C18.2622 5.36252 18.9997 7.143 18.9997 8.99951V9.99951H16.9997V17.9995H12.9997V19.9995H18.9997C20.1457 19.9961 21.2558 19.5991 22.144 18.875C23.0323 18.1508 23.6449 17.1436 23.8791 16.0218C24.1134 14.8999 23.9553 13.7317 23.4311 12.7126C22.9069 11.6935 22.0485 10.8853 20.9997 10.4235V10.4235ZM4.99971 17.9995C4.20406 17.9995 3.441 17.6834 2.87839 17.1208C2.31578 16.5582 1.99971 15.7952 1.99971 14.9995C1.99971 14.2039 2.31578 13.4408 2.87839 12.8782C3.441 12.3156 4.20406 11.9995 4.99971 11.9995V17.9995ZM18.9997 17.9995V11.9995C19.7954 11.9995 20.5584 12.3156 21.121 12.8782C21.6836 13.4408 21.9997 14.2039 21.9997 14.9995C21.9997 15.7952 21.6836 16.5582 21.121 17.1208C20.5584 17.6834 19.7954 17.9995 18.9997 17.9995Z" fill="white"></path>
</svg>
