<svg width="461" height="461" viewBox="0 0 461 461" fill="none" xmlns="http://www.w3.org/2000/svg">
<g clip-path="url(#clip0_4107_21794)">
<path d="M230.5 461C357.802 461 461 357.802 461 230.5C461 103.198 357.802 0 230.5 0C103.198 0 0 103.198 0 230.5C0 357.802 103.198 461 230.5 461Z" fill="#00516A"/>
<path d="M293.984 213.092H24.6987C24.3933 213.092 24.1433 212.842 24.1433 212.536V37.9617C24.1433 37.6562 24.3933 37.4062 24.6987 37.4062H293.984C294.289 37.4062 294.539 37.6562 294.539 37.9617V212.536C294.539 212.842 294.289 213.092 293.984 213.092ZM25.2542 211.981H293.428V38.5171H25.2542V211.981Z" fill="#006584"/>
<path d="M152.457 63.2422H44.083V156.048H152.457V63.2422Z" fill="#006584"/>
<path d="M274.601 76.5249H177.618C177.313 76.5249 177.063 76.275 177.063 75.9695C177.063 75.664 177.313 75.4141 177.618 75.4141H274.601C274.906 75.4141 275.156 75.664 275.156 75.9695C275.156 76.275 274.906 76.5249 274.601 76.5249Z" fill="#006584"/>
<path d="M254 96.4038H177.618C177.313 96.4038 177.063 96.1539 177.063 95.8484C177.063 95.5429 177.313 95.293 177.618 95.293H254C254.305 95.293 254.555 95.5429 254.555 95.8484C254.555 96.1539 254.305 96.4038 254 96.4038Z" fill="#006584"/>
<path d="M266.875 114.404H177.618C177.313 114.404 177.063 114.154 177.063 113.848C177.063 113.543 177.313 113.293 177.618 113.293H266.875C267.18 113.293 267.43 113.543 267.43 113.848C267.43 114.154 267.18 114.404 266.875 114.404Z" fill="#006584"/>
<path d="M239.02 133.349H177.618C177.313 133.349 177.063 133.099 177.063 132.794C177.063 132.488 177.313 132.238 177.618 132.238H239.02C239.326 132.238 239.576 132.488 239.576 132.794C239.576 133.099 239.326 133.349 239.02 133.349Z" fill="#006584"/>
<path d="M85.5115 91.2564C87.2111 90.4066 88.9774 89.8123 90.7603 89.468L90.0827 79.8203C87.0667 80.2869 84.0786 81.2144 81.207 82.653C74.2365 86.141 69.2044 91.9785 66.5828 98.7324L75.8583 101.465C77.7134 97.1828 81.0182 93.5115 85.5115 91.262V91.2564Z" fill="#005975"/>
<path d="M75.325 116.512C74.1364 113.163 73.8698 109.658 74.4252 106.315L65.1497 103.582C63.9889 109.208 64.4165 115.201 66.6715 120.839L75.325 116.512Z" fill="#005975"/>
<path d="M122.73 98.4453L114.076 102.772C117.497 112.403 113.265 123.334 103.895 128.022C94.5252 132.709 83.2446 129.538 77.5849 121.023L68.9314 125.35C77.0017 138.602 94.0753 143.69 108.194 136.631C122.319 129.566 128.484 112.853 122.724 98.4509L122.73 98.4453Z" fill="#005975"/>
<path d="M95.8022 89.1203C102.134 89.4703 108.155 92.7417 111.821 98.257L120.474 93.9303C114.959 84.8714 105.239 79.6282 95.1301 79.4727L95.8077 89.1203H95.8022Z" fill="#005975"/>
<path d="M398.31 356.14L392.862 354.235C393.3 351.408 393.511 348.581 393.495 345.776L399.166 344.699L395.522 325.498L389.84 326.575C388.813 323.937 387.585 321.382 386.158 318.938L390.54 315.167L377.787 300.359L373.416 304.125C371.234 302.37 368.89 300.77 366.401 299.354L368.306 293.905L349.861 287.457L347.956 292.906C345.129 292.467 342.302 292.256 339.497 292.272L338.419 286.602L319.224 290.245L320.301 295.927C317.663 296.955 315.108 298.182 312.664 299.61L308.893 295.227L294.085 307.98L297.851 312.351C296.096 314.534 294.496 316.878 293.08 319.366L287.631 317.461L281.183 335.906L286.632 337.811C286.193 340.639 285.982 343.466 285.998 346.271L280.328 347.348L283.966 366.543L289.648 365.466C290.675 368.104 291.903 370.659 293.33 373.103L288.948 376.88L301.7 391.687L306.071 387.922C308.254 389.677 310.598 391.276 313.086 392.693L311.181 398.141L329.627 404.59L331.532 399.141C334.359 399.58 337.186 399.791 339.991 399.774L341.069 405.445L360.264 401.807L359.186 396.125C361.825 395.098 364.38 393.87 366.823 392.443L370.595 396.825L385.402 384.073L381.637 379.701C383.392 377.519 384.991 375.175 386.408 372.686L391.856 374.591L398.305 356.146L398.31 356.14ZM369.278 357.44C363.308 372.914 346.112 381.207 330.288 376.236C312.814 370.748 303.628 351.691 310.215 334.601C316.186 319.127 333.382 310.835 349.205 315.806C366.679 321.293 375.866 340.35 369.278 357.44Z" fill="#005A76"/>
<path d="M339.752 389.336C334.981 389.336 330.16 388.548 325.461 386.904C314.542 383.088 305.766 375.251 300.739 364.831C295.718 354.411 295.052 342.664 298.868 331.745C302.311 321.897 309.187 313.627 318.23 308.45C327.183 303.329 337.664 301.558 347.75 303.468C348.05 303.524 348.25 303.818 348.195 304.118C348.139 304.418 347.85 304.618 347.545 304.562C327.233 300.719 306.755 312.56 299.923 332.111C296.207 342.748 296.851 354.2 301.745 364.348C306.638 374.501 315.191 382.138 325.833 385.854C343.979 392.197 364.113 385.482 374.794 369.536C374.966 369.28 375.31 369.213 375.566 369.386C375.821 369.558 375.888 369.902 375.716 370.158C367.518 382.399 353.893 389.336 339.758 389.336H339.752Z" fill="#006584"/>
<path d="M156.985 136.386C164.722 143.162 169.243 155.842 163.911 161.924C158.579 168.011 145.416 165.195 137.679 158.419C129.942 151.643 130.564 143.467 135.896 137.38C141.228 131.292 149.248 129.604 156.985 136.38V136.386Z" fill="#003C4F"/>
<path d="M147.997 167.414C143.459 167.414 138.688 166.403 134.65 164.498C123.408 159.183 122.992 149.69 126.352 142.575C129.718 135.466 137.316 129.762 148.558 135.077C153.529 137.427 158.278 141.609 161.249 146.263C164.509 151.362 165.298 156.283 163.482 160.132C161.127 165.115 154.834 167.414 147.991 167.414H147.997ZM140.221 134.128C133.989 134.128 129.634 138.243 127.357 143.048C124.225 149.674 124.619 158.522 135.122 163.493C144.575 167.964 158.889 167.247 162.477 159.655C164.126 156.167 163.36 151.623 160.316 146.858C157.45 142.37 152.879 138.343 148.086 136.077C145.203 134.716 142.576 134.128 140.221 134.128Z" fill="#003C4F"/>
<path d="M162.988 159.896C162.988 159.896 163.882 175.42 126.175 182.019C80.4915 190.011 110.873 234.112 64.5286 240.116C18.1787 246.12 20.8614 278.967 20.8614 278.967L33.525 291.631C36.902 282.605 45.7221 266.565 66.5837 262.205C66.5837 262.205 45.2888 272.13 42.0674 300.168L69.9329 328.033L220.924 212.528L162.994 159.891L162.988 159.896Z" fill="#003C4F"/>
<path d="M286.648 140.815C286.648 140.815 334.665 89.9047 351.633 74.0918C369.456 57.4847 398.183 35.5567 401.199 39.6168C402.915 41.9274 399.616 45.7265 390.118 55.3019C391.084 55.3019 394.006 56.0073 395.244 58.4123C397.083 61.9725 394.611 64.2442 394.489 64.5497C394.817 64.5219 398.555 64.4053 400.188 66.577C402.026 69.0264 401.587 71.5869 400.393 73.6753C401.204 73.6308 404.681 74.0141 406.147 76.1858C408.052 79.0018 406.431 82.401 404.348 84.2838C400.532 87.7386 389.862 96.9141 384.841 102.491C374.96 113.46 345.09 157.127 326.617 169.208C322.045 150.657 286.643 140.815 286.643 140.815H286.648Z" fill="#FABCC6"/>
<path d="M370.185 93.5584C370.096 93.5584 370.007 93.5362 369.929 93.4973C369.657 93.3529 369.551 93.0197 369.696 92.7475C372.129 88.1208 372.19 83.8663 372.234 80.4449C372.284 76.8902 372.323 74.0798 375.222 73.0134C377.072 72.3358 378.971 70.5806 380.721 67.9368C381.188 67.237 380.999 66.5038 380.677 66.0539C380.343 65.5985 379.693 65.193 378.871 65.4263L363.631 69.7197C363.336 69.803 363.031 69.6309 362.948 69.3365C362.864 69.0421 363.036 68.7366 363.331 68.6533L378.572 64.3599C379.705 64.0433 380.882 64.4488 381.576 65.4041C382.265 66.3483 382.293 67.5814 381.654 68.5533C379.743 71.436 377.711 73.2911 375.611 74.0631C373.528 74.8296 373.401 76.7847 373.351 80.4671C373.301 84.0052 373.239 88.4097 370.685 93.2696C370.585 93.4584 370.39 93.564 370.19 93.564L370.185 93.5584Z" fill="#003C4F"/>
<path d="M395.756 88.5008C395.606 88.5008 395.456 88.4397 395.345 88.3175C392.701 85.4127 392.451 81.0915 394.567 77.9145L393.24 78.8143C390.996 80.3361 387.986 80.0417 386.08 78.1033C385.008 77.0147 384.436 75.5706 384.47 74.0432C384.503 72.5158 385.131 71.0995 386.247 70.0553L387.913 68.4945C386.275 68.8056 384.509 68.2113 383.42 66.8227C381.976 64.9787 382.142 62.346 383.814 60.702L387.947 56.6363C388.163 56.4197 388.519 56.4252 388.73 56.6418C388.946 56.8584 388.941 57.2139 388.724 57.425L384.592 61.4907C383.326 62.7404 383.198 64.7343 384.292 66.134C385.458 67.617 387.63 67.9058 389.141 66.7672L392.334 64.3622C392.573 64.1845 392.907 64.2233 393.095 64.4511C393.284 64.6788 393.268 65.012 393.051 65.212L387.008 70.8606C386.114 71.6993 385.608 72.8324 385.581 74.0598C385.553 75.2873 386.014 76.4426 386.875 77.3146C388.402 78.8642 390.818 79.1086 392.618 77.8812L397.761 74.3931C397.994 74.232 398.316 74.2765 398.5 74.4931C398.683 74.7097 398.672 75.0318 398.477 75.2373L396.295 77.5257C393.64 80.3083 393.584 84.7128 396.172 87.5621C396.378 87.7899 396.361 88.1398 396.134 88.3453C396.028 88.4397 395.895 88.4897 395.761 88.4897L395.756 88.5008Z" fill="#003C4F"/>
<path d="M313.38 99.2812L360.057 147.82L280.521 233.865L352.848 422.892H106.685L119.638 364.551L106.252 372.327C93.6382 379.658 77.6199 377.22 67.7556 366.472C54.8254 352.376 55.8584 330.437 70.0828 317.645C146.859 248.59 240.897 172.341 313.38 99.2812Z" fill="#1AE3E3"/>
<path d="M126.175 266.342C126.175 266.342 156.807 205.373 242.636 182.023L242.664 226.679L254.261 228.879C254.261 228.879 257.305 285.81 266.197 316.569L191.293 365.851C191.293 365.851 174.269 321.723 144.882 297.468L151.858 285.621L126.175 266.331V266.342Z" fill="#26B5B5"/>
<path d="M148.091 247.177C148.091 247.177 195.307 205.804 213.636 197.328L274.232 323.814V425.79H207.676L148.096 247.177H148.091Z" fill="#004459"/>
<path d="M158.042 292.907L74.9221 376.027L140.066 441.172L223.186 358.052L158.042 292.907Z" fill="#C7FF50"/>
<path d="M104.635 327.576C127.852 345.16 168.942 374.892 172.358 377.575C179.928 383.507 196.418 395.698 193.508 401.625C192.542 403.596 190.259 404.835 187.637 404.99C188.437 407.69 187.587 410.578 185.493 412.278C182.744 414.516 179.361 413.494 179.112 413.411C180 415.399 179.85 417.665 178.645 419.243C176.979 421.42 173.507 422.025 170.697 420.27C170.641 420.887 170.364 423.069 168.564 424.664C166.57 426.424 163.51 426.741 160.821 425.452C154.09 420.187 142.254 413.694 128.574 405.068C96.437 384.806 82.9625 374.426 69.2102 361.823C63.8782 356.935 96.6647 321.544 104.635 327.581V327.576Z" fill="#FABCC6"/>
<path d="M114.749 335.435C114.632 335.435 114.51 335.397 114.41 335.319C111.344 332.93 107.578 329.992 105.651 328.465C105.412 328.276 105.368 327.926 105.562 327.687C105.751 327.448 106.101 327.404 106.345 327.598C108.273 329.126 112.033 332.058 115.099 334.447C115.343 334.636 115.382 334.986 115.193 335.224C115.082 335.363 114.921 335.441 114.755 335.441L114.749 335.435Z" fill="#003C4F"/>
<path d="M180.949 396.2C180.816 396.2 180.683 396.156 180.577 396.061C180.349 395.856 180.327 395.506 180.533 395.278L183.354 392.123C183.56 391.895 183.91 391.873 184.137 392.079C184.365 392.284 184.387 392.634 184.182 392.862L181.36 396.017C181.249 396.139 181.099 396.2 180.944 396.2H180.949Z" fill="#003C4F"/>
<path d="M173.795 404.204C173.662 404.204 173.528 404.159 173.423 404.065C173.195 403.859 173.173 403.51 173.379 403.282L176.2 400.127C176.406 399.899 176.755 399.877 176.983 400.083C177.211 400.288 177.233 400.638 177.028 400.866L174.206 404.021C174.095 404.143 173.945 404.204 173.79 404.204H173.795Z" fill="#003C4F"/>
<path d="M166.602 412.45C166.469 412.45 166.336 412.405 166.23 412.311C166.002 412.106 165.98 411.756 166.186 411.528L169.007 408.373C169.213 408.145 169.563 408.123 169.79 408.329C170.018 408.534 170.04 408.884 169.835 409.112L167.013 412.267C166.902 412.389 166.752 412.45 166.597 412.45H166.602Z" fill="#003C4F"/>
<path d="M159.926 419.786C159.793 419.786 159.66 419.741 159.554 419.647C159.327 419.442 159.304 419.092 159.51 418.864L162.331 415.709C162.537 415.481 162.887 415.459 163.115 415.665C163.342 415.87 163.364 416.22 163.159 416.448L160.337 419.603C160.226 419.725 160.076 419.786 159.921 419.786H159.926Z" fill="#003C4F"/>
<path d="M209.505 192.732C204.656 198.93 183.756 192.254 183.756 192.254L167.621 174.431C164.46 163.822 170.492 152.658 181.106 149.492C191.715 146.332 202.879 152.364 206.045 162.978C206.045 162.978 214.448 186.422 209.511 192.732H209.505Z" fill="#FABCC6"/>
<path d="M199.153 221.183L197.442 176.344L173.176 177.421L174.887 222.26C175.187 228.959 180.858 234.152 187.561 233.858C194.265 233.558 199.453 227.887 199.159 221.183H199.153Z" fill="#FABCC6"/>
<path d="M205.333 168.68C205.333 168.68 212.404 172.718 212.565 174.295C212.753 176.178 207.071 179.049 207.071 179.049C207.071 179.049 205.483 168.652 205.333 168.68Z" fill="#FABCC6"/>
<path d="M202.508 184.475C202.191 184.475 201.874 184.43 201.563 184.341C200.342 183.98 199.414 182.936 199.197 181.675C199.147 181.375 199.347 181.087 199.647 181.031C199.947 180.981 200.236 181.181 200.292 181.481C200.436 182.325 201.058 183.031 201.88 183.269C202.73 183.519 203.652 183.242 204.229 182.57C204.429 182.336 204.779 182.309 205.013 182.509C205.246 182.708 205.274 183.058 205.074 183.292C204.418 184.053 203.474 184.469 202.508 184.469V184.475Z" fill="#003C4F"/>
<path d="M199.286 196.187C199.286 196.187 199.264 196.187 199.253 196.187C191.971 195.737 183.768 193.137 183.684 193.115C183.39 193.021 183.229 192.71 183.323 192.415C183.418 192.121 183.729 191.96 184.023 192.054C184.101 192.082 192.182 194.637 199.325 195.076C199.631 195.093 199.864 195.359 199.847 195.665C199.831 195.959 199.586 196.187 199.292 196.187H199.286Z" fill="#003C4F"/>
<path d="M204.689 169.824C205.1 170.957 204.794 172.101 204.006 172.384C203.217 172.667 202.251 171.984 201.839 170.851C201.428 169.718 201.734 168.574 202.523 168.291C203.311 168.007 204.278 168.69 204.689 169.824Z" fill="#003C4F"/>
<path d="M198.475 165.575C198.386 165.575 198.291 165.553 198.208 165.509C197.936 165.364 197.836 165.025 197.986 164.753C198.269 164.237 198.619 163.776 199.025 163.393C200.602 161.898 202.368 162.132 202.707 162.198C203.007 162.254 203.207 162.543 203.151 162.848C203.096 163.148 202.807 163.348 202.502 163.293C202.352 163.265 201.002 163.054 199.786 164.203C199.463 164.509 199.186 164.876 198.958 165.292C198.858 165.475 198.664 165.581 198.469 165.581L198.475 165.575Z" fill="#003C4F"/>
<path d="M166.614 186.598C160.888 183.854 159.133 170.357 162.648 161.715C167.181 150.573 180.333 143.991 190.958 144.886C193.569 145.108 199.54 146.385 201.522 150.107C203.066 153.006 200.123 159.027 195.141 160.76C188.137 163.192 178.317 161.57 181.944 169.557C192.941 193.752 172.902 189.608 166.614 186.598Z" fill="#003C4F"/>
<path d="M448.564 211.789H331.575V261.21H448.564V211.789Z" fill="#006584"/>
<path d="M439.948 255.114H367.694C367.388 255.114 367.138 254.864 367.138 254.559V218.434C367.138 218.129 367.388 217.879 367.694 217.879H439.948C440.254 217.879 440.504 218.129 440.504 218.434V254.559C440.504 254.864 440.254 255.114 439.948 255.114ZM368.249 254.004H439.393V218.99H368.249V254.004Z" fill="#005A76"/>
<path d="M348.34 277.224C326.351 277.224 308.466 259.334 308.466 237.35C308.466 215.367 326.356 197.477 348.34 197.477C370.324 197.477 388.214 215.367 388.214 237.35C388.214 259.334 370.324 277.224 348.34 277.224ZM348.34 198.587C326.967 198.587 309.577 215.978 309.577 237.35C309.577 258.723 326.967 276.113 348.34 276.113C369.713 276.113 387.103 258.723 387.103 237.35C387.103 215.978 369.713 198.587 348.34 198.587Z" fill="#005A76"/>
<path d="M300.379 283.648C300.234 283.648 300.09 283.592 299.979 283.481C299.762 283.265 299.768 282.909 299.99 282.698L305.6 277.227C305.816 277.016 306.172 277.016 306.383 277.238C306.599 277.461 306.594 277.81 306.372 278.021L300.762 283.492C300.656 283.598 300.512 283.648 300.373 283.648H300.379Z" fill="#005A76"/>
<path d="M302.288 285.593C302.143 285.593 301.999 285.538 301.888 285.427C301.671 285.21 301.677 284.855 301.899 284.643L307.509 279.173C307.731 278.961 308.081 278.962 308.292 279.184C308.508 279.406 308.503 279.756 308.281 279.967L302.671 285.438C302.565 285.543 302.421 285.593 302.282 285.593H302.288Z" fill="#005A76"/>
<path d="M290.764 299.5H290.758C289.686 299.5 288.681 299.078 287.926 298.322L287.265 297.661C286.509 296.901 286.093 295.895 286.093 294.823C286.093 293.751 286.515 292.746 287.27 291.991L304.144 275.178C304.533 274.789 305.044 274.578 305.594 274.578C306.143 274.578 306.66 274.795 307.043 275.184L310.465 278.616C311.264 279.416 311.264 280.721 310.465 281.521L293.591 298.334C292.836 299.089 291.83 299.505 290.758 299.505L290.764 299.5ZM305.594 275.683C305.344 275.683 305.105 275.783 304.927 275.961L288.053 292.774C287.504 293.318 287.198 294.051 287.198 294.823C287.198 295.601 287.498 296.328 288.042 296.878L288.703 297.539C289.253 298.089 289.981 298.389 290.753 298.395C291.525 298.395 292.252 298.095 292.802 297.55L309.676 280.738C310.043 280.371 310.043 279.771 309.676 279.405L306.249 275.967C306.071 275.789 305.832 275.689 305.583 275.689L305.594 275.683Z" fill="#005A76"/>
<path d="M309.92 279.665L305.993 275.721L317.146 264.641L321.073 268.584L309.92 279.665ZM307.565 275.727L309.926 278.093L319.501 268.573L317.141 266.207L307.565 275.727Z" fill="#005A76"/>
<path d="M323.406 212.915C323.262 212.915 323.123 212.859 323.012 212.754C322.795 212.537 322.795 212.187 323.012 211.971C333.209 201.773 348.439 198.685 361.808 204.106C362.091 204.223 362.23 204.545 362.114 204.828C361.997 205.111 361.675 205.25 361.391 205.134C348.439 199.879 333.681 202.873 323.801 212.754C323.689 212.865 323.551 212.915 323.406 212.915Z" fill="#005A76"/>
<path d="M339.746 272.033C339.702 272.033 339.657 272.033 339.613 272.016C333.348 270.45 327.61 267.195 323.017 262.602C322.8 262.385 322.8 262.035 323.017 261.819C323.234 261.602 323.583 261.602 323.8 261.819C328.249 266.268 333.809 269.422 339.88 270.939C340.179 271.011 340.357 271.316 340.285 271.611C340.224 271.861 339.996 272.033 339.746 272.033Z" fill="#005A76"/>
<path d="M222.063 165.009C221.919 165.009 221.78 164.954 221.669 164.848C221.452 164.631 221.452 164.281 221.669 164.065L367.739 17.9945C367.956 17.7779 368.306 17.7779 368.522 17.9945C368.739 18.2111 368.739 18.561 368.522 18.7776L222.457 164.848C222.346 164.959 222.208 165.009 222.063 165.009Z" fill="#006584"/>
<path d="M368.861 22.2271L375.093 11.4297L364.296 17.6615L368.861 22.2271Z" fill="#006584"/>
</g>
<defs>
<clipPath id="clip0_4107_21794">
<rect width="461" height="461" fill="white"/>
</clipPath>
</defs>
</svg>
