<svg width="160" height="42" viewBox="0 0 160 42" fill="none" xmlns="http://www.w3.org/2000/svg">
<g clip-path="url(#clip0_179_5746)">
<path d="M23.8608 3.60648L20.1676 2.61688L17.0553 14.2322L14.2455 3.74581L10.5522 4.73541L13.5881 16.0652L6.02646 8.50361L3.32283 11.2072L11.617 19.5015L1.28794 16.7338L0.29834 20.427L11.5841 23.451C11.4549 22.8937 11.3865 22.313 11.3865 21.7163C11.3865 17.493 14.8102 14.0693 19.0336 14.0693C23.2569 14.0693 26.6806 17.493 26.6806 21.7163C26.6806 22.3091 26.6131 22.8863 26.4855 23.4403L36.7422 26.1885L37.7317 22.4953L26.4011 19.4593L36.7308 16.6914L35.7412 12.9982L24.411 16.0341L31.9726 8.47256L29.2689 5.76893L21.0899 13.9481L23.8608 3.60648Z" fill="#FF4405"/>
<path d="M26.4747 23.4833C26.1581 24.822 25.4896 26.0246 24.5723 26.9881L32.0028 34.4187L34.7065 31.7151L26.4747 23.4833Z" fill="#FF4405"/>
<path d="M24.4973 27.0658C23.569 28.0139 22.3959 28.7215 21.0803 29.0861L23.7841 39.1769L27.4773 38.1872L24.4973 27.0658Z" fill="#FF4405"/>
<path d="M20.9424 29.123C20.332 29.2799 19.6922 29.3633 19.0329 29.3633C18.3266 29.3633 17.6426 29.2675 16.9933 29.0883L14.287 39.1882L17.9802 40.1778L20.9424 29.123Z" fill="#FF4405"/>
<path d="M16.8627 29.051C15.5672 28.6683 14.4149 27.9517 13.5056 27.0009L6.0568 34.4497L8.76043 37.1533L16.8627 29.051Z" fill="#FF4405"/>
<path d="M13.4442 26.935C12.5504 25.9782 11.8994 24.7916 11.5895 23.4736L1.29938 26.2309L2.28897 29.924L13.4442 26.935Z" fill="#FF4405"/>
</g>
<path d="M59.955 11.2955V24.6043L51.4237 11.2955H48.0112V29.6705H51.4237V16.4668L59.955 29.6705H63.3675V11.2955H59.955Z" fill="white"/>
<path d="M64.9052 14.7343H68.4227V11.2955H64.9052V14.7343ZM64.9577 29.6705V16.5455H68.3702V29.6705H64.9577Z" fill="white"/>
<path d="M83.0527 23.108C83.0527 18.5668 79.824 16.4143 76.4115 16.388C72.9727 16.3618 69.7965 18.5668 69.7965 23.108C69.7965 27.6493 72.9727 29.8543 76.4115 29.828C79.5352 29.8018 81.6877 28.358 82.6852 25.9693L80.034 24.8668C79.2202 26.4943 77.934 27.0718 76.4115 27.098C75.099 27.1243 73.6027 26.4943 73.2877 24.158H82.974C83.0265 23.8168 83.0527 23.4755 83.0527 23.108ZM76.4115 19.0918C77.724 19.118 79.0627 19.8268 79.4827 21.7168H73.3402C73.7865 19.8005 75.1252 19.0655 76.4115 19.0918Z" fill="white"/>
<path d="M90.9392 18.9868V16.388H88.7867V12.8705L85.3742 13.9205V16.388H83.2217V18.9868H85.3742V25.7855C85.3742 28.358 85.5842 29.6705 89.5742 29.6705H90.493V26.678H89.5742C88.9442 26.678 88.7867 26.573 88.7867 25.7855V18.9868H90.9392Z" fill="white"/>
<path d="M96.01 26.8093L103.255 19.4068V16.5455H92.3875V19.4068H99.4225L92.1775 26.8093V29.6705H103.334V26.8093H96.01Z" fill="white"/>
<path d="M104.557 25.9693L107.996 25.4443C108.232 26.7568 109.781 27.2555 110.726 27.2555C111.697 27.2555 113.377 27.0455 113.377 25.4705C113.377 22.3993 104.951 26.2318 104.951 20.3518C104.951 16.5718 109.335 16.3618 110.726 16.3618C112.038 16.3618 115.845 16.5718 116.632 19.6168L113.377 20.2993C113.088 18.908 111.618 18.6455 110.831 18.6455C110.043 18.6455 108.363 18.8293 108.363 20.3518C108.363 23.3968 116.79 19.5118 116.79 25.4705C116.79 29.4868 112.17 29.828 110.726 29.828C109.413 29.828 105.24 29.4868 104.557 25.9693Z" fill="white"/>
<path d="M121.223 23.108C121.223 26.3105 122.929 27.2818 124.714 27.2555C126.315 27.2293 127.418 26.573 128.074 24.7355L130.883 26.1005C129.859 28.778 127.365 29.8018 124.714 29.828C121.275 29.8543 117.81 27.6493 117.81 23.108C117.81 18.5668 121.275 16.3618 124.714 16.388C127.365 16.4143 129.859 17.438 130.883 20.1155L128.074 21.4805C127.418 19.643 126.315 18.9868 124.714 18.9605C122.929 18.9343 121.223 19.9055 121.223 23.108Z" fill="white"/>
<path d="M140.044 16.3355C138.285 16.3355 136.684 17.2543 135.66 19.223V11.2955H132.248V29.6705H135.66V25.0243C135.66 19.013 138.154 18.5143 139.073 18.5143C140.543 18.5143 140.753 20.0368 140.753 22.268V29.6705H144.165V22.268C144.165 19.4855 143.719 16.3355 140.044 16.3355Z" fill="white"/>
<path d="M158.573 23.108C158.573 18.5668 155.344 16.4143 151.931 16.388C148.493 16.3618 145.316 18.5668 145.316 23.108C145.316 27.6493 148.493 29.8543 151.931 29.828C155.055 29.8018 157.208 28.358 158.205 25.9693L155.554 24.8668C154.74 26.4943 153.454 27.0718 151.931 27.098C150.619 27.1243 149.123 26.4943 148.808 24.158H158.494C158.546 23.8168 158.573 23.4755 158.573 23.108ZM151.931 19.0918C153.244 19.118 154.583 19.8268 155.003 21.7168H148.86C149.306 19.8005 150.645 19.0655 151.931 19.0918Z" fill="white"/>
<defs>
<clipPath id="clip0_179_5746">
<rect width="38.5" height="38.5" fill="white" transform="translate(0 1.75)"/>
</clipPath>
</defs>
</svg>
