<svg width="170" height="42" viewBox="0 0 170 42" fill="none" xmlns="http://www.w3.org/2000/svg">
<path d="M29.6458 21C26.5357 24.4749 22.016 26.6618 16.9855 26.6618C11.955 26.6618 7.43532 24.4749 4.3252 21C7.43532 17.5251 11.955 15.3382 16.9855 15.3382C22.016 15.3382 26.5357 17.5251 29.6458 21Z" fill="white"/>
<path fill-rule="evenodd" clip-rule="evenodd" d="M0 32.3235C0 22.9428 7.60457 15.3382 16.9853 15.3382C11.9548 15.3382 7.43514 17.5251 4.32502 21C7.43514 24.4749 11.9548 26.6618 16.9853 26.6618C22.0158 26.6618 26.5355 24.4749 29.6456 21C32.3352 24.005 33.9706 27.9733 33.9706 32.3235V38.7402C33.9706 39.574 33.2946 40.25 32.4608 40.25H1.5098C0.675962 40.25 0 39.574 0 38.7402V32.3235ZM29.6456 21C29.6456 21 29.6456 21 29.6456 21V21Z" fill="#7CD4FD"/>
<path fill-rule="evenodd" clip-rule="evenodd" d="M10.6143 25.4265C8.18904 24.4445 6.04218 22.9186 4.32502 21C7.43514 17.5251 11.9548 15.3382 16.9853 15.3382C22.0158 15.3382 26.5355 17.5251 29.6456 21C29.6456 21 29.6456 21 29.6456 21C32.3351 17.995 33.9706 14.0267 33.9706 9.67647V3.25981C33.9706 2.42597 33.2946 1.75 32.4608 1.75L1.5098 1.75C0.675963 1.75 6.33859e-07 2.42596 5.60963e-07 3.2598L0 9.67647C-1.12826e-06 16.8042 4.39035 22.9064 10.6143 25.4265Z" fill="#0BA5EC"/>
<path d="M60.5009 12.649V29.75H57.0709V22.4735H49.7454V29.75H46.3154V12.649H49.7454V19.6805H57.0709V12.649H60.5009Z" fill="white"/>
<path d="M69.9039 29.9705C68.5973 29.9705 67.4213 29.6847 66.3759 29.113C65.3306 28.525 64.5058 27.7002 63.9014 26.6385C63.3134 25.5769 63.0194 24.3519 63.0194 22.9635C63.0194 21.5752 63.3216 20.3502 63.9259 19.2885C64.5466 18.2269 65.3878 17.4102 66.4494 16.8385C67.5111 16.2505 68.6953 15.9565 70.0019 15.9565C71.3086 15.9565 72.4928 16.2505 73.5544 16.8385C74.6161 17.4102 75.4491 18.2269 76.0534 19.2885C76.6741 20.3502 76.9844 21.5752 76.9844 22.9635C76.9844 24.3519 76.6659 25.5769 76.0289 26.6385C75.4083 27.7002 74.5589 28.525 73.4809 29.113C72.4193 29.6847 71.2269 29.9705 69.9039 29.9705ZM69.9039 26.9815C70.5246 26.9815 71.1044 26.8345 71.6434 26.5405C72.1988 26.2302 72.6398 25.7729 72.9664 25.1685C73.2931 24.5642 73.4564 23.8292 73.4564 22.9635C73.4564 21.6732 73.1134 20.685 72.4274 19.999C71.7578 19.2967 70.9329 18.9455 69.9529 18.9455C68.9729 18.9455 68.1481 19.2967 67.4784 19.999C66.8251 20.685 66.4984 21.6732 66.4984 22.9635C66.4984 24.2539 66.8169 25.2502 67.4539 25.9525C68.1073 26.6385 68.9239 26.9815 69.9039 26.9815Z" fill="white"/>
<path d="M92.314 16.177V29.75H88.8595V28.035C88.4185 28.623 87.8386 29.0885 87.12 29.4315C86.4176 29.7582 85.65 29.9215 84.817 29.9215C83.7553 29.9215 82.8161 29.701 81.9995 29.26C81.1828 28.8027 80.5376 28.1412 80.064 27.2755C79.6066 26.3935 79.378 25.3482 79.378 24.1395V16.177H82.808V23.6495C82.808 24.7275 83.0775 25.5605 83.6165 26.1485C84.1555 26.7202 84.8905 27.006 85.8215 27.006C86.7688 27.006 87.512 26.7202 88.051 26.1485C88.59 25.5605 88.8595 24.7275 88.8595 23.6495V16.177H92.314Z" fill="white"/>
<path d="M99.1282 18.284C99.5692 17.5654 100.141 17.0019 100.843 16.5935C101.562 16.1852 102.379 15.981 103.293 15.981V19.5825H102.387C101.309 19.5825 100.492 19.8357 99.9367 20.342C99.3977 20.8484 99.1282 21.7304 99.1282 22.988V29.75H95.6982V16.177H99.1282V18.284Z" fill="white"/>
<path d="M110.92 15.9565C111.933 15.9565 112.823 16.1607 113.59 16.569C114.358 16.961 114.962 17.4755 115.403 18.1125V16.177H118.858V29.848C118.858 31.1057 118.605 32.2245 118.098 33.2045C117.592 34.2009 116.833 34.9849 115.82 35.5565C114.807 36.1445 113.582 36.4385 112.145 36.4385C110.218 36.4385 108.633 35.9894 107.392 35.091C106.167 34.1927 105.473 32.9677 105.309 31.416H108.715C108.895 32.0367 109.278 32.5267 109.866 32.886C110.471 33.2617 111.198 33.4495 112.047 33.4495C113.043 33.4495 113.852 33.1474 114.472 32.543C115.093 31.955 115.403 31.0567 115.403 29.848V27.741C114.962 28.378 114.35 28.9089 113.566 29.3335C112.798 29.7582 111.916 29.9705 110.92 29.9705C109.777 29.9705 108.731 29.6765 107.784 29.0885C106.837 28.5005 106.085 27.6757 105.53 26.614C104.991 25.536 104.721 24.3029 104.721 22.9145C104.721 21.5425 104.991 20.3257 105.53 19.264C106.085 18.2024 106.828 17.3857 107.759 16.814C108.707 16.2424 109.76 15.9565 110.92 15.9565ZM115.403 22.9635C115.403 22.1305 115.24 21.42 114.913 20.832C114.587 20.2277 114.146 19.7704 113.59 19.46C113.035 19.1334 112.439 18.97 111.802 18.97C111.165 18.97 110.577 19.1252 110.038 19.4355C109.499 19.7459 109.058 20.2032 108.715 20.8075C108.388 21.3955 108.225 22.0979 108.225 22.9145C108.225 23.7312 108.388 24.4499 108.715 25.0705C109.058 25.6749 109.499 26.1404 110.038 26.467C110.593 26.7937 111.181 26.957 111.802 26.957C112.439 26.957 113.035 26.8019 113.59 26.4915C114.146 26.1649 114.587 25.7075 114.913 25.1195C115.24 24.5152 115.403 23.7965 115.403 22.9635Z" fill="white"/>
<path d="M125.638 11.62V29.75H122.208V11.62H125.638Z" fill="white"/>
<path d="M128.145 22.9145C128.145 21.5425 128.414 20.3257 128.953 19.264C129.509 18.2024 130.252 17.3857 131.183 16.814C132.13 16.2424 133.184 15.9565 134.343 15.9565C135.356 15.9565 136.238 16.1607 136.989 16.569C137.757 16.9774 138.369 17.4919 138.827 18.1125V16.177H142.281V29.75H138.827V27.7655C138.386 28.4025 137.773 28.9334 136.989 29.358C136.222 29.7664 135.331 29.9705 134.319 29.9705C133.175 29.9705 132.13 29.6765 131.183 29.0885C130.252 28.5005 129.509 27.6757 128.953 26.614C128.414 25.536 128.145 24.3029 128.145 22.9145ZM138.827 22.9635C138.827 22.1305 138.663 21.42 138.337 20.832C138.01 20.2277 137.569 19.7704 137.014 19.46C136.458 19.1334 135.862 18.97 135.225 18.97C134.588 18.97 134 19.1252 133.461 19.4355C132.922 19.7459 132.481 20.2032 132.138 20.8075C131.812 21.3955 131.648 22.0979 131.648 22.9145C131.648 23.7312 131.812 24.4499 132.138 25.0705C132.481 25.6749 132.922 26.1404 133.461 26.467C134.017 26.7937 134.605 26.957 135.225 26.957C135.862 26.957 136.458 26.8019 137.014 26.4915C137.569 26.1649 138.01 25.7075 138.337 25.1195C138.663 24.5152 138.827 23.7965 138.827 22.9635Z" fill="white"/>
<path d="M150.825 29.9705C149.715 29.9705 148.718 29.7745 147.836 29.3825C146.954 28.9742 146.252 28.427 145.729 27.741C145.223 27.055 144.945 26.2955 144.896 25.4625H148.351C148.416 25.9852 148.669 26.418 149.11 26.761C149.568 27.104 150.131 27.2755 150.801 27.2755C151.454 27.2755 151.96 27.1449 152.32 26.8835C152.695 26.6222 152.883 26.2874 152.883 25.879C152.883 25.438 152.655 25.1114 152.197 24.899C151.756 24.6704 151.046 24.4254 150.066 24.164C149.053 23.919 148.22 23.6659 147.567 23.4045C146.93 23.1432 146.374 22.743 145.901 22.204C145.443 21.665 145.215 20.9382 145.215 20.0235C145.215 19.2722 145.427 18.5862 145.852 17.9655C146.293 17.3449 146.913 16.8549 147.714 16.4955C148.53 16.1362 149.486 15.9565 150.58 15.9565C152.197 15.9565 153.488 16.3649 154.451 17.1815C155.415 17.9819 155.946 19.068 156.044 20.44H152.761C152.712 19.901 152.483 19.4764 152.075 19.166C151.683 18.8394 151.152 18.676 150.482 18.676C149.862 18.676 149.38 18.7904 149.037 19.019C148.71 19.2477 148.547 19.5662 148.547 19.9745C148.547 20.4319 148.775 20.783 149.233 21.028C149.69 21.2567 150.401 21.4935 151.364 21.7385C152.344 21.9835 153.153 22.2367 153.79 22.498C154.427 22.7594 154.974 23.1677 155.431 23.723C155.905 24.262 156.15 24.9807 156.166 25.879C156.166 26.663 155.946 27.3654 155.505 27.986C155.08 28.6067 154.459 29.0967 153.643 29.456C152.842 29.799 151.903 29.9705 150.825 29.9705Z" fill="white"/>
<path d="M164.176 29.9705C163.065 29.9705 162.069 29.7745 161.187 29.3825C160.305 28.9742 159.603 28.427 159.08 27.741C158.574 27.055 158.296 26.2955 158.247 25.4625H161.701C161.767 25.9852 162.02 26.418 162.461 26.761C162.918 27.104 163.482 27.2755 164.151 27.2755C164.805 27.2755 165.311 27.1449 165.67 26.8835C166.046 26.6222 166.234 26.2874 166.234 25.879C166.234 25.438 166.005 25.1114 165.548 24.899C165.107 24.6704 164.396 24.4254 163.416 24.164C162.404 23.919 161.571 23.6659 160.917 23.4045C160.28 23.1432 159.725 22.743 159.251 22.204C158.794 21.665 158.565 20.9382 158.565 20.0235C158.565 19.2722 158.778 18.5862 159.202 17.9655C159.643 17.3449 160.264 16.8549 161.064 16.4955C161.881 16.1362 162.837 15.9565 163.931 15.9565C165.548 15.9565 166.838 16.3649 167.802 17.1815C168.766 17.9819 169.296 19.068 169.394 20.44H166.111C166.062 19.901 165.834 19.4764 165.425 19.166C165.033 18.8394 164.503 18.676 163.833 18.676C163.212 18.676 162.73 18.7904 162.387 19.019C162.061 19.2477 161.897 19.5662 161.897 19.9745C161.897 20.4319 162.126 20.783 162.583 21.028C163.041 21.2567 163.751 21.4935 164.715 21.7385C165.695 21.9835 166.503 22.2367 167.14 22.498C167.777 22.7594 168.325 23.1677 168.782 23.723C169.256 24.262 169.501 24.9807 169.517 25.879C169.517 26.663 169.296 27.3654 168.855 27.986C168.431 28.6067 167.81 29.0967 166.993 29.456C166.193 29.799 165.254 29.9705 164.176 29.9705Z" fill="white"/>
</svg>
