<svg width="175" height="42" viewBox="0 0 175 42" fill="none" xmlns="http://www.w3.org/2000/svg">
<path d="M10.3533 3.92476L14.8582 20.7374V2.25324C15.2155 2.16988 15.5765 2.09647 15.9411 2.03331V20.7391L21.0079 1.82919C21.3731 1.86225 21.7353 1.9055 22.0943 1.95867L16.9865 21.0209L27.1394 3.43573C27.4701 3.58452 27.7959 3.74239 28.1164 3.909L17.9258 21.5598L32.4742 7.01129C32.7365 7.25934 32.9918 7.51468 33.2399 7.77699L18.6892 22.3276L36.3421 12.1357C36.5087 12.4563 36.6665 12.7821 36.8153 13.1129L19.2344 23.2632L38.2915 18.1568C38.3446 18.5158 38.3879 18.878 38.4209 19.2432L19.5112 24.31L38.2165 24.31C38.1533 24.6746 38.0799 25.0356 37.9965 25.3928H19.5084L36.3242 29.8986C36.1515 30.2293 35.9695 30.5543 35.7785 30.8734L19.2329 26.44L33.0523 34.4186C32.7907 34.6877 32.5213 34.9491 32.2444 35.2025L18.6927 27.3784L28.947 37.6328C28.6227 37.8223 28.2923 38.0026 27.9562 38.1733L17.9259 28.143L24.4979 39.526C24.138 39.6277 23.7739 39.7192 23.4059 39.8002L16.9872 28.6828L20.0819 40.2323C19.8061 40.2441 19.5287 40.25 19.25 40.25C19.1549 40.25 19.0599 40.2493 18.9651 40.2479L15.941 28.9621V39.9667C15.5765 39.9035 15.2154 39.8301 14.8582 39.7468V28.9639L12.1919 38.9149C11.8518 38.7808 11.5164 38.6373 11.1861 38.4847L13.8119 28.6851L8.88278 37.2227C8.57762 37.0272 8.27833 36.8235 7.98525 36.6116L12.8756 28.1412L6.02699 34.9899C5.76467 34.7418 5.50933 34.4865 5.26129 34.2242L12.1078 27.3777L3.63982 32.2667C3.42793 31.9737 3.2241 31.6744 3.02863 31.3693L11.5702 26.4378L1.76575 29.0649C1.61315 28.7346 1.46963 28.3992 1.33551 28.0592L11.2865 25.3928L0.503483 25.3928C0.420104 25.0356 0.346672 24.6745 0.283495 24.31H11.2836L0.00209795 21.2871C0.000700931 21.1916 0 21.0959 0 21C0 20.722 0.00589268 20.4454 0.0175599 20.1703L11.5686 23.2654L0.449419 16.8457C0.530383 16.4776 0.62188 16.1135 0.723578 15.7537L12.1112 22.3283L2.07667 12.2938C2.24739 11.9577 2.42768 11.6273 2.61719 11.303L12.8758 21.5615L5.04855 8.0044C5.302 7.72758 5.56343 7.4582 5.83249 7.19661L13.8126 21.0185L9.3785 4.47035C9.69757 4.2794 10.0226 4.09742 10.3533 3.92476Z" fill="#6927DA"/>
<path d="M50.6172 29.6705H54.8067V22.394H63.1612V18.6945H54.8067V15.583H63.7002V11.908H50.6172V29.6705Z" fill="white"/>
<path d="M70.8207 19.2335C72.4132 19.2335 73.6872 20.2135 73.6872 23.031C73.6872 25.7995 72.4622 26.853 70.8207 26.853C69.1792 26.853 67.9542 25.7995 67.9542 23.031C67.9542 20.2135 69.2282 19.2335 70.8207 19.2335ZM70.8207 16.0975C67.1702 16.0975 63.8382 18.2535 63.8382 23.031C63.8382 27.8085 67.1702 29.989 70.8207 29.989C74.4712 29.989 77.8032 27.8085 77.8032 23.031C77.8032 18.2535 74.4712 16.0975 70.8207 16.0975Z" fill="white"/>
<path d="M85.5657 16.0975C81.5722 16.0975 78.8282 18.817 78.8282 23.0065C78.8282 27.196 81.2292 29.989 85.5657 29.989C88.2117 29.989 91.3722 28.7395 92.2787 24.8195H88.5057C88.2117 26.069 87.3052 26.853 85.8107 26.853C84.3652 26.853 82.9442 25.8975 82.9442 23.031C82.9442 20.2135 84.3652 19.2335 85.8107 19.2335C87.0112 19.2335 87.9667 19.7725 88.3342 21.316H92.1072C91.3232 17.347 88.3097 16.0975 85.5657 16.0975Z" fill="white"/>
<path d="M101.777 21.4385C96.6569 21.8305 93.0064 22.884 93.0064 26.118C93.0064 28.519 95.0644 29.989 97.5634 29.989C99.4499 29.989 101.018 29.4745 101.998 28.078L102.047 29.6705H106.016C105.82 28.8375 105.722 27.294 105.722 25.8485V24.4765L105.771 21.61C105.844 17.6165 103.688 16.073 99.8909 16.073C95.9709 16.073 93.6189 18.278 93.4229 20.7525H97.1959C97.3674 19.4785 98.2494 18.817 99.5479 18.817C101.018 18.817 101.777 19.356 101.777 20.924V21.4385ZM101.875 24.1335C101.875 26.559 100.65 27.245 99.0334 27.245C97.9799 27.245 97.1714 26.6815 97.1714 25.824C97.1714 24.403 99.0579 24.0845 101.875 23.815V24.1335Z" fill="white"/>
<path d="M111.888 11.908H107.846V29.6705H111.888V11.908Z" fill="white"/>
<path d="M114.466 11.908V29.6705H118.655V23.521H121.301C125.907 23.521 129.362 22.3695 129.362 17.69C129.362 13.035 125.907 11.908 121.301 11.908H114.466ZM121.424 15.436C123.384 15.436 124.927 15.828 124.927 17.69C124.927 19.552 123.384 19.993 121.424 19.993H118.655V15.436H121.424Z" fill="white"/>
<path d="M136.463 19.2335C138.056 19.2335 139.33 20.2135 139.33 23.031C139.33 25.7995 138.105 26.853 136.463 26.853C134.822 26.853 133.597 25.7995 133.597 23.031C133.597 20.2135 134.871 19.2335 136.463 19.2335ZM136.463 16.0975C132.813 16.0975 129.481 18.2535 129.481 23.031C129.481 27.8085 132.813 29.989 136.463 29.989C140.114 29.989 143.446 27.8085 143.446 23.031C143.446 18.2535 140.114 16.0975 136.463 16.0975Z" fill="white"/>
<path d="M145.064 16.4895V29.6705H149.131V16.4895H145.064ZM145.064 11.908V15.142H149.106V11.908H145.064Z" fill="white"/>
<path d="M155.578 16.4895H151.536V29.6705H155.578V22.9085C155.578 20.4585 156.289 19.3315 158.028 19.3315C159.988 19.3315 160.062 20.875 160.062 22.7615V29.6705H164.104V21.757C164.104 18.18 163.051 16.1955 159.67 16.1955C157.587 16.1955 156.166 17.249 155.578 18.229V16.4895Z" fill="white"/>
<path d="M166.9 16.4895H164.817V19.356H166.9V25.971C166.9 29.0335 168.002 29.6705 171.261 29.6705H173.833V26.755H172.682C171.334 26.755 170.942 26.51 170.942 25.2605V19.356H173.833V16.4895H170.942V12.888H166.9V16.4895Z" fill="white"/>
</svg>
