<svg width="148" height="42" viewBox="0 0 148 42" fill="none" xmlns="http://www.w3.org/2000/svg">
<rect y="16.8" width="8.39999" height="8.39999" fill="#039855"/>
<rect x="25.2002" y="25.2" width="8.4" height="8.39999" transform="rotate(180 25.2002 25.2)" fill="#027A48"/>
<path d="M8.3999 16.8L16.7999 8.39998V16.8L8.3999 25.2V16.8Z" fill="#A6F4C5"/>
<path d="M16.7998 25.2L8.39982 33.6L8.39982 25.2L16.7998 16.8L16.7998 25.2Z" fill="#6CE9A6"/>
<path d="M0 16.8L16.8 0V8.39999L8.39999 16.8H0Z" fill="#32D583"/>
<path d="M25.2002 25.2L8.40022 42L8.40021 33.6L16.8002 25.2L25.2002 25.2Z" fill="#12B76A"/>
<path d="M43.4944 29.995C42.1714 29.995 40.8893 29.8072 39.6479 29.4315C38.4229 29.0558 37.4511 28.5577 36.7324 27.937L37.8349 25.4625C38.5373 26.0178 39.3948 26.4752 40.4074 26.8345C41.4364 27.1775 42.4654 27.349 43.4944 27.349C44.7684 27.349 45.7158 27.1448 46.3364 26.7365C46.9734 26.3282 47.2919 25.7892 47.2919 25.1195C47.2919 24.6295 47.1123 24.2293 46.7529 23.919C46.4099 23.5923 45.9689 23.3392 45.4299 23.1595C44.8909 22.9798 44.1559 22.7757 43.2249 22.547C41.9183 22.2367 40.8566 21.9263 40.0399 21.616C39.2396 21.3057 38.5454 20.8238 37.9574 20.1705C37.3858 19.5008 37.0999 18.6025 37.0999 17.4755C37.0999 16.5282 37.3531 15.6707 37.8594 14.903C38.3821 14.119 39.1579 13.4983 40.1869 13.041C41.2323 12.5837 42.5063 12.355 44.0089 12.355C45.0543 12.355 46.0833 12.4857 47.0959 12.747C48.1086 13.0083 48.9824 13.384 49.7174 13.874L48.7129 16.3485C47.9616 15.9075 47.1776 15.5727 46.3609 15.344C45.5443 15.1153 44.7521 15.001 43.9844 15.001C42.7268 15.001 41.7876 15.2133 41.1669 15.638C40.5626 16.0627 40.2604 16.6262 40.2604 17.3285C40.2604 17.8185 40.4319 18.2187 40.7749 18.529C41.1343 18.8393 41.5834 19.0843 42.1224 19.264C42.6614 19.4437 43.3964 19.6478 44.3274 19.8765C45.6014 20.1705 46.6467 20.4808 47.4634 20.8075C48.2801 21.1178 48.9742 21.5997 49.5459 22.253C50.1339 22.9063 50.4279 23.7883 50.4279 24.899C50.4279 25.8463 50.1666 26.7038 49.6439 27.4715C49.1376 28.2392 48.3617 28.8517 47.3164 29.309C46.2711 29.7663 44.9971 29.995 43.4944 29.995Z" fill="white"/>
<path d="M53.2921 16.667H56.3546V29.75H53.2921V16.667ZM54.8356 14.511C54.2803 14.511 53.8148 14.3395 53.4391 13.9965C53.0634 13.6372 52.8756 13.1962 52.8756 12.6735C52.8756 12.1508 53.0634 11.718 53.4391 11.375C53.8148 11.0157 54.2803 10.836 54.8356 10.836C55.3909 10.836 55.8564 11.0075 56.2321 11.3505C56.6078 11.6772 56.7956 12.0937 56.7956 12.6C56.7956 13.139 56.6078 13.5963 56.2321 13.972C55.8728 14.3313 55.4073 14.511 54.8356 14.511Z" fill="white"/>
<path d="M64.4166 29.9215C63.355 29.9215 62.3178 29.7827 61.3051 29.505C60.2925 29.2273 59.484 28.8762 58.8796 28.4515L60.0556 26.124C60.6436 26.516 61.346 26.8345 62.1626 27.0795C62.9956 27.3082 63.8123 27.4225 64.6126 27.4225C66.442 27.4225 67.3566 26.9407 67.3566 25.977C67.3566 25.5197 67.1198 25.2012 66.6461 25.0215C66.1888 24.8418 65.4456 24.6703 64.4166 24.507C63.3386 24.3437 62.4566 24.1558 61.7706 23.9435C61.101 23.7312 60.513 23.3637 60.0066 22.841C59.5166 22.302 59.2716 21.5588 59.2716 20.6115C59.2716 19.3702 59.7861 18.382 60.8151 17.647C61.8605 16.8957 63.2651 16.52 65.0291 16.52C65.9275 16.52 66.8258 16.6262 67.7241 16.8385C68.6225 17.0345 69.3575 17.304 69.9291 17.647L68.7531 19.9745C67.6425 19.3212 66.393 18.9945 65.0046 18.9945C64.1063 18.9945 63.4203 19.1333 62.9466 19.411C62.4893 19.6723 62.2606 20.0235 62.2606 20.4645C62.2606 20.9545 62.5056 21.3057 62.9956 21.518C63.502 21.714 64.2778 21.9018 65.3231 22.0815C66.3685 22.2448 67.226 22.4327 67.8956 22.645C68.5653 22.8573 69.137 23.2167 69.6106 23.723C70.1006 24.2293 70.3456 24.948 70.3456 25.879C70.3456 27.104 69.8148 28.084 68.7531 28.819C67.6915 29.554 66.246 29.9215 64.4166 29.9215Z" fill="white"/>
<path d="M84.9938 16.667L78.8688 30.8035C78.2971 32.2245 77.6029 33.2208 76.7863 33.7925C75.9696 34.3805 74.9814 34.6745 73.8218 34.6745C73.1684 34.6745 72.5233 34.5683 71.8863 34.356C71.2493 34.1437 70.7266 33.8497 70.3183 33.474L71.5433 31.22C71.8373 31.4977 72.1803 31.7182 72.5723 31.8815C72.9806 32.0448 73.3889 32.1265 73.7973 32.1265C74.3363 32.1265 74.7773 31.9877 75.1203 31.71C75.4796 31.4323 75.8063 30.9668 76.1003 30.3135L76.3208 29.799L70.6123 16.667H73.7973L77.9133 26.3445L82.0538 16.667H84.9938Z" fill="white"/>
<path d="M94.1598 16.52C95.4338 16.52 96.569 16.7977 97.5653 17.353C98.578 17.9083 99.3701 18.6923 99.9418 19.705C100.513 20.7177 100.799 21.8855 100.799 23.2085C100.799 24.5315 100.513 25.7075 99.9418 26.7365C99.3701 27.7492 98.578 28.5332 97.5653 29.0885C96.569 29.6438 95.4338 29.9215 94.1598 29.9215C92.3958 29.9215 90.9993 29.3335 89.9703 28.1575V34.503H86.9078V16.667H89.8233V18.382C90.3297 17.7613 90.9503 17.2958 91.6853 16.9855C92.4367 16.6752 93.2615 16.52 94.1598 16.52ZM93.8168 27.3C94.9438 27.3 95.8666 26.9243 96.5853 26.173C97.3203 25.4217 97.6878 24.4335 97.6878 23.2085C97.6878 21.9835 97.3203 20.9953 96.5853 20.244C95.8666 19.4927 94.9438 19.117 93.8168 19.117C93.0818 19.117 92.4203 19.2885 91.8323 19.6315C91.2443 19.9582 90.7788 20.4318 90.4358 21.0525C90.0928 21.6732 89.9213 22.3918 89.9213 23.2085C89.9213 24.0252 90.0928 24.7438 90.4358 25.3645C90.7788 25.9852 91.2443 26.467 91.8323 26.81C92.4203 27.1367 93.0818 27.3 93.8168 27.3Z" fill="white"/>
<path d="M111.127 16.52C112.777 16.52 114.1 17.0018 115.096 17.9655C116.093 18.9292 116.591 20.3583 116.591 22.253V29.75H113.528V22.645C113.528 21.5017 113.259 20.6442 112.72 20.0725C112.181 19.4845 111.413 19.1905 110.417 19.1905C109.29 19.1905 108.4 19.5335 107.746 20.2195C107.093 20.8892 106.766 21.861 106.766 23.135V29.75H103.704V11.571H106.766V18.186C107.273 17.647 107.893 17.2387 108.628 16.961C109.38 16.667 110.213 16.52 111.127 16.52Z" fill="white"/>
<path d="M133.142 16.667V29.75H130.227V28.084C129.737 28.672 129.124 29.1293 128.389 29.456C127.654 29.7663 126.862 29.9215 126.013 29.9215C124.265 29.9215 122.885 29.4397 121.872 28.476C120.876 27.496 120.378 26.0505 120.378 24.1395V16.667H123.44V23.723C123.44 24.899 123.701 25.781 124.224 26.369C124.763 26.9407 125.523 27.2265 126.503 27.2265C127.597 27.2265 128.463 26.8917 129.1 26.222C129.753 25.536 130.08 24.556 130.08 23.282V16.667H133.142Z" fill="white"/>
<path d="M141.194 29.9215C140.133 29.9215 139.096 29.7827 138.083 29.505C137.07 29.2273 136.262 28.8762 135.657 28.4515L136.833 26.124C137.421 26.516 138.124 26.8345 138.94 27.0795C139.773 27.3082 140.59 27.4225 141.39 27.4225C143.22 27.4225 144.134 26.9407 144.134 25.977C144.134 25.5197 143.898 25.2012 143.424 25.0215C142.967 24.8418 142.223 24.6703 141.194 24.507C140.116 24.3437 139.234 24.1558 138.548 23.9435C137.879 23.7312 137.291 23.3637 136.784 22.841C136.294 22.302 136.049 21.5588 136.049 20.6115C136.049 19.3702 136.564 18.382 137.593 17.647C138.638 16.8957 140.043 16.52 141.807 16.52C142.705 16.52 143.604 16.6262 144.502 16.8385C145.4 17.0345 146.135 17.304 146.707 17.647L145.531 19.9745C144.42 19.3212 143.171 18.9945 141.782 18.9945C140.884 18.9945 140.198 19.1333 139.724 19.411C139.267 19.6723 139.038 20.0235 139.038 20.4645C139.038 20.9545 139.283 21.3057 139.773 21.518C140.28 21.714 141.056 21.9018 142.101 22.0815C143.146 22.2448 144.004 22.4327 144.673 22.645C145.343 22.8573 145.915 23.2167 146.388 23.723C146.878 24.2293 147.123 24.948 147.123 25.879C147.123 27.104 146.593 28.084 145.531 28.819C144.469 29.554 143.024 29.9215 141.194 29.9215Z" fill="white"/>
</svg>
