<svg width="157" height="42" viewBox="0 0 157 42" fill="none" xmlns="http://www.w3.org/2000/svg">
<path d="M22.5749 31.3139C19.5124 30.1764 16.3624 30.0014 13.4749 30.7889C11.4624 31.3139 9.53742 32.3639 7.78742 33.6764L6.5624 34.7264L6.2124 35.0764L6.9999 35.7764C7.0874 35.7764 7.08741 35.8639 7.17491 35.9514C7.34991 36.1264 7.52492 36.2139 7.78742 36.3889L8.3124 36.7389L8.8374 36.3014C8.9249 36.2139 9.0999 36.0389 9.2749 35.9514C10.8499 34.6389 12.5999 33.7639 14.4374 33.3264C16.7999 32.7139 19.3374 32.8014 21.8749 33.7639C23.9749 34.5514 28.2624 35.5139 33.4249 33.3264L33.5999 33.2389L33.8624 32.9764C33.8624 32.8889 33.9499 32.8889 34.0374 32.8014C34.4749 32.2764 34.9124 31.7514 35.2624 31.1389L37.0124 28.4264L34.2124 30.0014C30.0999 32.2764 26.3374 32.7139 22.5749 31.3139Z" fill="#155EEF"/>
<path d="M10.5875 21.8641C12.95 21.2516 15.4875 21.3391 18.025 22.3016C20.825 23.3516 28 24.8391 36.05 17.5766L37.3625 16.2641L37.45 16.1766L37.8 15.8266L37.625 15.3891C37.5375 15.0391 37.3625 14.6016 37.1875 14.1641L36.75 12.9391L35.875 13.8141C35.7875 13.9891 35.6125 14.0766 35.4375 14.2516C31.5875 18.1891 25.6375 22.2141 18.8125 19.7641C15.75 18.6266 12.6 18.4516 9.71251 19.2391C6.91251 20.0266 4.4625 21.5141 2.1875 23.6141V23.5266L0.875 24.9266C0.875 25.0141 0.787516 25.0141 0.700016 25.1016L0.4375 25.3641L0.525005 25.7141C0.612505 26.1516 0.7875 26.5891 0.875 27.0266L1.40001 28.4266L2.27501 27.2891C2.36251 27.1141 2.5375 27.0266 2.625 26.8516C4.4625 25.1891 7.00001 22.8266 10.5875 21.8641Z" fill="#155EEF"/>
<path d="M2.10002 20.289C4.11252 18.189 6.38751 16.8765 8.83751 16.1765C11.2 15.564 13.7375 15.6515 16.275 16.614C24.15 19.5015 30.975 14.7765 33.95 12.239L35.0875 11.1015L35.525 10.7515L35.175 10.2265C34.9125 9.96401 34.7375 9.614 34.475 9.264L33.95 8.56399L33.3375 9.1765C33.25 9.264 33.075 9.43899 32.9875 9.52649C29.3125 13.0265 23.625 16.614 17.15 14.164C14.0875 13.0265 10.9375 12.8515 8.05001 13.639C6.21251 14.164 4.46251 15.039 2.71251 16.1765L0.875 17.664C0.7 17.839 0.6125 17.9265 0.4375 18.1015L0.262516 18.2765V18.539C0.175016 19.1515 0.175005 19.764 0.0875053 20.289L0 22.4765L1.48751 20.9015C1.66251 20.7265 1.83752 20.464 2.10002 20.289Z" fill="#155EEF"/>
<path d="M25.1126 37.264L24.9376 37.789L25.1126 37.264C24.8501 37.1765 24.6751 37.089 24.4126 37.0015C21.3501 35.864 18.2001 35.689 15.3126 36.4765C14.7001 36.6515 14.0876 36.8265 13.4751 37.089L11.3751 38.0515L10.8501 38.314L12.6001 38.9265C13.1251 39.1015 13.6501 39.2765 14.1751 39.4515L14.4376 39.539L14.7001 39.4515C14.9626 39.364 15.2251 39.189 15.4876 39.189C15.6626 39.189 15.8376 39.1015 16.0126 39.014C18.1126 38.489 20.3876 38.489 22.8376 39.2765C23.1001 39.364 23.2751 39.4515 23.5376 39.539L23.9751 39.714L24.2376 39.6265C24.8501 39.4515 25.5501 39.2765 26.0751 39.014L28.5251 38.139L25.9876 37.5265C25.7251 37.439 25.3751 37.3515 25.1126 37.264Z" fill="#155EEF"/>
<path d="M38.5002 19.1516L37.1877 20.4641C37.0127 20.6391 36.8377 20.8141 36.6627 20.9891C33.0752 24.4016 27.3002 28.0765 20.8252 25.6265C17.7627 24.489 14.6127 24.3141 11.7252 25.1016C9.0127 25.8891 6.56268 27.2891 4.37518 29.3891L3.23769 30.6141L2.8877 31.0516L3.23769 31.5766C3.50019 31.9266 3.6752 32.1891 3.8502 32.5391L4.37518 33.3266L4.98769 32.5391C5.07519 32.4516 5.25018 32.2765 5.33768 32.189C7.43768 29.914 9.71268 28.514 12.3377 27.814C14.7002 27.2015 17.2377 27.289 19.7752 28.2515C21.9627 29.039 24.2377 29.3016 26.5127 29.0391C30.5377 28.6016 34.5627 26.3266 37.5377 23.7891C37.7127 23.6141 37.8877 23.5266 38.0627 23.3516L38.3252 23.0891V22.8266C38.3252 22.3016 38.4127 21.6891 38.4127 21.1641L38.5002 19.1516Z" fill="#155EEF"/>
<path d="M5.25028 11.1017L4.98779 10.5767L5.25028 11.1017C5.77528 10.8392 6.3878 10.6642 6.9128 10.4892C9.2753 9.87669 11.8128 9.96419 14.3503 10.9267C16.0128 11.5392 17.6753 11.8017 19.5128 11.8017C23.1878 11.8017 26.8628 10.4892 30.2753 7.95169L31.5878 6.90168L32.0253 6.55169L31.2378 5.93917C30.9753 5.67667 30.6253 5.41419 30.2753 5.23919L29.7503 4.88919L29.3128 5.23919C29.1378 5.32669 29.0503 5.50168 28.8753 5.58918C24.2378 9.08918 19.6003 10.0517 15.2253 8.38919C12.0753 7.25169 8.92529 6.98919 5.77529 7.95169C5.51279 8.03919 5.25029 8.12668 4.90029 8.21418L4.7253 8.30169L4.46279 8.56417C4.46279 8.65167 4.3753 8.65169 4.2878 8.73919C3.9378 9.26419 3.50029 9.7017 3.15029 10.2267L1.48779 12.7642L4.2003 11.3642C4.6378 11.3642 4.98778 11.1892 5.25028 11.1017Z" fill="#155EEF"/>
<path d="M12.425 5.15155L12.6875 5.23905C13.825 5.67655 15.575 6.11405 17.7625 6.11405C20.0375 6.11405 22.225 5.58905 24.4125 4.71405L27.125 3.40155L25.2875 2.78906C24.7625 2.61406 24.2375 2.43906 23.625 2.35156H23.3625L23.1 2.43904C22.8375 2.52654 22.575 2.70156 22.3125 2.78906C19.6875 3.75156 17.0625 3.92656 14.525 3.22656C14.2625 3.13906 14 3.05155 13.7375 2.96405L13.475 2.87654L13.2125 2.96405C12.6875 3.13905 12.1625 3.31406 11.6375 3.57656L9.625 4.45156L11.725 5.06404C11.9 4.97654 12.1625 5.06405 12.425 5.15155Z" fill="#155EEF"/>
<path d="M53.6199 29.6705H49.583L55.7341 11.8523H60.5889L66.7313 29.6705H62.6943L58.2311 15.9241H58.0919L53.6199 29.6705ZM53.3676 22.6668H62.9031V25.6075H53.3676V22.6668Z" fill="white"/>
<path d="M72.5126 11.8523V29.6705H68.8063V11.8523H72.5126Z" fill="white"/>
<path d="M82.5897 16.3069V19.091H74.542V16.3069H82.5897ZM76.369 13.1052H80.0753V25.564C80.0753 25.9062 80.1275 26.173 80.2319 26.3644C80.3363 26.55 80.4813 26.6805 80.6669 26.7559C80.8584 26.8313 81.0788 26.869 81.3282 26.869C81.5022 26.869 81.6762 26.8545 81.8502 26.8255C82.0242 26.7907 82.1576 26.7646 82.2504 26.7472L82.8333 29.5052C82.6477 29.5632 82.3867 29.6299 82.0503 29.7053C81.7139 29.7865 81.305 29.8358 80.8236 29.8532C79.9303 29.888 79.1473 29.7691 78.4745 29.4965C77.8075 29.2239 77.2883 28.8005 76.9171 28.2263C76.5459 27.6521 76.3632 26.927 76.369 26.0512V13.1052Z" fill="white"/>
<path d="M89.8871 28.7048V16.3852H93.0018V28.7048H89.8871ZM85.2846 24.1023V20.9876H97.6042V24.1023H85.2846Z" fill="white"/>
<path d="M110.985 16.9768C110.916 16.275 110.617 15.7298 110.089 15.3412C109.561 14.9525 108.845 14.7582 107.94 14.7582C107.325 14.7582 106.806 14.8452 106.383 15.0192C105.959 15.1875 105.635 15.4224 105.408 15.724C105.188 16.0256 105.078 16.3678 105.078 16.7506C105.066 17.0696 105.133 17.348 105.278 17.5858C105.429 17.8236 105.635 18.0295 105.896 18.2036C106.157 18.3718 106.458 18.5197 106.8 18.6473C107.143 18.7691 107.508 18.8735 107.897 18.9605L109.498 19.3433C110.275 19.5173 110.988 19.7493 111.638 20.0393C112.287 20.3293 112.85 20.686 113.326 21.1094C113.801 21.5329 114.17 22.0317 114.431 22.6059C114.697 23.1801 114.834 23.8384 114.839 24.5809C114.834 25.6713 114.555 26.6167 114.004 27.4172C113.459 28.2118 112.67 28.8295 111.638 29.2703C110.611 29.7053 109.373 29.9228 107.923 29.9228C106.484 29.9228 105.231 29.7024 104.164 29.2616C103.103 28.8208 102.273 28.1683 101.676 27.3041C101.084 26.434 100.774 25.3581 100.745 24.0762H104.39C104.431 24.6737 104.602 25.1725 104.904 25.5727C105.211 25.9671 105.62 26.2658 106.131 26.4688C106.647 26.666 107.23 26.7646 107.879 26.7646C108.517 26.7646 109.071 26.6718 109.541 26.4862C110.017 26.3006 110.385 26.0425 110.646 25.7119C110.907 25.3813 111.037 25.0014 111.037 24.5722C111.037 24.1719 110.919 23.8355 110.681 23.5629C110.449 23.2903 110.107 23.0583 109.654 22.8669C109.208 22.6755 108.659 22.5015 108.01 22.3449L106.07 21.8577C104.567 21.4923 103.381 20.9209 102.511 20.1437C101.641 19.3665 101.209 18.3196 101.215 17.0029C101.209 15.9241 101.496 14.9815 102.076 14.1753C102.662 13.3691 103.465 12.7398 104.486 12.2874C105.507 11.8349 106.667 11.6087 107.966 11.6087C109.289 11.6087 110.443 11.8349 111.429 12.2874C112.421 12.7398 113.192 13.3691 113.743 14.1753C114.294 14.9815 114.578 15.9154 114.596 16.9768H110.985Z" fill="white"/>
<path d="M121.01 21.9447V29.6705H117.304V11.8523H120.906V18.6647H121.062C121.364 17.8758 121.851 17.2581 122.524 16.8115C123.197 16.3591 124.041 16.1329 125.056 16.1329C125.984 16.1329 126.793 16.3359 127.483 16.7419C128.179 17.1421 128.719 17.7192 129.101 18.4733C129.49 19.2215 129.681 20.1176 129.676 21.1616V29.6705H125.969V21.8229C125.975 20.9992 125.766 20.3583 125.343 19.9001C124.925 19.4419 124.339 19.2128 123.585 19.2128C123.081 19.2128 122.634 19.3201 122.246 19.5347C121.863 19.7493 121.561 20.0625 121.341 20.4743C121.126 20.8803 121.016 21.3705 121.01 21.9447Z" fill="white"/>
<path d="M132.592 29.6705V16.3069H136.299V29.6705H132.592ZM134.454 14.5842C133.903 14.5842 133.431 14.4015 133.036 14.0361C132.648 13.6649 132.453 13.2212 132.453 12.705C132.453 12.1946 132.648 11.7566 133.036 11.3912C133.431 11.02 133.903 10.8344 134.454 10.8344C135.005 10.8344 135.475 11.02 135.864 11.3912C136.258 11.7566 136.455 12.1946 136.455 12.705C136.455 13.2212 136.258 13.6649 135.864 14.0361C135.475 14.4015 135.005 14.5842 134.454 14.5842Z" fill="white"/>
<path d="M147.779 16.3069V19.091H138.206V16.3069H147.779ZM140.094 29.6705V15.3412C140.094 14.3725 140.283 13.5692 140.66 12.9312C141.043 12.2932 141.565 11.8146 142.226 11.4956C142.887 11.1766 143.638 11.0171 144.479 11.0171C145.048 11.0171 145.567 11.0606 146.037 11.1476C146.512 11.2346 146.866 11.3129 147.098 11.3825L146.437 14.1666C146.292 14.1202 146.112 14.0767 145.897 14.0361C145.689 13.9955 145.474 13.9752 145.254 13.9752C144.708 13.9752 144.328 14.1028 144.114 14.358C143.899 14.6074 143.792 14.9583 143.792 15.4108V29.6705H140.094Z" fill="white"/>
<path d="M155.827 16.3069V19.091H147.779V16.3069H155.827ZM149.606 13.1052H153.312V25.564C153.312 25.9062 153.364 26.173 153.469 26.3644C153.573 26.55 153.718 26.6805 153.904 26.7559C154.095 26.8313 154.316 26.869 154.565 26.869C154.739 26.869 154.913 26.8545 155.087 26.8255C155.261 26.7907 155.394 26.7646 155.487 26.7472L156.07 29.5052C155.885 29.5632 155.624 29.6299 155.287 29.7053C154.951 29.7865 154.542 29.8358 154.06 29.8532C153.167 29.888 152.384 29.7691 151.711 29.4965C151.044 29.2239 150.525 28.8005 150.154 28.2263C149.783 27.6521 149.6 26.927 149.606 26.0512V13.1052Z" fill="white"/>
</svg>
