<svg width="146" height="42" viewBox="0 0 146 42" fill="none" xmlns="http://www.w3.org/2000/svg">
<circle cx="19.25" cy="21.2187" r="17.75" stroke="#6927DA" stroke-width="3"/>
<path d="M26.2326 28.2014C22.6301 31.8038 18.5554 34.1485 14.9388 35.0785C11.2846 36.0182 8.39285 35.464 6.69875 33.7699C5.00464 32.0758 4.45046 29.1841 5.39013 25.5298C6.3201 21.9133 8.66479 17.8385 12.2672 14.2361C15.8696 10.6336 19.9444 8.28895 23.561 7.35898C27.2152 6.41932 30.1069 6.97349 31.801 8.6676C33.4951 10.3617 34.0493 13.2534 33.1097 16.9077C32.1797 20.5242 29.835 24.599 26.2326 28.2014Z" stroke="#6927DA" stroke-width="3"/>
<path d="M26.2326 14.236C29.835 17.8385 32.1797 21.9132 33.1096 25.5298C34.0493 29.184 33.4951 32.0758 31.801 33.7699C30.1069 35.464 27.2152 36.0181 23.5609 35.0785C19.9444 34.1485 15.8696 31.8038 12.2672 28.2014C8.66477 24.599 6.32008 20.5242 5.39011 16.9077C4.45044 13.2534 5.00462 10.3617 6.69873 8.66757C8.39283 6.97347 11.2845 6.41929 14.9388 7.35896C18.5553 8.28893 22.6301 10.6336 26.2326 14.236Z" stroke="#6927DA" stroke-width="3"/>
<path d="M54.9936 29.96C59.1149 29.96 61.8974 27.8075 61.8974 24.3688C61.8974 17.0975 52.2374 20.195 52.2374 16.3625C52.2374 15.2863 53.2086 14.5513 54.7574 14.5513C56.5161 14.5513 57.6186 15.4963 57.7499 16.94H61.5036C61.3986 13.4488 58.7211 11.165 54.7574 11.165C51.0299 11.165 48.4049 13.3175 48.4049 16.3625C48.4049 23.5813 57.9336 20.825 57.9336 24.4213C57.9336 25.8125 56.7524 26.5475 54.9936 26.5475C53.0511 26.5475 51.8174 25.3663 51.6599 23.5025H47.8799C48.0374 27.4138 50.8199 29.96 54.9936 29.96Z" fill="white"/>
<path d="M62.7901 35.105H66.4388V28.5688C67.1476 29.4613 68.4338 29.96 69.9301 29.96C73.7363 29.96 76.3088 27.2563 76.3088 23.135C76.3088 19.0138 73.9463 16.31 70.2451 16.31C68.5388 16.31 67.2263 16.94 66.4388 17.9638V16.52H62.7901V35.105ZM69.4838 26.81C67.5151 26.81 66.2288 25.34 66.2288 23.135C66.2288 20.9038 67.5151 19.4338 69.4838 19.4338C71.4001 19.4338 72.7126 20.9038 72.7126 23.135C72.7126 25.34 71.4001 26.81 69.4838 26.81Z" fill="white"/>
<path d="M77.1917 29.75H80.8404V22.505C80.8404 20.7988 81.9692 19.565 83.5704 19.565C85.0929 19.565 86.1429 20.72 86.1429 22.3213V29.75H89.7917V21.5075C89.7917 18.4625 87.8492 16.31 84.8829 16.31C83.0454 16.31 81.6017 17.0713 80.8404 18.3575V10.7713H77.1917V29.75Z" fill="white"/>
<path d="M99.9988 25.2613C99.7101 26.39 98.7388 26.9675 97.2688 26.9675C95.4313 26.9675 94.2501 25.8125 93.9876 23.9488H103.49C103.516 23.66 103.543 23.2663 103.543 22.7675C103.543 19.7488 101.679 16.31 97.0063 16.31C92.5176 16.31 90.4701 19.7488 90.4701 23.1088C90.4701 26.4425 92.7801 29.96 97.2688 29.96C100.524 29.96 103.044 28.1225 103.569 25.2613H99.9988ZM97.0063 18.9875C98.7651 18.9875 99.7888 20.1688 99.8938 21.6388H94.0401C94.3551 19.8013 95.3526 18.9875 97.0063 18.9875Z" fill="white"/>
<path d="M113.112 19.565V16.52H111.229C109.628 16.52 108.631 17.0713 107.922 18.725V16.52H104.247V29.75H107.922V23.3188C107.922 21.0613 108.736 19.565 110.547 19.565H113.112Z" fill="white"/>
<path d="M125.712 16.52H122.037V23.765C122.037 25.445 120.908 26.705 119.307 26.705C117.811 26.705 116.761 25.55 116.761 23.9488V16.52H113.112V24.7625C113.112 27.7813 115.054 29.96 118.021 29.96C119.832 29.96 121.302 29.1725 122.037 27.9125V29.75H125.712V16.52Z" fill="white"/>
<path d="M127.287 29.75H130.936V10.7713H127.287V29.75Z" fill="white"/>
<path d="M141.353 25.2613C141.064 26.39 140.093 26.9675 138.623 26.9675C136.785 26.9675 135.604 25.8125 135.342 23.9488H144.844C144.87 23.66 144.897 23.2663 144.897 22.7675C144.897 19.7488 143.033 16.31 138.36 16.31C133.872 16.31 131.824 19.7488 131.824 23.1088C131.824 26.4425 134.134 29.96 138.623 29.96C141.878 29.96 144.398 28.1225 144.923 25.2613H141.353ZM138.36 18.9875C140.119 18.9875 141.143 20.1688 141.248 21.6388H135.394C135.709 19.8013 136.707 18.9875 138.36 18.9875Z" fill="white"/>
</svg>
