<svg width="174" height="42" viewBox="0 0 174 42" fill="none" xmlns="http://www.w3.org/2000/svg">
<path d="M31.7684 9.76775C31.3902 9.38955 31.012 9.01136 30.6338 8.63317C29.4993 7.42295 28.289 6.21274 26.7763 5.45635C25.0366 4.54869 23.1456 4.7756 21.2547 4.7756C18.3804 4.7756 11.1947 4.7756 6.95898 4.7756L9.83325 8.63317C15.0523 8.63317 23.2213 8.63317 27.0032 8.63317C28.5916 8.63317 29.9531 8.93572 31.239 9.76775C31.4659 9.84339 31.6928 9.84339 31.7684 9.76775Z" fill="#66C61C"/>
<path d="M34.9451 15.9702C34.567 15.592 34.1888 15.2138 33.8106 14.8356C32.676 13.6254 31.4658 12.4152 29.953 11.6588C28.2133 10.7511 26.3224 10.978 24.4314 10.978C21.9353 10.978 15.9599 10.978 11.7241 10.978L14.5984 14.8356C19.7418 14.8356 26.7762 14.8356 30.2556 14.8356C31.844 14.8356 33.2055 15.1381 34.4913 15.9702C34.6426 16.0458 34.7939 16.0458 34.9451 15.9702Z" fill="#4CA30D"/>
<path d="M38.5 22.0211C38.1218 21.6429 37.7436 21.2647 37.3654 20.8865C36.2308 19.6763 35.0206 18.466 33.5078 17.7096C31.7681 16.802 29.8772 17.0289 27.9862 17.0289C25.6414 17.0289 20.498 17.0289 16.3379 17.0289L19.2121 20.8865C24.2043 20.8865 30.5579 20.8865 33.7347 20.8865C35.3232 20.8865 36.6846 21.189 37.9705 22.0211C38.1974 22.0967 38.3487 22.1723 38.5 22.0211Z" fill="#3B7C0F"/>
<path d="M6.65625 32.2323C7.03444 32.6105 7.41264 32.9887 7.79083 33.3668C8.92541 34.5771 10.1356 35.7873 11.6484 36.5436C13.3881 37.4513 15.279 37.2244 17.17 37.2244H31.4657L28.5914 33.3668C23.3724 33.3668 15.2034 33.3668 11.4215 33.3668C9.83307 33.3668 8.47157 33.0643 7.18572 32.2323C6.9588 32.1566 6.80753 32.1566 6.65625 32.2323Z" fill="#66C61C"/>
<path d="M3.47949 26.0301C3.85768 26.4083 4.23588 26.7865 4.61407 27.1647C5.74865 28.3749 6.95886 29.5851 8.47163 30.3415C10.2113 31.2492 12.1023 31.0223 13.9932 31.0223H26.7005L23.8262 27.1647C18.6828 27.1647 11.6484 27.1647 8.16908 27.1647C6.58067 27.1647 5.21917 26.8621 3.93332 26.0301C3.78204 25.9545 3.63077 25.9545 3.47949 26.0301Z" fill="#4CA30D"/>
<path d="M0 19.9032C0.378193 20.2814 0.756385 20.6595 1.13458 21.0377C2.26916 22.248 3.47938 23.4582 4.99215 24.2146C6.73183 25.1222 8.62279 24.8953 10.5137 24.8953H22.1621L19.2878 21.0377C14.2957 21.0377 7.94205 21.0377 4.76523 21.0377C3.17682 21.0377 1.81532 20.7352 0.529467 19.9032C0.302552 19.8275 0.151277 19.8275 0 19.9032Z" fill="#3B7C0F"/>
<path d="M47.1904 12.257V29.75H51.0369V22.5225H58.3624V19.5335H51.0369V15.491H59.4894V12.257H47.1904Z" fill="white"/>
<path d="M69.1369 22.057H63.4774C63.4937 21.812 63.5427 21.5343 63.6244 21.224C63.7224 20.9137 63.8775 20.6197 64.0899 20.342C64.3185 20.0643 64.6125 19.8357 64.9719 19.656C65.3475 19.46 65.813 19.362 66.3684 19.362C67.2177 19.362 67.8465 19.5907 68.2549 20.048C68.6795 20.5053 68.9735 21.175 69.1369 22.057ZM63.4774 24.262H72.6159C72.6812 23.282 72.5995 22.3428 72.3709 21.4445C72.1422 20.5462 71.7665 19.7458 71.2439 19.0435C70.7375 18.3412 70.0842 17.7858 69.2839 17.3775C68.4835 16.9528 67.5444 16.7405 66.4664 16.7405C65.5027 16.7405 64.6207 16.912 63.8204 17.255C63.0364 17.598 62.3585 18.0717 61.7869 18.676C61.2152 19.264 60.7742 19.9663 60.4639 20.783C60.1535 21.5997 59.9984 22.4817 59.9984 23.429C59.9984 24.409 60.1454 25.3073 60.4394 26.124C60.7497 26.9407 61.1825 27.643 61.7379 28.231C62.2932 28.819 62.971 29.2763 63.7714 29.603C64.5717 29.9133 65.47 30.0685 66.4664 30.0685C67.9037 30.0685 69.1287 29.7418 70.1414 29.0885C71.154 28.4352 71.9054 27.349 72.3954 25.83H69.3329C69.2185 26.222 68.9082 26.5977 68.4019 26.957C67.8955 27.3 67.2912 27.4715 66.5889 27.4715C65.6089 27.4715 64.8575 27.2183 64.3349 26.712C63.8122 26.2057 63.5264 25.389 63.4774 24.262Z" fill="white"/>
<path d="M73.7972 20.979C73.8462 20.1623 74.0504 19.4845 74.4097 18.9455C74.7691 18.4065 75.2264 17.9737 75.7817 17.647C76.3371 17.3203 76.9577 17.0917 77.6437 16.961C78.3461 16.814 79.0484 16.7405 79.7507 16.7405C80.3877 16.7405 81.0329 16.7895 81.6862 16.8875C82.3396 16.9692 82.9357 17.1407 83.4747 17.402C84.0137 17.6633 84.4547 18.0308 84.7977 18.5045C85.1407 18.9618 85.3122 19.5743 85.3122 20.342V26.9325C85.3122 27.5042 85.3449 28.0513 85.4102 28.574C85.4756 29.0967 85.5899 29.4887 85.7532 29.75H82.2252C82.1599 29.554 82.1027 29.358 82.0537 29.162C82.0211 28.9497 81.9966 28.7373 81.9802 28.525C81.4249 29.0967 80.7716 29.4968 80.0202 29.7255C79.2689 29.9542 78.5012 30.0685 77.7172 30.0685C77.1129 30.0685 76.5494 29.995 76.0267 29.848C75.5041 29.701 75.0467 29.4723 74.6547 29.162C74.2627 28.8517 73.9524 28.4597 73.7237 27.986C73.5114 27.5123 73.4052 26.9488 73.4052 26.2955C73.4052 25.5768 73.5277 24.9888 73.7727 24.5315C74.0341 24.0578 74.3607 23.6822 74.7527 23.4045C75.1611 23.1268 75.6184 22.9227 76.1247 22.792C76.6474 22.645 77.1701 22.5307 77.6927 22.449C78.2154 22.3673 78.7299 22.302 79.2362 22.253C79.7426 22.204 80.1917 22.1305 80.5837 22.0325C80.9757 21.9345 81.2861 21.7957 81.5147 21.616C81.7434 21.42 81.8496 21.1423 81.8332 20.783C81.8332 20.4073 81.7679 20.1133 81.6372 19.901C81.5229 19.6723 81.3596 19.5008 81.1472 19.3865C80.9512 19.2558 80.7144 19.1742 80.4367 19.1415C80.1754 19.0925 79.8896 19.068 79.5792 19.068C78.8932 19.068 78.3542 19.215 77.9622 19.509C77.5702 19.803 77.3416 20.293 77.2762 20.979H73.7972ZM81.8332 23.5515C81.6862 23.6822 81.4984 23.7883 81.2697 23.87C81.0574 23.9353 80.8206 23.9925 80.5592 24.0415C80.3142 24.0905 80.0529 24.1313 79.7752 24.164C79.4976 24.1967 79.2199 24.2375 78.9422 24.2865C78.6809 24.3355 78.4196 24.4008 78.1582 24.4825C77.9132 24.5642 77.6927 24.6785 77.4967 24.8255C77.3171 24.9562 77.1701 25.1277 77.0557 25.34C76.9414 25.5523 76.8842 25.8218 76.8842 26.1485C76.8842 26.4588 76.9414 26.7202 77.0557 26.9325C77.1701 27.1448 77.3252 27.3163 77.5212 27.447C77.7172 27.5613 77.9459 27.643 78.2072 27.692C78.4686 27.741 78.7381 27.7655 79.0157 27.7655C79.7017 27.7655 80.2326 27.6512 80.6082 27.4225C80.9839 27.1938 81.2616 26.9243 81.4412 26.614C81.6209 26.2873 81.7271 25.9607 81.7597 25.634C81.8087 25.3073 81.8332 25.046 81.8332 24.85V23.5515Z" fill="white"/>
<path d="M91.6876 17.0835V13.286H88.2086V17.0835H86.1016V19.411H88.2086V26.8835C88.2086 27.5205 88.3148 28.035 88.5271 28.427C88.7394 28.819 89.0253 29.1212 89.3846 29.3335C89.7603 29.5458 90.1849 29.6847 90.6586 29.75C91.1486 29.8317 91.6631 29.8725 92.2021 29.8725C92.5451 29.8725 92.8963 29.8643 93.2556 29.848C93.6149 29.8317 93.9416 29.799 94.2356 29.75V27.055C94.0723 27.0877 93.9008 27.1122 93.7211 27.1285C93.5414 27.1448 93.3536 27.153 93.1576 27.153C92.5696 27.153 92.1776 27.055 91.9816 26.859C91.7856 26.663 91.6876 26.271 91.6876 25.683V19.411H94.2356V17.0835H91.6876Z" fill="white"/>
<path d="M95.1559 12.257V29.75H98.6349V23.1105C98.6349 21.8202 98.8472 20.8973 99.2719 20.342C99.6965 19.7703 100.383 19.4845 101.33 19.4845C102.163 19.4845 102.743 19.7458 103.069 20.2685C103.396 20.7748 103.559 21.5507 103.559 22.596V29.75H107.038V21.959C107.038 21.175 106.965 20.4645 106.818 19.8275C106.687 19.1742 106.45 18.627 106.107 18.186C105.764 17.7287 105.291 17.3775 104.686 17.1325C104.098 16.8712 103.339 16.7405 102.408 16.7405C101.755 16.7405 101.085 16.912 100.399 17.255C99.7129 17.5817 99.1494 18.1125 98.7084 18.8475H98.6349V12.257H95.1559Z" fill="white"/>
<path d="M117.47 22.057H111.81C111.827 21.812 111.876 21.5343 111.957 21.224C112.055 20.9137 112.21 20.6197 112.423 20.342C112.651 20.0643 112.945 19.8357 113.305 19.656C113.68 19.46 114.146 19.362 114.701 19.362C115.551 19.362 116.179 19.5907 116.588 20.048C117.012 20.5053 117.306 21.175 117.47 22.057ZM111.81 24.262H120.949C121.014 23.282 120.932 22.3428 120.704 21.4445C120.475 20.5462 120.099 19.7458 119.577 19.0435C119.07 18.3412 118.417 17.7858 117.617 17.3775C116.816 16.9528 115.877 16.7405 114.799 16.7405C113.836 16.7405 112.954 16.912 112.153 17.255C111.369 17.598 110.691 18.0717 110.12 18.676C109.548 19.264 109.107 19.9663 108.797 20.783C108.486 21.5997 108.331 22.4817 108.331 23.429C108.331 24.409 108.478 25.3073 108.772 26.124C109.083 26.9407 109.515 27.643 110.071 28.231C110.626 28.819 111.304 29.2763 112.104 29.603C112.905 29.9133 113.803 30.0685 114.799 30.0685C116.237 30.0685 117.462 29.7418 118.474 29.0885C119.487 28.4352 120.238 27.349 120.728 25.83H117.666C117.551 26.222 117.241 26.5977 116.735 26.957C116.228 27.3 115.624 27.4715 114.922 27.4715C113.942 27.4715 113.19 27.2183 112.668 26.712C112.145 26.2057 111.859 25.389 111.81 24.262Z" fill="white"/>
<path d="M122.277 17.0835V29.75H125.756V24.0415C125.756 23.4698 125.813 22.939 125.928 22.449C126.042 21.959 126.23 21.5343 126.491 21.175C126.769 20.7993 127.128 20.5053 127.569 20.293C128.01 20.0807 128.549 19.9745 129.186 19.9745C129.399 19.9745 129.619 19.9908 129.848 20.0235C130.076 20.0398 130.272 20.0643 130.436 20.097V16.863C130.158 16.7813 129.905 16.7405 129.676 16.7405C129.235 16.7405 128.811 16.8058 128.402 16.9365C127.994 17.0672 127.61 17.255 127.251 17.5C126.891 17.7287 126.573 18.0145 126.295 18.3575C126.018 18.6842 125.797 19.0435 125.634 19.4355H125.585V17.0835H122.277Z" fill="white"/>
<path d="M135.279 26.516V15.491H138.023C138.97 15.491 139.762 15.6298 140.399 15.9075C141.052 16.1688 141.575 16.5527 141.967 17.059C142.359 17.5653 142.637 18.1778 142.8 18.8965C142.98 19.5988 143.07 20.391 143.07 21.273C143.07 22.2367 142.947 23.0533 142.702 23.723C142.457 24.3927 142.13 24.9398 141.722 25.3645C141.314 25.7728 140.848 26.0668 140.326 26.2465C139.803 26.4262 139.264 26.516 138.709 26.516H135.279ZM131.432 12.257V29.75H138.978C140.317 29.75 141.477 29.5295 142.457 29.0885C143.453 28.6312 144.278 28.0105 144.932 27.2265C145.601 26.4425 146.099 25.5115 146.426 24.4335C146.753 23.3555 146.916 22.1795 146.916 20.9055C146.916 19.4518 146.712 18.186 146.304 17.108C145.912 16.03 145.356 15.1317 144.638 14.413C143.935 13.6943 143.094 13.1553 142.114 12.796C141.15 12.4367 140.105 12.257 138.978 12.257H131.432Z" fill="white"/>
<path d="M157.015 22.057H151.356C151.372 21.812 151.421 21.5343 151.503 21.224C151.601 20.9137 151.756 20.6197 151.968 20.342C152.197 20.0643 152.491 19.8357 152.85 19.656C153.226 19.46 153.691 19.362 154.247 19.362C155.096 19.362 155.725 19.5907 156.133 20.048C156.558 20.5053 156.852 21.175 157.015 22.057ZM151.356 24.262H160.494C160.56 23.282 160.478 22.3428 160.249 21.4445C160.021 20.5462 159.645 19.7458 159.122 19.0435C158.616 18.3412 157.963 17.7858 157.162 17.3775C156.362 16.9528 155.423 16.7405 154.345 16.7405C153.381 16.7405 152.499 16.912 151.699 17.255C150.915 17.598 150.237 18.0717 149.665 18.676C149.094 19.264 148.653 19.9663 148.342 20.783C148.032 21.5997 147.877 22.4817 147.877 23.429C147.877 24.409 148.024 25.3073 148.318 26.124C148.628 26.9407 149.061 27.643 149.616 28.231C150.172 28.819 150.849 29.2763 151.65 29.603C152.45 29.9133 153.348 30.0685 154.345 30.0685C155.782 30.0685 157.007 29.7418 158.02 29.0885C159.032 28.4352 159.784 27.349 160.274 25.83H157.211C157.097 26.222 156.787 26.5977 156.28 26.957C155.774 27.3 155.17 27.4715 154.467 27.4715C153.487 27.4715 152.736 27.2183 152.213 26.712C151.691 26.2057 151.405 25.389 151.356 24.262Z" fill="white"/>
<path d="M168.83 29.75L173.117 17.0835H169.663L166.992 25.732H166.943L164.273 17.0835H160.622L164.959 29.75H168.83Z" fill="white"/>
</svg>
