<svg width="154" height="42" viewBox="0 0 154 42" fill="none" xmlns="http://www.w3.org/2000/svg">
<path d="M12.9307 17.0185C17.9715 14.6077 21.9165 10.5166 24.1812 5.40275C22.7201 3.8686 20.8207 2.77277 18.7751 2.11528L17.6793 1.75C17.6063 1.89611 17.5332 2.11528 17.5332 2.26139C15.7799 7.22914 12.2002 11.2472 7.37856 13.5119C4.01803 15.1191 1.53416 18.0413 0.365275 21.5479L0 22.6437C0.14611 22.7168 0.365278 22.7898 0.511388 22.7898C1.89943 23.3012 3.28748 23.9587 4.60247 24.7623C6.42884 21.4749 9.35104 18.6988 12.9307 17.0185Z" fill="#087443"/>
<path d="M34.1166 17.3107C31.4136 21.4018 27.6878 24.6893 23.0853 26.8809C19.3595 28.6343 16.5103 31.9217 15.1954 35.8667L14.8301 37.1086C16.2181 38.3506 17.8984 39.3003 19.7248 39.8847L20.8206 40.25C20.8936 40.1039 20.9667 39.8847 20.9667 39.7386C22.72 34.7709 26.2997 30.7529 31.1213 28.4882C34.4819 26.8809 37.0388 23.9587 38.1346 20.4521L38.4999 19.3563C36.9657 18.918 35.5046 18.1874 34.1166 17.3107Z" fill="#16B364"/>
<path d="M11.908 33.3096C13.7343 28.9263 17.0949 25.3466 21.4051 23.3011C25.3501 21.4017 28.6376 18.4795 30.9023 14.8998C29.222 13.2926 27.834 11.4662 26.8112 9.27452C24.1082 14.2423 19.871 18.2603 14.6841 20.7442C11.6888 22.1322 9.27799 24.543 7.81689 27.4652C9.4241 28.9994 10.7391 30.8988 11.7619 33.0174C11.7619 33.0174 11.8349 33.1635 11.908 33.3096Z" fill="#099250"/>
<path d="M47.2061 29.75H59.5173V26.3375H51.1698V11.375H47.2061V29.75Z" fill="white"/>
<path d="M72.3796 16.52H68.7046V23.765C68.7046 25.445 67.5758 26.705 65.9746 26.705C64.4783 26.705 63.4283 25.55 63.4283 23.9488V16.52H59.7796V24.7625C59.7796 27.7813 61.7221 29.96 64.6883 29.96C66.4996 29.96 67.9696 29.1725 68.7046 27.9125V29.75H72.3796V16.52Z" fill="white"/>
<path d="M73.7448 29.75H77.4198V22.2425C77.4198 20.5363 78.3911 19.4075 79.9136 19.4075C81.3311 19.4075 82.2236 20.5363 82.2236 22.2425V29.75H85.8985V22.2425C85.8985 20.5363 86.8698 19.4075 88.3923 19.4075C89.8098 19.4075 90.7285 20.5363 90.7285 22.2425V29.75H94.3773V21.0875C94.3773 18.4363 92.5135 16.31 89.6261 16.31C87.4998 16.31 85.8461 17.4388 85.216 18.725C84.5861 17.15 83.2473 16.31 81.1736 16.31C79.3886 16.31 78.1286 17.1763 77.4198 18.3838V16.52H73.7448V29.75Z" fill="white"/>
<path d="M95.6293 10.7713V14.63H99.5143V10.7713H95.6293ZM95.7343 29.75H99.4093V16.52H95.7343V29.75Z" fill="white"/>
<path d="M100.779 29.75H104.454V22.505C104.454 20.7988 105.583 19.565 107.184 19.565C108.707 19.565 109.73 20.72 109.73 22.3213V29.75H113.405V21.5075C113.405 18.4625 111.463 16.31 108.47 16.31C106.659 16.31 105.189 17.0713 104.454 18.3575V16.52H100.779V29.75Z" fill="white"/>
<path d="M121.071 29.96C125.139 29.96 128.053 27.0725 128.053 23.135C128.053 19.1975 125.139 16.31 121.071 16.31C117.002 16.31 114.088 19.1975 114.088 23.135C114.088 27.0725 117.002 29.96 121.071 29.96ZM121.071 26.81C119.102 26.81 117.763 25.3138 117.763 23.135C117.763 20.93 119.102 19.4338 121.071 19.4338C123.039 19.4338 124.378 20.93 124.378 23.135C124.378 25.3138 123.039 26.81 121.071 26.81Z" fill="white"/>
<path d="M141.363 16.52H137.688V23.765C137.688 25.445 136.559 26.705 134.958 26.705C133.462 26.705 132.412 25.55 132.412 23.9488V16.52H128.763V24.7625C128.763 27.7813 130.705 29.96 133.672 29.96C135.483 29.96 136.953 29.1725 137.688 27.9125V29.75H141.363V16.52Z" fill="white"/>
<path d="M147.558 29.96C150.655 29.96 152.703 28.3063 152.703 25.7863C152.703 19.8013 145.458 22.8725 145.458 20.1688C145.458 19.3288 146.167 18.8825 147.19 18.8825C148.188 18.8825 149.212 19.4863 149.369 20.615H152.545C152.414 18.0163 150.262 16.31 147.085 16.31C144.382 16.31 142.36 17.9638 142.36 20.3C142.36 25.865 149.474 23.2138 149.474 25.9175C149.474 26.6525 148.687 27.2038 147.558 27.2038C146.193 27.2038 145.274 26.4688 145.143 25.2875H141.993C142.124 28.1488 144.329 29.96 147.558 29.96Z" fill="white"/>
</svg>
