<svg width="48" height="48" viewBox="0 0 48 48" fill="none" xmlns="http://www.w3.org/2000/svg">
<path d="M39.75 42C35.6833 42 31.6417 41 27.625 39C23.6083 37 20 34.4 16.8 31.2C13.6 28 11 24.3917 9 20.375C7 16.3583 6 12.3167 6 8.25C6 7.61667 6.21667 7.08333 6.65 6.65C7.08333 6.21667 7.61667 6 8.25 6H15.25C15.7167 6 16.125 6.15833 16.475 6.475C16.825 6.79167 17.05 7.21667 17.15 7.75L18.5 14.05C18.5667 14.5167 18.5583 14.9417 18.475 15.325C18.3917 15.7083 18.2167 16.0333 17.95 16.3L12.95 21.35C14.8167 24.45 16.9083 27.15 19.225 29.45C21.5417 31.75 24.1667 33.7 27.1 35.3L31.85 30.4C32.1833 30.0333 32.5667 29.775 33 29.625C33.4333 29.475 33.8667 29.45 34.3 29.55L40.25 30.85C40.75 30.95 41.1667 31.2 41.5 31.6C41.8333 32 42 32.4667 42 33V39.75C42 40.3833 41.7833 40.9167 41.35 41.35C40.9167 41.7833 40.3833 42 39.75 42Z" fill="#1AE3E3"/>
<path d="M24.8008 7.75469V23.6047L30.0008 18.6547H40.0508C40.6174 18.6547 41.0841 18.463 41.4508 18.0797C41.8174 17.6964 42.0008 17.2214 42.0008 16.6547V7.75469C42.0008 7.25469 41.8091 6.84635 41.4258 6.52969C41.0424 6.21302 40.5841 6.05469 40.0508 6.05469H26.8008C26.2674 6.05469 25.8008 6.21302 25.4008 6.52969C25.0008 6.84635 24.8008 7.25469 24.8008 7.75469Z" fill="#C7FF50"/>
</svg>
