<svg width="18" height="17" viewBox="0 0 18 17" fill="none" xmlns="http://www.w3.org/2000/svg">
<path d="M12.0619 12.5209L12.9994 11.5834L9.68685 8.25008V4.06258H8.43685V8.75008L12.0619 12.5209ZM8.99935 16.8334C7.86046 16.8334 6.78407 16.6147 5.77018 16.1772C4.75629 15.7397 3.87088 15.1424 3.11393 14.3855C2.35699 13.6286 1.75977 12.7431 1.32227 11.7292C0.884766 10.7154 0.666016 9.63897 0.666016 8.50008C0.666016 7.36119 0.884766 6.2848 1.32227 5.27092C1.75977 4.25703 2.35699 3.37161 3.11393 2.61467C3.87088 1.85772 4.75629 1.2605 5.77018 0.822998C6.78407 0.385498 7.86046 0.166748 8.99935 0.166748C10.1382 0.166748 11.2146 0.385498 12.2285 0.822998C13.2424 1.2605 14.1278 1.85772 14.8848 2.61467C15.6417 3.37161 16.2389 4.25703 16.6764 5.27092C17.1139 6.2848 17.3327 7.36119 17.3327 8.50008C17.3327 9.63897 17.1139 10.7154 16.6764 11.7292C16.2389 12.7431 15.6417 13.6286 14.8848 14.3855C14.1278 15.1424 13.2424 15.7397 12.2285 16.1772C11.2146 16.6147 10.1382 16.8334 8.99935 16.8334ZM8.99935 15.5834C10.9438 15.5834 12.6105 14.889 13.9994 13.5001C15.3882 12.1112 16.0827 10.4445 16.0827 8.50008C16.0827 6.55564 15.3882 4.88897 13.9994 3.50008C12.6105 2.11119 10.9438 1.41675 8.99935 1.41675C7.05491 1.41675 5.38824 2.11119 3.99935 3.50008C2.61046 4.88897 1.91602 6.55564 1.91602 8.50008C1.91602 10.4445 2.61046 12.1112 3.99935 13.5001C5.38824 14.889 7.05491 15.5834 8.99935 15.5834Z" fill="#97A3C1"/>
</svg>
