<svg id="eqR6MmgIyxi1" xmlns="http://www.w3.org/2000/svg" xmlns:xlink="http://www.w3.org/1999/xlink" viewBox="0 0 355 498" shape-rendering="geometricPrecision" text-rendering="geometricPrecision">
<style><![CDATA[
#eqR6MmgIyxi2_tr {animation: eqR6MmgIyxi2_tr__tr 4000ms linear infinite normal forwards}@keyframes eqR6MmgIyxi2_tr__tr { 0% {transform: translate(228.367804px,205.152794px) rotate(-4deg)} 35% {transform: translate(228.367804px,205.152794px) rotate(0deg)} 67.5% {transform: translate(228.367804px,205.152794px) rotate(-4deg)} 100% {transform: translate(228.367804px,205.152794px) rotate(0deg)}} #eqR6MmgIyxi5_tr {animation: eqR6MmgIyxi5_tr__tr 4000ms linear infinite normal forwards}@keyframes eqR6MmgIyxi5_tr__tr { 0% {transform: translate(192.169px,74.7512px) rotate(17deg)} 35% {transform: translate(192.169px,74.7512px) rotate(0deg)} 67.5% {transform: translate(192.169px,74.7512px) rotate(14deg)} 100% {transform: translate(192.169px,74.7512px) rotate(0deg)}} #eqR6MmgIyxi6_tr {animation: eqR6MmgIyxi6_tr__tr 4000ms linear infinite normal forwards}@keyframes eqR6MmgIyxi6_tr__tr { 0% {transform: translate(169.569252px,80.916001px) rotate(0deg)} 35% {transform: translate(169.569252px,80.916001px) rotate(-11deg)} 67.5% {transform: translate(169.569252px,80.916001px) rotate(0deg)} 100% {transform: translate(169.569252px,80.916001px) rotate(-15deg)}} #eqR6MmgIyxi9_tr {animation: eqR6MmgIyxi9_tr__tr 4000ms linear infinite normal forwards}@keyframes eqR6MmgIyxi9_tr__tr { 0% {transform: translate(157.524166px,145.946232px) rotate(6deg)} 35% {transform: translate(157.524166px,145.946232px) rotate(-3deg)} 67.5% {transform: translate(157.524166px,145.946232px) rotate(10deg)} 100% {transform: translate(157.524166px,145.946232px) rotate(-5deg)}} #eqR6MmgIyxi10_tr {animation: eqR6MmgIyxi10_tr__tr 4000ms linear infinite normal forwards}@keyframes eqR6MmgIyxi10_tr__tr { 0% {transform: translate(223.791978px,339.988014px) rotate(12deg)} 35% {transform: translate(223.791978px,339.988014px) rotate(-2deg)} 67.5% {transform: translate(223.791978px,339.988014px) rotate(11deg)} 100% {transform: translate(223.791978px,339.988014px) rotate(0deg)}} #eqR6MmgIyxi13_tr {animation: eqR6MmgIyxi13_tr__tr 4000ms linear infinite normal forwards}@keyframes eqR6MmgIyxi13_tr__tr { 0% {transform: translate(125.672204px,320.237004px) rotate(-24deg)} 35% {transform: translate(125.672204px,320.237004px) rotate(12deg)} 67.5% {transform: translate(125.672204px,320.237004px) rotate(-16deg)} 100% {transform: translate(125.672204px,320.237004px) rotate(0deg)}} #eqR6MmgIyxi18_tr {animation: eqR6MmgIyxi18_tr__tr 4000ms linear infinite normal forwards}@keyframes eqR6MmgIyxi18_tr__tr { 0% {transform: translate(144px,139px) rotate(370deg)} 35% {transform: translate(144px,139px) rotate(354deg)} 67.5% {transform: translate(144px,139px) rotate(373deg)} 100% {transform: translate(144px,139px) rotate(361deg)}} #eqR6MmgIyxi19 {animation: eqR6MmgIyxi19_c_o 4000ms linear infinite normal forwards}@keyframes eqR6MmgIyxi19_c_o { 0% {opacity: 0} 50% {opacity: 0} 67.5% {opacity: 0.25} 77.5% {opacity: 0.5} 92.5% {opacity: 0.8} 100% {opacity: 1}} #eqR6MmgIyxi20 {animation: eqR6MmgIyxi20_c_o 4000ms linear infinite normal forwards}@keyframes eqR6MmgIyxi20_c_o { 0% {opacity: 0.07} 25% {opacity: 0.07} 37.5% {opacity: 0.6} 50% {opacity: 1} 100% {opacity: 1}} #eqR6MmgIyxi21 {animation: eqR6MmgIyxi21_c_o 4000ms linear infinite normal forwards}@keyframes eqR6MmgIyxi21_c_o { 0% {opacity: 0} 12.5% {opacity: 0.41} 25% {opacity: 1} 37.5% {opacity: 1} 100% {opacity: 1}} #eqR6MmgIyxi22_ts {animation: eqR6MmgIyxi22_ts__ts 4000ms linear infinite normal forwards}@keyframes eqR6MmgIyxi22_ts__ts { 0% {transform: translate(52.12295px,194.990501px) scale(0.5,0.5)} 20% {transform: translate(52.12295px,194.990501px) scale(0.8,0.8)} 45% {transform: translate(52.12295px,194.990501px) scale(1,1)} 75% {transform: translate(52.12295px,194.990501px) scale(1.1,1.1)} 100% {transform: translate(52.12295px,194.990501px) scale(1,1)}} #eqR6MmgIyxi24_tr {animation: eqR6MmgIyxi24_tr__tr 4000ms linear infinite normal forwards}@keyframes eqR6MmgIyxi24_tr__tr { 0% {transform: translate(248.162498px,263.139px) rotate(0deg)} 35% {transform: translate(248.162498px,263.139px) rotate(450deg)} 80% {transform: translate(248.162498px,263.139px) rotate(360deg)} 100% {transform: translate(248.162498px,263.139px) rotate(405deg)}}
]]></style>
<g id="eqR6MmgIyxi2_tr" transform="translate(228.367804,205.152794) rotate(-4)"><g transform="translate(-228.367794,-205.152794)"><path d="M235.279,229.123c5.378-1.142,10.08-4.357,13.073-8.94c2.992-4.582,4.03-10.157,2.885-15.498L228.779,100.172c-.097-.4412-.208-.8725-.328-1.2989-.012-.1933-.037-.3855-.077-.575l-5.135-23.9013c-.213-.9945-.816-1.8639-1.675-2.417-.86-.5531-1.905-.7446-2.906-.5323-1.002.2122-1.877.8108-2.434,1.664s-.75,1.8913-.537,2.8857l2.172,10.0963c-1.043-.5232-2.127-.9592-3.243-1.3034l-3.378-15.6882c-.213-.9944-.816-1.8638-1.675-2.417-.86-.5531-1.905-.7446-2.907-.5323-1.001.2122-1.876.8108-2.433,1.664-.557.8533-.75,1.8913-.537,2.8857l2.852,13.2588c-.81.0747-1.616.1947-2.412.3594v0c-.483.1006-.966.2252-1.405.3546l-3.136-14.5813c-.239-.9679-.849-1.8052-1.699-2.3344-.851-.5293-1.875-.7089-2.857-.5007-.981.2081-1.842.7876-2.401,1.6156-.558.828-.77,1.8395-.59,2.8199l3.566,16.6035c-1.201.9427-2.294,2.0146-3.258,3.1961l-2.475-11.5002c-.239-.9679-.849-1.8052-1.699-2.3344s-1.875-.7089-2.856-.5008c-.982.2082-1.843.7877-2.402,1.6157-.558.828-.77,1.8394-.59,2.8199l5.183,23.901c.071.334.188.656.347.959.077.78.196,1.556.357,2.324l.338,1.576-8.932-9.837c-.686-.7553-1.646-1.2086-2.669-1.2607-1.022-.0522-2.024.3012-2.784.9827-.76.681-1.217,1.634-1.269,2.649-.053,1.016.303,2.011.989,2.765L190.368,123.8c.356.391.79.704,1.274.92" fill="none" stroke="#001345" stroke-linecap="square" stroke-linejoin="round"/><path d="M250.914,203.578c1.09,3.855,1.012,7.943-.224,11.754s-3.575,7.176-6.725,9.675v0c-2.105,1.668-4.52,2.908-7.108,3.649-2.588.742-5.297.97-7.974.671-2.676-.299-5.267-1.118-7.625-2.411-2.357-1.293-4.435-3.034-6.115-5.125l-47.29-58.794c-3.392-4.222-4.957-9.608-4.351-14.976.606-5.367,3.334-10.275,7.584-13.646v0c2.105-1.668,4.52-2.908,7.108-3.649s5.297-.969,7.974-.671c2.676.299,5.267,1.118,7.625,2.411s4.436,3.034,6.116,5.125l23.674,29.445" transform="translate(0-.047131)" fill="none" stroke="#001345" stroke-linecap="square" stroke-linejoin="round"/></g></g><g id="eqR6MmgIyxi5_tr" transform="translate(192.169,74.7512) rotate(17)"><path d="M183.294,60.2469L169.038,74.4031c-4.543,4.5117-4.543,11.8266,0,16.3383l31.317,31.0976c4.543,4.512,11.91,4.512,16.453,0l14.256-14.156c4.544-4.512,4.544-11.8268,0-16.3385L199.747,60.2469c-4.543-4.5117-11.909-4.5117-16.453,0Z" transform="translate(-192.169,-74.7512)" fill="#36b7ff"/></g><g id="eqR6MmgIyxi6_tr" transform="translate(169.569252,80.916001) rotate(0)"><g transform="translate(-169.569252,-80.916)"><path d="M174.696,106.248c9.65,0,17.473-7.7688,17.473-17.3514c0-9.5827-7.823-17.3509-17.473-17.3509s-17.473,7.7682-17.473,17.3509c0,9.5826,7.823,17.3514,17.473,17.3514Z" fill="#ff368b"/><path d="M185.094,67.5634c-.177-.0001-.354.0095-.531.0288.029-.3258.049-.6565.049-.9871.001-1.5869-.376-3.1516-1.1-4.5663-.724-1.4148-1.775-2.6394-3.067-3.5739-1.291-.9345-2.787-1.5524-4.365-1.8032-1.578-.2509-3.194-.1275-4.714.3599-.754-.7066-1.7-1.1785-2.721-1.3574s-2.073-.057-3.025.3507-1.763,1.0833-2.332,1.9434c-.57.8602-.874,1.8672-.874,2.8967c0,.0623,0,.1198,0,.1821-2.465-.8663-5.153-.8785-7.626-.0347-2.474.8439-4.586,2.4941-5.995,4.6821-1.408,2.188-2.03,4.785-1.763,7.3682s1.407,5.0008,3.234,6.8591c-.761,1.2677-1.217,2.6928-1.332,4.1642s.113,2.9492.668,4.3184s1.42,2.5928,2.529,3.5752c1.109.9825,2.432,1.6973,3.865,2.0888c1.432.3915,2.937.4491,4.396.1683s2.833-.8924,4.015-1.7871c1.182-.8948,2.14-2.0485,2.799-3.3713.659-1.3227,1.002-2.7787,1.001-4.2545-.001-.6568-.069-1.3119-.203-1.9551.785.5606,1.709.8977,2.673.9748s1.931-.1087,2.796-.5373s1.596-1.0838,2.114-1.8947c.517-.811.802-1.7469.823-2.7068c1.006.3963,2.111.4755,3.164.2269c1.054-.2486,2.004-.813,2.723-1.6165.698.4326,1.487.6983,2.306.7762.819.0778,1.645-.0343,2.412-.3276.768-.2933,1.456-.7598,2.011-1.3625.555-.6028.962-1.3254,1.187-2.1108.226-.7854.265-1.6121.114-2.415-.152-.8028-.489-1.5597-.985-2.2111s-1.138-1.1793-1.875-1.5421c-.737-.3629-1.548-.5507-2.371-.5488v0Z" fill="#001345"/></g></g><g id="eqR6MmgIyxi9_tr" transform="translate(157.524166,145.946232) rotate(6)"><path d="M221.371,179.408L93.6309,160.72c4.0338-15.381,13.6461-28.741,26.9911-37.516c13.346-8.775,29.484-12.347,45.32-10.031c15.835,2.317,30.25,10.359,40.48,22.583s15.554,27.769,14.949,43.652v0Z" transform="translate(-157.524166,-145.946232)" fill="#cdd940"/></g><g id="eqR6MmgIyxi10_tr" transform="translate(223.791978,339.988014) rotate(12)"><g transform="translate(-227.86027,-341.360794)"><path d="M257.191,459.4l18.183,37.994l19.287-11.299-2.919-13.106l25.696,2.2l37.523-16.283-57.573-23.503L257.191,459.4Z" fill="#001345"/><path d="M239.676,299.79l73.533,133.317-63.306,34.431L176.37,334.221c-4.454-8.074-5.495-17.575-2.894-26.411c2.6-8.837,8.629-16.285,16.76-20.708l1.989-1.081c4.026-2.19,8.447-3.571,13.011-4.064s9.18-.089,13.586,1.19c4.407,1.278,8.516,3.406,12.094,6.262s6.555,6.383,8.76,10.381v0Z" fill="#5648ff"/></g></g><g id="eqR6MmgIyxi13_tr" transform="translate(125.672204,320.237004) rotate(-24)"><g transform="translate(-125.672203,-320.236995)"><path d="M44.3194,401.693L18.918,435.355l19.0414,11.696l10.3266-8.668l9.9936,23.609l31.9785,25.406-5.8388-61.541-40.0999-24.164Z" fill="#001345"/><path d="M151.805,351.224L88.7571,443.348L29.0626,403.063l63.0481-92.124c5.3801-7.861,13.6843-13.278,23.0863-15.059c9.403-1.781,19.132.22,27.049,5.563v0c7.915,5.343,13.368,13.589,15.161,22.924c1.793,9.336-.222,18.997-5.602,26.857v0Z" fill="#5648ff"/></g></g><path d="M244.462,309.115L183.444,196.302c-9.431-17.437-31.312-23.98-48.871-14.615-17.56,9.365-24.149,31.092-14.718,48.529l61.018,112.813c9.431,17.437,31.311,23.98,48.871,14.615c17.559-9.365,24.149-31.093,14.718-48.529Z" fill="#5648ff"/><path d="M159.274,333.74l27.192-111.699c4.684-19.238-7.225-38.604-26.599-43.255-19.374-4.65-38.876,7.175-43.56,26.414L89.115,316.898c-4.6834,19.238,7.2255,38.604,26.599,43.255c19.374,4.651,38.876-7.175,43.56-26.413Z" transform="matrix(.99863-.052336 0.052336 0.99863-10.614566 7.766571)" fill="#5648ff"/><g id="eqR6MmgIyxi18_tr" transform="translate(144,139) rotate(370)"><path d="M142.055,316.505l-4.734-25.598c-.007-1.217-.127-2.431-.357-3.627l-2.582-13.316l15.876,11.979c.688.52,1.555.748,2.411.634.857-.115,1.633-.563,2.157-1.245s.753-1.544.638-2.394c-.115-.851-.566-1.621-1.254-2.141l-21.666-16.336-9.009-46.436l41.446-65.508c1.437-2.264,2.411-4.786,2.866-7.424.454-2.637.381-5.337-.216-7.946-.597-2.61-1.706-5.076-3.263-7.26-1.558-2.183-3.534-4.04-5.815-5.465v0c-2.28-1.427-4.821-2.394-7.479-2.846-2.657-.451-5.377-.378-8.006.216s-5.113,1.696-7.313,3.244c-2.199,1.549-4.069,3.512-5.503,5.779L85.5822,201.431c-.8219,1.3-1.4921,2.689-1.9977,4.14-1.2779,3.392-1.5869,7.068-.8928,10.623L97.3902,291.99c0,.11,0,.225.0434.336l4.9264,26.637c.155.842.641,1.589,1.35,2.076.71.487,1.585.675,2.434.521v0c.848-.156,1.599-.64,2.088-1.345s.677-1.574.522-2.417l-1.858-10.062c1.519.946,3.16,1.683,4.879,2.19l2.644,14.293c.077.418.236.815.467,1.172.232.356.532.663.884.904.351.24.747.41,1.164.499.418.088.849.095,1.269.018v0c.42-.076.82-.234,1.179-.464.358-.23.668-.528.91-.877.243-.349.414-.742.503-1.156.089-.415.096-.843.018-1.26l-2.277-12.339c.895-.048,1.787-.155,2.668-.321v0c.569-.11,1.124-.249,1.674-.402l2.186,11.811c.077.418.235.816.466,1.173.232.357.532.664.883.906.352.241.748.411,1.165.5.418.089.849.095,1.27.019v0c.848-.157,1.599-.64,2.088-1.345s.677-1.575.522-2.417l-2.499-13.537c1.523-1.082,2.884-2.372,4.043-3.833l2.659,14.375c.155.843.641,1.59,1.35,2.077.71.487,1.585.674,2.433.52v0c.844-.155,1.592-.635,2.081-1.335s.679-1.563.53-2.402v0Z" transform="translate(-146.969552,-139)" fill="none" stroke="#001345" stroke-linecap="square" stroke-linejoin="round"/></g><path id="eqR6MmgIyxi19" d="M191.85,48.8759L180.804,30.3653c.286-1.1166.43-2.2643.43-3.4165v-13.1677c0-3.655-1.462-7.16026-4.065-9.74471s-6.133-4.03639-9.813-4.03639h-50.9c-3.68,0-7.21,1.45193-9.813,4.03639s-4.065,6.08971-4.065,9.74471v13.1677c0,3.655,1.462,7.1603,4.065,9.7447s6.133,4.0364,9.813,4.0364h50.9c1.978.0014,3.933-.4179,5.734-1.2295c1.801-.8117,3.407-1.9969,4.708-3.476L191.85,48.8759Z" opacity="0" fill="#ff368b"/><path id="eqR6MmgIyxi20" d="M210.588,55.5844l7.364-12.3388c-.189-.7442-.284-1.5086-.285-2.276v-8.7833c0-2.4362.974-4.7727,2.709-6.4953s4.088-2.6905,6.541-2.6905h33.938c2.453,0,4.806.9678,6.541,2.6905s2.71,4.0591,2.71,6.4953v8.7833c-.002,2.4358-.977,4.7715-2.711,6.4939-1.735,1.7224-4.087,2.6906-6.54,2.6919h-33.938c-1.318.0008-2.621-.2789-3.821-.8203-1.201-.5414-2.27-1.3319-3.137-2.3183l-9.371,8.5676Z" opacity="0.07" fill="#3dcc65"/><path id="eqR6MmgIyxi21" d="M238.575,91.0432l7.364-12.3388c-.188-.7443-.284-1.5087-.285-2.2761v-8.7833c0-2.4362.975-4.7726,2.71-6.4953c1.734-1.7227,4.087-2.6905,6.541-2.6905h33.937c2.454,0,4.807.9678,6.541,2.6905c1.735,1.7227,2.71,4.0591,2.71,6.4953v8.7833c-.001,2.4358-.976,4.7715-2.711,6.4939-1.734,1.7224-4.087,2.6906-6.54,2.6919h-33.937c-1.319.0009-2.622-.2788-3.822-.8202s-2.27-1.332-3.137-2.3184l-9.371,8.5677Z" opacity="0" fill="#b336ff"/><g id="eqR6MmgIyxi22_ts" transform="translate(52.12295,194.990501) scale(0.5,0.5)"><path d="M30.5723,194.19c0,0,13.4535-.627,19.6204-22.339c0,0,10.0226,21.851,23.4809,21.223c0,0-22.0043,9.952-20.3925,25.056c0,0-8.0634-18.372-22.7088-23.94Z" transform="translate(-52.12295,-194.990501)" opacity="0.2" fill="none" stroke="#001345" stroke-linejoin="bevel"/></g><path d="M1,244.379c0,0,13.4583-.627,19.6205-22.339c0,0,10.0274,21.851,23.4809,21.223c0,0-22.0043,9.952-20.3926,25.056c0,.019-8.0586-18.362-22.7088-23.94Z" opacity="0.21" fill="none" stroke="#001345" stroke-linejoin="bevel"/><g id="eqR6MmgIyxi24_tr" transform="translate(248.162498,263.139) rotate(0)"><path d="M238.024,262.765c0,0,6.331-.297,9.232-10.513c0,0,4.714,10.283,11.045,9.986c0,0-10.351,4.686-9.593,11.788c0,0-3.778-8.645-10.684-11.261Z" transform="translate(-248.162498,-263.139)" opacity="0.2" fill="none" stroke="#001345" stroke-linejoin="bevel"/></g><g opacity="0.2"><path d="M72.5237,115.529c1.1246,0,2.0363-.905,2.0363-2.022s-.9117-2.022-2.0363-2.022c-1.1247,0-2.0364.905-2.0364,2.022s.9117,2.022,2.0364,2.022Z" fill="#001345"/><path d="M65.6477,104.532c1.1246,0,2.0364-.905,2.0364-2.022s-.9118-2.022-2.0364-2.022c-1.1247,0-2.0364.905-2.0364,2.022s.9117,2.022,2.0364,2.022Z" fill="#001345"/><path d="M32.4201,125.012c1.1247,0,2.0364-.906,2.0364-2.022c0-1.117-.9117-2.022-2.0364-2.022-1.1246,0-2.0363.905-2.0363,2.022c0,1.116.9117,2.022,2.0363,2.022Z" fill="#001345"/><path d="M43.4934,118.183c1.1246,0,2.0364-.905,2.0364-2.022s-.9118-2.022-2.0364-2.022c-1.1247,0-2.0364.905-2.0364,2.022s.9117,2.022,2.0364,2.022Z" fill="#001345"/><path d="M54.5735,111.356c1.1246,0,2.0363-.906,2.0363-2.023c0-1.116-.9117-2.022-2.0363-2.022-1.1247,0-2.0364.906-2.0364,2.022c0,1.117.9117,2.023,2.0364,2.023Z" fill="#001345"/><path d="M76.7278,97.7042c1.1246,0,2.0363-.9054,2.0363-2.0222s-.9117-2.0221-2.0363-2.0221c-1.1247,0-2.0364.9053-2.0364,2.0221s.9117,2.0222,2.0364,2.0222Z" fill="#001345"/><path d="M87.801,90.8802c1.1247,0,2.0364-.9054,2.0364-2.0221s-.9117-2.0222-2.0364-2.0222c-1.1246,0-2.0364.9054-2.0364,2.0222s.9118,2.0221,2.0364,2.0221Z" fill="#001345"/><path d="M98.8821,84.0523c1.1249,0,2.0359-.9053,2.0359-2.0221s-.911-2.0221-2.0359-2.0221c-1.1247,0-2.0364.9053-2.0364,2.0221s.9117,2.0221,2.0364,2.0221Z" fill="#001345"/><path d="M109.955,77.2283c1.125,0,2.037-.9053,2.037-2.0221s-.912-2.0221-2.037-2.0221c-1.124,0-2.036.9053-2.036,2.0221s.912,2.0221,2.036,2.0221Z" fill="#001345"/><path d="M30.3157,133.925c1.1246,0,2.0363-.905,2.0363-2.022s-.9117-2.022-2.0363-2.022-2.0364.905-2.0364,2.022.9117,2.022,2.0364,2.022Z" fill="#001345"/><path d="M41.3957,127.096c1.1247,0,2.0364-.905,2.0364-2.022c0-1.116-.9117-2.022-2.0364-2.022-1.1246,0-2.0363.906-2.0363,2.022c0,1.117.9117,2.022,2.0363,2.022Z" fill="#001345"/><path d="M52.469,120.268c1.1246,0,2.0363-.905,2.0363-2.022s-.9117-2.022-2.0363-2.022c-1.1247,0-2.0364.905-2.0364,2.022s.9117,2.022,2.0364,2.022Z" fill="#001345"/><path d="M63.55,113.445c1.1247,0,2.0364-.906,2.0364-2.022c0-1.117-.9117-2.023-2.0364-2.023-1.1246,0-2.0363.906-2.0363,2.023c0,1.116.9117,2.022,2.0363,2.022Z" fill="#001345"/><path d="M74.6233,106.617c1.1246,0,2.0363-.906,2.0363-2.023c0-1.116-.9117-2.022-2.0363-2.022-1.1247,0-2.0364.906-2.0364,2.022c0,1.117.9117,2.023,2.0364,2.023Z" fill="#001345"/><path d="M85.7024,99.7928c1.1246,0,2.0363-.9054,2.0363-2.0221c0-1.1168-.9117-2.0222-2.0363-2.0222-1.1247,0-2.0364.9054-2.0364,2.0222c0,1.1167.9117,2.0221,2.0364,2.0221Z" fill="#001345"/><path d="M96.7776,92.9647c1.1246,0,2.0363-.9054,2.0363-2.0222s-.9117-2.0221-2.0363-2.0221c-1.1247,0-2.0364.9053-2.0364,2.0221s.9117,2.0222,2.0364,2.0222Z" fill="#001345"/><path d="M107.857,86.1414c1.124,0,2.036-.9053,2.036-2.0221s-.912-2.0221-2.036-2.0221c-1.125,0-2.037.9053-2.037,2.0221s.912,2.0221,2.037,2.0221Z" fill="#001345"/><path d="M28.218,142.837c1.1247,0,2.0364-.905,2.0364-2.022s-.9117-2.022-2.0364-2.022-2.0364.905-2.0364,2.022.9118,2.022,2.0364,2.022Z" fill="#001345"/><path d="M39.2912,136.009c1.1247,0,2.0364-.905,2.0364-2.022s-.9117-2.022-2.0364-2.022-2.0363.905-2.0363,2.022.9117,2.022,2.0363,2.022Z" fill="#001345"/><path d="M50.3703,129.186c1.1247,0,2.0364-.905,2.0364-2.022s-.9117-2.022-2.0364-2.022-2.0363.905-2.0363,2.022.9117,2.022,2.0363,2.022Z" fill="#001345"/><path d="M61.4455,122.358c1.1247,0,2.0364-.906,2.0364-2.022c0-1.117-.9117-2.023-2.0364-2.023s-2.0363.906-2.0363,2.023c0,1.116.9117,2.022,2.0363,2.022Z" fill="#001345"/><path d="M83.5998,108.706c1.1247,0,2.0364-.906,2.0364-2.023c0-1.116-.9117-2.022-2.0364-2.022-1.1246,0-2.0363.906-2.0363,2.022c0,1.117.9117,2.023,2.0363,2.023Z" fill="#001345"/><path d="M94.678,101.877c1.1246,0,2.0363-.905,2.0363-2.0216c0-1.1168-.9117-2.0221-2.0363-2.0221-1.1247,0-2.0364.9053-2.0364,2.0221c0,1.1166.9117,2.0216,2.0364,2.0216Z" fill="#001345"/><path d="M105.754,95.0538c1.125,0,2.036-.9054,2.036-2.0222c0-1.1167-.911-2.0221-2.036-2.0221s-2.036.9054-2.036,2.0221c0,1.1168.911,2.0222,2.036,2.0222Z" fill="#001345"/><path d="M116.832,88.2254c1.125,0,2.037-.9053,2.037-2.0221s-.912-2.0221-2.037-2.0221c-1.124,0-2.036.9053-2.036,2.0221s.912,2.0221,2.036,2.0221Z" fill="#001345"/><path d="M48.2678,138.098c1.1247,0,2.0364-.905,2.0364-2.022s-.9117-2.022-2.0364-2.022-2.0364.905-2.0364,2.022.9118,2.022,2.0364,2.022Z" fill="#001345"/><path d="M70.4221,124.442c1.1246,0,2.0363-.906,2.0363-2.022c0-1.117-.9117-2.023-2.0363-2.023-1.1247,0-2.0364.906-2.0364,2.023c0,1.116.9117,2.022,2.0364,2.022Z" fill="#001345"/><path d="M92.5754,110.79c1.1247,0,2.0364-.905,2.0364-2.022s-.9117-2.022-2.0364-2.022c-1.1246,0-2.0363.905-2.0363,2.022s.9117,2.022,2.0363,2.022Z" fill="#001345"/><path d="M103.654,103.967c1.124,0,2.036-.905,2.036-2.022s-.912-2.0224-2.036-2.0224c-1.125,0-2.037.9054-2.037,2.0224s.912,2.022,2.037,2.022Z" fill="#001345"/><path d="M114.728,97.1385c1.124,0,2.036-.9054,2.036-2.0221c0-1.1168-.912-2.0222-2.036-2.0222-1.125,0-2.037.9054-2.037,2.0222c0,1.1167.912,2.0221,2.037,2.0221Z" fill="#001345"/><path d="M58.7766,93.5301c1.1246,0,2.0364-.9054,2.0364-2.0221s-.9118-2.0222-2.0364-2.0222c-1.1247,0-2.0364.9054-2.0364,2.0222s.9117,2.0221,2.0364,2.0221Z" fill="#001345"/><path d="M36.6223,107.182c1.1246,0,2.0364-.905,2.0364-2.022s-.9118-2.022-2.0364-2.022c-1.1247,0-2.0364.905-2.0364,2.022s.9117,2.022,2.0364,2.022Z" fill="#001345"/><path d="M47.6985,100.358c1.1246,0,2.0363-.9051,2.0363-2.0219s-.9117-2.0221-2.0363-2.0221c-1.1247,0-2.0364.9053-2.0364,2.0221s.9117,2.0219,2.0364,2.0219Z" fill="#001345"/><path d="M69.8518,86.7068c1.1246,0,2.0364-.9053,2.0364-2.0221s-.9118-2.0221-2.0364-2.0221c-1.1247,0-2.0364.9053-2.0364,2.0221s.9117,2.0221,2.0364,2.0221Z" fill="#001345"/><path d="M23.4436,122.923c1.1246,0,2.0363-.906,2.0363-2.022c0-1.117-.9117-2.023-2.0363-2.023s-2.0364.906-2.0364,2.023c0,1.116.9117,2.022,2.0364,2.022Z" fill="#001345"/><path d="M34.5198,116.099c1.1246,0,2.0363-.905,2.0363-2.022c0-1.116-.9117-2.022-2.0363-2.022s-2.0364.906-2.0364,2.022c0,1.117.9117,2.022,2.0364,2.022Z" fill="#001345"/><path d="M45.5979,109.271c1.1246,0,2.0363-.905,2.0363-2.022s-.9117-2.022-2.0363-2.022c-1.1247,0-2.0364.905-2.0364,2.022s.9117,2.022,2.0364,2.022Z" fill="#001345"/><path d="M56.6721,102.443c1.1247,0,2.0364-.905,2.0364-2.022s-.9117-2.0223-2.0364-2.0223-2.0364.9053-2.0364,2.0223.9118,2.022,2.0364,2.022Z" fill="#001345"/><path d="M67.7522,95.6194c1.1246,0,2.0363-.9053,2.0363-2.0221s-.9117-2.0221-2.0363-2.0221c-1.1247,0-2.0364.9053-2.0364,2.0221s.9117,2.0221,2.0364,2.0221Z" fill="#001345"/><path d="M78.8264,88.7911c1.1247,0,2.0364-.9054,2.0364-2.0222s-.9117-2.0221-2.0364-2.0221-2.0364.9054-2.0364,2.0221.9117,2.0222,2.0364,2.0222Z" fill="#001345"/><path d="M89.9055,81.9681c1.1246,0,2.0364-.9054,2.0364-2.0222c0-1.1167-.9118-2.0221-2.0364-2.0221-1.1247,0-2.0364.9054-2.0364,2.0221c0,1.1168.9117,2.0222,2.0364,2.0222Z" fill="#001345"/></g></svg>
