<svg width="540" height="549" viewBox="0 0 540 549" fill="none" xmlns="http://www.w3.org/2000/svg">
<g opacity="0.3" clip-path="url(#clip0_321_3084)">
<g opacity="0.9">
<path d="M0.892331 188.003C-2.1085 146.498 68.4487 107.578 158.486 101.072C248.524 94.5665 323.946 122.939 326.947 164.444C329.948 205.949 259.391 244.87 169.353 251.375C79.3156 257.881 3.89316 229.508 0.892331 188.003Z" stroke="#36B7FF" stroke-width="0.8" stroke-miterlimit="10"/>
<path opacity="0.5" d="M6.88631 179.399C5.70895 138.891 76.1403 103.979 164.199 101.421C252.258 98.8636 324.598 129.629 325.775 170.137C326.953 210.645 256.521 245.557 168.463 248.115C80.4039 250.673 8.06367 219.908 6.88631 179.399Z" stroke="#36B7FF" stroke-width="0.8" stroke-miterlimit="10"/>
<path opacity="0.5" d="M167.545 245.097C81.5171 243.706 12.2978 210.416 12.9398 170.742C13.5818 131.068 83.8419 100.034 169.87 101.425C255.898 102.816 325.118 136.106 324.476 175.78C323.834 215.454 253.574 246.488 167.545 245.097Z" stroke="#36B7FF" stroke-width="0.8" stroke-miterlimit="10"/>
<path opacity="0.5" d="M166.665 241.897C82.6113 236.557 16.4699 200.812 18.9337 162.059C21.3975 123.305 91.5335 96.2188 175.587 101.559C259.64 106.899 325.782 142.644 323.318 181.398C320.854 220.151 250.718 247.237 166.665 241.897Z" stroke="#36B7FF" stroke-width="0.8" stroke-miterlimit="10"/>
<path opacity="0.5" d="M165.794 238.75C83.674 229.455 20.5681 191.325 24.8427 153.584C29.1173 115.843 99.1538 92.7828 181.273 102.078C263.393 111.373 326.499 149.503 322.224 187.244C317.95 224.985 247.913 248.045 165.794 238.75Z" stroke="#36B7FF" stroke-width="0.8" stroke-miterlimit="10"/>
<path opacity="0.5" d="M164.665 235.635C84.5563 222.388 24.5624 181.754 30.6647 144.875C36.767 107.997 106.655 88.8397 186.763 102.087C266.872 115.334 326.866 155.968 320.763 192.847C314.661 229.725 244.773 248.882 164.665 235.635Z" stroke="#36B7FF" stroke-width="0.8" stroke-miterlimit="10"/>
<path opacity="0.5" d="M163.803 232.361C85.6881 215.162 28.7782 172.105 36.6909 136.191C44.6037 100.277 114.343 85.1058 192.458 102.305C270.572 119.505 327.482 162.562 319.57 198.476C311.657 234.39 241.918 249.561 163.803 232.361Z" stroke="#36B7FF" stroke-width="0.8" stroke-miterlimit="10"/>
<path opacity="0.5" d="M162.949 229.129C86.8146 207.975 32.9766 162.481 42.6985 127.515C52.4203 92.5485 122.02 81.3518 198.155 102.506C274.289 123.66 328.127 169.155 318.405 204.121C308.683 239.087 239.083 250.283 162.949 229.129Z" stroke="#36B7FF" stroke-width="0.8" stroke-miterlimit="10"/>
<path opacity="0.5" d="M162.025 226.107C87.9894 201.03 37.3521 153.024 48.9239 118.882C60.4957 84.7405 129.895 77.3921 203.931 102.469C277.967 127.546 328.604 175.552 317.032 209.694C305.46 243.836 236.062 251.184 162.025 226.107Z" stroke="#36B7FF" stroke-width="0.8" stroke-miterlimit="10"/>
<path opacity="0.5" d="M161.08 223.116C89.0255 194.086 41.4672 143.63 54.8562 110.419C68.2451 77.2086 137.511 73.8194 209.566 102.849C281.621 131.879 329.179 182.336 315.79 215.546C302.401 248.757 233.135 252.146 161.08 223.116Z" stroke="#36B7FF" stroke-width="0.8" stroke-miterlimit="10"/>
<path opacity="0.5" d="M160.011 219.838C89.9458 186.857 45.4749 133.949 60.682 101.664C75.8891 69.379 145.016 69.9432 215.08 102.924C285.145 135.905 329.616 188.813 314.409 221.098C299.202 253.383 230.075 252.819 160.011 219.838Z" stroke="#36B7FF" stroke-width="0.8" stroke-miterlimit="10"/>
<path opacity="0.5" d="M159.135 216.658C91.068 179.729 49.6927 124.366 66.7204 93.0017C83.7481 61.6375 152.731 66.1489 220.797 103.078C288.864 140.008 330.239 195.37 313.212 226.735C296.184 258.099 227.201 253.587 159.135 216.658Z" stroke="#36B7FF" stroke-width="0.8" stroke-miterlimit="10"/>
<path opacity="0.5" d="M158.256 213.483C92.1987 172.609 53.9305 114.793 72.7817 84.3468C91.633 53.9003 160.465 62.3531 226.523 103.227C292.58 144.1 330.848 201.916 311.997 232.363C293.146 262.809 224.314 254.356 158.256 213.483Z" stroke="#36B7FF" stroke-width="0.8" stroke-miterlimit="10"/>
<path opacity="0.5" d="M157.377 210.337C93.331 165.528 58.1737 105.261 78.8508 75.7265C99.5278 46.1918 168.209 58.5739 232.255 103.383C296.301 148.192 331.458 208.459 310.781 237.993C290.104 267.528 221.423 255.146 157.377 210.337Z" stroke="#36B7FF" stroke-width="0.8" stroke-miterlimit="10"/>
<path opacity="0.5" d="M156.488 207.194C94.3635 158.376 62.1889 95.6727 84.6238 67.141C107.059 38.6093 175.608 55.0541 237.732 103.872C299.856 152.689 332.031 215.393 309.596 243.924C287.161 272.456 218.612 256.011 156.488 207.194Z" stroke="#36B7FF" stroke-width="0.8" stroke-miterlimit="10"/>
<path opacity="0.5" d="M155.435 203.942C95.325 151.192 66.2695 86.0269 90.5376 58.3909C114.806 30.7548 183.207 51.1136 243.317 103.863C303.427 156.613 332.483 221.779 308.215 249.415C283.946 277.051 215.545 256.692 155.435 203.942Z" stroke="#36B7FF" stroke-width="0.8" stroke-miterlimit="10"/>
<path opacity="0.5" d="M154.511 200.831C96.4068 144.134 70.4769 76.4879 96.5949 49.7393C122.713 22.9906 190.989 47.2687 249.093 103.966C307.197 160.663 333.127 228.309 307.009 255.058C280.891 281.807 212.615 257.529 154.511 200.831Z" stroke="#36B7FF" stroke-width="0.8" stroke-miterlimit="10"/>
<path opacity="0.5" d="M153.709 197.608C97.5905 136.947 74.7126 66.8636 102.61 41.0723C130.507 15.2811 198.615 43.5484 254.733 104.209C310.852 164.87 333.73 234.953 305.833 260.745C277.935 286.536 209.827 258.268 153.709 197.608Z" stroke="#36B7FF" stroke-width="0.8" stroke-miterlimit="10"/>
<path opacity="0.3" d="M152.738 194.563C98.6672 130.011 78.9771 57.4722 108.759 32.5428C138.54 7.61328 206.515 39.7335 260.586 104.285C314.656 168.837 334.346 241.376 304.565 266.305C274.783 291.235 206.808 259.115 152.738 194.563Z" stroke="#36B7FF" stroke-width="0.8" stroke-miterlimit="10"/>
<path opacity="0.3" d="M151.688 191.552C99.554 122.975 82.9092 47.9201 114.511 23.9111C146.113 -0.0979047 213.994 36.0312 266.128 104.608C318.262 173.184 334.907 248.24 303.305 272.249C271.704 296.258 203.822 260.128 151.688 191.552Z" stroke="#36B7FF" stroke-width="0.8" stroke-miterlimit="10"/>
<path opacity="0.3" d="M150.947 188.311C100.866 115.86 87.3027 38.4507 120.653 15.4125C154.004 -7.62571 221.638 32.4315 271.72 104.883C321.801 177.334 335.365 254.744 302.014 277.782C268.664 300.82 201.029 260.763 150.947 188.311Z" stroke="#36B7FF" stroke-width="0.8" stroke-miterlimit="10"/>
<path opacity="0.3" d="M149.85 185.051C101.78 108.669 91.374 28.7865 126.607 6.62746C161.84 -15.5316 229.37 28.4243 277.44 104.806C325.51 181.187 335.917 261.07 300.684 283.229C265.451 305.388 197.92 261.432 149.85 185.051Z" stroke="#36B7FF" stroke-width="0.8" stroke-miterlimit="10"/>
</g>
</g>
<g opacity="0.3" clip-path="url(#clip1_321_3084)">
<g opacity="0.9">
<path d="M539.211 377.386C541.864 414.166 479.481 448.656 399.875 454.421C320.269 460.186 253.584 435.043 250.931 398.263C248.278 361.483 310.661 326.993 390.267 321.228C469.873 315.463 536.558 340.606 539.211 377.386Z" stroke="#36B7FF" stroke-width="0.8" stroke-miterlimit="10"/>
<path opacity="0.5" d="M533.911 385.01C534.952 420.907 472.681 451.845 394.824 454.111C316.967 456.378 253.008 429.115 251.967 393.218C250.926 357.321 313.197 326.384 391.054 324.117C468.911 321.851 532.871 349.113 533.911 385.01Z" stroke="#36B7FF" stroke-width="0.8" stroke-miterlimit="10"/>
<path opacity="0.5" d="M391.866 326.792C467.927 328.024 529.127 357.524 528.56 392.682C527.992 427.839 465.872 455.341 389.81 454.108C313.748 452.875 252.549 423.375 253.116 388.217C253.684 353.06 315.804 325.559 391.866 326.792Z" stroke="#36B7FF" stroke-width="0.8" stroke-miterlimit="10"/>
<path opacity="0.5" d="M392.644 329.627C466.959 334.359 525.438 366.035 523.26 400.377C521.081 434.718 459.071 458.721 384.755 453.989C310.44 449.257 251.961 417.581 254.14 383.239C256.318 348.897 318.328 324.894 392.644 329.627Z" stroke="#36B7FF" stroke-width="0.8" stroke-miterlimit="10"/>
<path opacity="0.5" d="M393.414 332.416C466.019 340.652 521.814 374.442 518.035 407.887C514.255 441.331 452.333 461.766 379.727 453.529C307.121 445.293 251.326 411.503 255.106 378.058C258.885 344.614 320.808 324.179 393.414 332.416Z" stroke="#36B7FF" stroke-width="0.8" stroke-miterlimit="10"/>
<path opacity="0.5" d="M394.412 335.176C465.24 346.915 518.283 382.924 512.888 415.604C507.492 448.284 445.701 465.261 374.874 453.522C304.046 441.783 251.003 405.774 256.398 373.094C261.793 340.413 323.584 323.437 394.412 335.176Z" stroke="#36B7FF" stroke-width="0.8" stroke-miterlimit="10"/>
<path opacity="0.5" d="M395.174 338.077C464.239 353.319 514.556 391.474 507.56 423.3C500.564 455.125 438.904 468.569 369.839 453.328C300.774 438.086 250.458 399.931 257.454 368.105C264.45 336.28 326.109 322.836 395.174 338.077Z" stroke="#36B7FF" stroke-width="0.8" stroke-miterlimit="10"/>
<path opacity="0.5" d="M395.929 340.941C463.243 359.687 510.844 400.003 502.248 430.988C493.653 461.974 432.116 471.896 364.802 453.15C297.489 434.404 249.888 394.088 258.483 363.103C267.079 332.117 328.616 322.195 395.929 340.941Z" stroke="#36B7FF" stroke-width="0.8" stroke-miterlimit="10"/>
<path opacity="0.5" d="M396.746 343.619C462.204 365.842 506.975 408.383 496.744 438.638C486.513 468.893 425.154 475.405 359.695 453.183C294.237 430.961 249.466 388.419 259.697 358.164C269.928 327.909 331.287 321.397 396.746 343.619Z" stroke="#36B7FF" stroke-width="0.8" stroke-miterlimit="10"/>
<path opacity="0.5" d="M397.581 346.27C461.288 371.995 503.337 416.707 491.499 446.138C479.661 475.568 418.42 478.571 354.713 452.846C291.006 427.12 248.957 382.408 260.795 352.978C272.633 323.548 333.874 320.545 397.581 346.27Z" stroke="#36B7FF" stroke-width="0.8" stroke-miterlimit="10"/>
<path opacity="0.5" d="M398.527 349.175C460.475 378.401 499.793 425.287 486.348 453.896C472.903 482.506 411.785 482.006 349.837 452.779C287.89 423.553 248.571 376.668 262.016 348.058C275.462 319.448 336.58 319.948 398.527 349.175Z" stroke="#36B7FF" stroke-width="0.8" stroke-miterlimit="10"/>
<path opacity="0.5" d="M399.301 351.993C459.482 384.718 496.064 433.779 481.009 461.573C465.954 489.366 404.963 485.368 344.783 452.643C284.602 419.918 248.02 370.857 263.075 343.064C278.13 315.27 339.121 319.268 399.301 351.993Z" stroke="#36B7FF" stroke-width="0.8" stroke-miterlimit="10"/>
<path opacity="0.5" d="M400.078 354.806C458.483 391.027 492.318 442.261 475.65 469.242C458.983 496.222 398.125 488.732 339.721 452.511C281.316 416.291 247.482 365.056 264.149 338.076C280.816 311.095 341.674 318.586 400.078 354.806Z" stroke="#36B7FF" stroke-width="0.8" stroke-miterlimit="10"/>
<path opacity="0.5" d="M400.856 357.594C457.481 397.302 488.566 450.709 470.284 476.881C452.003 503.054 391.278 492.081 334.652 452.373C278.026 412.665 246.942 359.259 265.224 333.086C283.505 306.914 344.23 317.886 400.856 357.594Z" stroke="#36B7FF" stroke-width="0.8" stroke-miterlimit="10"/>
<path opacity="0.5" d="M401.642 360.38C456.569 403.64 485.016 459.205 465.18 484.489C445.344 509.773 384.737 495.2 329.81 451.94C274.883 408.68 246.436 353.114 266.272 327.83C286.108 302.547 346.715 317.119 401.642 360.38Z" stroke="#36B7FF" stroke-width="0.8" stroke-miterlimit="10"/>
<path opacity="0.5" d="M402.573 363.261C455.719 410.006 481.408 467.753 459.951 492.243C438.495 516.733 378.018 498.692 324.872 451.947C271.726 405.202 246.037 347.455 267.493 322.965C288.95 298.475 349.427 316.516 402.573 363.261Z" stroke="#36B7FF" stroke-width="0.8" stroke-miterlimit="10"/>
<path opacity="0.5" d="M403.39 366.018C454.762 416.26 477.688 476.206 454.596 499.91C431.504 523.613 371.138 502.099 319.766 451.856C268.393 401.613 245.467 341.668 268.559 317.964C291.651 294.26 352.017 315.775 403.39 366.018Z" stroke="#36B7FF" stroke-width="0.8" stroke-miterlimit="10"/>
<path opacity="0.5" d="M404.099 368.875C453.716 422.63 473.943 484.735 449.278 507.59C424.613 530.445 364.395 505.396 314.778 451.641C265.161 397.885 244.934 335.78 269.599 312.925C294.264 290.07 354.482 315.119 404.099 368.875Z" stroke="#36B7FF" stroke-width="0.8" stroke-miterlimit="10"/>
<path opacity="0.3" d="M404.958 371.573C452.764 428.776 470.173 493.057 443.842 515.149C417.51 537.24 357.41 508.777 309.604 451.573C261.798 394.37 244.389 330.089 270.72 307.997C297.051 285.906 357.152 314.37 404.958 371.573Z" stroke="#36B7FF" stroke-width="0.8" stroke-miterlimit="10"/>
<path opacity="0.3" d="M405.885 374.241C451.98 435.011 466.696 501.522 438.755 522.798C410.815 544.074 350.798 512.057 304.704 451.288C258.609 390.518 243.893 324.007 271.834 302.731C299.774 281.455 359.791 313.471 405.885 374.241Z" stroke="#36B7FF" stroke-width="0.8" stroke-miterlimit="10"/>
<path opacity="0.3" d="M406.54 377.112C450.82 441.316 462.812 509.913 433.325 530.329C403.838 550.745 344.039 515.247 299.76 451.044C255.48 386.84 243.489 318.243 272.975 297.827C302.462 277.412 362.261 312.909 406.54 377.112Z" stroke="#36B7FF" stroke-width="0.8" stroke-miterlimit="10"/>
<path opacity="0.3" d="M407.51 380.002C450.011 447.688 459.212 518.477 428.061 538.114C396.91 557.75 337.203 518.798 294.702 451.112C252.201 383.426 243.001 312.637 274.152 293C305.303 273.364 365.009 312.316 407.51 380.002Z" stroke="#36B7FF" stroke-width="0.8" stroke-miterlimit="10"/>
</g>
</g>
<g filter="url(#filter0_d_321_3084)">
<path d="M165 88H441L429.642 241.776L165 253V88Z" fill="white"/>
</g>
<rect x="167" y="90" width="219" height="19" fill="white"/>
<rect x="168" y="109" width="42" height="123" fill="white"/>
<rect x="174" y="122" width="27" height="5" fill="#CCCAE9"/>
<rect x="174" y="130" width="27" height="2" fill="#CCCAE9"/>
<rect x="174" y="141" width="27" height="2" fill="#CCCAE9"/>
<rect x="174" y="146" width="19" height="2" fill="#CCCAE9"/>
<rect x="174" y="156" width="22" height="2" fill="#CCCAE9"/>
<rect x="174" y="151" width="14" height="2" fill="#CCCAE9"/>
<rect x="174" y="167" width="27" height="2" fill="#CCCAE9"/>
<rect x="174" y="172" width="19" height="2" fill="#CCCAE9"/>
<rect x="174" y="182" width="22" height="2" fill="#CCCAE9"/>
<rect x="174" y="177" width="14" height="2" fill="#CCCAE9"/>
<rect width="27" height="1" transform="matrix(1 0 0 -1 174 214)" fill="#CCCAE9"/>
<rect width="19" height="1" transform="matrix(1 0 0 -1 174 209)" fill="#CCCAE9"/>
<rect width="22" height="1" transform="matrix(1 0 0 -1 174 199)" fill="#CCCAE9"/>
<rect width="14" height="1" transform="matrix(1 0 0 -1 174 204)" fill="#CCCAE9"/>
<circle cx="176" cy="99" r="2" fill="#FF5652"/>
<circle cx="182" cy="99" r="2" fill="#FFBD2F"/>
<circle cx="188" cy="99" r="2" fill="#00C83A"/>
<path d="M259.049 101.534C259.499 101.227 259.968 100.998 260.457 100.849C260.945 100.7 261.46 100.625 262 100.625C262.541 100.625 263.055 100.7 263.543 100.849C264.032 100.998 264.501 101.227 264.951 101.534C265.262 101.192 265.498 100.805 265.659 100.372C265.82 99.9394 265.9 99.482 265.9 99C265.9 97.9194 265.52 96.9992 264.76 96.2395C264 95.4798 263.079 95.1 261.997 95.1C260.916 95.1 259.996 95.4798 259.238 96.2395C258.479 96.9992 258.1 97.9194 258.1 99C258.1 99.482 258.181 99.9394 258.342 100.372C258.502 100.805 258.738 101.192 259.049 101.534ZM262 99.775C261.535 99.775 261.14 99.6121 260.814 99.2862C260.488 98.9603 260.325 98.565 260.325 98.1002C260.325 97.6353 260.488 97.2399 260.814 96.914C261.14 96.588 261.535 96.425 262 96.425C262.465 96.425 262.86 96.5879 263.186 96.9138C263.512 97.2397 263.675 97.635 263.675 98.0998C263.675 98.5647 263.512 98.9601 263.186 99.2861C262.861 99.612 262.465 99.775 262 99.775ZM262.004 103.55C261.375 103.55 260.784 103.432 260.231 103.197C259.679 102.961 259.195 102.636 258.78 102.221C258.364 101.806 258.039 101.322 257.804 100.769C257.568 100.217 257.45 99.6251 257.45 98.9943C257.45 98.3635 257.568 97.7737 257.804 97.225C258.039 96.6763 258.364 96.1944 258.78 95.7793C259.195 95.3643 259.678 95.039 260.231 94.8034C260.783 94.5678 261.375 94.45 262.006 94.45C262.637 94.45 263.226 94.5678 263.775 94.8034C264.324 95.039 264.806 95.3643 265.221 95.7793C265.636 96.1944 265.961 96.6772 266.197 97.2278C266.432 97.7784 266.55 98.368 266.55 98.9966C266.55 99.6251 266.432 100.216 266.197 100.769C265.961 101.322 265.636 101.806 265.221 102.221C264.806 102.636 264.323 102.961 263.772 103.197C263.222 103.432 262.632 103.55 262.004 103.55ZM262 102.9C262.443 102.9 262.878 102.823 263.305 102.67C263.733 102.516 264.121 102.296 264.471 102.011C264.113 101.776 263.725 101.595 263.307 101.467C262.89 101.339 262.454 101.275 262 101.275C261.546 101.275 261.108 101.336 260.684 101.458C260.261 101.58 259.876 101.764 259.529 102.011C259.879 102.296 260.268 102.516 260.695 102.67C261.122 102.823 261.557 102.9 262 102.9ZM262 99.125C262.282 99.125 262.524 99.0247 262.724 98.8241C262.925 98.6234 263.025 98.3821 263.025 98.1C263.025 97.818 262.925 97.5766 262.724 97.3759C262.524 97.1753 262.282 97.075 262 97.075C261.718 97.075 261.477 97.1753 261.276 97.3759C261.075 97.5766 260.975 97.818 260.975 98.1C260.975 98.3821 261.075 98.6234 261.276 98.8241C261.477 99.0247 261.718 99.125 262 99.125Z" fill="#A5A1D5"/>
<path d="M270.56 102.5V96.74H272.308C272.369 96.74 272.473 96.7413 272.62 96.744C272.769 96.7467 272.912 96.7573 273.048 96.776C273.485 96.8373 273.851 97 274.144 97.264C274.437 97.528 274.657 97.864 274.804 98.272C274.951 98.68 275.024 99.1293 275.024 99.62C275.024 100.111 274.951 100.56 274.804 100.968C274.657 101.376 274.437 101.712 274.144 101.976C273.851 102.24 273.485 102.403 273.048 102.464C272.915 102.48 272.772 102.491 272.62 102.496C272.468 102.499 272.364 102.5 272.308 102.5H270.56ZM271.168 101.936H272.308C272.417 101.936 272.535 101.933 272.66 101.928C272.788 101.92 272.897 101.907 272.988 101.888C273.324 101.829 273.595 101.693 273.8 101.48C274.008 101.267 274.16 101 274.256 100.68C274.352 100.357 274.4 100.004 274.4 99.62C274.4 99.2333 274.352 98.8787 274.256 98.556C274.16 98.2333 274.008 97.9667 273.8 97.756C273.592 97.5453 273.321 97.4107 272.988 97.352C272.897 97.3333 272.787 97.3213 272.656 97.316C272.528 97.308 272.412 97.304 272.308 97.304H271.168V101.936ZM275.935 102.5V98.18H276.463V99.22L276.359 99.084C276.407 98.956 276.47 98.8387 276.547 98.732C276.624 98.6227 276.708 98.5333 276.799 98.464C276.911 98.3653 277.042 98.2907 277.191 98.24C277.34 98.1867 277.491 98.156 277.643 98.148C277.795 98.1373 277.934 98.148 278.059 98.18V98.732C277.902 98.692 277.73 98.6827 277.543 98.704C277.356 98.7253 277.184 98.8 277.027 98.928C276.883 99.04 276.775 99.1747 276.703 99.332C276.631 99.4867 276.583 99.652 276.559 99.828C276.535 100.001 276.523 100.173 276.523 100.344V102.5H275.935ZM279.89 102.62C279.564 102.62 279.291 102.561 279.07 102.444C278.851 102.327 278.687 102.171 278.578 101.976C278.468 101.781 278.414 101.569 278.414 101.34C278.414 101.105 278.46 100.905 278.554 100.74C278.65 100.572 278.779 100.435 278.942 100.328C279.107 100.221 279.298 100.14 279.514 100.084C279.732 100.031 279.974 99.984 280.238 99.944C280.504 99.9013 280.764 99.8653 281.018 99.836C281.274 99.804 281.498 99.7733 281.69 99.744L281.482 99.872C281.49 99.4453 281.407 99.1293 281.234 98.924C281.06 98.7187 280.759 98.616 280.33 98.616C280.034 98.616 279.783 98.6827 279.578 98.816C279.375 98.9493 279.232 99.16 279.15 99.448L278.578 99.28C278.676 98.8933 278.875 98.5933 279.174 98.38C279.472 98.1667 279.86 98.06 280.338 98.06C280.732 98.06 281.067 98.1347 281.342 98.284C281.619 98.4307 281.815 98.644 281.93 98.924C281.983 99.0493 282.018 99.1893 282.034 99.344C282.05 99.4987 282.058 99.656 282.058 99.816V102.5H281.534V101.416L281.686 101.48C281.539 101.851 281.311 102.133 281.002 102.328C280.692 102.523 280.322 102.62 279.89 102.62ZM279.958 102.112C280.232 102.112 280.472 102.063 280.678 101.964C280.883 101.865 281.048 101.731 281.174 101.56C281.299 101.387 281.38 101.192 281.418 100.976C281.45 100.837 281.467 100.685 281.47 100.52C281.472 100.352 281.474 100.227 281.474 100.144L281.698 100.26C281.498 100.287 281.28 100.313 281.046 100.34C280.814 100.367 280.584 100.397 280.358 100.432C280.134 100.467 279.931 100.508 279.75 100.556C279.627 100.591 279.508 100.64 279.394 100.704C279.279 100.765 279.184 100.848 279.11 100.952C279.038 101.056 279.002 101.185 279.002 101.34C279.002 101.465 279.032 101.587 279.094 101.704C279.158 101.821 279.259 101.919 279.398 101.996C279.539 102.073 279.726 102.112 279.958 102.112ZM283.527 102.5V97.86C283.527 97.748 283.532 97.6373 283.543 97.528C283.556 97.4187 283.582 97.3147 283.619 97.216C283.656 97.1147 283.715 97.0213 283.795 96.936C283.883 96.84 283.979 96.7707 284.083 96.728C284.187 96.6827 284.295 96.6533 284.407 96.64C284.522 96.6267 284.634 96.62 284.743 96.62H285.295V97.116H284.783C284.559 97.116 284.391 97.1707 284.279 97.28C284.17 97.3893 284.115 97.5613 284.115 97.796V102.5H283.527ZM282.779 98.684V98.18H285.295V98.684H282.779ZM288.287 102.5C288.044 102.551 287.804 102.571 287.567 102.56C287.332 102.549 287.122 102.499 286.935 102.408C286.751 102.317 286.611 102.176 286.515 101.984C286.438 101.824 286.395 101.663 286.387 101.5C286.382 101.335 286.379 101.147 286.379 100.936V96.98H286.963V100.912C286.963 101.093 286.964 101.245 286.967 101.368C286.972 101.488 287 101.595 287.051 101.688C287.147 101.867 287.299 101.973 287.507 102.008C287.718 102.043 287.978 102.035 288.287 101.984V102.5ZM285.455 98.684V98.18H288.287V98.684H285.455ZM290.75 102.616C290.243 102.616 289.826 102.507 289.498 102.288C289.173 102.069 288.973 101.765 288.898 101.376L289.498 101.276C289.562 101.521 289.707 101.717 289.934 101.864C290.163 102.008 290.446 102.08 290.782 102.08C291.11 102.08 291.369 102.012 291.558 101.876C291.747 101.737 291.842 101.549 291.842 101.312C291.842 101.179 291.811 101.071 291.75 100.988C291.691 100.903 291.57 100.824 291.386 100.752C291.202 100.68 290.927 100.595 290.562 100.496C290.17 100.389 289.863 100.283 289.642 100.176C289.421 100.069 289.263 99.9467 289.17 99.808C289.077 99.6667 289.03 99.4947 289.03 99.292C289.03 99.0467 289.099 98.832 289.238 98.648C289.377 98.4613 289.569 98.3173 289.814 98.216C290.059 98.112 290.345 98.06 290.67 98.06C290.995 98.06 291.286 98.1133 291.542 98.22C291.801 98.324 292.009 98.4707 292.166 98.66C292.323 98.8493 292.417 99.0693 292.446 99.32L291.846 99.428C291.806 99.1747 291.679 98.9747 291.466 98.828C291.255 98.6787 290.987 98.6013 290.662 98.596C290.355 98.588 290.106 98.6467 289.914 98.772C289.722 98.8947 289.626 99.0587 289.626 99.264C289.626 99.3787 289.661 99.4773 289.73 99.56C289.799 99.64 289.925 99.716 290.106 99.788C290.29 99.86 290.551 99.9387 290.89 100.024C291.287 100.125 291.599 100.232 291.826 100.344C292.053 100.456 292.214 100.588 292.31 100.74C292.406 100.892 292.454 101.08 292.454 101.304C292.454 101.712 292.302 102.033 291.998 102.268C291.697 102.5 291.281 102.616 290.75 102.616ZM296.399 96.74H297.003L295.467 102.5H294.863L296.399 96.74ZM300.262 104.42L301.098 102.152L301.11 102.824L299.218 98.18H299.842L301.394 102.064H301.138L302.57 98.18H303.17L300.85 104.42H300.262ZM305.512 102.62C305.083 102.62 304.716 102.523 304.412 102.328C304.108 102.133 303.875 101.864 303.712 101.52C303.55 101.176 303.468 100.781 303.468 100.336C303.468 99.8827 303.551 99.4853 303.716 99.144C303.882 98.8027 304.116 98.5373 304.42 98.348C304.727 98.156 305.091 98.06 305.512 98.06C305.944 98.06 306.312 98.1573 306.616 98.352C306.923 98.544 307.156 98.812 307.316 99.156C307.479 99.4973 307.56 99.8907 307.56 100.336C307.56 100.789 307.479 101.188 307.316 101.532C307.154 101.873 306.919 102.14 306.612 102.332C306.306 102.524 305.939 102.62 305.512 102.62ZM305.512 102.056C305.992 102.056 306.35 101.897 306.584 101.58C306.819 101.26 306.936 100.845 306.936 100.336C306.936 99.8133 306.818 99.3973 306.58 99.088C306.346 98.7787 305.99 98.624 305.512 98.624C305.19 98.624 304.923 98.6973 304.712 98.844C304.504 98.988 304.348 99.1893 304.244 99.448C304.143 99.704 304.092 100 304.092 100.336C304.092 100.856 304.212 101.273 304.452 101.588C304.692 101.9 305.046 102.056 305.512 102.056ZM310.095 102.608C309.836 102.608 309.609 102.568 309.415 102.488C309.223 102.408 309.059 102.3 308.923 102.164C308.789 102.028 308.681 101.873 308.599 101.7C308.516 101.524 308.456 101.339 308.419 101.144C308.381 100.947 308.363 100.751 308.363 100.556V98.18H308.955V100.384C308.955 100.621 308.977 100.841 309.023 101.044C309.068 101.247 309.14 101.424 309.239 101.576C309.34 101.725 309.469 101.841 309.627 101.924C309.787 102.007 309.98 102.048 310.207 102.048C310.415 102.048 310.597 102.012 310.755 101.94C310.915 101.868 311.048 101.765 311.155 101.632C311.264 101.496 311.347 101.332 311.403 101.14C311.459 100.945 311.487 100.727 311.487 100.484L311.903 100.576C311.903 101.019 311.825 101.391 311.671 101.692C311.516 101.993 311.303 102.221 311.031 102.376C310.759 102.531 310.447 102.608 310.095 102.608ZM311.547 102.5V101.436H311.487V98.18H312.075V102.5H311.547ZM313.193 102.5V98.18H313.721V99.22L313.617 99.084C313.665 98.956 313.727 98.8387 313.805 98.732C313.882 98.6227 313.966 98.5333 314.057 98.464C314.169 98.3653 314.299 98.2907 314.449 98.24C314.598 98.1867 314.749 98.156 314.901 98.148C315.053 98.1373 315.191 98.148 315.317 98.18V98.732C315.159 98.692 314.987 98.6827 314.801 98.704C314.614 98.7253 314.442 98.8 314.285 98.928C314.141 99.04 314.033 99.1747 313.961 99.332C313.889 99.4867 313.841 99.652 313.817 99.828C313.793 100.001 313.781 100.173 313.781 100.344V102.5H313.193ZM319.353 102.62C318.951 102.62 318.607 102.52 318.321 102.32C318.036 102.117 317.817 101.844 317.665 101.5C317.513 101.156 317.437 100.768 317.437 100.336C317.437 99.9067 317.512 99.52 317.661 99.176C317.813 98.832 318.031 98.56 318.313 98.36C318.596 98.16 318.935 98.06 319.329 98.06C319.735 98.06 320.076 98.1587 320.353 98.356C320.631 98.5533 320.84 98.824 320.981 99.168C321.125 99.5093 321.197 99.8987 321.197 100.336C321.197 100.765 321.127 101.153 320.985 101.5C320.844 101.844 320.636 102.117 320.361 102.32C320.087 102.52 319.751 102.62 319.353 102.62ZM319.413 102.072C319.72 102.072 319.973 101.997 320.173 101.848C320.373 101.699 320.523 101.493 320.621 101.232C320.72 100.968 320.769 100.669 320.769 100.336C320.769 99.9973 320.72 99.6987 320.621 99.44C320.523 99.1787 320.373 98.9747 320.173 98.828C319.976 98.6813 319.727 98.608 319.425 98.608C319.116 98.608 318.86 98.684 318.657 98.836C318.455 98.988 318.304 99.1947 318.205 99.456C318.109 99.7173 318.061 100.011 318.061 100.336C318.061 100.664 318.111 100.96 318.209 101.224C318.311 101.485 318.461 101.692 318.661 101.844C318.861 101.996 319.112 102.072 319.413 102.072ZM320.769 102.5V99.248H320.705V96.74H321.297V102.5H320.769ZM324.247 102.62C323.826 102.62 323.461 102.527 323.151 102.34C322.845 102.153 322.606 101.891 322.435 101.552C322.265 101.213 322.179 100.816 322.179 100.36C322.179 99.888 322.263 99.48 322.431 99.136C322.599 98.792 322.835 98.5267 323.139 98.34C323.446 98.1533 323.807 98.06 324.223 98.06C324.65 98.06 325.014 98.1587 325.315 98.356C325.617 98.5507 325.845 98.8307 325.999 99.196C326.154 99.5613 326.225 99.9973 326.211 100.504H325.611V100.296C325.601 99.736 325.479 99.3133 325.247 99.028C325.018 98.7427 324.682 98.6 324.239 98.6C323.775 98.6 323.419 98.7507 323.171 99.052C322.926 99.3533 322.803 99.7827 322.803 100.34C322.803 100.884 322.926 101.307 323.171 101.608C323.419 101.907 323.77 102.056 324.223 102.056C324.533 102.056 324.802 101.985 325.031 101.844C325.263 101.7 325.446 101.493 325.579 101.224L326.127 101.436C325.957 101.812 325.705 102.104 325.371 102.312C325.041 102.517 324.666 102.62 324.247 102.62ZM322.595 100.504V100.012H325.895V100.504H322.595ZM328.711 102.616C328.204 102.616 327.787 102.507 327.459 102.288C327.134 102.069 326.934 101.765 326.859 101.376L327.459 101.276C327.523 101.521 327.668 101.717 327.895 101.864C328.124 102.008 328.407 102.08 328.743 102.08C329.071 102.08 329.33 102.012 329.519 101.876C329.708 101.737 329.803 101.549 329.803 101.312C329.803 101.179 329.772 101.071 329.711 100.988C329.652 100.903 329.531 100.824 329.347 100.752C329.163 100.68 328.888 100.595 328.523 100.496C328.131 100.389 327.824 100.283 327.603 100.176C327.382 100.069 327.224 99.9467 327.131 99.808C327.038 99.6667 326.991 99.4947 326.991 99.292C326.991 99.0467 327.06 98.832 327.199 98.648C327.338 98.4613 327.53 98.3173 327.775 98.216C328.02 98.112 328.306 98.06 328.631 98.06C328.956 98.06 329.247 98.1133 329.503 98.22C329.762 98.324 329.97 98.4707 330.127 98.66C330.284 98.8493 330.378 99.0693 330.407 99.32L329.807 99.428C329.767 99.1747 329.64 98.9747 329.427 98.828C329.216 98.6787 328.948 98.6013 328.623 98.596C328.316 98.588 328.067 98.6467 327.875 98.772C327.683 98.8947 327.587 99.0587 327.587 99.264C327.587 99.3787 327.622 99.4773 327.691 99.56C327.76 99.64 327.886 99.716 328.067 99.788C328.251 99.86 328.512 99.9387 328.851 100.024C329.248 100.125 329.56 100.232 329.787 100.344C330.014 100.456 330.175 100.588 330.271 100.74C330.367 100.892 330.415 101.08 330.415 101.304C330.415 101.712 330.263 102.033 329.959 102.268C329.658 102.5 329.242 102.616 328.711 102.616ZM331.382 97.36V96.7H331.97V97.36H331.382ZM331.382 102.5V98.18H331.97V102.5H331.382ZM334.885 104.54C334.664 104.54 334.445 104.507 334.229 104.44C334.016 104.376 333.819 104.273 333.637 104.132C333.456 103.993 333.304 103.812 333.181 103.588L333.713 103.292C333.833 103.532 334.001 103.704 334.217 103.808C334.436 103.915 334.659 103.968 334.885 103.968C335.197 103.968 335.449 103.909 335.641 103.792C335.836 103.677 335.977 103.507 336.065 103.28C336.153 103.053 336.196 102.771 336.193 102.432V101.28H336.261V98.18H336.785V102.44C336.785 102.563 336.781 102.68 336.773 102.792C336.768 102.907 336.756 103.019 336.737 103.128C336.687 103.451 336.581 103.716 336.421 103.924C336.264 104.132 336.056 104.287 335.797 104.388C335.541 104.489 335.237 104.54 334.885 104.54ZM334.845 102.62C334.443 102.62 334.099 102.52 333.813 102.32C333.528 102.117 333.309 101.844 333.157 101.5C333.005 101.156 332.929 100.768 332.929 100.336C332.929 99.9067 333.004 99.52 333.153 99.176C333.305 98.832 333.523 98.56 333.805 98.36C334.088 98.16 334.427 98.06 334.821 98.06C335.227 98.06 335.568 98.1587 335.845 98.356C336.123 98.5533 336.332 98.824 336.473 99.168C336.617 99.5093 336.689 99.8987 336.689 100.336C336.689 100.765 336.619 101.153 336.477 101.5C336.336 101.844 336.128 102.117 335.853 102.32C335.579 102.52 335.243 102.62 334.845 102.62ZM334.905 102.072C335.212 102.072 335.465 101.997 335.665 101.848C335.865 101.699 336.015 101.493 336.113 101.232C336.212 100.968 336.261 100.669 336.261 100.336C336.261 99.9973 336.212 99.6987 336.113 99.44C336.015 99.1787 335.865 98.9747 335.665 98.828C335.468 98.6813 335.219 98.608 334.917 98.608C334.608 98.608 334.352 98.684 334.149 98.836C333.947 98.988 333.796 99.1947 333.697 99.456C333.601 99.7173 333.553 100.011 333.553 100.336C333.553 100.664 333.603 100.96 333.701 101.224C333.803 101.485 333.953 101.692 334.153 101.844C334.353 101.996 334.604 102.072 334.905 102.072ZM341.024 102.5V100.296C341.024 100.056 341.001 99.836 340.956 99.636C340.91 99.4333 340.837 99.2573 340.736 99.108C340.637 98.956 340.508 98.8387 340.348 98.756C340.19 98.6733 339.998 98.632 339.772 98.632C339.564 98.632 339.38 98.668 339.22 98.74C339.062 98.812 338.929 98.916 338.82 99.052C338.713 99.1853 338.632 99.348 338.576 99.54C338.52 99.732 338.492 99.9507 338.492 100.196L338.076 100.104C338.076 99.6613 338.153 99.2893 338.308 98.988C338.462 98.6867 338.676 98.4587 338.948 98.304C339.22 98.1493 339.532 98.072 339.884 98.072C340.142 98.072 340.368 98.112 340.56 98.192C340.754 98.272 340.918 98.38 341.052 98.516C341.188 98.652 341.297 98.808 341.38 98.984C341.462 99.1573 341.522 99.3427 341.56 99.54C341.597 99.7347 341.616 99.9293 341.616 100.124V102.5H341.024ZM337.9 102.5V98.18H338.432V99.244H338.492V102.5H337.9Z" fill="#A5A1D5"/>
<path d="M200.158 95.1615L207.929 99.7396L203.848 100.375L201.613 104.063L200.158 95.1615Z" fill="#A5A1D4"/>
<rect x="215.5" y="95.4998" width="7" height="7" stroke="#A5A1D4"/>
<path d="M225 97.9998L227 99.9998L229 97.9998" stroke="#A5A1D4"/>
<path d="M238.597 104C238.044 104 237.528 103.863 237.048 103.589C236.568 103.315 236.155 102.94 235.809 102.463L234 100.158L234.401 99.6881C234.584 99.4747 234.808 99.3448 235.076 99.2986C235.343 99.2523 235.591 99.3039 235.819 99.4533L236.377 99.6988V95.6113C236.377 95.4761 236.423 95.3551 236.515 95.2484C236.607 95.1417 236.719 95.0883 236.852 95.0883C236.978 95.0883 237.09 95.1417 237.188 95.2484C237.286 95.3551 237.335 95.4761 237.335 95.6113V101.492L235.369 100.307L236.592 101.897C236.839 102.239 237.139 102.502 237.491 102.687C237.844 102.872 238.218 102.961 238.616 102.954C239.288 102.954 239.86 102.696 240.333 102.18C240.805 101.664 241.042 101.031 241.042 100.281V96.1236C241.042 95.9884 241.088 95.8674 241.18 95.7607C241.272 95.654 241.384 95.6006 241.517 95.6006C241.643 95.6006 241.756 95.654 241.853 95.7607C241.951 95.8674 242 95.9884 242 96.1236V100.392C242 101.41 241.666 102.265 240.998 102.959C240.329 103.653 239.529 104 238.597 104ZM237.932 99.1758V94.5227C237.932 94.3875 237.978 94.2666 238.07 94.1598C238.162 94.0531 238.274 93.9998 238.407 93.9998C238.533 93.9998 238.645 94.0531 238.743 94.1598C238.841 94.2666 238.89 94.3875 238.89 94.5227V99.1758H237.932ZM239.487 99.1758V95.099C239.487 94.9638 239.533 94.8429 239.625 94.7361C239.717 94.6294 239.829 94.5761 239.962 94.5761C240.088 94.5761 240.2 94.6294 240.298 94.7361C240.396 94.8429 240.445 94.9638 240.445 95.099V99.1758H239.487Z" fill="#A5A1D4"/>
<path d="M344.994 212.103L359.746 220.794L352 222L347.758 229L344.994 212.103Z" fill="#B336FF"/>
<rect x="269" y="176" width="30" height="29" fill="#CDD940"/>
<rect x="309" y="189" width="30" height="2" fill="#385297"/>
<rect x="325" y="175" width="30" height="2" transform="rotate(90 325 175)" fill="#385297"/>
<rect x="309" y="137" width="30" height="30" rx="15" fill="#FF368B"/>
<path d="M283.5 138L299 165H268L283.5 138Z" fill="#3DCC65"/>
<rect x="264.5" y="133.5" width="78" height="75" stroke="#0D99FF"/>
<g filter="url(#filter1_d_321_3084)">
<path d="M56 286H332L322 441L56 451V286Z" fill="white"/>
</g>
<path d="M56 285.731H103V449.231L56 450.995L56 285.731Z" fill="#23282C"/>
<g clip-path="url(#clip2_321_3084)">
<path d="M62.9204 297.268C62.9204 299.396 64.1981 301.236 66.0508 302.107L63.4013 295.08C63.0931 295.748 62.9204 296.488 62.9204 297.268ZM72.2246 296.997C72.2246 296.332 71.978 295.872 71.7665 295.514C71.4849 295.071 71.221 294.696 71.221 294.253C71.221 293.758 71.6083 293.298 72.1537 293.298C72.1784 293.298 72.2017 293.301 72.2257 293.303C71.2375 292.426 69.9209 291.891 68.4748 291.891C66.5344 291.891 64.8271 292.855 63.834 294.315C63.9643 294.318 64.0871 294.321 64.1914 294.321C64.7724 294.321 65.6717 294.253 65.6717 294.253C65.9711 294.236 66.0064 294.661 65.7073 294.696C65.7073 294.696 65.4064 294.73 65.0716 294.747L67.0943 300.571L68.3099 297.042L67.4445 294.747C67.1454 294.73 66.862 294.696 66.862 294.696C66.5627 294.679 66.5978 294.236 66.8971 294.253C66.8971 294.253 67.8144 294.321 68.3602 294.321C68.941 294.321 69.8405 294.253 69.8405 294.253C70.1401 294.236 70.1753 294.661 69.8761 294.696C69.8761 294.696 69.5746 294.73 69.2404 294.747L71.2477 300.527L71.8017 298.735C72.0418 297.991 72.2246 297.457 72.2246 296.997ZM68.5723 297.738L66.9058 302.426C67.4033 302.568 67.9296 302.645 68.4748 302.645C69.1217 302.645 69.742 302.537 70.3194 302.341C70.3045 302.317 70.2909 302.293 70.2798 302.266L68.5723 297.738ZM73.3487 294.688C73.3726 294.859 73.3861 295.043 73.3861 295.241C73.3861 295.787 73.2808 296.4 72.9638 297.167L71.2671 301.916C72.9184 300.984 74.0291 299.252 74.0291 297.268C74.0292 296.333 73.7825 295.454 73.3487 294.688ZM68.4748 291C64.9047 291 62 293.812 62 297.268C62 300.724 64.9047 303.536 68.4748 303.536C72.0449 303.536 74.95 300.724 74.95 297.268C74.9499 293.812 72.0449 291 68.4748 291ZM68.4748 303.249C65.0684 303.249 62.2969 300.566 62.2969 297.268C62.2969 293.97 65.0683 291.287 68.4748 291.287C71.8812 291.287 74.6525 293.97 74.6525 297.268C74.6525 300.566 71.8812 303.249 68.4748 303.249Z" fill="white"/>
</g>
<rect x="56" y="310" width="47" height="11" fill="#0085BA"/>
<path d="M103 319V312L100 315.5L103 319Z" fill="white"/>
<circle cx="63" cy="331" r="3" fill="#485056"/>
<rect x="68" y="329" width="28" height="4" fill="#485056"/>
<circle cx="63" cy="342" r="3" fill="#485056"/>
<rect x="68" y="340" width="17" height="4" fill="#485056"/>
<circle cx="63" cy="353" r="3" fill="#485056"/>
<rect x="68" y="351" width="11" height="4" fill="#485056"/>
<circle cx="63" cy="364" r="3" fill="#485056"/>
<rect x="68" y="362" width="21" height="4" fill="#485056"/>
<circle cx="63" cy="375" r="3" fill="#485056"/>
<rect x="68" y="373" width="16" height="4" fill="#485056"/>
<circle cx="63" cy="386" r="3" fill="#485056"/>
<rect x="68" y="384" width="11" height="4" fill="#485056"/>
<circle cx="63" cy="397" r="3" fill="#485056"/>
<rect x="68" y="395" width="18" height="4" fill="#485056"/>
<circle cx="63" cy="408" r="3" fill="#485056"/>
<rect x="68" y="406" width="8" height="4" fill="#485056"/>
<circle cx="63" cy="419" r="3" fill="#485056"/>
<rect x="68" y="417" width="23" height="4" fill="#485056"/>
<circle cx="63" cy="430" r="3" fill="#485056"/>
<rect x="68" y="428" width="14" height="4" fill="#485056"/>
<circle cx="63" cy="441" r="3" fill="#485056"/>
<rect x="68" y="439" width="8" height="4" fill="#485056"/>
<rect x="123" y="353" width="42" height="9" fill="#0085BA"/>
<g opacity="0.5">
<rect x="185" y="353" width="39" height="1" fill="#0085BA"/>
<rect x="185" y="357" width="18" height="1" fill="#0085BA"/>
</g>
<g opacity="0.5">
<rect x="240" y="353" width="39" height="1" fill="#0085BA"/>
<rect x="240" y="357" width="18" height="1" fill="#0085BA"/>
</g>
<rect x="123" y="309" width="57" height="10" fill="#F1F1F1"/>
<rect x="123" y="328" width="32" height="10" fill="#F1F1F1"/>
<rect x="190" y="309" width="32" height="10" fill="#F1F1F1"/>
<rect x="165" y="328" width="32" height="10" fill="#F1F1F1"/>
<rect x="207" y="328" width="74" height="10" fill="#F1F1F1"/>
<rect x="232" y="309" width="70" height="10" fill="#F1F1F1"/>
<rect x="123" y="388" width="38" height="5" fill="#E6E6E6"/>
<rect x="123" y="400" width="38" height="5" fill="#E6E6E6"/>
<rect x="123" y="412" width="38" height="5" fill="#E6E6E6"/>
<rect x="123" y="424" width="67" height="5" fill="#E6E6E6"/>
<rect x="166" y="400" width="31" height="5" fill="#E6E6E6"/>
<rect x="166" y="412" width="49" height="5" fill="#E6E6E6"/>
<rect x="202" y="400" width="31" height="5" fill="#E6E6E6"/>
<rect x="220" y="412" width="31" height="5" fill="#E6E6E6"/>
<rect x="166" y="388" width="17" height="5" fill="#E6E6E6"/>
<g filter="url(#filter2_d_321_3084)">
<path d="M366 287H484L474 450.529L366 460.529V287Z" fill="white"/>
</g>
<rect x="385" y="313" width="47" height="3" fill="#E6E6E6"/>
<rect x="385" y="322" width="33" height="3" fill="#E6E6E6"/>
<rect x="385" y="339" width="38" height="3" fill="#E6E6E6"/>
<rect x="385" y="331" width="24" height="3" fill="#E6E6E6"/>
<rect width="46.8529" height="1.73529" transform="matrix(1 0 0 -1 385.088 436.235)" fill="#E6E6E6"/>
<rect width="32.9706" height="1.73529" transform="matrix(1 0 0 -1 385.088 427.559)" fill="#E6E6E6"/>
<rect width="38.1765" height="1.73529" transform="matrix(1 0 0 -1 385.088 410.206)" fill="#E6E6E6"/>
<rect width="24.2941" height="1.73529" transform="matrix(1 0 0 -1 385.088 418.882)" fill="#E6E6E6"/>
<rect x="385" y="364" width="10" height="10" fill="#5648FF"/>
<rect x="399" y="364" width="10" height="10" fill="#36B7FF"/>
<rect x="413" y="364" width="10" height="10" fill="#CDD940"/>
<rect x="427" y="364" width="10" height="10" fill="#FF368B"/>
<rect x="441" y="364" width="10" height="10" fill="#B336FF"/>
<rect x="454" y="364" width="10" height="10" fill="#3DCC65"/>
<defs>
<filter id="filter0_d_321_3084" x="135" y="88" width="336" height="225" filterUnits="userSpaceOnUse" color-interpolation-filters="sRGB">
<feFlood flood-opacity="0" result="BackgroundImageFix"/>
<feColorMatrix in="SourceAlpha" type="matrix" values="0 0 0 0 0 0 0 0 0 0 0 0 0 0 0 0 0 0 127 0" result="hardAlpha"/>
<feOffset dy="30"/>
<feGaussianBlur stdDeviation="15"/>
<feComposite in2="hardAlpha" operator="out"/>
<feColorMatrix type="matrix" values="0 0 0 0 0 0 0 0 0 0.0745098 0 0 0 0 0.270588 0 0 0 0.05 0"/>
<feBlend mode="normal" in2="BackgroundImageFix" result="effect1_dropShadow_321_3084"/>
<feBlend mode="normal" in="SourceGraphic" in2="effect1_dropShadow_321_3084" result="shape"/>
</filter>
<filter id="filter1_d_321_3084" x="26" y="286" width="336" height="225" filterUnits="userSpaceOnUse" color-interpolation-filters="sRGB">
<feFlood flood-opacity="0" result="BackgroundImageFix"/>
<feColorMatrix in="SourceAlpha" type="matrix" values="0 0 0 0 0 0 0 0 0 0 0 0 0 0 0 0 0 0 127 0" result="hardAlpha"/>
<feOffset dy="30"/>
<feGaussianBlur stdDeviation="15"/>
<feComposite in2="hardAlpha" operator="out"/>
<feColorMatrix type="matrix" values="0 0 0 0 0 0 0 0 0 0.0745098 0 0 0 0 0.270588 0 0 0 0.05 0"/>
<feBlend mode="normal" in2="BackgroundImageFix" result="effect1_dropShadow_321_3084"/>
<feBlend mode="normal" in="SourceGraphic" in2="effect1_dropShadow_321_3084" result="shape"/>
</filter>
<filter id="filter2_d_321_3084" x="336" y="287" width="178" height="233.529" filterUnits="userSpaceOnUse" color-interpolation-filters="sRGB">
<feFlood flood-opacity="0" result="BackgroundImageFix"/>
<feColorMatrix in="SourceAlpha" type="matrix" values="0 0 0 0 0 0 0 0 0 0 0 0 0 0 0 0 0 0 127 0" result="hardAlpha"/>
<feOffset dy="30"/>
<feGaussianBlur stdDeviation="15"/>
<feComposite in2="hardAlpha" operator="out"/>
<feColorMatrix type="matrix" values="0 0 0 0 0 0 0 0 0 0.0745098 0 0 0 0 0.270588 0 0 0 0.05 0"/>
<feBlend mode="normal" in2="BackgroundImageFix" result="effect1_dropShadow_321_3084"/>
<feBlend mode="normal" in="SourceGraphic" in2="effect1_dropShadow_321_3084" result="shape"/>
</filter>
<clipPath id="clip0_321_3084">
<rect width="328" height="257" fill="white" transform="matrix(-1 0 0 1 328 0)"/>
</clipPath>
<clipPath id="clip1_321_3084">
<rect width="290" height="262" fill="white" transform="matrix(1 0 0 -1 250 549)"/>
</clipPath>
<clipPath id="clip2_321_3084">
<rect width="13" height="12.5357" fill="white" transform="translate(62 291)"/>
</clipPath>
</defs>
</svg>
