<svg width="500" height="449" viewBox="0 0 500 449" fill="none" xmlns="http://www.w3.org/2000/svg">
<g opacity="0.3" clip-path="url(#clip0_510_8273)">
<g opacity="0.9">
<path d="M499.107 188.003C502.108 146.498 431.551 107.577 341.513 101.072C251.476 94.5664 176.053 122.939 173.053 164.444C170.052 205.949 240.609 244.869 330.646 251.375C420.684 257.88 496.106 229.508 499.107 188.003Z" stroke="#36B7FF" stroke-width="0.8" stroke-miterlimit="10"/>
<path opacity="0.5" d="M493.115 179.399C494.292 138.891 423.861 103.979 335.802 101.421C247.743 98.8638 175.403 129.629 174.226 170.137C173.048 210.645 243.48 245.557 331.538 248.115C419.597 250.673 491.937 219.908 493.115 179.399Z" stroke="#36B7FF" stroke-width="0.8" stroke-miterlimit="10"/>
<path opacity="0.5" d="M332.456 245.097C418.484 243.706 487.704 210.416 487.062 170.742C486.42 131.068 416.16 100.034 330.131 101.425C244.103 102.817 174.884 136.106 175.526 175.78C176.168 215.454 246.428 246.488 332.456 245.097Z" stroke="#36B7FF" stroke-width="0.8" stroke-miterlimit="10"/>
<path opacity="0.5" d="M333.335 241.897C417.388 236.557 483.53 200.812 481.066 162.059C478.602 123.305 408.466 96.2187 324.413 101.559C240.359 106.899 174.218 142.644 176.682 181.398C179.146 220.151 249.282 247.237 333.335 241.897Z" stroke="#36B7FF" stroke-width="0.8" stroke-miterlimit="10"/>
<path opacity="0.5" d="M334.206 238.75C416.326 229.455 479.431 191.325 475.157 153.584C470.882 115.843 400.846 92.7828 318.726 102.078C236.606 111.373 173.5 149.503 177.775 187.244C182.05 224.985 252.086 248.045 334.206 238.75Z" stroke="#36B7FF" stroke-width="0.8" stroke-miterlimit="10"/>
<path opacity="0.5" d="M335.335 235.635C415.444 222.388 475.438 181.754 469.335 144.875C463.233 107.997 393.345 88.8396 313.237 102.087C233.128 115.333 173.134 155.968 179.237 192.847C185.339 229.725 255.227 248.882 335.335 235.635Z" stroke="#36B7FF" stroke-width="0.8" stroke-miterlimit="10"/>
<path opacity="0.5" d="M336.196 232.361C414.31 215.162 471.22 172.105 463.308 136.191C455.395 100.277 385.656 85.1059 307.541 102.305C229.426 119.505 172.516 162.562 180.429 198.476C188.342 234.39 258.081 249.561 336.196 232.361Z" stroke="#36B7FF" stroke-width="0.8" stroke-miterlimit="10"/>
<path opacity="0.5" d="M337.051 229.129C413.185 207.975 467.023 162.48 457.302 127.514C447.58 92.5485 377.98 81.3518 301.845 102.506C225.711 123.66 171.873 169.155 181.595 204.121C191.317 239.087 260.917 250.283 337.051 229.129Z" stroke="#36B7FF" stroke-width="0.8" stroke-miterlimit="10"/>
<path opacity="0.5" d="M337.975 226.107C412.011 201.03 462.648 153.024 451.077 118.882C439.505 84.7405 370.106 77.3921 296.07 102.469C222.034 127.546 171.396 175.552 182.968 209.694C194.54 243.836 263.939 251.184 337.975 226.107Z" stroke="#36B7FF" stroke-width="0.8" stroke-miterlimit="10"/>
<path opacity="0.5" d="M338.92 223.116C410.975 194.086 458.533 143.63 445.144 110.419C431.755 77.2087 362.489 73.8196 290.434 102.85C218.379 131.88 170.821 182.336 184.21 215.546C197.599 248.757 266.865 252.146 338.92 223.116Z" stroke="#36B7FF" stroke-width="0.8" stroke-miterlimit="10"/>
<path opacity="0.5" d="M339.988 219.838C410.053 186.857 454.524 133.949 439.317 101.664C424.109 69.3788 354.983 69.943 284.918 102.924C214.853 135.905 170.382 188.813 185.59 221.098C200.797 253.383 269.923 252.819 339.988 219.838Z" stroke="#36B7FF" stroke-width="0.8" stroke-miterlimit="10"/>
<path opacity="0.5" d="M340.865 216.658C408.932 179.729 450.307 124.366 433.28 93.0018C416.252 61.6376 347.269 66.149 279.203 103.078C211.136 140.008 169.761 195.371 186.788 226.735C203.816 258.099 272.799 253.588 340.865 216.658Z" stroke="#36B7FF" stroke-width="0.8" stroke-miterlimit="10"/>
<path opacity="0.5" d="M341.745 213.483C407.803 172.609 446.071 114.793 427.22 84.3467C408.368 53.9002 339.536 62.3529 273.479 103.226C207.421 144.1 169.153 201.916 188.004 232.363C206.856 262.809 275.688 254.356 341.745 213.483Z" stroke="#36B7FF" stroke-width="0.8" stroke-miterlimit="10"/>
<path opacity="0.5" d="M342.623 210.337C406.669 165.528 441.826 105.261 421.149 75.7264C400.472 46.1917 331.79 58.5738 267.744 103.383C203.699 148.191 168.541 208.459 189.218 237.993C209.896 267.528 278.577 255.146 342.623 210.337Z" stroke="#36B7FF" stroke-width="0.8" stroke-miterlimit="10"/>
<path opacity="0.5" d="M343.511 207.194C405.636 158.376 437.81 95.6725 415.375 67.1409C392.94 38.6092 324.391 55.054 262.267 103.871C200.143 152.689 167.968 215.393 190.403 243.924C212.838 272.456 281.387 256.011 343.511 207.194Z" stroke="#36B7FF" stroke-width="0.8" stroke-miterlimit="10"/>
<path opacity="0.5" d="M344.565 203.942C404.675 151.193 433.73 86.027 409.462 58.3909C385.194 30.7549 316.792 51.1136 256.682 103.863C196.572 156.613 167.517 221.779 191.785 249.415C216.053 277.051 284.455 256.692 344.565 203.942Z" stroke="#36B7FF" stroke-width="0.8" stroke-miterlimit="10"/>
<path opacity="0.5" d="M345.49 200.831C403.594 144.134 429.524 76.488 403.406 49.7393C377.288 22.9907 309.012 47.2688 250.908 103.966C192.804 160.663 166.874 228.31 192.992 255.058C219.11 281.807 287.386 257.529 345.49 200.831Z" stroke="#36B7FF" stroke-width="0.8" stroke-miterlimit="10"/>
<path opacity="0.5" d="M346.29 197.608C402.409 136.947 425.286 66.8637 397.389 41.0724C369.492 15.2811 301.384 43.5485 245.266 104.209C189.147 164.87 166.269 234.953 194.166 260.745C222.064 286.536 290.172 258.269 346.29 197.608Z" stroke="#36B7FF" stroke-width="0.8" stroke-miterlimit="10"/>
<path opacity="0.3" d="M347.263 194.563C401.333 130.011 421.023 57.4724 391.242 32.5429C361.46 7.6134 293.485 39.7336 239.415 104.285C185.344 168.837 165.654 241.376 195.436 266.305C225.217 291.235 293.193 259.115 347.263 194.563Z" stroke="#36B7FF" stroke-width="0.8" stroke-miterlimit="10"/>
<path opacity="0.3" d="M348.312 191.552C400.446 122.975 417.091 47.9201 385.489 23.9111C353.887 -0.0979047 286.006 36.0312 233.872 104.608C181.738 173.184 165.093 248.24 196.695 272.249C228.296 296.258 296.178 260.128 348.312 191.552Z" stroke="#36B7FF" stroke-width="0.8" stroke-miterlimit="10"/>
<path opacity="0.3" d="M349.053 188.311C399.134 115.86 412.697 38.4507 379.347 15.4125C345.996 -7.62571 278.362 32.4315 228.28 104.883C178.199 177.334 164.635 254.744 197.986 277.782C231.336 300.82 298.971 260.763 349.053 188.311Z" stroke="#36B7FF" stroke-width="0.8" stroke-miterlimit="10"/>
<path opacity="0.3" d="M350.15 185.051C398.22 108.669 408.626 28.7865 373.393 6.62746C338.16 -15.5316 270.63 28.4243 222.56 104.806C174.49 181.187 164.083 261.07 199.316 283.229C234.549 305.388 302.08 261.432 350.15 185.051Z" stroke="#36B7FF" stroke-width="0.8" stroke-miterlimit="10"/>
</g>
</g>
<g opacity="0.3" clip-path="url(#clip1_510_8273)">
<g opacity="0.9">
<path d="M0.789107 277.386C-1.86407 314.167 60.5188 348.656 140.125 354.421C219.731 360.186 286.416 335.043 289.069 298.263C291.722 261.483 229.339 226.993 149.733 221.228C70.1268 215.463 3.44228 240.606 0.789107 277.386Z" stroke="#36B7FF" stroke-width="0.8" stroke-miterlimit="10"/>
<path opacity="0.5" d="M6.08852 285.01C5.04757 320.907 67.3192 351.845 145.176 354.111C223.033 356.378 286.992 329.115 288.033 293.218C289.074 257.321 226.803 226.384 148.946 224.117C71.0888 221.851 7.12948 249.113 6.08852 285.01Z" stroke="#36B7FF" stroke-width="0.8" stroke-miterlimit="10"/>
<path opacity="0.5" d="M148.135 226.791C72.0733 228.024 10.8734 257.524 11.441 292.682C12.0086 327.839 74.1288 355.34 150.19 354.108C226.252 352.875 287.452 323.375 286.884 288.217C286.317 253.06 224.197 225.559 148.135 226.791Z" stroke="#36B7FF" stroke-width="0.8" stroke-miterlimit="10"/>
<path opacity="0.5" d="M147.356 229.627C73.0407 234.359 14.5621 266.035 16.7405 300.377C18.9188 334.718 80.9293 358.722 155.245 353.989C229.56 349.257 288.039 317.581 285.86 283.239C283.682 248.898 221.672 224.895 147.356 229.627Z" stroke="#36B7FF" stroke-width="0.8" stroke-miterlimit="10"/>
<path opacity="0.5" d="M146.585 232.415C73.9796 240.652 18.1848 274.442 21.9641 307.886C25.7435 341.331 87.666 361.766 160.272 353.529C232.878 345.292 288.673 311.503 284.893 278.058C281.114 244.614 219.191 224.179 146.585 232.415Z" stroke="#36B7FF" stroke-width="0.8" stroke-miterlimit="10"/>
<path opacity="0.5" d="M145.588 235.176C74.7604 246.915 21.717 282.924 27.1123 315.604C32.5077 348.284 94.2986 365.261 165.126 353.522C235.954 341.783 288.997 305.774 283.602 273.094C278.207 240.413 216.416 223.437 145.588 235.176Z" stroke="#36B7FF" stroke-width="0.8" stroke-miterlimit="10"/>
<path opacity="0.5" d="M144.827 238.078C75.7619 253.319 25.4451 291.474 32.4412 323.3C39.4372 355.126 101.097 368.57 170.162 353.328C239.227 338.087 289.543 299.931 282.547 268.106C275.551 236.28 213.892 222.836 144.827 238.078Z" stroke="#36B7FF" stroke-width="0.8" stroke-miterlimit="10"/>
<path opacity="0.5" d="M144.071 240.941C76.7568 259.687 29.1562 300.003 37.7517 330.988C46.3472 361.974 107.884 371.896 175.198 353.15C242.511 334.404 290.112 294.088 281.517 263.103C272.921 232.117 211.384 222.195 144.071 240.941Z" stroke="#36B7FF" stroke-width="0.8" stroke-miterlimit="10"/>
<path opacity="0.5" d="M143.254 243.619C77.7955 265.842 33.0248 308.383 43.2559 338.638C53.4871 368.893 114.846 375.405 180.305 353.183C245.763 330.961 290.534 288.419 280.303 258.164C270.072 227.909 208.713 221.397 143.254 243.619Z" stroke="#36B7FF" stroke-width="0.8" stroke-miterlimit="10"/>
<path opacity="0.5" d="M142.418 246.27C78.7111 271.995 36.6627 316.707 48.5004 346.137C60.3382 375.567 121.58 378.571 185.287 352.845C248.994 327.12 291.042 282.408 279.204 252.978C267.367 223.548 206.125 220.544 142.418 246.27Z" stroke="#36B7FF" stroke-width="0.8" stroke-miterlimit="10"/>
<path opacity="0.5" d="M141.472 249.175C79.525 278.401 40.2062 325.287 53.6515 353.896C67.0968 382.506 128.215 382.006 190.162 352.779C252.11 323.553 291.429 276.668 277.983 248.058C264.538 219.448 203.42 219.948 141.472 249.175Z" stroke="#36B7FF" stroke-width="0.8" stroke-miterlimit="10"/>
<path opacity="0.5" d="M140.698 251.993C80.5167 284.718 43.9349 333.779 58.9899 361.573C74.0448 389.366 135.036 385.369 195.216 352.643C255.397 319.918 291.979 270.857 276.924 243.064C261.869 215.27 200.879 219.268 140.698 251.993Z" stroke="#36B7FF" stroke-width="0.8" stroke-miterlimit="10"/>
<path opacity="0.5" d="M139.921 254.806C81.5165 291.027 47.6818 342.261 64.3491 369.242C81.0164 396.222 141.874 388.732 200.279 352.511C258.683 316.291 292.518 265.056 275.851 238.076C259.183 211.095 198.326 218.586 139.921 254.806Z" stroke="#36B7FF" stroke-width="0.8" stroke-miterlimit="10"/>
<path opacity="0.5" d="M139.143 257.594C82.5176 297.302 51.4334 350.708 69.7149 376.881C87.9965 403.053 148.721 392.081 205.347 352.373C261.973 312.665 293.057 259.259 274.775 233.086C256.494 206.914 195.769 217.886 139.143 257.594Z" stroke="#36B7FF" stroke-width="0.8" stroke-miterlimit="10"/>
<path opacity="0.5" d="M138.357 260.379C83.4299 303.64 54.9829 359.205 74.8187 384.489C94.6544 409.773 155.262 395.2 210.189 351.94C265.115 308.68 293.563 253.114 273.727 227.83C253.891 202.547 193.284 217.119 138.357 260.379Z" stroke="#36B7FF" stroke-width="0.8" stroke-miterlimit="10"/>
<path opacity="0.5" d="M137.425 263.261C84.2795 310.006 58.5902 367.753 80.0467 392.243C101.503 416.733 161.98 398.692 215.126 351.947C268.272 305.202 293.962 247.455 272.505 222.965C251.048 198.475 190.571 216.516 137.425 263.261Z" stroke="#36B7FF" stroke-width="0.8" stroke-miterlimit="10"/>
<path opacity="0.5" d="M136.609 266.018C85.2368 316.261 62.3109 376.206 85.4031 399.91C108.495 423.613 168.861 402.099 220.234 351.856C271.606 301.613 294.532 241.668 271.44 217.964C248.348 194.26 187.982 215.775 136.609 266.018Z" stroke="#36B7FF" stroke-width="0.8" stroke-miterlimit="10"/>
<path opacity="0.5" d="M135.901 268.875C86.2839 322.63 66.0565 384.735 90.7216 407.59C115.387 430.445 175.604 405.396 225.221 351.641C274.838 297.885 295.066 235.78 270.4 212.925C245.735 190.07 185.518 215.119 135.901 268.875Z" stroke="#36B7FF" stroke-width="0.8" stroke-miterlimit="10"/>
<path opacity="0.3" d="M135.043 271.573C87.2367 328.776 69.8278 393.057 96.159 415.149C122.49 437.24 182.59 408.777 230.396 351.573C278.203 294.37 295.611 230.089 269.28 207.997C242.949 185.906 182.849 214.369 135.043 271.573Z" stroke="#36B7FF" stroke-width="0.8" stroke-miterlimit="10"/>
<path opacity="0.3" d="M134.113 274.241C88.0189 335.011 73.3025 401.522 101.243 422.798C129.184 444.074 189.201 412.057 235.295 351.287C281.389 290.518 296.106 224.006 268.165 202.731C240.224 181.455 180.207 213.471 134.113 274.241Z" stroke="#36B7FF" stroke-width="0.8" stroke-miterlimit="10"/>
<path opacity="0.3" d="M133.459 277.112C89.1793 341.316 77.1874 409.913 106.674 430.329C136.161 450.745 195.96 415.247 240.239 351.044C284.519 286.84 296.51 218.243 267.024 197.827C237.537 177.412 177.738 212.909 133.459 277.112Z" stroke="#36B7FF" stroke-width="0.8" stroke-miterlimit="10"/>
<path opacity="0.3" d="M132.489 280.002C89.9883 347.688 80.7875 418.477 111.939 438.114C143.09 457.75 202.796 418.798 245.297 351.112C287.798 283.426 296.999 212.637 265.848 193C234.697 173.364 174.99 212.316 132.489 280.002Z" stroke="#36B7FF" stroke-width="0.8" stroke-miterlimit="10"/>
</g>
</g>
<rect x="75" y="124" width="350" height="200" fill="#0B2158"/>
<rect x="78" y="145" width="42" height="177" fill="#11275F"/>
<rect x="84" y="158" width="27" height="5" fill="#1D3574"/>
<rect x="84" y="166" width="27" height="2" fill="#1D3574"/>
<rect x="84" y="177" width="27" height="2" fill="#1D3574"/>
<rect x="84" y="182" width="19" height="2" fill="#1D3574"/>
<rect x="84" y="192" width="22" height="2" fill="#1D3574"/>
<rect x="84" y="187" width="14" height="2" fill="#1D3574"/>
<rect x="84" y="296" width="27" height="2" fill="#1D3574"/>
<rect x="84" y="301" width="19" height="2" fill="#1D3574"/>
<rect x="84" y="311" width="22" height="2" fill="#1D3574"/>
<rect x="84" y="306" width="14" height="2" fill="#1D3574"/>
<rect x="84" y="203" width="27" height="2" fill="#1D3574"/>
<rect x="84" y="208" width="19" height="2" fill="#1D3574"/>
<rect x="84" y="218" width="22" height="2" fill="#1D3574"/>
<rect x="84" y="213" width="14" height="2" fill="#1D3574"/>
<rect width="27" height="1" transform="matrix(1 0 0 -1 84 250)" fill="#1D3574"/>
<rect width="19" height="1" transform="matrix(1 0 0 -1 84 245)" fill="#1D3574"/>
<rect width="22" height="1" transform="matrix(1 0 0 -1 84 235)" fill="#1D3574"/>
<rect width="14" height="1" transform="matrix(1 0 0 -1 84 240)" fill="#1D3574"/>
<rect x="120" y="145" width="238" height="177" fill="#061C53"/>
<rect x="367" y="195" width="6" height="6" fill="#6E8DDC"/>
<rect x="375" y="195" width="6" height="6" fill="#4E6DBB"/>
<rect x="383" y="195" width="6" height="6" fill="#3C59A3"/>
<rect x="391" y="195" width="6" height="6" fill="#2A468C"/>
<rect x="399" y="195" width="6" height="6" fill="#1D3574"/>
<rect x="407" y="195" width="6" height="6" fill="#11275F"/>
<rect x="77" y="126" width="346" height="19" fill="#001241"/>
<circle cx="86" cy="135" r="2" fill="#FF5652"/>
<circle cx="92" cy="135" r="2" fill="#FFBD2F"/>
<circle cx="98" cy="135" r="2" fill="#00C83A"/>
<path d="M409 130C406.239 130 404 132.239 404 135C404 137.761 406.239 140 409 140C411.761 140 414 137.761 414 135C414 132.239 411.761 130 409 130ZM410.672 131.963C411.068 131.963 411.389 132.289 411.389 132.692C411.389 133.096 411.068 133.422 410.672 133.422C410.276 133.422 409.955 133.096 409.955 132.692C409.955 132.289 410.276 131.963 410.672 131.963ZM411.4 135.867C411.4 137.237 410.303 138.042 409.004 138.042C407.688 138.042 406.6 137.237 406.6 135.867V132.647C406.6 132.27 406.896 131.96 407.276 131.96C407.663 131.96 407.985 132.268 407.985 132.647V135.859C407.985 136.63 408.5 136.877 409.006 136.877C409.513 136.877 410.018 136.628 410.018 135.859V134.692C410.018 134.316 410.339 134.006 410.726 134.006C411.106 134.006 411.402 134.314 411.402 134.692V135.867H411.4Z" fill="#5648FF"/>
<path d="M125.563 139.2L122.576 136.212C122.326 136.396 122.052 136.539 121.753 136.644C121.455 136.748 121.138 136.8 120.801 136.8C119.968 136.8 119.259 136.508 118.676 135.925C118.092 135.341 117.801 134.633 117.801 133.8C117.801 132.966 118.092 132.258 118.676 131.675C119.259 131.091 119.967 130.8 120.801 130.8C121.634 130.8 122.342 131.091 122.926 131.675C123.509 132.258 123.801 132.967 123.801 133.8C123.801 134.137 123.749 134.454 123.645 134.752C123.54 135.051 123.397 135.325 123.213 135.575L126.201 138.562L125.563 139.2ZM120.801 135.9C121.384 135.9 121.88 135.696 122.288 135.287C122.697 134.879 122.901 134.383 122.901 133.8C122.901 133.216 122.697 132.721 122.288 132.312C121.88 131.904 121.384 131.7 120.801 131.7C120.217 131.7 119.722 131.904 119.313 132.312C118.905 132.721 118.701 133.216 118.701 133.8C118.701 134.383 118.905 134.879 119.313 135.287C119.722 135.696 120.217 135.9 120.801 135.9Z" fill="#4C6DC5"/>
<path d="M129.56 138V132.24H133.16V132.804H130.148V134.796H132.68V135.36H130.148V137.436H133.16V138H129.56ZM134.123 138V133.68H134.651V134.72L134.547 134.584C134.595 134.456 134.657 134.339 134.735 134.232C134.812 134.123 134.896 134.033 134.987 133.964C135.099 133.865 135.229 133.791 135.379 133.74C135.528 133.687 135.679 133.656 135.831 133.648C135.983 133.637 136.121 133.648 136.247 133.68V134.232C136.089 134.192 135.917 134.183 135.731 134.204C135.544 134.225 135.372 134.3 135.215 134.428C135.071 134.54 134.963 134.675 134.891 134.832C134.819 134.987 134.771 135.152 134.747 135.328C134.723 135.501 134.711 135.673 134.711 135.844V138H134.123ZM137.005 138V133.68H137.533V134.72L137.429 134.584C137.477 134.456 137.54 134.339 137.617 134.232C137.695 134.123 137.779 134.033 137.869 133.964C137.981 133.865 138.112 133.791 138.261 133.74C138.411 133.687 138.561 133.656 138.713 133.648C138.865 133.637 139.004 133.648 139.129 133.68V134.232C138.972 134.192 138.8 134.183 138.613 134.204C138.427 134.225 138.255 134.3 138.097 134.428C137.953 134.54 137.845 134.675 137.773 134.832C137.701 134.987 137.653 135.152 137.629 135.328C137.605 135.501 137.593 135.673 137.593 135.844V138H137.005ZM141.614 138.12C141.185 138.12 140.818 138.023 140.514 137.828C140.21 137.633 139.977 137.364 139.814 137.02C139.651 136.676 139.57 136.281 139.57 135.836C139.57 135.383 139.653 134.985 139.818 134.644C139.983 134.303 140.218 134.037 140.522 133.848C140.829 133.656 141.193 133.56 141.614 133.56C142.046 133.56 142.414 133.657 142.718 133.852C143.025 134.044 143.258 134.312 143.418 134.656C143.581 134.997 143.662 135.391 143.662 135.836C143.662 136.289 143.581 136.688 143.418 137.032C143.255 137.373 143.021 137.64 142.714 137.832C142.407 138.024 142.041 138.12 141.614 138.12ZM141.614 137.556C142.094 137.556 142.451 137.397 142.686 137.08C142.921 136.76 143.038 136.345 143.038 135.836C143.038 135.313 142.919 134.897 142.682 134.588C142.447 134.279 142.091 134.124 141.614 134.124C141.291 134.124 141.025 134.197 140.814 134.344C140.606 134.488 140.45 134.689 140.346 134.948C140.245 135.204 140.194 135.5 140.194 135.836C140.194 136.356 140.314 136.773 140.554 137.088C140.794 137.4 141.147 137.556 141.614 137.556ZM144.544 138V133.68H145.072V134.72L144.968 134.584C145.016 134.456 145.079 134.339 145.156 134.232C145.234 134.123 145.318 134.033 145.408 133.964C145.52 133.865 145.651 133.791 145.8 133.74C145.95 133.687 146.1 133.656 146.252 133.648C146.404 133.637 146.543 133.648 146.668 133.68V134.232C146.511 134.192 146.339 134.183 146.152 134.204C145.966 134.225 145.794 134.3 145.636 134.428C145.492 134.54 145.384 134.675 145.312 134.832C145.24 134.987 145.192 135.152 145.168 135.328C145.144 135.501 145.132 135.673 145.132 135.844V138H144.544ZM150.969 138.12C150.571 138.12 150.235 138.02 149.961 137.82C149.686 137.617 149.478 137.344 149.337 137C149.195 136.653 149.125 136.265 149.125 135.836C149.125 135.399 149.195 135.009 149.337 134.668C149.481 134.324 149.691 134.053 149.969 133.856C150.246 133.659 150.587 133.56 150.993 133.56C151.387 133.56 151.726 133.66 152.009 133.86C152.291 134.06 152.507 134.332 152.657 134.676C152.809 135.02 152.885 135.407 152.885 135.836C152.885 136.268 152.809 136.656 152.657 137C152.505 137.344 152.286 137.617 152.001 137.82C151.715 138.02 151.371 138.12 150.969 138.12ZM149.025 139.92V133.68H149.553V136.932H149.617V139.92H149.025ZM150.909 137.572C151.21 137.572 151.461 137.496 151.661 137.344C151.861 137.192 152.01 136.985 152.109 136.724C152.21 136.46 152.261 136.164 152.261 135.836C152.261 135.511 152.211 135.217 152.113 134.956C152.014 134.695 151.863 134.488 151.661 134.336C151.461 134.184 151.206 134.108 150.897 134.108C150.595 134.108 150.345 134.181 150.145 134.328C149.947 134.475 149.799 134.679 149.701 134.94C149.602 135.199 149.553 135.497 149.553 135.836C149.553 136.169 149.602 136.468 149.701 136.732C149.799 136.993 149.949 137.199 150.149 137.348C150.349 137.497 150.602 137.572 150.909 137.572ZM154.999 138.12C154.674 138.12 154.4 138.061 154.179 137.944C153.96 137.827 153.796 137.671 153.687 137.476C153.578 137.281 153.523 137.069 153.523 136.84C153.523 136.605 153.57 136.405 153.663 136.24C153.759 136.072 153.888 135.935 154.051 135.828C154.216 135.721 154.407 135.64 154.623 135.584C154.842 135.531 155.083 135.484 155.347 135.444C155.614 135.401 155.874 135.365 156.127 135.336C156.383 135.304 156.607 135.273 156.799 135.244L156.591 135.372C156.599 134.945 156.516 134.629 156.343 134.424C156.17 134.219 155.868 134.116 155.439 134.116C155.143 134.116 154.892 134.183 154.687 134.316C154.484 134.449 154.342 134.66 154.259 134.948L153.687 134.78C153.786 134.393 153.984 134.093 154.283 133.88C154.582 133.667 154.97 133.56 155.447 133.56C155.842 133.56 156.176 133.635 156.451 133.784C156.728 133.931 156.924 134.144 157.039 134.424C157.092 134.549 157.127 134.689 157.143 134.844C157.159 134.999 157.167 135.156 157.167 135.316V138H156.643V136.916L156.795 136.98C156.648 137.351 156.42 137.633 156.111 137.828C155.802 138.023 155.431 138.12 154.999 138.12ZM155.067 137.612C155.342 137.612 155.582 137.563 155.787 137.464C155.992 137.365 156.158 137.231 156.283 137.06C156.408 136.887 156.49 136.692 156.527 136.476C156.559 136.337 156.576 136.185 156.579 136.02C156.582 135.852 156.583 135.727 156.583 135.644L156.807 135.76C156.607 135.787 156.39 135.813 156.155 135.84C155.923 135.867 155.694 135.897 155.467 135.932C155.243 135.967 155.04 136.008 154.859 136.056C154.736 136.091 154.618 136.14 154.503 136.204C154.388 136.265 154.294 136.348 154.219 136.452C154.147 136.556 154.111 136.685 154.111 136.84C154.111 136.965 154.142 137.087 154.203 137.204C154.267 137.321 154.368 137.419 154.507 137.496C154.648 137.573 154.835 137.612 155.067 137.612ZM159.924 140.04C159.703 140.04 159.484 140.007 159.268 139.94C159.055 139.876 158.858 139.773 158.676 139.632C158.495 139.493 158.343 139.312 158.22 139.088L158.752 138.792C158.872 139.032 159.04 139.204 159.256 139.308C159.475 139.415 159.698 139.468 159.924 139.468C160.236 139.468 160.488 139.409 160.68 139.292C160.875 139.177 161.016 139.007 161.104 138.78C161.192 138.553 161.235 138.271 161.232 137.932V136.78H161.3V133.68H161.824V137.94C161.824 138.063 161.82 138.18 161.812 138.292C161.807 138.407 161.795 138.519 161.776 138.628C161.726 138.951 161.62 139.216 161.46 139.424C161.303 139.632 161.095 139.787 160.836 139.888C160.58 139.989 160.276 140.04 159.924 140.04ZM159.884 138.12C159.482 138.12 159.138 138.02 158.852 137.82C158.567 137.617 158.348 137.344 158.196 137C158.044 136.656 157.968 136.268 157.968 135.836C157.968 135.407 158.043 135.02 158.192 134.676C158.344 134.332 158.562 134.06 158.844 133.86C159.127 133.66 159.466 133.56 159.86 133.56C160.266 133.56 160.607 133.659 160.884 133.856C161.162 134.053 161.371 134.324 161.512 134.668C161.656 135.009 161.728 135.399 161.728 135.836C161.728 136.265 161.658 136.653 161.516 137C161.375 137.344 161.167 137.617 160.892 137.82C160.618 138.02 160.282 138.12 159.884 138.12ZM159.944 137.572C160.251 137.572 160.504 137.497 160.704 137.348C160.904 137.199 161.054 136.993 161.152 136.732C161.251 136.468 161.3 136.169 161.3 135.836C161.3 135.497 161.251 135.199 161.152 134.94C161.054 134.679 160.904 134.475 160.704 134.328C160.507 134.181 160.258 134.108 159.956 134.108C159.647 134.108 159.391 134.184 159.188 134.336C158.986 134.488 158.835 134.695 158.736 134.956C158.64 135.217 158.592 135.511 158.592 135.836C158.592 136.164 158.642 136.46 158.74 136.724C158.842 136.985 158.992 137.192 159.192 137.344C159.392 137.496 159.643 137.572 159.944 137.572ZM164.771 138.12C164.349 138.12 163.984 138.027 163.675 137.84C163.368 137.653 163.129 137.391 162.959 137.052C162.788 136.713 162.703 136.316 162.703 135.86C162.703 135.388 162.787 134.98 162.955 134.636C163.123 134.292 163.359 134.027 163.663 133.84C163.969 133.653 164.331 133.56 164.747 133.56C165.173 133.56 165.537 133.659 165.839 133.856C166.14 134.051 166.368 134.331 166.523 134.696C166.677 135.061 166.748 135.497 166.735 136.004H166.135V135.796C166.124 135.236 166.003 134.813 165.771 134.528C165.541 134.243 165.205 134.1 164.763 134.1C164.299 134.1 163.943 134.251 163.695 134.552C163.449 134.853 163.327 135.283 163.327 135.84C163.327 136.384 163.449 136.807 163.695 137.108C163.943 137.407 164.293 137.556 164.747 137.556C165.056 137.556 165.325 137.485 165.555 137.344C165.787 137.2 165.969 136.993 166.103 136.724L166.651 136.936C166.48 137.312 166.228 137.604 165.895 137.812C165.564 138.017 165.189 138.12 164.771 138.12ZM163.119 136.004V135.512H166.419V136.004H163.119Z" fill="#4C6DC5"/>
<rect x="367" y="158" width="27" height="2" fill="#1D3574"/>
<rect x="367" y="163" width="19" height="2" fill="#1D3574"/>
<rect x="367" y="173" width="22" height="2" fill="#1D3574"/>
<rect x="367" y="168" width="14" height="2" fill="#1D3574"/>
<rect width="27" height="1" transform="matrix(1 0 0 -1 367 229)" fill="#1D3574"/>
<rect width="19" height="1" transform="matrix(1 0 0 -1 367 224)" fill="#1D3574"/>
<rect width="22" height="1" transform="matrix(1 0 0 -1 367 214)" fill="#1D3574"/>
<rect width="14" height="1" transform="matrix(1 0 0 -1 367 219)" fill="#1D3574"/>
<rect x="367" y="187" width="6" height="6" fill="#5648FF"/>
<rect x="375" y="187" width="6" height="6" fill="#36B7FF"/>
<rect x="383" y="187" width="6" height="6" fill="#CDD940"/>
<rect x="391" y="187" width="6" height="6" fill="#FF368B"/>
<rect x="399" y="187" width="6" height="6" fill="#B336FF"/>
<rect x="407" y="187" width="6" height="6" fill="#3DCC65"/>
<path d="M289.994 272.103L304.746 280.794L297 282L292.758 289L289.994 272.103Z" fill="#B336FF"/>
<path d="M230.602 217.939L230.459 223.008V233.964C231.934 233.881 232.941 233.674 233.48 233.342C233.924 233.591 234.146 234.089 234.146 234.836C234.146 235.571 233.81 236.217 233.139 236.775C232.479 237.332 231.598 237.682 230.495 237.824C230.578 239.591 230.716 241.038 230.908 242.164C229.877 242.484 228.84 242.644 227.796 242.644C226.753 242.644 225.962 242.484 225.422 242.164C225.542 240.385 225.626 238.868 225.674 237.611C222.46 237.326 220.116 237.184 218.641 237.184C217.178 237.184 215.901 237.314 214.809 237.575C214.594 237.291 214.402 236.828 214.234 236.188C214.078 235.547 214 235.02 214 234.605C214 234.19 214.024 233.905 214.072 233.751C217.861 228.403 221.603 222.646 225.296 216.48C226.231 216.16 227.119 216 227.958 216C228.81 216 229.595 216.065 230.315 216.196C230.507 216.468 230.602 217.049 230.602 217.939ZM217.723 233.715C218.311 233.609 219.102 233.555 220.098 233.555C221.093 233.555 222.964 233.644 225.71 233.822C225.734 231.534 225.746 227.377 225.746 221.354C224.679 222.931 223.27 225.101 221.519 227.864C219.768 230.626 218.503 232.577 217.723 233.715Z" fill="#3DCC65"/>
<path d="M237.146 229.038C237.146 227.543 237.439 225.966 238.027 224.306C238.626 222.634 239.442 221.188 240.473 219.966C241.516 218.745 242.782 217.779 244.269 217.067C245.768 216.356 247.446 216 249.305 216C251.164 216 252.921 216.599 254.575 217.796C256.23 218.982 257.525 220.583 258.461 222.599C259.396 224.603 259.864 226.684 259.864 228.842C259.864 231 259.612 232.915 259.108 234.587C258.605 236.259 257.879 237.723 256.932 238.98C255.984 240.225 254.767 241.209 253.28 241.933C251.793 242.644 250.12 243 248.262 243C245.144 242.988 242.488 241.601 240.293 238.838C238.195 236.206 237.146 232.939 237.146 229.038ZM248.999 240.154C250.642 240.154 251.925 239.241 252.849 237.415C253.772 235.589 254.234 232.962 254.234 229.536C254.234 226.097 253.7 223.458 252.633 221.621C251.565 219.771 250.144 218.846 248.37 218.846C246.607 218.846 245.246 219.717 244.287 221.46C243.327 223.204 242.848 225.729 242.848 229.038C242.848 232.346 243.459 235.026 244.682 237.077C245.917 239.128 247.356 240.154 248.999 240.154Z" fill="#FF368B"/>
<path d="M279.467 217.939L279.323 223.008V233.964C280.798 233.881 281.805 233.674 282.345 233.342C282.788 233.591 283.01 234.089 283.01 234.836C283.01 235.571 282.674 236.217 282.003 236.775C281.343 237.332 280.462 237.682 279.359 237.824C279.443 239.591 279.581 241.038 279.772 242.164C278.741 242.484 277.704 242.644 276.661 242.644C275.617 242.644 274.826 242.484 274.286 242.164C274.406 240.385 274.49 238.868 274.538 237.611C271.324 237.326 268.98 237.184 267.505 237.184C266.042 237.184 264.765 237.314 263.674 237.575C263.458 237.291 263.266 236.828 263.098 236.188C262.942 235.547 262.864 235.02 262.864 234.605C262.864 234.19 262.888 233.905 262.936 233.751C266.726 228.403 270.467 222.646 274.16 216.48C275.096 216.16 275.983 216 276.823 216C277.674 216 278.459 216.065 279.179 216.196C279.371 216.468 279.467 217.049 279.467 217.939ZM266.588 233.715C267.175 233.609 267.967 233.555 268.962 233.555C269.957 233.555 271.828 233.644 274.574 233.822C274.598 231.534 274.61 227.377 274.61 221.354C273.543 222.931 272.134 225.101 270.383 227.864C268.632 230.626 267.367 232.577 266.588 233.715Z" fill="#CDD940"/>
<rect x="209.5" y="192.5" width="78" height="75" stroke="#0A67B9"/>
<defs>
<clipPath id="clip0_510_8273">
<rect width="328" height="257" fill="white" transform="translate(172)"/>
</clipPath>
<clipPath id="clip1_510_8273">
<rect width="290" height="262" fill="white" transform="matrix(-1 0 0 -1 290 449)"/>
</clipPath>
</defs>
</svg>
