<svg width="1920" height="606" viewBox="0 0 1920 606" fill="none" xmlns="http://www.w3.org/2000/svg">
<g opacity="0.5">
<path d="M-310.999 605C-221.837 544.136 -128.622 488.387 -28.7325 447.44C3.65294 434.163 36.9324 422.404 71.5356 417.143C142.096 406.415 213.649 423.169 284.987 425.417C375.589 428.275 466.698 406.789 546.89 364.643C607.23 332.928 675.117 286.926 743.374 275.382C805.381 264.895 872.086 321.955 926.997 344.219C983.241 367.02 1046.15 371.876 1105.54 360.147C1136.66 354.001 1166.93 343.308 1194.84 328.204C1221.52 313.759 1244.77 286.875 1276.41 308.004C1286.86 314.988 1294.09 325.75 1303.08 334.548C1334.31 365.12 1388.93 367.51 1422.72 339.779" stroke="#36B7FF" stroke-width="0.4298" stroke-miterlimit="10"/>
<path d="M-307.067 603.092C-219.934 541.411 -127.677 485.077 -28.3376 444.28C4.73986 430.673 38.7242 419.27 73.9335 413.399C116.419 406.372 159.348 408.977 202.414 412.681C231.812 415.209 261.275 418.252 290.707 419.103C348.851 420.779 407.201 413.524 462.83 398.244C495.357 389.309 526.947 377.623 557.055 363.302C578.205 353.292 600.198 341.696 622.754 330.405C654.477 314.571 687.327 299.356 720.705 289.612C732.688 286.101 744.735 283.294 756.796 281.451C806.652 273.86 859.466 306.005 906.972 329.653C919.707 336.022 932.06 341.782 943.883 346.002C992.481 363.508 1045.48 367.901 1096.78 360.276C1105.61 358.965 1114.39 357.297 1123.11 355.277C1154.17 348.078 1184.41 336.448 1212.56 320.82C1229.24 311.562 1244.7 297.783 1261.71 293.429C1272.19 290.747 1283.2 291.688 1295.45 299.347C1306.15 306.039 1313.79 316.38 1323.11 324.878C1355.46 354.418 1410.52 357.022 1445.28 329.648" stroke="#36B7FF" stroke-width="0.4298" stroke-miterlimit="10"/>
<path d="M-303.135 601.188C-218.03 538.686 -126.732 481.772 -27.9378 441.126C5.83588 427.183 40.5207 416.137 76.3359 409.664C119.368 401.988 162.936 403.862 206.681 407.051C236.553 409.226 266.51 412.015 296.437 412.797C355.551 414.353 414.872 407.73 471.426 393.826C504.49 385.699 536.596 375.061 567.228 361.969C588.795 352.845 611.153 342.237 634.04 331.956C666.262 317.558 699.563 303.822 733.539 294.972C745.715 291.774 757.96 289.208 770.235 287.524C821.072 280.608 874.913 311.201 923.283 332.945C936.22 338.816 948.779 344.025 960.783 347.782C1010.04 363.194 1063.17 365.734 1114.39 356.313C1123.21 354.697 1131.98 352.72 1140.68 350.408C1171.69 342.155 1201.91 329.588 1230.3 313.432C1247.12 303.856 1262.85 290.008 1280.18 285.439C1290.86 282.624 1302.06 283.423 1314.5 290.687C1325.45 297.087 1333.49 307.002 1343.15 315.203C1376.62 343.711 1432.12 346.531 1467.84 319.518" stroke="#36B7FF" stroke-width="0.4298" stroke-miterlimit="10"/>
<path d="M-299.208 599.283C-216.127 535.965 -125.788 478.462 -27.5481 437.971C6.92183 423.697 42.3073 413.008 78.7286 405.925C122.306 397.595 166.515 398.743 210.939 401.416C241.283 403.234 271.73 405.77 302.156 406.492C362.238 407.923 422.534 401.936 480.007 389.412C513.613 382.088 546.201 372.418 577.391 360.641C599.354 352.346 622.103 342.787 645.313 333.512C678.038 320.549 711.781 308.291 746.354 300.34C758.72 297.456 771.171 295.131 783.652 293.601C835.473 287.36 890.389 316.273 939.575 336.246C952.727 341.588 965.471 346.299 977.664 349.574C1027.55 362.975 1080.84 363.581 1131.99 352.359C1140.79 350.433 1149.54 348.155 1158.22 345.547C1189.19 336.241 1219.38 322.737 1248.01 306.052C1264.99 296.158 1280.97 282.241 1298.62 277.458C1309.51 274.505 1320.89 275.158 1333.52 282.039C1344.73 288.142 1353.17 297.641 1363.16 305.545C1397.76 333.022 1453.7 336.061 1490.39 309.4" stroke="#36B7FF" stroke-width="0.4298" stroke-miterlimit="10"/>
<path d="M-295.274 597.375C-214.222 533.24 -124.841 475.153 -27.1516 434.807C8.01462 420.198 44.0835 409.797 81.128 402.181C125.234 393.117 170.097 393.62 215.204 395.773C246.016 397.239 276.958 399.516 307.878 400.174C368.931 401.481 430.199 396.125 488.596 384.981C522.739 378.465 555.842 369.817 587.557 359.296C609.937 351.869 633.052 343.32 656.592 335.046C689.815 323.519 724.01 312.74 759.181 305.687C771.739 303.117 784.393 301.032 797.08 299.661C849.881 294.095 905.833 321.418 955.879 339.529C969.237 344.365 982.17 348.555 994.552 351.349C1045.06 362.739 1098.51 361.41 1149.59 348.392C1158.38 346.161 1167.12 343.578 1175.78 340.673C1206.7 330.314 1236.86 315.873 1265.74 298.664C1282.86 288.452 1299.1 274.47 1317.08 269.468C1328.17 266.377 1339.74 266.884 1352.56 273.379C1364.03 279.185 1372.86 288.263 1383.19 295.87C1418.9 322.316 1475.29 325.569 1512.94 299.27" stroke="#36B7FF" stroke-width="0.4298" stroke-miterlimit="10"/>
<path d="M-291.345 595.471C-212.322 530.515 -123.9 471.843 -26.7561 431.653C9.10643 416.713 45.8715 406.651 83.5263 398.446C128.174 388.716 173.681 388.505 219.468 390.143C250.753 391.251 282.184 393.276 313.603 393.873C375.623 395.055 437.862 390.336 497.183 380.567C531.868 374.855 565.483 367.238 597.722 357.968C620.514 351.413 643.981 343.81 667.87 336.602C701.57 326.429 736.247 317.296 772.002 311.055C784.758 308.829 797.605 306.955 810.507 305.743C864.293 300.852 921.271 326.588 972.181 342.83C985.741 347.158 998.872 350.829 1011.44 353.141C1062.56 362.532 1116.19 359.257 1167.2 344.438C1175.98 341.897 1184.69 339.013 1193.35 335.811C1224.21 324.396 1254.36 309.018 1283.47 291.284C1300.75 280.754 1317.25 266.704 1335.54 261.486C1346.84 258.258 1358.6 258.619 1371.6 264.727C1383.33 270.237 1392.56 278.893 1403.22 286.204C1440.05 311.618 1496.88 315.087 1535.5 289.144" stroke="#36B7FF" stroke-width="0.4298" stroke-miterlimit="10"/>
<path d="M-287.413 593.562C-210.419 527.79 -122.954 468.534 -26.361 428.493C10.1935 413.218 47.6592 403.505 85.9243 394.703C131.114 384.306 177.266 383.386 223.731 384.503C255.489 385.26 287.415 387.026 319.323 387.559C382.315 388.617 445.525 384.529 505.77 376.144C540.993 371.24 575.127 364.651 607.887 356.631C631.096 350.949 654.928 344.343 679.143 338.149C713.347 329.399 748.47 321.77 784.823 316.414C797.768 314.506 810.821 312.864 823.93 311.816C878.695 307.599 936.701 331.75 988.479 346.127C1002.24 349.947 1015.56 353.102 1028.33 354.925C1080.06 362.317 1133.86 357.095 1184.81 340.479C1193.57 337.634 1202.27 334.445 1210.91 330.95C1241.72 318.482 1271.84 302.167 1301.2 283.904C1318.62 273.056 1335.38 258.937 1354 253.505C1365.5 250.139 1377.46 250.35 1390.64 256.075C1402.63 261.284 1412.25 269.528 1423.24 276.542C1461.2 300.924 1518.47 304.612 1558.05 279.022" stroke="#36B7FF" stroke-width="0.4298" stroke-miterlimit="10"/>
<path d="M-283.478 591.659C-208.508 525.07 -122.007 465.229 -25.9591 425.339C11.2917 409.733 49.4537 400.368 88.3292 390.968C134.06 379.909 180.856 378.272 228.001 378.873C260.232 379.273 292.647 380.786 325.054 381.259C389.013 382.192 453.199 378.74 514.364 371.73C550.124 367.63 584.778 362.073 618.062 355.303C641.692 350.494 665.89 344.885 690.432 339.701C725.138 332.378 760.704 326.249 797.654 321.779C810.789 320.189 824.048 318.783 837.368 317.893C893.117 314.352 952.141 336.921 1004.79 349.428C1018.75 352.746 1032.26 355.381 1045.23 356.717C1097.56 362.12 1151.55 354.942 1202.42 336.525C1211.17 333.375 1219.85 329.876 1228.47 326.09C1259.23 312.568 1289.33 295.316 1318.93 276.529C1336.51 265.363 1353.53 251.176 1372.46 245.528C1384.17 242.029 1396.33 242.081 1409.69 247.432C1421.94 252.34 1431.95 260.167 1443.28 266.885C1482.35 290.24 1540.07 294.138 1580.62 268.909" stroke="#36B7FF" stroke-width="0.4298" stroke-miterlimit="10"/>
<path d="M-279.552 589.755C-206.611 522.346 -121.068 461.92 -25.5703 422.181C12.3768 406.239 51.2349 397.226 90.7207 387.225C136.993 375.509 184.434 373.149 232.258 373.231C264.957 373.278 297.867 374.533 330.773 374.941C395.703 375.749 460.86 372.934 522.949 367.299C559.25 364.007 594.425 359.486 628.225 353.958C652.276 350.026 676.835 345.41 701.703 341.241C736.912 335.339 772.921 330.711 810.473 327.13C823.801 325.858 837.258 324.689 850.788 323.958C907.517 321.092 967.56 342.083 1021.08 352.716C1035.25 355.531 1048.95 357.646 1062.11 358.497C1115.05 361.918 1169.22 352.776 1220.02 332.559C1228.75 329.099 1237.41 325.299 1246.02 321.216C1276.73 306.642 1306.81 288.453 1336.65 269.137C1354.38 257.653 1371.66 243.401 1390.91 237.534C1402.83 233.898 1415.19 233.791 1428.72 238.768C1441.24 243.371 1451.63 250.789 1463.3 257.206C1503.49 279.53 1561.65 283.643 1603.17 258.771" stroke="#36B7FF" stroke-width="0.4298" stroke-miterlimit="10"/>
<path d="M-275.619 587.847C-204.706 519.62 -120.121 458.61 -25.1697 419.021C13.4736 402.749 53.0282 394.084 93.1286 383.485C139.942 371.111 188.028 368.03 236.531 367.596C269.703 367.286 303.108 368.292 336.503 368.636C402.4 369.319 468.533 367.136 531.542 362.885C568.38 360.396 604.075 356.911 638.395 352.626C662.867 349.57 687.792 345.947 712.986 342.792C748.699 338.318 785.15 335.184 823.303 332.494C836.82 331.54 850.484 330.607 864.224 330.035C921.938 327.843 983 347.262 1037.4 356.012C1051.76 358.325 1065.66 359.924 1079.01 360.285C1132.55 361.729 1186.91 350.618 1237.63 328.604C1246.35 324.839 1255 320.734 1263.59 316.355C1294.25 300.727 1324.3 281.597 1354.39 261.757C1372.26 249.955 1389.81 235.634 1409.38 229.552C1421.5 225.779 1434.07 225.512 1447.77 230.115C1460.56 234.413 1471.34 241.419 1483.34 247.544C1524.65 268.836 1583.25 273.168 1625.74 248.653" stroke="#36B7FF" stroke-width="0.4298" stroke-miterlimit="10"/>
<path d="M-271.689 585.942C-202.805 516.899 -119.179 455.3 -24.7777 415.866C14.5619 399.259 54.8127 390.946 95.5234 379.746C142.883 366.714 191.605 362.91 240.796 361.961C274.441 361.299 308.335 362.047 342.229 362.326C409.097 362.885 476.202 361.337 540.134 358.462C577.514 356.781 613.729 354.336 648.564 351.289C673.458 349.114 698.748 346.479 724.27 344.334C760.489 341.291 797.379 339.65 836.129 337.845C849.836 337.208 863.705 336.512 877.652 336.1C936.346 334.582 998.422 352.432 1053.7 359.3C1068.26 361.11 1082.35 362.193 1095.9 362.064C1150.04 361.539 1204.58 348.452 1255.24 324.637C1263.95 320.562 1272.58 316.157 1281.16 311.481C1311.76 294.8 1341.79 274.733 1372.12 254.369C1390.14 242.248 1407.94 227.859 1427.84 221.562C1440.17 217.651 1452.93 217.221 1466.81 221.455C1479.87 225.443 1491.04 232.019 1503.36 237.869C1545.84 258.039 1604.84 262.677 1648.3 238.518" stroke="#36B7FF" stroke-width="0.4298" stroke-miterlimit="10"/>
<path d="M-267.758 584.039C-200.898 514.175 -118.23 451.996 -24.3835 412.712C15.6524 395.773 56.6038 387.814 97.9205 376.011C145.822 362.326 195.188 357.796 245.058 356.331C279.176 355.312 313.56 355.806 347.952 356.026C415.788 356.46 483.868 355.548 548.721 354.048C586.638 353.172 623.381 351.771 658.728 349.961C684.043 348.667 709.698 347.025 735.542 345.891C772.264 344.279 809.596 344.124 848.949 343.213C862.849 342.891 876.916 342.435 891.078 342.182C950.756 341.339 1013.85 357.624 1070 362.606C1084.76 363.917 1099.05 364.484 1112.79 363.856C1167.53 361.372 1222.26 346.299 1272.85 320.687C1281.54 316.308 1290.15 311.593 1298.72 306.624C1329.27 288.891 1359.28 267.886 1389.84 246.994C1408.02 234.555 1426.08 220.101 1446.3 213.585C1458.83 209.537 1471.8 208.939 1485.85 212.812C1499.19 216.487 1510.73 222.659 1523.39 228.216C1566.99 247.355 1626.43 252.207 1670.85 228.405" stroke="#36B7FF" stroke-width="0.4298" stroke-miterlimit="10"/>
<path d="M-263.825 582.13C-198.994 511.449 -117.285 448.681 -23.9838 409.548C16.7441 392.275 58.3959 384.671 100.323 372.263C148.766 357.925 198.777 352.673 249.326 350.687C283.912 349.316 318.79 349.552 353.677 349.707C422.484 350.017 491.536 349.737 557.312 349.617C595.771 349.548 633.035 349.187 668.901 348.615C694.638 348.203 720.658 347.554 746.828 347.429C784.058 347.249 821.829 348.581 861.778 348.564C875.867 348.56 890.141 348.34 904.509 348.241C965.167 348.074 1029.27 362.799 1086.3 365.885C1101.26 366.697 1115.74 366.749 1129.68 365.627C1185.01 361.187 1239.94 344.124 1290.46 316.711C1299.13 312.022 1307.73 307.006 1316.28 301.741C1346.78 282.95 1376.77 261.014 1407.57 239.592C1425.9 226.836 1444.22 212.313 1464.76 205.582C1477.49 201.4 1490.68 200.631 1504.89 204.138C1518.5 207.495 1530.43 213.267 1543.42 218.528C1588.14 236.631 1648.02 241.707 1693.42 218.261" stroke="#36B7FF" stroke-width="0.4298" stroke-miterlimit="10"/>
<path d="M-259.895 580.226C-197.093 508.729 -116.265 445.561 -23.591 406.394C17.8675 388.871 60.1858 381.543 102.719 368.528C151.707 353.541 202.359 347.558 253.587 345.053C288.646 343.325 324.019 343.308 359.4 343.402C429.174 343.587 499.197 343.944 565.897 345.203C604.893 345.938 642.681 346.63 679.064 347.287C705.221 347.76 731.607 348.104 758.1 348.981C795.836 350.232 834.041 353.051 874.597 353.928C888.875 354.237 903.355 354.259 917.934 354.319C979.576 354.826 1044.69 367.995 1102.6 369.186C1117.76 369.5 1132.43 369.035 1146.57 367.419C1202.5 361.028 1257.61 341.971 1308.06 312.762C1316.72 307.767 1325.3 302.446 1333.83 296.885C1364.29 277.041 1394.25 254.167 1425.3 232.221C1443.77 219.147 1462.36 204.555 1483.21 197.61C1496.15 193.29 1509.55 192.349 1523.93 195.495C1537.81 198.534 1550.12 203.906 1563.44 208.87C1609.27 225.938 1669.61 231.233 1715.96 208.144" stroke="#36B7FF" stroke-width="0.4298" stroke-miterlimit="10"/>
<path d="M-255.963 578.322C-195.189 506.004 -115.319 442.256 -23.1915 403.239C18.9633 385.385 61.9778 378.414 105.121 364.793C154.656 349.157 205.948 342.444 257.855 339.422C293.386 337.342 329.249 337.067 365.129 337.097C435.874 337.161 506.868 338.146 574.493 340.785C614.03 342.328 652.343 344.068 689.237 345.955C715.82 347.318 742.566 348.646 769.386 350.532C807.629 353.219 846.273 357.517 887.43 359.292C901.902 359.915 916.579 360.173 931.369 360.396C993.991 361.578 1060.12 373.192 1118.91 372.487C1134.27 372.302 1149.13 371.322 1163.47 369.212C1220 360.878 1275.3 339.818 1325.68 308.807C1334.32 303.508 1342.88 297.882 1351.4 292.024C1381.8 271.127 1411.74 247.312 1443.03 224.842C1461.66 211.453 1480.5 196.793 1501.68 189.628C1514.83 185.171 1528.43 184.054 1542.97 186.843C1557.14 189.559 1569.82 194.541 1583.48 199.208C1630.43 215.244 1691.2 220.754 1738.53 198.026" stroke="#36B7FF" stroke-width="0.4298" stroke-miterlimit="10"/>
<path d="M-252.036 576.415C-193.287 503.28 -114.38 438.943 -22.8021 400.08C20.0489 381.896 63.7638 375.281 107.513 361.05C157.593 344.765 209.526 337.321 262.112 333.784C298.117 331.347 334.469 330.818 370.843 330.788C442.555 330.728 514.525 332.348 583.074 336.363C623.149 338.709 661.985 341.503 699.395 344.619C726.4 346.867 753.511 349.188 780.658 352.08C819.404 356.206 858.49 361.979 900.245 364.652C914.906 365.589 929.79 366.087 944.785 366.47C1008.39 368.327 1075.53 378.393 1135.2 375.784C1150.76 375.105 1165.81 373.609 1180.35 370.996C1237.48 360.724 1292.97 337.656 1343.27 304.845C1351.91 299.236 1360.45 293.305 1368.96 287.155C1399.3 265.205 1429.22 240.453 1460.75 217.454C1479.53 203.748 1498.63 189.018 1520.13 181.639C1533.48 177.044 1547.3 175.746 1562.01 178.183C1576.45 180.577 1589.5 185.163 1603.5 189.534C1651.57 204.539 1712.79 210.268 1761.08 187.892" stroke="#36B7FF" stroke-width="0.4298" stroke-miterlimit="10"/>
<path d="M-248.104 574.51C-191.383 500.559 -113.512 435.452 -22.4026 396.925C21.1103 378.319 65.5604 372.152 109.916 357.315C160.542 340.381 213.111 332.206 266.38 328.153C302.853 325.363 339.7 324.581 376.572 324.482C449.256 324.298 522.197 326.554 591.666 331.948C632.282 335.103 671.639 338.949 709.569 343.29C736.994 346.432 764.471 349.737 791.94 353.631C831.194 359.193 870.718 366.444 913.075 370.015C927.924 371.266 943.015 372.005 958.221 372.547C1022.81 375.078 1090.96 383.597 1151.51 379.08C1167.27 377.902 1182.52 375.895 1197.24 372.783C1254.97 360.577 1310.65 335.498 1360.89 300.891C1369.5 294.977 1378.03 288.74 1386.53 282.293C1416.82 259.29 1446.71 233.601 1478.49 210.078C1497.41 196.054 1516.78 181.256 1538.59 173.661C1552.15 168.933 1566.18 167.451 1581.05 169.539C1595.77 171.607 1609.19 175.832 1623.53 179.876C1672.69 193.948 1734.38 199.793 1783.64 177.779" stroke="#36B7FF" stroke-width="0.4298" stroke-miterlimit="10"/>
<path d="M-244.173 572.606C-189.481 497.833 -112.568 432.143 -22.0092 393.766C22.1957 374.829 67.346 369.018 112.312 353.571C163.484 335.992 216.693 327.087 270.642 322.509C307.587 319.363 344.928 318.327 382.295 318.168C455.946 317.859 529.863 320.747 600.255 327.521C641.409 331.479 681.29 336.383 719.735 341.949C747.582 345.981 775.42 350.279 803.22 355.174C842.976 362.176 882.943 370.9 925.898 375.37C940.936 376.935 956.229 377.915 971.646 378.615C1037.22 381.822 1106.38 388.802 1167.81 382.372C1183.77 380.7 1199.21 378.181 1214.13 374.567C1272.46 360.431 1328.32 333.336 1378.49 296.928C1387.09 290.704 1395.6 284.167 1404.08 277.428C1434.33 253.372 1464.19 226.745 1496.21 202.694C1515.29 188.351 1534.91 173.489 1557.05 165.675C1570.81 160.81 1585.05 159.142 1600.09 160.883C1615.07 162.619 1628.88 166.462 1643.56 170.21C1693.83 183.25 1755.97 189.31 1806.2 167.652" stroke="#36B7FF" stroke-width="0.4298" stroke-miterlimit="10"/>
<path d="M-240.242 570.697C-187.578 495.108 -111.624 428.833 -21.6153 390.606C23.2859 371.334 69.137 365.889 114.709 349.831C166.427 331.608 220.276 321.967 274.904 316.874C312.322 313.376 350.153 312.082 388.014 311.858C462.636 311.424 537.525 314.949 608.837 323.098C650.532 327.864 690.929 333.826 729.895 340.612C758.162 345.538 786.366 350.82 814.488 356.721C854.752 365.167 895.157 375.357 938.713 380.725C953.945 382.604 969.439 383.824 985.067 384.684C1051.62 388.565 1121.8 394.006 1184.11 385.664C1200.26 383.502 1215.9 380.467 1231.01 376.35C1289.95 360.293 1346 331.174 1396.09 292.969C1404.68 286.44 1413.17 279.598 1421.63 272.562C1451.83 247.453 1481.67 219.886 1513.93 195.314C1533.15 180.653 1553.04 165.722 1575.49 157.693C1589.46 152.691 1603.91 150.834 1619.12 152.231C1634.38 153.632 1648.56 157.092 1663.58 160.543C1714.97 172.556 1777.55 178.831 1828.74 157.526" stroke="#36B7FF" stroke-width="0.4298" stroke-miterlimit="10"/>
<path d="M-236.31 568.793C-185.675 492.388 -110.679 425.528 -21.216 387.452C24.3815 367.849 70.9374 362.764 117.115 346.092C169.379 327.224 223.869 316.849 279.176 311.24C317.067 307.384 355.388 305.837 393.747 305.554C469.336 304.995 545.2 309.151 617.437 318.684C659.669 324.254 700.59 331.277 740.072 339.284C768.757 345.104 797.33 351.375 825.778 358.273C866.545 368.158 907.393 379.819 951.546 386.089C966.968 388.281 982.668 389.743 998.502 390.761C1066.04 395.317 1137.24 399.22 1200.42 388.961C1216.78 386.304 1232.6 382.759 1247.91 378.138C1307.46 360.16 1363.69 329.016 1413.71 289.011C1422.28 282.172 1430.76 275.025 1439.2 267.697C1469.34 241.53 1499.17 213.03 1531.66 187.93C1551.04 172.952 1571.18 157.952 1593.96 149.704C1608.13 144.563 1622.79 142.517 1638.17 143.57C1653.71 144.636 1668.26 147.718 1683.61 150.868C1736.13 161.85 1799.15 168.34 1851.31 147.396" stroke="#36B7FF" stroke-width="0.4298" stroke-miterlimit="10"/>
<path d="M-232.38 566.89C-183.77 489.663 -109.733 422.219 -20.8241 384.298C25.4697 364.359 72.7262 359.64 119.51 342.358C172.324 322.845 227.45 311.735 283.436 305.61C321.8 301.402 360.611 299.597 399.465 299.249C476.025 298.566 552.86 303.358 626.017 314.266C668.79 320.644 710.227 328.725 750.229 337.953C779.335 344.666 808.269 351.925 837.049 359.825C878.318 371.155 919.609 384.281 964.364 391.454C979.979 393.955 995.877 395.662 1011.93 396.839C1080.44 402.07 1152.66 404.438 1216.72 392.262C1233.27 389.116 1249.3 385.054 1264.79 379.927C1324.96 360.027 1381.36 326.859 1431.31 285.057C1439.86 277.914 1448.32 270.461 1456.76 262.836C1486.85 235.617 1516.65 206.18 1549.39 180.551C1568.91 165.254 1589.32 150.19 1612.42 141.723C1626.8 136.445 1641.66 134.206 1657.2 134.924C1673.02 135.65 1687.95 138.353 1703.64 141.212C1757.27 151.161 1820.74 157.866 1873.86 137.279" stroke="#36B7FF" stroke-width="0.4298" stroke-miterlimit="10"/>
<path d="M-228.447 564.981C-181.865 486.938 -108.786 418.91 -20.4235 381.134C26.5666 360.865 74.5237 356.511 121.913 338.61C175.273 318.457 231.04 306.607 287.705 299.962C326.537 295.398 365.846 293.339 405.195 292.931C482.722 292.123 560.533 297.551 634.613 309.835C677.924 317.017 719.881 326.163 760.407 336.607C789.93 344.215 819.23 352.462 848.336 361.364C890.104 374.137 931.846 388.729 977.199 396.805C993.002 399.62 1009.11 401.567 1025.36 402.904C1094.86 408.809 1168.1 409.647 1233.03 395.55C1249.79 391.91 1266.01 387.336 1281.69 381.706C1342.48 359.894 1399.04 324.693 1448.93 281.09C1457.47 273.637 1465.91 265.884 1474.33 257.962C1504.37 229.69 1534.15 199.316 1567.13 173.163C1586.8 157.548 1607.47 142.415 1630.89 133.733C1645.47 128.322 1660.55 125.885 1676.26 126.263C1692.34 126.65 1707.66 128.979 1723.68 131.537C1778.43 140.455 1842.34 147.375 1896.43 127.148" stroke="#36B7FF" stroke-width="0.4298" stroke-miterlimit="10"/>
<path d="M-224.518 563.077C-179.964 484.218 -107.844 415.6 -20.0313 377.98C27.6507 357.375 76.3127 353.386 124.309 334.875C178.218 314.081 234.617 301.492 291.965 294.332C331.27 289.415 371.07 287.103 410.916 286.626C489.415 285.693 568.193 291.753 643.198 305.421C687.05 313.411 729.523 323.618 770.569 335.279C800.509 343.785 830.178 353.017 859.611 362.915C901.881 377.133 944.066 393.186 990.016 402.169C1006.01 405.293 1022.32 407.481 1038.79 408.977C1109.27 415.557 1183.53 414.869 1249.32 398.846C1266.28 394.716 1282.7 389.632 1298.58 383.494C1359.98 359.769 1416.71 322.535 1466.52 277.131C1475.05 269.373 1483.48 261.315 1491.88 253.097C1521.87 223.772 1551.62 192.461 1584.85 165.779C1604.67 149.846 1625.6 134.644 1649.33 125.747C1664.12 120.198 1679.41 117.564 1695.28 117.607C1711.65 117.65 1727.34 119.605 1743.69 121.87C1799.57 129.757 1863.92 136.896 1918.98 117.022" stroke="#36B7FF" stroke-width="0.4298" stroke-miterlimit="10"/>
<path d="M-220.588 561.174C-178.063 481.493 -106.901 412.295 -19.6349 374.825C28.7434 353.89 78.1448 350.361 126.708 331.14C181.207 309.809 238.202 296.382 296.23 288.702C336.008 283.428 376.297 280.862 416.638 280.325C496.104 279.268 575.858 285.964 651.786 301.007C696.176 309.801 739.165 321.074 780.735 333.951C811.092 343.355 841.126 353.572 870.885 364.471C913.655 380.133 956.308 397.557 1002.84 407.537C1019.03 410.946 1035.53 413.404 1052.21 415.059C1123.67 422.314 1198.96 420.096 1265.62 402.148C1282.78 397.527 1299.39 391.927 1315.47 385.286C1377.49 359.649 1434.39 320.382 1484.13 273.182C1492.64 265.119 1501.05 256.75 1509.44 248.24C1539.38 217.862 1569.11 185.61 1602.58 158.404C1622.55 142.153 1643.74 126.886 1667.8 117.77C1682.79 112.084 1698.28 109.252 1714.33 108.959C1730.96 108.659 1747.04 110.24 1763.72 112.209C1820.72 119.064 1885.51 126.418 1941.54 106.901" stroke="#36B7FF" stroke-width="0.4298" stroke-miterlimit="10"/>
<path d="M-216.653 559.264C-176.153 478.767 -105.954 408.985 -19.2371 371.665C29.8375 350.394 79.939 347.223 129.108 327.396C184.153 305.416 241.789 291.258 300.495 283.062C340.746 277.436 381.526 274.612 422.365 274.01C502.802 272.828 583.527 280.156 660.376 296.579C705.307 306.181 748.807 318.516 790.902 332.609C821.675 342.912 852.054 354.168 882.165 366.013C925.403 383.197 968.538 402.018 1015.66 412.892C1032.05 416.614 1048.75 419.313 1065.64 421.127C1138.09 429.056 1214.4 425.313 1281.93 405.439C1299.29 400.329 1316.1 394.217 1332.36 387.065C1395 359.519 1452.07 318.215 1501.74 269.214C1510.24 260.841 1518.63 252.172 1527 243.366C1556.89 211.934 1586.6 178.745 1620.3 151.014C1640.43 134.446 1661.87 119.11 1686.25 109.779C1701.45 103.956 1717.15 100.925 1733.37 100.302C1750.28 99.6533 1766.73 100.87 1783.75 102.537C1841.87 108.361 1907.11 115.934 1964.1 96.7736" stroke="#36B7FF" stroke-width="0.4298" stroke-miterlimit="10"/>
<path d="M-212.726 557.361C-174.255 476.047 -105.014 405.676 -18.8476 368.507C30.9233 346.905 81.7257 344.09 131.501 323.657C187.091 301.024 245.368 286.14 304.753 277.424C345.473 271.441 386.751 268.363 428.085 267.702C509.493 266.395 591.189 274.359 668.962 292.157C714.43 302.563 758.446 315.968 801.07 331.273C832.256 342.474 863.004 354.71 893.447 367.557C937.187 386.18 980.765 406.475 1028.49 418.248C1045.07 422.284 1061.98 425.223 1079.07 427.196C1152.5 435.801 1229.84 430.536 1298.23 408.732C1315.8 403.132 1332.8 396.508 1349.25 388.849C1412.52 359.395 1469.75 316.054 1519.35 265.256C1527.83 256.578 1536.21 247.604 1544.57 238.501C1574.4 206.017 1604.09 171.891 1638.03 143.631C1658.31 126.744 1680.02 111.34 1704.71 101.794C1720.12 95.8331 1736.02 92.601 1752.41 91.6469C1769.59 90.6454 1786.43 91.4964 1803.78 92.8717C1863.02 97.664 1928.69 105.452 1986.66 86.6482" stroke="#36B7FF" stroke-width="0.4298" stroke-miterlimit="10"/>
<path d="M-208.793 555.457C-172.35 473.322 -104.068 402.371 -18.4475 365.352C32.0196 343.415 83.5227 340.961 133.904 319.918C190.04 296.636 248.957 281.021 309.022 271.789C350.214 265.45 391.982 262.119 433.81 261.392C516.185 259.961 598.857 268.561 677.549 287.739C723.56 298.953 768.087 313.42 811.234 329.941C842.838 342.04 873.951 355.252 904.72 369.109C948.96 389.168 992.988 410.941 1041.31 423.607C1058.07 427.957 1075.19 431.138 1092.49 433.269C1166.9 442.549 1245.27 435.758 1314.53 412.029C1332.3 405.938 1349.49 398.804 1366.13 390.637C1430.03 359.279 1487.42 313.897 1536.95 261.298C1545.42 252.311 1553.77 243.035 1562.12 233.636C1591.91 200.094 1621.56 165.035 1655.75 136.247C1676.18 119.042 1698.14 103.574 1723.16 93.8089C1738.77 87.7143 1754.88 84.2715 1771.44 82.9907C1788.89 81.6412 1806.11 82.1268 1823.8 83.2013C1884.16 86.9621 1950.28 94.9651 2009.21 76.5223" stroke="#36B7FF" stroke-width="0.4298" stroke-miterlimit="10"/>
<path d="M-204.86 553.549C-170.446 470.597 -103.122 399.057 -18.0517 362.193C33.1117 339.925 85.3152 337.828 136.302 316.179C192.984 292.247 252.542 275.902 313.29 266.154C354.955 259.462 397.213 255.874 439.54 255.083C522.886 253.531 606.53 262.759 686.146 283.316C732.693 295.333 777.706 310.94 821.408 328.6C853.403 341.649 884.907 355.789 916.007 370.652C960.75 392.146 1005.22 415.402 1054.14 428.963C1071.1 433.626 1088.41 437.047 1105.93 439.338C1181.32 449.292 1260.77 441.104 1330.84 415.316C1348.82 408.771 1366.21 401.09 1383.03 392.417C1447.56 359.15 1505.11 311.73 1554.56 257.335C1563.02 248.043 1571.36 238.458 1579.69 228.766C1609.43 194.171 1639.06 158.176 1673.49 128.863C1694.07 111.345 1716.3 95.803 1741.63 85.823C1757.45 79.5909 1773.76 75.9462 1790.49 74.3345C1808.21 72.6282 1825.82 72.7528 1843.84 73.5307C1905.32 76.26 1971.88 84.4821 2031.78 66.3918" stroke="#36B7FF" stroke-width="0.4298" stroke-miterlimit="10"/>
<path d="M-200.93 551.644C-168.54 467.876 -102.175 395.751 -17.6548 359.038C34.2006 336.434 87.109 334.694 138.702 312.439C195.93 287.858 256.128 270.787 317.555 260.519C359.692 253.47 402.44 249.628 445.266 248.777C529.58 247.1 614.199 256.964 694.739 278.897C741.824 291.722 787.352 308.377 831.579 327.267C863.99 341.205 895.86 356.334 927.287 372.198C972.527 395.128 1017.45 419.863 1066.97 434.321C1084.12 439.303 1101.64 442.96 1119.36 445.41C1195.73 456.039 1276.2 446.304 1347.14 418.612C1365.33 411.568 1382.93 403.415 1399.92 394.204C1465.16 359.162 1522.78 309.572 1572.17 253.376C1580.61 243.774 1588.93 233.888 1597.25 223.904C1626.93 188.257 1656.54 151.319 1691.22 121.483C1711.94 103.646 1734.43 88.0357 1760.09 77.8408C1776.11 71.4712 1792.62 67.6202 1809.53 65.6861C1827.51 63.6273 1845.51 63.3909 1863.86 63.8723C1926.46 65.57 1993.47 74.007 2054.33 56.2735" stroke="#36B7FF" stroke-width="0.4298" stroke-miterlimit="10"/>
<path d="M-197 549.74C-166.639 465.151 -101.232 392.446 -17.2619 355.883C35.2897 332.949 88.8989 331.565 141.102 308.704C198.876 283.47 259.71 265.672 321.82 254.889C364.427 247.488 407.673 243.392 450.988 242.472C536.274 240.671 621.864 251.171 703.324 274.483C750.95 288.112 796.995 305.82 841.741 325.939C874.569 340.763 906.809 356.88 938.562 373.754C984.306 398.12 1029.67 424.333 1079.79 439.69C1097.13 444.985 1114.85 448.883 1132.78 451.492C1210.14 462.796 1291.63 451.509 1363.44 421.918C1381.83 414.379 1399.63 405.71 1416.81 395.996C1482.66 359.008 1540.46 307.423 1589.77 249.426C1598.2 239.519 1606.51 229.328 1614.81 219.048C1644.44 182.347 1674.03 144.473 1708.94 114.108C1729.82 95.9529 1752.57 80.2781 1778.55 69.864C1794.78 63.3569 1811.49 59.2995 1828.57 57.0388C1846.82 54.6233 1865.2 54.0258 1883.89 54.2107C1947.6 54.8811 2015.05 63.5287 2076.88 46.1562" stroke="#36B7FF" stroke-width="0.4298" stroke-miterlimit="10"/>
<path d="M-193.071 547.833C-164.738 462.427 -100.29 389.133 -16.8653 352.72C36.3826 329.451 90.692 328.428 143.502 304.961C201.821 279.078 263.295 260.55 326.085 249.246C369.164 241.488 412.9 237.139 456.714 236.159C542.967 234.233 629.528 245.365 711.917 270.057C760.08 284.494 806.645 303.25 851.916 324.599C885.161 340.312 917.765 357.418 949.85 375.298C996.092 401.099 1041.91 428.795 1092.62 445.046C1110.15 450.655 1128.08 454.789 1146.22 457.562C1224.56 469.54 1307.08 456.702 1379.75 425.206C1398.35 417.169 1416.33 407.984 1433.71 397.776C1500.18 358.841 1558.15 305.258 1607.39 245.46C1615.81 235.247 1624.09 224.752 1632.38 214.174C1661.96 176.421 1691.53 137.61 1726.68 106.72C1747.71 88.2472 1770.72 72.5036 1797.02 61.8747C1813.45 55.23 1830.36 50.932 1847.62 48.379C1866.13 45.5724 1884.91 44.6525 1903.93 44.5365C1968.77 44.1755 2036.66 53.038 2099.46 36.0222" stroke="#36B7FF" stroke-width="0.4298" stroke-miterlimit="10"/>
<path d="M-189.139 545.928C-162.835 459.706 -99.345 385.827 -16.471 349.565C37.4733 325.965 92.479 325.298 145.899 301.221C204.764 274.689 266.879 255.43 330.348 243.611C459.627 219.533 594.873 226.324 720.503 265.638C805.01 292.083 884.614 332.27 961.122 376.849C1007.87 404.085 1054.13 433.26 1105.44 450.409C1199.76 481.935 1305.49 469.625 1396.05 428.506C1486.6 387.387 1562.94 319.234 1624.99 241.505C1681.3 170.97 1731.88 87.9498 1815.46 53.8925C1911.05 14.944 2022.13 51.9971 2122 25.9039" stroke="#36B7FF" stroke-width="0.4298" stroke-miterlimit="10"/>
<path d="M10.418 0.902424C9.36499 109.878 47.8967 218.815 117.236 302.889C136.964 326.807 160.1 349.423 189.275 359.915C273.576 390.224 363.594 323.966 434.472 286.346C520.006 240.95 604.574 193.376 693.633 155.068C743.631 133.56 802.355 115.307 850.72 140.269C899.696 165.55 918.332 224.416 938.58 275.678C962.172 335.412 994.66 392.953 1042.35 435.968C1090.04 478.982 1154.51 506.137 1218.35 499.135C1268.35 493.651 1313.9 468.284 1355.5 440.016C1464.81 365.738 1557.66 267.404 1625.57 154.027" stroke="#36B7FF" stroke-width="0.4298" stroke-miterlimit="10"/>
<path d="M7.68566 5.61389C6.75299 101.928 40.6342 196.192 100.707 277.037C106.286 284.546 112.028 291.93 118.02 299.111C137.717 322.703 160.656 345.031 189.418 355.604C272.602 386.219 361.244 323.425 432.023 287.154C494.774 254.997 557.082 221.043 621.604 190.308C643.988 179.601 666.565 169.29 689.43 159.564C739.029 138.469 797.057 120.461 845.061 144.259C893.667 168.358 912.909 224.945 933.716 274.2C957.965 331.592 990.828 386.898 1038.43 428.254C1055 442.652 1073.55 455.202 1093.36 465.16C1130.42 483.805 1171.92 493.39 1213.15 489.032C1262.67 483.797 1307.9 459.457 1349.23 432.479C1432.91 377.898 1506.86 310.149 1567.82 232.106C1586.02 208.819 1603.05 184.621 1618.83 159.577" stroke="#36B7FF" stroke-width="0.4298" stroke-miterlimit="10"/>
<path d="M4.95531 10.3201C4.05273 103.423 39.739 192.465 101.518 273.598C107.127 280.961 112.835 288.25 118.805 295.325C138.477 318.586 161.214 340.63 189.568 351.289C271.638 382.213 358.891 322.879 429.576 287.954C491.67 257.275 553.432 224.219 617.919 194.133C640.14 183.68 662.55 173.588 685.23 164.051C734.429 143.365 791.765 125.605 839.404 148.239C887.64 171.16 907.489 225.469 928.85 272.713C953.752 327.762 986.997 380.834 1034.5 420.526C1051.05 434.344 1069.5 446.391 1089.18 455.945C1125.98 473.842 1167.09 483.066 1207.93 478.914C1256.99 473.924 1301.88 450.616 1342.95 424.931C1426.13 372.981 1499.59 308.954 1560.73 234.5C1578.98 212.283 1596.12 189.147 1612.08 165.117" stroke="#36B7FF" stroke-width="0.4298" stroke-miterlimit="10"/>
<path d="M2.22391 15.0305C1.35571 104.923 38.8213 188.743 102.329 270.164C107.963 277.389 113.637 284.58 119.585 291.542C139.227 314.477 161.77 336.229 189.707 346.974C270.66 378.203 356.517 322.329 427.124 288.757C488.547 259.552 549.841 227.549 614.225 197.958C636.308 187.806 658.524 177.886 681.024 168.538C729.824 148.264 786.467 130.75 833.737 152.218C881.604 173.962 902.058 225.989 923.978 271.226C949.538 323.932 983.157 374.769 1030.57 412.802C1047.09 426.04 1065.45 437.584 1084.99 446.739C1121.54 463.888 1162.25 472.751 1202.71 468.801C1251.3 464.056 1295.85 441.779 1336.66 417.388C1419.35 368.064 1492.32 307.763 1553.64 236.893C1571.94 215.747 1589.19 193.673 1605.32 170.653" stroke="#36B7FF" stroke-width="0.4298" stroke-miterlimit="10"/>
<path d="M-0.507153 19.7369C-1.34526 106.419 37.8827 185.025 103.144 266.726C108.804 273.809 114.447 280.905 120.374 287.756C139.99 310.359 162.331 331.828 189.856 342.659C269.691 374.193 354.142 321.77 424.681 289.557C485.425 261.818 546.216 230.773 610.544 201.783C632.472 191.898 654.508 182.184 676.828 173.025C725.228 153.16 781.175 135.89 828.083 156.198C875.58 176.76 896.641 226.509 919.119 269.739C945.337 320.103 979.33 368.709 1026.65 405.079C1043.14 417.74 1061.4 428.778 1080.82 437.533C1117.1 453.93 1157.43 462.431 1197.51 458.692C1245.63 454.196 1289.85 432.947 1330.39 409.849C1412.59 363.156 1485.07 306.577 1546.57 239.296C1564.92 219.22 1582.28 198.207 1598.59 176.201" stroke="#36B7FF" stroke-width="0.4298" stroke-miterlimit="10"/>
<path d="M-3.23858 24.4472C-4.04661 107.919 36.9262 181.316 103.954 263.291C109.635 270.237 115.253 277.23 121.154 283.973C140.74 306.25 162.888 327.431 190 338.343C268.718 370.183 351.751 321.207 422.234 290.356C482.29 264.069 542.578 233.992 606.854 205.604C628.628 195.985 650.487 186.478 672.622 177.508C720.622 158.055 775.877 141.031 822.421 160.174C869.548 179.558 891.21 227.025 914.252 268.247C941.123 316.273 975.494 362.64 1022.72 397.346C1039.18 409.428 1057.36 419.962 1076.64 428.318C1112.66 443.967 1152.61 452.107 1192.29 448.57C1239.95 444.319 1283.83 424.097 1324.11 402.293C1405.81 358.226 1477.81 305.373 1539.48 241.677C1557.88 222.671 1575.35 202.72 1591.84 181.728" stroke="#36B7FF" stroke-width="0.4298" stroke-miterlimit="10"/>
<path d="M-5.97031 29.1579C-6.74825 109.419 35.9439 177.62 104.763 259.862C110.463 266.67 116.054 273.564 121.938 280.196C141.494 302.141 163.444 323.038 190.143 334.037C267.748 366.181 349.345 320.648 419.785 291.168C479.141 266.326 538.943 237.224 603.168 209.442C624.787 200.09 646.471 190.789 668.421 182.012C716.021 162.968 770.58 146.193 816.762 164.171C863.52 182.377 885.788 227.562 909.388 266.777C936.917 312.461 971.662 356.593 1018.8 389.64C1035.23 401.141 1053.31 411.173 1072.46 419.124C1108.23 434.025 1147.79 441.805 1187.09 438.474C1234.27 434.468 1277.83 415.278 1317.84 394.767C1399.03 353.33 1470.55 304.2 1532.4 244.092C1550.86 226.157 1568.44 207.267 1585.09 187.29" stroke="#36B7FF" stroke-width="0.4298" stroke-miterlimit="10"/>
<path d="M-8.69971 33.8644C-9.44327 110.915 34.9466 173.923 105.58 256.424C111.296 263.098 116.867 269.889 122.725 276.409C142.255 298.028 164.007 318.637 190.294 329.717C266.781 362.172 346.938 320.064 417.34 291.964C475.986 268.557 535.303 240.435 599.485 213.259C620.949 204.168 642.456 195.082 664.221 186.491C711.422 167.859 765.289 151.329 811.106 168.143C857.494 185.167 880.368 228.078 904.523 265.282C932.705 308.623 967.828 350.52 1014.87 381.904C1031.27 392.829 1049.26 402.354 1068.28 409.905C1103.78 424.059 1142.95 431.473 1181.87 428.348C1228.59 424.591 1271.81 406.428 1311.56 387.212C1392.26 348.401 1463.29 302.997 1525.32 246.474C1543.83 229.608 1561.52 211.78 1578.35 192.817" stroke="#36B7FF" stroke-width="0.4298" stroke-miterlimit="10"/>
<path d="M-11.4336 38.5754C-12.147 112.415 33.9189 170.245 106.388 252.99C112.117 259.531 117.665 266.215 123.506 272.627C143.007 293.915 164.561 314.236 190.435 325.403C265.805 358.162 344.505 319.48 414.889 292.768C472.814 270.784 531.662 243.654 595.792 217.089C617.098 208.265 638.433 199.385 660.017 190.982C706.818 172.759 759.989 156.478 805.445 172.123C851.463 187.97 874.943 228.599 899.657 263.795C928.496 304.794 963.998 344.456 1010.95 374.181C1027.32 384.526 1045.21 393.547 1064.1 400.699C1099.34 414.1 1138.13 421.158 1176.66 418.235C1222.91 414.724 1265.8 397.592 1305.29 379.665C1385.49 343.484 1456.03 301.802 1518.23 248.868C1536.8 233.073 1554.6 216.311 1571.61 198.354" stroke="#36B7FF" stroke-width="0.4298" stroke-miterlimit="10"/>
<path d="M-14.1625 43.286C-14.8459 113.915 32.8791 166.579 107.2 249.556C112.942 255.964 118.474 262.544 124.289 268.845C143.763 289.807 165.12 309.839 190.577 321.092C264.834 354.156 342.069 318.887 412.44 293.572C469.633 272.997 528.018 246.865 592.105 220.914C613.255 212.348 634.415 203.683 655.814 195.47C702.216 177.659 754.694 161.623 799.784 176.103C845.433 190.772 869.52 229.119 894.792 262.308C924.289 300.964 960.164 338.391 1007.03 366.453C1023.36 376.218 1041.17 384.736 1059.93 391.489C1094.91 404.142 1133.31 410.834 1171.45 408.122C1217.23 404.86 1259.78 388.755 1299.01 372.122C1378.71 338.567 1448.77 300.612 1511.15 251.262C1529.77 236.537 1547.68 220.836 1564.85 203.894" stroke="#36B7FF" stroke-width="0.4298" stroke-miterlimit="10"/>
<path d="M-16.8951 47.9914C-17.5484 115.41 31.8142 162.916 108.014 246.121C113.764 252.4 119.278 258.873 125.076 265.066C144.521 285.697 165.68 305.446 190.728 316.78C263.868 350.15 339.624 318.284 410 294.379C466.454 275.201 524.378 250.079 588.427 224.747C609.418 216.443 630.406 207.989 651.621 199.964C697.622 182.562 749.404 166.775 794.134 180.09C839.413 193.582 864.105 229.646 889.936 260.828C920.087 297.142 956.34 332.334 1003.11 358.737C1019.42 367.926 1037.13 375.942 1055.76 382.29C1090.48 394.195 1128.49 400.526 1166.25 398.016C1211.57 394.999 1253.78 379.926 1292.74 364.586C1371.94 333.662 1441.52 299.433 1504.08 253.668C1522.75 240.013 1540.77 225.374 1558.12 209.446" stroke="#36B7FF" stroke-width="0.4298" stroke-miterlimit="10"/>
<path d="M-19.6244 52.7025C-20.2476 116.91 30.731 159.276 108.826 242.687C114.585 248.838 120.086 255.199 125.859 261.285C145.277 281.588 166.238 301.05 190.87 312.469C262.892 346.144 337.161 317.666 407.55 295.183C463.252 277.389 520.729 253.29 584.735 228.572C605.567 220.527 626.383 212.287 647.413 204.452C693.015 187.462 744.105 171.916 788.465 184.071C833.374 196.38 858.668 230.171 885.062 259.338C915.87 293.313 952.498 326.266 999.174 351.01C1015.45 359.619 1033.07 367.131 1051.57 373.076C1086.02 384.233 1123.65 390.203 1161.03 387.899C1205.88 385.127 1247.76 371.086 1286.46 357.035C1365.16 328.737 1434.24 298.234 1496.98 256.058C1515.71 243.474 1533.84 229.896 1551.36 214.982" stroke="#36B7FF" stroke-width="0.4298" stroke-miterlimit="10"/>
<path d="M-22.3537 57.4083C-22.9426 118.406 29.6264 155.648 109.638 239.248C115.402 245.27 120.881 251.536 126.645 257.497C145.995 277.509 166.797 296.644 191.016 308.149C261.92 342.134 334.694 317.029 405.1 295.977C460.045 279.55 517.08 256.483 581.047 232.393C601.721 224.605 622.36 216.585 643.213 208.939C688.416 192.357 738.81 177.06 782.808 188.05C827.348 199.182 853.248 230.691 880.197 257.85C911.662 289.483 948.664 320.201 995.25 343.281C1011.5 351.31 1029.03 358.32 1047.39 363.864C1081.59 374.27 1118.83 379.879 1155.81 377.781C1200.2 375.258 1241.74 362.244 1280.18 349.487C1358.38 323.82 1426.98 297.039 1489.89 258.447C1508.67 246.933 1526.91 234.417 1544.62 220.513" stroke="#36B7FF" stroke-width="0.4298" stroke-miterlimit="10"/>
<path d="M-25.0886 62.1194C-25.6473 119.906 28.4946 152.042 110.449 235.815C116.217 241.711 121.684 247.862 127.426 253.716C146.746 273.401 167.355 292.247 191.161 303.839C260.952 338.128 332.213 316.381 402.653 296.786C456.829 281.713 513.434 259.69 577.358 236.223C597.868 228.693 618.339 220.888 639.009 213.431C683.811 197.261 733.513 182.21 777.146 192.035C821.317 201.989 847.823 231.216 875.33 256.368C907.449 285.658 944.829 314.141 991.324 335.563C1007.55 343.015 1024.98 349.518 1043.21 354.663C1077.15 364.321 1114 369.568 1150.61 367.677C1194.52 365.399 1235.73 353.416 1273.91 341.954C1351.61 318.912 1419.72 295.858 1482.82 260.855C1501.65 250.411 1520 238.956 1537.88 226.067" stroke="#36B7FF" stroke-width="0.4298" stroke-miterlimit="10"/>
<path d="M-27.8178 66.8304C-28.3464 121.406 27.347 148.454 111.261 232.381C117.033 238.153 122.492 244.192 128.213 249.934C147.502 269.292 167.913 287.851 191.307 299.524C259.981 334.119 329.724 315.715 400.207 297.586C453.61 283.849 509.781 262.884 573.675 240.048C594.026 232.776 614.325 225.186 634.809 217.918C679.212 202.157 728.218 187.355 771.49 196.015C815.291 204.788 842.403 231.736 870.469 254.881C903.245 281.829 941.003 308.077 987.405 327.835C1003.6 334.708 1020.94 340.708 1039.04 345.453C1072.72 354.362 1109.18 359.249 1145.4 357.56C1188.85 355.527 1229.73 344.576 1267.64 334.402C1344.84 313.991 1412.47 294.659 1475.74 263.24C1494.63 253.867 1513.09 243.474 1531.14 231.599" stroke="#36B7FF" stroke-width="0.4298" stroke-miterlimit="10"/>
<path d="M-30.5511 71.5366C-31.0496 122.902 26.174 144.882 112.07 228.947C117.842 234.594 123.292 240.521 128.991 246.152C148.25 265.183 168.468 283.454 191.449 295.213C259.005 330.113 327.219 315.031 397.758 298.394C450.378 285.981 506.128 266.081 569.987 243.878C590.179 236.859 610.307 229.488 630.606 222.409C674.609 207.061 722.923 192.504 765.83 200C809.261 207.594 836.979 232.265 865.604 253.398C899.034 278.004 937.17 302.017 983.476 320.116C999.637 326.408 1016.88 331.905 1034.86 336.246C1068.28 344.408 1104.35 348.93 1140.19 347.447C1183.16 345.663 1223.7 335.739 1261.36 326.859C1338.06 309.074 1405.21 293.468 1468.65 265.639C1487.59 257.339 1506.16 248.008 1524.39 237.143" stroke="#36B7FF" stroke-width="0.4298" stroke-miterlimit="10"/>
<path d="M-33.2802 76.2468C-33.7444 124.402 24.9835 141.336 112.886 225.512C118.658 231.039 124.104 236.85 129.782 242.369C149.015 261.069 169.057 279.009 191.6 290.898C258.111 325.969 324.718 314.322 395.316 299.193C447.15 288.082 502.479 269.266 566.304 247.703C586.333 240.938 606.293 233.786 626.407 226.896C670.01 211.956 717.628 197.648 760.174 203.979C803.24 210.396 831.559 232.784 860.739 251.91C894.826 274.174 933.336 295.952 979.552 312.388C995.683 318.104 1012.84 323.094 1030.68 327.035C1063.84 334.445 1099.53 338.61 1134.98 337.333C1177.49 335.795 1217.7 326.902 1255.08 319.316C1331.29 304.161 1397.95 292.277 1461.57 268.032C1480.57 260.803 1499.25 252.534 1517.65 242.678" stroke="#36B7FF" stroke-width="0.4298" stroke-miterlimit="10"/>
<path d="M-36.0134 80.9528C-36.4475 125.897 23.7717 137.807 113.694 222.073C119.467 227.48 124.908 233.171 130.56 238.582C149.763 256.956 169.607 274.608 191.738 286.578C257.132 321.959 322.199 313.591 392.858 299.988C443.897 290.162 498.813 272.442 562.608 251.519C582.473 245.003 602.266 238.075 622.2 231.374C665.403 216.847 712.329 202.784 754.509 207.946C797.206 213.181 826.127 233.291 855.869 250.41C890.614 270.331 929.498 289.874 975.624 304.651C991.725 309.787 1008.79 314.274 1026.5 317.816C1059.39 324.478 1094.7 328.277 1129.76 327.207C1171.81 325.917 1211.68 318.048 1248.8 311.756C1324.51 299.227 1390.69 291.069 1454.49 270.413C1473.53 264.254 1492.32 257.046 1510.9 248.205" stroke="#36B7FF" stroke-width="0.4298" stroke-miterlimit="10"/>
<path d="M-38.7422 85.6632C-39.1462 127.401 22.5386 134.304 114.512 218.639C120.279 223.926 125.717 229.5 131.351 234.8C150.529 252.843 170.175 270.211 191.893 282.267C256.174 317.953 319.69 312.838 390.422 300.795C440.661 292.238 495.169 275.626 558.929 255.353C578.631 249.086 598.256 242.386 618.005 235.87C660.809 221.751 707.038 207.933 748.858 211.934C791.185 215.991 820.712 233.82 851.013 248.931C886.411 266.514 925.674 283.823 971.709 296.936C987.78 301.492 1004.75 305.476 1022.33 308.618C1054.97 314.532 1089.88 317.97 1124.56 317.106C1166.14 316.062 1205.68 309.224 1242.54 304.225C1317.75 294.327 1383.44 289.896 1447.41 272.82C1466.51 267.731 1485.41 261.585 1504.16 253.758" stroke="#36B7FF" stroke-width="0.4298" stroke-miterlimit="10"/>
<path d="M-41.4754 90.3743C-41.8493 128.902 21.284 130.831 115.32 215.21C121.084 220.38 126.521 225.83 132.129 231.022C151.277 248.738 170.726 265.819 192.031 277.956C255.194 313.952 317.158 312.065 387.968 301.6C437.408 294.293 491.502 278.799 555.238 259.178C574.776 253.161 594.233 246.684 613.798 240.362C656.202 226.655 701.739 213.082 743.194 215.919C785.151 218.799 815.284 234.349 846.144 247.449C882.199 262.69 921.836 277.763 967.777 289.213C983.817 293.193 1000.7 296.67 1018.15 299.408C1050.52 304.574 1085.05 307.651 1119.34 306.989C1160.45 306.19 1199.65 300.383 1236.25 296.678C1310.96 289.406 1376.16 288.701 1440.32 275.214C1459.47 271.196 1478.48 266.111 1497.41 259.299" stroke="#36B7FF" stroke-width="0.4298" stroke-miterlimit="10"/>
<path d="M-44.2058 95.0805C-44.5453 130.397 20.0063 127.38 116.131 211.771C121.89 216.826 127.328 222.155 132.915 227.235C152.037 244.621 171.287 261.417 192.176 273.641C254.226 309.946 314.63 311.257 385.521 302.403C434.157 296.33 487.844 281.97 551.553 263.008C570.928 257.24 590.214 250.986 609.598 244.853C651.602 231.555 696.447 218.231 737.532 219.903C779.119 221.601 809.859 234.873 841.277 245.966C877.991 258.864 918.005 271.703 963.852 281.493C979.862 284.893 996.65 287.867 1013.97 290.205C1046.08 294.62 1080.22 297.336 1114.13 296.885C1154.77 296.334 1193.64 291.555 1229.97 289.14C1304.18 284.498 1368.9 287.515 1433.24 277.617C1452.44 274.668 1471.56 270.645 1490.66 264.847" stroke="#36B7FF" stroke-width="0.4298" stroke-miterlimit="10"/>
<path d="M-46.9353 99.7918C-47.2447 131.898 18.7123 123.96 116.947 208.338C122.698 213.281 128.135 218.485 133.701 223.454C152.797 240.508 171.82 257.06 192.326 269.327C253.186 306.062 312.107 310.42 383.08 303.203C430.912 298.342 484.186 285.135 547.87 266.829C567.082 261.306 586.199 255.281 605.398 249.337C647.003 236.451 691.152 223.372 731.876 223.879C773.093 224.399 804.439 235.389 836.412 244.475C873.778 255.031 914.171 265.635 959.928 273.762C975.908 276.582 992.605 279.053 1009.79 280.991C1041.64 284.657 1075.39 287.013 1108.92 286.763C1149.1 286.458 1187.63 282.71 1223.7 281.589C1297.42 279.573 1361.65 286.317 1426.16 280.003C1445.42 278.125 1464.64 275.167 1483.92 270.375" stroke="#36B7FF" stroke-width="0.4298" stroke-miterlimit="10"/>
<path d="M-49.6678 104.498C-49.9471 133.393 17.394 120.564 117.757 204.899C123.503 209.726 128.94 214.806 134.484 219.667C153.555 236.39 172.38 252.658 192.469 265.011C252.211 302.055 309.576 309.551 380.627 304.002C427.655 300.332 480.516 288.289 544.178 270.654C563.227 265.376 582.177 259.578 601.196 253.823C642.401 241.346 685.858 228.516 726.216 227.859C767.064 227.201 799.016 235.909 831.547 242.988C869.572 251.201 910.338 259.57 956.004 266.038C971.959 268.282 988.557 270.25 1005.61 271.784C1037.2 274.703 1070.57 276.697 1103.71 276.65C1143.41 276.59 1181.62 273.873 1217.42 274.045C1290.64 274.66 1354.39 285.125 1419.08 282.401C1438.39 281.593 1457.72 279.697 1477.18 275.919" stroke="#36B7FF" stroke-width="0.4298" stroke-miterlimit="10"/>
<path d="M-52.3976 109.208C-52.6469 134.893 16.0609 117.207 118.568 201.469C124.306 206.184 129.747 211.139 135.266 215.889C154.31 232.281 172.934 248.265 192.614 260.7C251.239 298.049 307.053 308.652 378.181 304.81C424.41 302.313 476.854 291.452 540.495 274.483C559.38 269.45 578.162 263.884 596.996 258.314C637.801 246.25 680.562 233.665 720.559 231.843C761.038 230.003 793.591 236.437 826.686 241.505C865.368 247.376 906.508 253.509 952.08 258.314C968.004 259.978 984.512 261.443 1001.43 262.574C1032.77 264.744 1065.74 266.373 1098.5 266.536C1137.74 266.725 1175.6 265.036 1211.15 266.502C1283.86 269.743 1347.13 283.935 1411.99 284.794C1431.36 285.056 1450.8 284.223 1470.43 281.459" stroke="#36B7FF" stroke-width="0.4298" stroke-miterlimit="10"/>
<path d="M-55.1317 113.919C-55.3509 136.393 14.6978 113.88 119.38 198.035C125.109 202.642 130.563 207.456 136.052 212.106C155.101 228.134 173.496 243.869 192.76 256.384C250.271 294.039 304.529 307.715 375.734 305.609C421.164 304.268 473.191 294.594 536.806 278.309C555.524 273.516 574.143 268.182 592.792 262.801C633.197 251.145 675.266 238.81 714.898 235.823C755.007 232.806 788.166 236.957 821.82 240.018C861.155 243.551 902.674 247.445 948.155 250.591C964.049 251.674 980.467 252.637 997.255 253.367C1028.33 254.786 1060.92 256.058 1093.29 256.423C1132.06 256.857 1169.59 256.2 1204.87 258.955C1277.09 264.826 1339.87 282.74 1404.91 287.188C1424.33 288.521 1443.88 288.748 1463.69 286.999" stroke="#36B7FF" stroke-width="0.4298" stroke-miterlimit="10"/>
<path d="M-57.8595 118.625C-58.0443 137.889 13.324 110.584 120.194 194.597C125.914 199.092 131.368 203.777 136.836 208.324C155.854 224.021 174.052 239.468 192.903 252.074C249.297 290.034 302.016 306.744 373.286 306.418C417.925 306.211 469.527 297.744 533.12 282.138C551.674 277.587 570.126 272.485 588.59 267.297C628.596 256.054 669.968 243.959 709.239 239.812C748.979 235.617 782.744 237.486 816.956 238.539C856.949 239.73 898.841 241.389 944.232 242.876C960.096 243.383 976.42 243.839 993.079 244.17C1023.89 244.84 1056.1 245.747 1088.08 246.323C1126.38 247.002 1163.58 247.376 1198.6 251.425C1270.32 259.922 1332.61 281.562 1397.83 289.595C1417.3 291.998 1436.97 293.287 1456.95 292.548" stroke="#36B7FF" stroke-width="0.4298" stroke-miterlimit="10"/>
<path d="M-60.5944 123.336C-60.7491 139.389 11.9257 107.326 121 191.163C126.712 195.551 132.171 200.107 137.617 204.543C156.609 219.913 174.609 235.072 193.048 247.759C248.324 286.024 299.514 305.735 370.839 307.218C414.696 308.129 465.864 300.878 529.431 285.964C547.822 281.649 566.106 276.784 584.39 271.785C623.996 260.95 664.676 249.105 703.582 243.788C742.951 238.415 777.322 238.003 812.089 237.049C852.735 235.897 895.006 235.321 940.307 235.145C956.141 235.072 972.374 235.024 988.9 234.956C1019.45 234.878 1051.27 235.424 1082.87 236.202C1120.7 237.13 1157.57 238.531 1192.32 243.874C1263.54 255.001 1325.34 280.368 1390.74 291.986C1410.27 295.459 1430.04 297.809 1450.2 298.085" stroke="#36B7FF" stroke-width="0.4298" stroke-miterlimit="10"/>
<path d="M-63.3237 128.042C-63.4483 140.885 10.5073 104.102 121.817 187.724C127.516 192.005 132.983 196.432 138.403 200.756C157.366 215.794 175.168 230.67 193.194 243.443C247.353 282.018 297.025 304.686 368.389 308.017C411.472 310.028 462.193 304.007 525.743 289.785C543.967 285.706 562.087 281.077 580.186 276.267C619.393 265.845 659.377 254.244 697.921 247.763C736.921 241.208 771.899 238.522 807.224 235.557C848.528 232.062 891.177 229.251 936.383 227.416C952.187 226.763 968.326 226.213 984.727 225.744C1015.02 224.919 1046.45 225.104 1077.66 226.088C1115.03 227.261 1151.56 229.694 1186.05 236.326C1256.77 250.08 1318.09 279.173 1383.66 294.379C1403.24 298.922 1423.13 302.335 1443.46 303.624" stroke="#36B7FF" stroke-width="0.4298" stroke-miterlimit="10"/>
<path d="M-66.0581 132.753C-66.1527 142.384 9.07096 100.922 122.624 184.294C128.315 188.472 133.782 192.761 139.184 196.978C158.121 211.69 175.726 226.277 193.335 239.132C246.381 278.012 294.548 303.602 365.938 308.824C408.256 311.919 458.522 307.135 522.055 293.618C540.115 289.776 558.063 285.387 575.982 280.763C614.788 270.749 654.081 259.397 692.255 251.751C730.886 244.019 766.469 239.051 802.353 234.078C844.314 228.241 887.337 223.195 932.449 219.697C948.223 218.468 964.272 217.41 980.54 216.538C1010.57 214.96 1041.61 214.784 1072.44 215.975C1109.34 217.397 1145.54 220.857 1179.76 228.783C1249.99 245.162 1310.82 277.982 1376.58 296.773C1396.21 302.386 1416.21 306.865 1436.71 309.164" stroke="#36B7FF" stroke-width="0.4298" stroke-miterlimit="10"/>
<path d="M-68.7867 137.464C-68.8469 143.885 7.61876 97.7801 123.437 180.861C129.115 184.935 134.59 189.091 139.967 193.196C158.874 207.577 176.281 221.876 193.482 234.822C245.41 274.007 292.095 302.481 363.493 309.629C405.059 313.789 454.86 310.252 518.368 297.444C536.26 293.833 554.045 289.686 571.779 285.25C610.186 275.649 648.782 264.543 686.596 255.732C724.856 246.822 761.046 239.571 797.488 232.591C840.103 224.412 883.504 217.131 928.526 211.974C944.27 210.164 960.224 208.604 976.363 207.332C1006.13 205.007 1036.79 204.469 1067.23 205.862C1103.66 207.53 1139.52 212.021 1173.49 221.24C1243.21 240.25 1303.56 276.792 1369.49 299.172C1389.18 305.855 1409.28 311.395 1429.96 314.705" stroke="#36B7FF" stroke-width="0.4298" stroke-miterlimit="10"/>
<path d="M-71.514 142.17C-71.544 145.381 6.14654 94.6771 124.256 177.422C129.925 181.394 135.401 185.412 140.76 189.409C159.637 203.464 176.85 217.475 193.634 230.502C244.445 269.993 289.673 301.312 361.054 310.428C401.885 315.642 451.187 313.282 514.69 301.269C532.415 297.869 550.037 293.984 567.586 289.738C605.593 280.544 643.497 269.687 680.946 259.712C718.837 249.62 755.628 240.091 792.634 231.104C835.906 220.583 879.681 211.067 924.612 204.246C940.326 201.856 956.19 199.793 972.196 198.121C1001.7 195.048 1031.97 194.15 1062.03 195.749C1097.99 197.661 1133.52 203.18 1167.22 213.693C1236.45 235.329 1296.31 275.597 1362.42 301.561C1382.16 309.315 1402.37 315.917 1423.22 320.24" stroke="#36B7FF" stroke-width="0.4298" stroke-miterlimit="10"/>
<path d="M-74.2485 146.88C-74.2485 146.88 4.64991 91.6167 125.063 173.988C245.476 256.359 286.925 345.233 510.997 305.094C665.837 277.355 811.909 209.317 968.008 188.915C1032.23 180.521 1099.54 184.475 1160.94 206.15C1229.67 230.416 1289.04 274.406 1355.33 303.959C1375.13 312.783 1395.44 320.447 1416.47 325.785" stroke="#36B7FF" stroke-width="0.4298" stroke-miterlimit="10"/>
</g>
</svg>
