<svg width="532" height="434" viewBox="0 0 532 434" fill="none" xmlns="http://www.w3.org/2000/svg">
<g opacity="0.3">
<path d="M186.698 425.534C251.308 430.21 311.895 320.269 322.023 179.974C332.15 39.6792 287.982 -77.8427 223.371 -82.5185C158.76 -87.1943 98.1732 22.7465 88.0461 163.041C77.919 303.336 122.087 420.858 186.698 425.534Z" stroke="#36B7FF" stroke-width="0.8" stroke-miterlimit="10"/>
<path opacity="0.5" d="M200.09 416.194C263.149 418.028 317.497 308.284 321.478 171.072C325.46 33.8603 277.568 -78.8589 214.509 -80.6934C151.45 -82.528 97.1024 27.2169 93.1208 164.428C89.1392 301.64 137.031 414.359 200.09 416.194Z" stroke="#36B7FF" stroke-width="0.8" stroke-miterlimit="10"/>
<path opacity="0.5" d="M97.819 165.858C99.9846 299.906 151.807 407.762 213.567 406.762C275.327 405.762 323.638 296.283 321.472 162.236C319.306 28.1881 267.484 -79.6681 205.724 -78.6678C143.964 -77.6674 95.6534 31.8106 97.819 165.858Z" stroke="#36B7FF" stroke-width="0.8" stroke-miterlimit="10"/>
<path opacity="0.5" d="M102.799 167.23C111.113 298.2 166.757 401.26 227.084 397.421C287.411 393.582 329.577 284.298 321.263 153.327C312.95 22.357 257.306 -80.7033 196.979 -76.8642C136.652 -73.0252 94.4862 36.2594 102.799 167.23Z" stroke="#36B7FF" stroke-width="0.8" stroke-miterlimit="10"/>
<path opacity="0.5" d="M107.699 168.587C122.169 296.545 181.526 394.875 240.277 388.215C299.029 381.554 334.926 272.425 320.457 144.467C305.988 16.5098 246.63 -81.8207 187.879 -75.1601C129.127 -68.4994 93.2298 40.6301 107.699 168.587Z" stroke="#36B7FF" stroke-width="0.8" stroke-miterlimit="10"/>
<path opacity="0.5" d="M112.548 170.346C133.17 295.17 196.426 388.651 253.834 379.143C311.243 369.634 341.065 260.736 320.443 135.913C299.822 11.089 236.566 -82.3924 179.157 -72.8839C121.748 -63.3754 91.9266 45.5223 112.548 170.346Z" stroke="#36B7FF" stroke-width="0.8" stroke-miterlimit="10"/>
<path opacity="0.5" d="M117.645 171.689C144.419 293.406 211.446 382.082 267.353 369.753C323.26 357.423 346.877 248.757 320.102 127.04C293.328 5.32301 226.301 -83.3531 170.394 -71.0235C114.487 -58.694 90.8701 49.9723 117.645 171.689Z" stroke="#36B7FF" stroke-width="0.8" stroke-miterlimit="10"/>
<path opacity="0.5" d="M122.676 173.021C155.606 291.652 226.427 375.541 280.859 360.393C335.29 345.244 352.72 236.795 319.789 118.164C286.859 -0.467301 216.038 -84.3566 161.606 -69.2082C107.175 -54.0599 89.7448 54.3897 122.676 173.021Z" stroke="#36B7FF" stroke-width="0.8" stroke-miterlimit="10"/>
<path opacity="0.5" d="M127.38 174.458C166.418 289.82 241.149 368.722 294.297 350.691C347.445 332.66 358.885 224.524 319.847 109.162C280.81 -6.19962 206.079 -85.1018 152.931 -67.0708C99.7822 -49.0398 88.343 59.0963 127.38 174.458Z" stroke="#36B7FF" stroke-width="0.8" stroke-miterlimit="10"/>
<path opacity="0.5" d="M132.036 175.932C177.227 288.207 255.772 362.311 307.471 341.449C359.17 320.587 364.446 212.658 319.255 100.383C274.064 -11.892 195.519 -85.9964 143.82 -65.134C92.1211 -44.2716 86.8452 63.6574 132.036 175.932Z" stroke="#36B7FF" stroke-width="0.8" stroke-miterlimit="10"/>
<path opacity="0.5" d="M137.14 177.598C188.481 286.772 270.843 356.065 321.101 332.37C371.359 308.674 370.481 200.963 319.139 91.7891C267.798 -17.3845 185.436 -86.6783 135.178 -62.9828C84.92 -39.2874 85.7983 68.4243 137.14 177.598Z" stroke="#36B7FF" stroke-width="0.8" stroke-miterlimit="10"/>
<path opacity="0.5" d="M142.09 178.963C199.578 285.023 285.761 349.493 334.586 322.961C383.41 296.429 376.387 188.941 318.899 82.8809C261.412 -23.1794 175.228 -87.6496 126.404 -61.1174C77.5792 -34.5851 84.6021 72.9023 142.09 178.963Z" stroke="#36B7FF" stroke-width="0.8" stroke-miterlimit="10"/>
<path opacity="0.5" d="M147.032 180.332C210.66 283.262 300.662 342.891 348.058 313.517C395.454 284.143 382.296 176.891 318.668 73.9609C255.04 -28.9687 165.038 -88.5976 117.642 -59.2239C70.246 -29.8502 83.4044 77.4028 147.032 180.332Z" stroke="#36B7FF" stroke-width="0.8" stroke-miterlimit="10"/>
<path opacity="0.5" d="M151.928 181.702C221.682 281.497 315.5 336.279 361.477 304.06C407.453 271.841 388.178 164.823 318.424 65.0283C248.671 -34.7667 154.853 -89.5481 108.876 -57.3295C62.8995 -25.1108 82.1747 81.9073 151.928 181.702Z" stroke="#36B7FF" stroke-width="0.8" stroke-miterlimit="10"/>
<path opacity="0.5" d="M156.823 183.087C232.817 279.888 330.428 330.022 374.843 295.064C419.258 260.106 393.659 153.295 317.665 56.4938C241.671 -40.3071 144.06 -90.441 99.6446 -55.4832C55.2294 -20.5255 80.829 86.2859 156.823 183.087Z" stroke="#36B7FF" stroke-width="0.8" stroke-miterlimit="10"/>
<path opacity="0.5" d="M161.884 184.728C243.999 278.39 345.443 323.664 388.464 285.85C431.484 248.036 399.792 141.453 317.677 47.7913C235.561 -45.8707 134.118 -91.1445 91.0969 -53.3304C48.0759 -15.5164 79.7684 91.0661 161.884 184.728Z" stroke="#36B7FF" stroke-width="0.8" stroke-miterlimit="10"/>
<path opacity="0.5" d="M166.728 186.168C254.988 276.705 360.293 317.109 401.932 276.412C443.572 235.716 405.778 129.33 317.518 38.793C229.257 -51.744 123.952 -92.1476 82.3129 -51.451C40.6733 -10.7544 78.467 95.6315 166.728 186.168Z" stroke="#36B7FF" stroke-width="0.8" stroke-miterlimit="10"/>
<path opacity="0.5" d="M171.746 187.417C266.176 274.859 375.275 310.507 415.424 267.039C455.573 223.57 411.569 117.445 317.139 30.0024C222.708 -57.4403 113.61 -93.0883 73.4607 -49.6195C33.3115 -6.15074 77.3152 99.974 171.746 187.417Z" stroke="#36B7FF" stroke-width="0.8" stroke-miterlimit="10"/>
<path opacity="0.3" d="M176.485 188.931C276.973 273.182 389.894 303.863 428.701 257.458C467.509 211.053 417.507 105.135 317.02 20.8838C216.532 -63.3677 103.611 -94.0484 64.8038 -47.6435C25.9962 -1.23863 75.9976 104.679 176.485 188.931Z" stroke="#36B7FF" stroke-width="0.8" stroke-miterlimit="10"/>
<path opacity="0.3" d="M181.173 190.567C287.926 271.802 404.764 297.737 442.139 248.496C479.514 199.255 423.271 93.4831 316.519 12.2486C209.766 -68.9858 92.9274 -94.9214 55.5526 -45.6802C18.1779 3.56111 74.4199 109.333 181.173 190.567Z" stroke="#36B7FF" stroke-width="0.8" stroke-miterlimit="10"/>
<path opacity="0.3" d="M186.217 191.72C299.001 269.756 419.504 290.89 455.368 238.924C491.231 186.958 428.874 81.5704 316.09 3.53444C203.305 -74.5015 82.8019 -95.6354 46.9384 -43.6694C11.0749 8.29665 73.4319 113.684 186.217 191.72Z" stroke="#36B7FF" stroke-width="0.8" stroke-miterlimit="10"/>
<path opacity="0.3" d="M191.292 193.43C310.195 268.331 434.548 284.547 469.043 229.647C503.538 174.748 435.112 69.5232 316.209 -5.37848C197.307 -80.2802 72.9533 -96.4953 38.4584 -41.5959C3.96344 13.3035 72.3894 118.528 191.292 193.43Z" stroke="#36B7FF" stroke-width="0.8" stroke-miterlimit="10"/>
</g>
</svg>
