<svg width="251" height="160" viewBox="0 0 251 160" fill="none" xmlns="http://www.w3.org/2000/svg">
<rect opacity="0.55" width="251" height="160" fill="url(#paint0_linear_208_3445)"/>
<rect x="32" y="63" width="60" height="67" fill="white"/>
<ellipse cx="62" cy="63" rx="30" ry="6" fill="#E6F6FF"/>
<ellipse cx="62" cy="63" rx="28" ry="5" fill="#D1E7F3"/>
<ellipse cx="62" cy="130" rx="30" ry="6" fill="white"/>
<rect x="160" y="63" width="60" height="67" fill="white"/>
<ellipse cx="190" cy="63" rx="30" ry="6" fill="#E6F6FF"/>
<ellipse cx="190" cy="63" rx="28" ry="5" fill="#D1E7F3"/>
<ellipse cx="190" cy="130" rx="30" ry="6" fill="white"/>
<rect x="108" y="89" width="30" height="4" fill="#36B7FF"/>
<path d="M144 91L138 97.0622L138 84.9378L144 91Z" fill="#36B7FF"/>
<rect width="30" height="4" transform="matrix(-1 0 0 1 144 104)" fill="#36B7FF"/>
<path d="M108 106L114 112.062L114 99.9378L108 106Z" fill="#36B7FF"/>
<rect x="63.1411" y="44" width="13" height="16" transform="rotate(15 63.1411 44)" fill="white"/>
<rect x="64.5553" y="46.4495" width="7" height="2" transform="rotate(15 64.5553 46.4495)" fill="#EAE9FF"/>
<rect x="63.52" y="50.3132" width="9" height="1" transform="rotate(15 63.52 50.3132)" fill="#EAE9FF"/>
<rect x="63.0024" y="52.2451" width="5" height="1" transform="rotate(15 63.0024 52.2451)" fill="#EAE9FF"/>
<rect x="61.7084" y="57.0747" width="5" height="1" transform="rotate(15 61.7084 57.0747)" fill="#EAE9FF"/>
<rect x="92" y="29" width="13" height="16" transform="rotate(30 92 29)" fill="white"/>
<rect x="92.7321" y="31.7319" width="7" height="2" transform="rotate(30 92.7321 31.7319)" fill="#EAE9FF"/>
<rect x="90.7321" y="35.196" width="9" height="1" transform="rotate(30 90.7321 35.196)" fill="#EAE9FF"/>
<rect x="89.7321" y="36.9282" width="5" height="1" transform="rotate(30 89.7321 36.9282)" fill="#EAE9FF"/>
<rect x="87.2321" y="41.2583" width="5" height="1" transform="rotate(30 87.2321 41.2583)" fill="#EAE9FF"/>
<rect x="121.314" y="24" width="13" height="16" transform="rotate(45 121.314 24)" fill="white"/>
<rect x="121.314" y="26.8284" width="7" height="2" transform="rotate(45 121.314 26.8284)" fill="#EAE9FF"/>
<rect x="118.485" y="29.6567" width="9" height="1" transform="rotate(45 118.485 29.6567)" fill="#EAE9FF"/>
<rect x="117.071" y="31.071" width="5" height="1" transform="rotate(45 117.071 31.071)" fill="#EAE9FF"/>
<rect x="113.536" y="34.6067" width="5" height="1" transform="rotate(45 113.536 34.6067)" fill="#EAE9FF"/>
<rect x="137" y="29.3647" width="13" height="16" transform="rotate(-15 137 29.3647)" fill="white"/>
<rect x="139.449" y="30.7791" width="7" height="2" transform="rotate(-15 139.449 30.7791)" fill="#EAE9FF"/>
<rect x="140.485" y="34.6426" width="9" height="1" transform="rotate(-15 140.485 34.6426)" fill="#EAE9FF"/>
<rect x="141.002" y="36.5745" width="5" height="1" transform="rotate(-15 141.002 36.5745)" fill="#EAE9FF"/>
<rect x="142.297" y="41.4041" width="5" height="1" transform="rotate(-15 142.297 41.4041)" fill="#EAE9FF"/>
<rect x="159" y="37.5" width="13" height="16" transform="rotate(-30 159 37.5)" fill="white"/>
<rect x="161.732" y="38.2319" width="7" height="2" transform="rotate(-30 161.732 38.2319)" fill="#EAE9FF"/>
<rect x="163.732" y="41.696" width="9" height="1" transform="rotate(-30 163.732 41.696)" fill="#EAE9FF"/>
<rect x="164.732" y="43.4282" width="5" height="1" transform="rotate(-30 164.732 43.4282)" fill="#EAE9FF"/>
<rect x="167.232" y="47.7583" width="5" height="1" transform="rotate(-30 167.232 47.7583)" fill="#EAE9FF"/>
<rect x="180" y="50.3647" width="13" height="16" transform="rotate(-15 180 50.3647)" fill="white"/>
<rect x="182.449" y="51.7791" width="7" height="2" transform="rotate(-15 182.449 51.7791)" fill="#EAE9FF"/>
<rect x="183.485" y="55.6426" width="9" height="1" transform="rotate(-15 183.485 55.6426)" fill="#EAE9FF"/>
<rect x="184.002" y="57.5745" width="5" height="1" transform="rotate(-15 184.002 57.5745)" fill="#EAE9FF"/>
<rect x="185.297" y="62.4041" width="5" height="1" transform="rotate(-15 185.297 62.4041)" fill="#EAE9FF"/>
<defs>
<linearGradient id="paint0_linear_208_3445" x1="125.5" y1="0" x2="125.5" y2="160" gradientUnits="userSpaceOnUse">
<stop stop-color="#36B7FF"/>
<stop offset="1" stop-color="#36B7FF" stop-opacity="0"/>
</linearGradient>
</defs>
</svg>
