<svg width="251" height="160" viewBox="0 0 251 160" fill="none" xmlns="http://www.w3.org/2000/svg">
<rect opacity="0.5" width="251" height="160" fill="url(#paint0_linear_201_20434)"/>
<rect x="58" y="8" width="135" height="143" fill="white"/>
<rect x="60" y="10" width="131" height="20" fill="#F0F2DA"/>
<path d="M72 15C69.2394 15 67 17.2391 67 20C67 22.7609 69.2394 25 72 25C74.7606 25 77 22.7609 77 20C77 17.2391 74.7606 15 72 15ZM73.6722 16.9626C74.0684 16.9626 74.3895 17.289 74.3895 17.6923C74.3895 18.0956 74.0684 18.422 73.6722 18.422C73.2761 18.422 72.955 18.0956 72.955 17.6923C72.955 17.289 73.2761 16.9626 73.6722 16.9626ZM74.3999 20.8669C74.3999 22.237 73.3032 23.0416 72.0042 23.0416C70.6885 23.0416 69.6001 22.237 69.6001 20.8669V17.6466C69.6001 17.2703 69.8962 16.9605 70.2756 16.9605C70.6635 16.9605 70.9846 17.2682 70.9846 17.6466V20.8586C70.9846 21.6299 71.4996 21.8773 72.0063 21.8773C72.5129 21.8773 73.0175 21.6279 73.0175 20.8586V19.6923C73.0175 19.316 73.3386 19.0062 73.7264 19.0062C74.1059 19.0062 74.402 19.3139 74.402 19.6923V20.8669H74.3999Z" fill="#001345"/>
<rect x="164" y="17" width="19" height="6" fill="#CDD940"/>
<rect x="81" y="17" width="19" height="6" fill="white"/>
<rect x="103" y="17" width="19" height="6" fill="white"/>
<rect x="125" y="17" width="19" height="6" fill="white"/>
<rect x="60" y="32" width="131" height="43" fill="#AAB4CF"/>
<line y1="-0.25" x2="137.561" y2="-0.25" transform="matrix(0.952306 0.305146 -0.66266 0.748921 60 33.0239)" stroke="white" stroke-width="0.5"/>
<line y1="-0.25" x2="137.561" y2="-0.25" transform="matrix(-0.952306 0.305146 0.66266 0.748921 191 33.0239)" stroke="white" stroke-width="0.5"/>
<rect x="64" y="85" width="36" height="22" fill="#E5F6FF"/>
<line y1="-0.25" x2="41.9193" y2="-0.25" transform="matrix(0.858793 0.512322 -0.429249 0.903186 64 85.5239)" stroke="#36B7FF" stroke-width="0.5"/>
<line y1="-0.25" x2="41.9193" y2="-0.25" transform="matrix(-0.858793 0.512322 0.429249 0.903186 100 85.5239)" stroke="#36B7FF" stroke-width="0.5"/>
<rect x="107" y="85" width="36" height="22" fill="#FFE9F2"/>
<line y1="-0.25" x2="41.9193" y2="-0.25" transform="matrix(0.858793 0.512322 -0.429249 0.903186 107 85.5239)" stroke="#FF368B" stroke-width="0.5"/>
<line y1="-0.25" x2="41.9193" y2="-0.25" transform="matrix(-0.858793 0.512322 0.429249 0.903186 143 85.5239)" stroke="#FF368B" stroke-width="0.5"/>
<rect x="150" y="85" width="36" height="22" fill="#DFF2E4"/>
<line y1="-0.25" x2="41.9193" y2="-0.25" transform="matrix(0.858793 0.512322 -0.429249 0.903186 150 85.5239)" stroke="#3DCC65" stroke-width="0.5"/>
<line y1="-0.25" x2="41.9193" y2="-0.25" transform="matrix(-0.858793 0.512322 0.429249 0.903186 186 85.5239)" stroke="#3DCC65" stroke-width="0.5"/>
<rect x="64" y="110" width="20" height="1" fill="#CCCAE9"/>
<rect x="64" y="113" width="14" height="1" fill="#CCCAE9"/>
<rect x="64" y="116" width="10" height="1" fill="#CCCAE9"/>
<rect x="107" y="110" width="20" height="1" fill="#CCCAE9"/>
<rect x="107" y="113" width="14" height="1" fill="#CCCAE9"/>
<rect x="107" y="116" width="10" height="1" fill="#CCCAE9"/>
<rect x="150" y="110" width="20" height="1" fill="#CCCAE9"/>
<rect x="150" y="113" width="14" height="1" fill="#CCCAE9"/>
<rect x="150" y="116" width="10" height="1" fill="#CCCAE9"/>
<circle cx="70" cy="132" r="6" fill="#EAE9FF"/>
<mask id="mask0_201_20434" style="mask-type:alpha" maskUnits="userSpaceOnUse" x="64" y="126" width="12" height="12">
<circle cx="70" cy="132" r="6" fill="#EAE9FF"/>
</mask>
<g mask="url(#mask0_201_20434)">
<line y1="-0.25" x2="16.1443" y2="-0.25" transform="matrix(0.743292 0.668967 -0.300466 0.953793 64 127.2)" stroke="#CCCAE9" stroke-width="0.5"/>
<line y1="-0.25" x2="16.1443" y2="-0.25" transform="matrix(-0.743292 0.668967 0.300466 0.953793 76 127.2)" stroke="#CCCAE9" stroke-width="0.5"/>
</g>
<rect x="64" y="141" width="20" height="1" fill="#CCCAE9"/>
<rect x="64" y="144" width="14" height="1" fill="#CCCAE9"/>
<rect x="64" y="150" width="16" height="1" fill="#CCCAE9"/>
<rect x="64" y="147" width="10" height="1" fill="#CCCAE9"/>
<circle cx="99" cy="132" r="6" fill="#EAE9FF"/>
<mask id="mask1_201_20434" style="mask-type:alpha" maskUnits="userSpaceOnUse" x="93" y="126" width="12" height="12">
<circle cx="99" cy="132" r="6" fill="#EAE9FF"/>
</mask>
<g mask="url(#mask1_201_20434)">
<line y1="-0.25" x2="16.1443" y2="-0.25" transform="matrix(0.743292 0.668967 -0.300466 0.953793 93 127.2)" stroke="#CCCAE9" stroke-width="0.5"/>
<line y1="-0.25" x2="16.1443" y2="-0.25" transform="matrix(-0.743292 0.668967 0.300466 0.953793 105 127.2)" stroke="#CCCAE9" stroke-width="0.5"/>
</g>
<rect x="93" y="141" width="20" height="1" fill="#CCCAE9"/>
<rect x="93" y="144" width="14" height="1" fill="#CCCAE9"/>
<rect x="93" y="150" width="16" height="1" fill="#CCCAE9"/>
<rect x="93" y="147" width="10" height="1" fill="#CCCAE9"/>
<circle cx="128" cy="132" r="6" fill="#EAE9FF"/>
<mask id="mask2_201_20434" style="mask-type:alpha" maskUnits="userSpaceOnUse" x="122" y="126" width="12" height="12">
<circle cx="128" cy="132" r="6" fill="#EAE9FF"/>
</mask>
<g mask="url(#mask2_201_20434)">
<line y1="-0.25" x2="16.1443" y2="-0.25" transform="matrix(0.743292 0.668967 -0.300466 0.953793 122 127.2)" stroke="#CCCAE9" stroke-width="0.5"/>
<line y1="-0.25" x2="16.1443" y2="-0.25" transform="matrix(-0.743292 0.668967 0.300466 0.953793 134 127.2)" stroke="#CCCAE9" stroke-width="0.5"/>
</g>
<rect x="122" y="141" width="20" height="1" fill="#CCCAE9"/>
<rect x="122" y="144" width="14" height="1" fill="#CCCAE9"/>
<rect x="122" y="150" width="16" height="1" fill="#CCCAE9"/>
<rect x="122" y="147" width="10" height="1" fill="#CCCAE9"/>
<rect x="150" y="126" width="36" height="1" fill="#CCCAE9"/>
<rect x="150" y="129" width="25.2" height="1" fill="#CCCAE9"/>
<rect x="150" y="135" width="28.8" height="1" fill="#CCCAE9"/>
<rect x="150" y="132" width="18" height="1" fill="#CCCAE9"/>
<rect x="150" y="141" width="36" height="1" fill="#CCCAE9"/>
<rect x="150" y="144" width="25.2" height="1" fill="#CCCAE9"/>
<rect x="150" y="150" width="28.8" height="1" fill="#CCCAE9"/>
<rect x="150" y="147" width="18" height="1" fill="#CCCAE9"/>
<defs>
<linearGradient id="paint0_linear_201_20434" x1="125.5" y1="0" x2="125.5" y2="160" gradientUnits="userSpaceOnUse">
<stop stop-color="#CDD940"/>
<stop offset="1" stop-color="#CDD940" stop-opacity="0"/>
</linearGradient>
</defs>
</svg>
