<svg width="16" height="15" viewBox="0 0 16 15" fill="none" xmlns="http://www.w3.org/2000/svg">
<path d="M8 0C3.85905 0 0.5 3.35863 0.5 7.5C0.5 11.6414 3.85905 15 8 15C12.141 15 15.5 11.6414 15.5 7.5C15.5 3.35863 12.141 0 8 0ZM10.5083 2.94387C11.1026 2.94387 11.5842 3.43347 11.5842 4.03846C11.5842 4.64345 11.1026 5.13306 10.5083 5.13306C9.9141 5.13306 9.43244 4.64345 9.43244 4.03846C9.43244 3.43347 9.9141 2.94387 10.5083 2.94387ZM11.5999 8.80042C11.5999 10.8555 9.95475 12.0624 8.00626 12.0624C6.03274 12.0624 4.40013 10.8555 4.40013 8.80042V3.96986C4.40013 3.40541 4.84425 2.94075 5.41347 2.94075C5.9952 2.94075 6.47686 3.40229 6.47686 3.96986V8.78794C6.47686 9.94491 7.24937 10.316 8.00938 10.316C8.76939 10.316 9.52627 9.94179 9.52627 8.78794V7.03846C9.52627 6.47401 10.0079 6.00936 10.5897 6.00936C11.1589 6.00936 11.603 6.47089 11.603 7.03846V8.80042H11.5999Z" fill="#5648FF"/>
</svg>
