<svg width="346" height="220" viewBox="0 0 346 220" fill="none" xmlns="http://www.w3.org/2000/svg">
<rect opacity="0.35" width="346" height="220" fill="url(#paint0_linear_221_4991)"/>
<path d="M37 27H313L303 182L37 192V27Z" fill="white"/>
<rect x="37" y="27" width="47" height="165" fill="#23282C"/>
<g clip-path="url(#clip0_221_4991)">
<path d="M43.9204 38.2679C43.9204 40.3963 45.1981 42.2356 47.0508 43.1072L44.4013 36.0795C44.0931 36.7483 43.9204 37.4883 43.9204 38.2679ZM53.2246 37.9965C53.2246 37.332 52.978 36.8718 52.7665 36.5136C52.4849 36.0706 52.221 35.6956 52.221 35.2526C52.221 34.7583 52.6083 34.2982 53.1537 34.2982C53.1784 34.2982 53.2017 34.3012 53.2257 34.3025C52.2375 33.4261 50.9209 32.891 49.4748 32.891C47.5344 32.891 45.8271 33.8548 44.834 35.3146C44.9643 35.3184 45.0871 35.3211 45.1914 35.3211C45.7724 35.3211 46.6717 35.2528 46.6717 35.2528C46.9711 35.2357 47.0064 35.6615 46.7073 35.6958C46.7073 35.6958 46.4064 35.73 46.0716 35.747L48.0943 41.5714L49.3099 38.0422L48.4445 35.7468C48.1454 35.7298 47.862 35.6956 47.862 35.6956C47.5627 35.6786 47.5978 35.2355 47.8971 35.2526C47.8971 35.2526 48.8144 35.3209 49.3602 35.3209C49.941 35.3209 50.8405 35.2526 50.8405 35.2526C51.1401 35.2355 51.1753 35.6613 50.8761 35.6956C50.8761 35.6956 50.5746 35.7298 50.2404 35.7468L52.2477 41.5271L52.8017 39.7348C53.0418 38.9911 53.2246 38.4569 53.2246 37.9965ZM49.5723 38.7382L47.9058 43.4262C48.4033 43.5679 48.9296 43.6453 49.4748 43.6453C50.1217 43.6453 50.742 43.5371 51.3194 43.3405C51.3045 43.3175 51.2909 43.293 51.2798 43.2664L49.5723 38.7382ZM54.3487 35.6881C54.3726 35.8594 54.3861 36.0432 54.3861 36.241C54.3861 36.7867 54.2808 37.4 53.9638 38.167L52.2671 42.9158C53.9184 41.9836 55.0291 40.2517 55.0291 38.268C55.0292 37.3331 54.7825 36.454 54.3487 35.6881ZM49.4748 32C45.9047 32 43 34.8117 43 38.2679C43 41.7244 45.9047 44.5361 49.4748 44.5361C53.0449 44.5361 55.95 41.7244 55.95 38.2679C55.9499 34.8117 53.0449 32 49.4748 32ZM49.4748 44.2488C46.0684 44.2488 43.2969 41.5657 43.2969 38.2679C43.2969 34.9702 46.0683 32.2874 49.4748 32.2874C52.8812 32.2874 55.6525 34.9702 55.6525 38.2679C55.6525 41.5657 52.8812 44.2488 49.4748 44.2488Z" fill="white"/>
</g>
<rect x="37" y="51" width="47" height="11" fill="#0085BA"/>
<path d="M84 60V53L81 56.5L84 60Z" fill="white"/>
<circle cx="44" cy="72" r="3" fill="#485056"/>
<rect x="49" y="70" width="28" height="4" fill="#485056"/>
<circle cx="44" cy="83" r="3" fill="#485056"/>
<rect x="49" y="81" width="17" height="4" fill="#485056"/>
<circle cx="44" cy="94" r="3" fill="#485056"/>
<rect x="49" y="92" width="11" height="4" fill="#485056"/>
<circle cx="44" cy="105" r="3" fill="#485056"/>
<rect x="49" y="103" width="21" height="4" fill="#485056"/>
<circle cx="44" cy="116" r="3" fill="#485056"/>
<rect x="49" y="114" width="16" height="4" fill="#485056"/>
<circle cx="44" cy="127" r="3" fill="#485056"/>
<rect x="49" y="125" width="11" height="4" fill="#485056"/>
<circle cx="44" cy="138" r="3" fill="#485056"/>
<rect x="49" y="136" width="18" height="4" fill="#485056"/>
<circle cx="44" cy="149" r="3" fill="#485056"/>
<rect x="49" y="147" width="8" height="4" fill="#485056"/>
<circle cx="44" cy="160" r="3" fill="#485056"/>
<rect x="49" y="158" width="23" height="4" fill="#485056"/>
<circle cx="44" cy="171" r="3" fill="#485056"/>
<rect x="49" y="169" width="14" height="4" fill="#485056"/>
<circle cx="44" cy="182" r="3" fill="#485056"/>
<rect x="49" y="180" width="8" height="4" fill="#485056"/>
<rect x="104" y="94" width="42" height="9" fill="#0085BA"/>
<g opacity="0.5">
<rect x="166" y="94" width="39" height="1" fill="#0085BA"/>
<rect x="166" y="98" width="18" height="1" fill="#0085BA"/>
</g>
<g opacity="0.5">
<rect x="221" y="94" width="39" height="1" fill="#0085BA"/>
<rect x="221" y="98" width="18" height="1" fill="#0085BA"/>
</g>
<rect x="104" y="50" width="57" height="10" fill="#F1F1F1"/>
<rect x="104" y="69" width="32" height="10" fill="#F1F1F1"/>
<rect x="171" y="50" width="32" height="10" fill="#F1F1F1"/>
<rect x="146" y="69" width="32" height="10" fill="#F1F1F1"/>
<rect x="188" y="69" width="74" height="10" fill="#F1F1F1"/>
<rect x="213" y="50" width="70" height="10" fill="#F1F1F1"/>
<rect x="104" y="129" width="38" height="5" fill="#E6E6E6"/>
<rect x="104" y="141" width="38" height="5" fill="#E6E6E6"/>
<rect x="104" y="153" width="38" height="5" fill="#E6E6E6"/>
<rect x="104" y="165" width="67" height="5" fill="#E6E6E6"/>
<rect x="147" y="141" width="31" height="5" fill="#E6E6E6"/>
<rect x="147" y="153" width="49" height="5" fill="#E6E6E6"/>
<rect x="183" y="141" width="31" height="5" fill="#E6E6E6"/>
<rect x="201" y="153" width="31" height="5" fill="#E6E6E6"/>
<rect x="147" y="129" width="17" height="5" fill="#E6E6E6"/>
<defs>
<linearGradient id="paint0_linear_221_4991" x1="173" y1="0" x2="173" y2="220" gradientUnits="userSpaceOnUse">
<stop stop-color="#B336FF"/>
<stop offset="1" stop-color="#B336FF" stop-opacity="0"/>
</linearGradient>
<clipPath id="clip0_221_4991">
<rect width="13" height="12.5357" fill="white" transform="translate(43 32)"/>
</clipPath>
</defs>
</svg>
