<svg width="346" height="220" viewBox="0 0 346 220" fill="none" xmlns="http://www.w3.org/2000/svg">
<rect opacity="0.5" width="346" height="220" fill="url(#paint0_linear_221_4992)"/>
<path d="M35 27H311L299.642 180.775L35 192V27Z" fill="white"/>
<circle cx="46" cy="38" r="2" fill="#FF5652"/>
<circle cx="52" cy="38" r="2" fill="#FFBD2F"/>
<circle cx="58" cy="38" r="2" fill="#00C83A"/>
<rect x="179" y="54" width="96" height="30" fill="#EFEEFF"/>
<rect x="179" y="94" width="96" height="30" fill="#DFDCFB"/>
<rect x="179" y="134" width="96" height="30" fill="#CDD940"/>
<rect x="213" y="142" width="43" height="2" fill="white"/>
<rect x="213" y="148" width="29" height="2" fill="white"/>
<rect x="213" y="154" width="17" height="2" fill="white"/>
<path d="M194.667 156H191.556C191.128 156 190.762 155.848 190.457 155.543C190.152 155.238 190 154.872 190 154.444V149C190 148.028 190.185 147.117 190.554 146.268C190.924 145.419 191.423 144.68 192.051 144.051C192.68 143.423 193.419 142.924 194.268 142.554C195.117 142.185 196.028 142 197 142C197.972 142 198.883 142.185 199.732 142.554C200.581 142.924 201.32 143.423 201.949 144.051C202.577 144.68 203.076 145.419 203.446 146.268C203.815 147.117 204 148.028 204 149V154.444C204 154.872 203.848 155.238 203.543 155.543C203.238 155.848 202.872 156 202.444 156H199.333V149.778H202.444V149C202.444 147.483 201.916 146.197 200.86 145.14C199.803 144.084 198.517 143.556 197 143.556C195.483 143.556 194.197 144.084 193.14 145.14C192.084 146.197 191.556 147.483 191.556 149V149.778H194.667V156Z" fill="white"/>
<rect x="66" y="54" width="96" height="30" fill="#EFEEFF"/>
<rect x="66" y="134" width="96" height="30" fill="#DFDCFB"/>
<rect x="66" y="94" width="96" height="30" fill="#3DCC65"/>
<rect x="101" y="102" width="41" height="2" fill="white"/>
<rect x="101" y="108" width="29" height="2" fill="white"/>
<rect x="101" y="114" width="35" height="2" fill="white"/>
<path fill-rule="evenodd" clip-rule="evenodd" d="M85 112.914C85.7741 112.914 86.5308 112.684 87.1744 112.254C87.818 111.824 88.3197 111.213 88.6159 110.497C88.912 109.782 88.9895 108.995 88.8384 108.236C88.6874 107.477 88.3145 106.78 87.7671 106.232C87.2197 105.685 86.5223 105.312 85.7631 105.161C85.0038 105.01 84.2168 105.088 83.5017 105.384C82.7865 105.68 82.1752 106.182 81.7451 106.826C81.3151 107.469 81.0855 108.226 81.0855 109C81.0868 110.038 81.4996 111.032 82.2334 111.766C82.9673 112.5 83.9622 112.913 85 112.914ZM76 107.882L78.221 107.657C78.285 107.65 78.3455 107.624 78.394 107.582C78.4425 107.54 78.4766 107.484 78.4914 107.421C78.6543 106.749 78.9207 106.106 79.2811 105.515C79.3145 105.46 79.3302 105.397 79.3261 105.333C79.3219 105.269 79.2981 105.207 79.2579 105.157L77.8445 103.426L79.4252 101.846L81.1569 103.257C81.2068 103.298 81.268 103.322 81.3322 103.326C81.3963 103.331 81.4602 103.315 81.5151 103.282C82.1054 102.921 82.7484 102.654 83.421 102.492C83.4834 102.477 83.5396 102.443 83.5818 102.394C83.624 102.346 83.6501 102.285 83.6566 102.222L83.8805 100H86.1162L86.3434 102.221C86.3498 102.285 86.376 102.346 86.4182 102.394C86.4604 102.442 86.5166 102.477 86.579 102.492C87.2516 102.654 87.8946 102.921 88.4849 103.282C88.5398 103.315 88.6037 103.331 88.6679 103.326C88.732 103.322 88.7932 103.298 88.8431 103.257L90.5748 101.846L92.1555 103.426L90.7424 105.157C90.7015 105.207 90.6772 105.268 90.6727 105.332C90.6682 105.396 90.6839 105.46 90.7175 105.515C91.0784 106.105 91.3453 106.748 91.5087 107.421C91.5233 107.483 91.557 107.539 91.6052 107.582C91.6534 107.624 91.7136 107.65 91.7774 107.657L94 107.882V110.117L91.779 110.343C91.715 110.349 91.6546 110.375 91.6061 110.418C91.5576 110.46 91.5236 110.516 91.5087 110.579C91.3461 111.251 91.0792 111.895 90.7176 112.485C90.6841 112.54 90.6684 112.604 90.6729 112.668C90.6773 112.732 90.7017 112.793 90.7425 112.843L92.1558 114.573L90.575 116.154L88.8434 114.742C88.7932 114.701 88.7316 114.677 88.6672 114.673C88.6028 114.669 88.5386 114.684 88.4834 114.718C87.8935 115.078 87.2511 115.345 86.5793 115.508C86.5168 115.523 86.4606 115.557 86.4184 115.605C86.3762 115.654 86.3501 115.714 86.3437 115.778L86.1165 118H83.8806L83.6567 115.778C83.6502 115.715 83.624 115.654 83.5819 115.606C83.5397 115.558 83.4835 115.524 83.4211 115.508C82.7485 115.346 82.1055 115.079 81.5152 114.718C81.4603 114.685 81.3964 114.669 81.3323 114.674C81.2681 114.678 81.2069 114.702 81.157 114.742L79.4253 116.154L77.8446 114.573L79.2577 112.842C79.2979 112.792 79.3217 112.731 79.3259 112.667C79.33 112.603 79.3143 112.539 79.2809 112.484C78.9213 111.894 78.6549 111.251 78.4912 110.579C78.4762 110.517 78.4421 110.46 78.3937 110.418C78.3452 110.376 78.2848 110.35 78.2208 110.343L76 110.117V107.882Z" fill="white"/>
<defs>
<linearGradient id="paint0_linear_221_4992" x1="173" y1="0" x2="173" y2="220" gradientUnits="userSpaceOnUse">
<stop stop-color="#3DCC65"/>
<stop offset="1" stop-color="#3DCC65" stop-opacity="0"/>
</linearGradient>
</defs>
</svg>
