<svg width="346" height="220" viewBox="0 0 346 220" fill="none" xmlns="http://www.w3.org/2000/svg">
<rect opacity="0.55" width="346" height="220" fill="url(#paint0_linear_221_4990)"/>
<path d="M35 27H311L299.642 180.775L35 192V27Z" fill="white"/>
<rect x="37" y="29" width="219" height="19" fill="white"/>
<rect x="38" y="48" width="42" height="123" fill="white"/>
<rect x="44" y="61" width="27" height="5" fill="#CCCAE9"/>
<rect x="44" y="69" width="27" height="2" fill="#CCCAE9"/>
<rect x="44" y="80" width="27" height="2" fill="#CCCAE9"/>
<rect x="44" y="85" width="19" height="2" fill="#CCCAE9"/>
<rect x="44" y="95" width="22" height="2" fill="#CCCAE9"/>
<rect x="44" y="90" width="14" height="2" fill="#CCCAE9"/>
<rect x="44" y="106" width="27" height="2" fill="#CCCAE9"/>
<rect x="44" y="111" width="19" height="2" fill="#CCCAE9"/>
<rect x="44" y="121" width="22" height="2" fill="#CCCAE9"/>
<rect x="44" y="116" width="14" height="2" fill="#CCCAE9"/>
<rect width="27" height="1" transform="matrix(1 0 0 -1 44 153)" fill="#CCCAE9"/>
<rect width="19" height="1" transform="matrix(1 0 0 -1 44 148)" fill="#CCCAE9"/>
<rect width="22" height="1" transform="matrix(1 0 0 -1 44 138)" fill="#CCCAE9"/>
<rect width="14" height="1" transform="matrix(1 0 0 -1 44 143)" fill="#CCCAE9"/>
<circle cx="46" cy="38" r="2" fill="#FF5652"/>
<circle cx="52" cy="38" r="2" fill="#FFBD2F"/>
<circle cx="58" cy="38" r="2" fill="#00C83A"/>
<path d="M129.049 40.5336C129.499 40.2266 129.968 39.9983 130.457 39.849C130.945 39.6996 131.46 39.625 132 39.625C132.541 39.625 133.055 39.6996 133.543 39.849C134.032 39.9983 134.501 40.2266 134.951 40.5336C135.262 40.1919 135.498 39.8048 135.659 39.3721C135.82 38.9394 135.9 38.482 135.9 37.9999C135.9 36.9193 135.52 35.9992 134.76 35.2395C134 34.4798 133.079 34.0999 131.997 34.0999C130.916 34.0999 129.996 34.4798 129.238 35.2395C128.479 35.9992 128.1 36.9193 128.1 37.9999C128.1 38.482 128.181 38.9394 128.342 39.3721C128.502 39.8048 128.738 40.1919 129.049 40.5336ZM132 38.7749C131.535 38.7749 131.14 38.612 130.814 38.2861C130.488 37.9603 130.325 37.5649 130.325 37.1001C130.325 36.6352 130.488 36.2398 130.814 35.9139C131.14 35.5879 131.535 35.425 132 35.425C132.465 35.425 132.86 35.5879 133.186 35.9137C133.512 36.2396 133.675 36.635 133.675 37.0998C133.675 37.5646 133.512 37.96 133.186 38.286C132.861 38.6119 132.465 38.7749 132 38.7749ZM132.004 42.5499C131.375 42.5499 130.784 42.4321 130.231 42.1966C129.679 41.961 129.195 41.6357 128.78 41.2206C128.364 40.8055 128.039 40.3217 127.804 39.7692C127.568 39.2167 127.45 38.625 127.45 37.9942C127.45 37.3634 127.568 36.7737 127.804 36.225C128.039 35.6762 128.364 35.1943 128.78 34.7793C129.195 34.3642 129.678 34.0389 130.231 33.8033C130.783 33.5677 131.375 33.45 132.006 33.45C132.637 33.45 133.226 33.5677 133.775 33.8033C134.324 34.0389 134.806 34.3642 135.221 34.7793C135.636 35.1943 135.961 35.6772 136.197 36.2278C136.432 36.7783 136.55 37.3679 136.55 37.9965C136.55 38.6251 136.432 39.2158 136.197 39.7687C135.961 40.3216 135.636 40.8055 135.221 41.2206C134.806 41.6357 134.323 41.961 133.772 42.1966C133.222 42.4321 132.632 42.5499 132.004 42.5499ZM132 41.8999C132.443 41.8999 132.878 41.8232 133.305 41.6697C133.733 41.5161 134.121 41.2964 134.471 41.0105C134.113 40.7759 133.725 40.5946 133.307 40.4668C132.89 40.3389 132.454 40.2749 132 40.2749C131.546 40.2749 131.108 40.336 130.684 40.4581C130.261 40.5802 129.876 40.7644 129.529 41.0105C129.879 41.2964 130.268 41.5161 130.695 41.6697C131.122 41.8232 131.557 41.8999 132 41.8999ZM132 38.125C132.282 38.125 132.524 38.0246 132.724 37.824C132.925 37.6233 133.025 37.382 133.025 37.0999C133.025 36.8179 132.925 36.5765 132.724 36.3759C132.524 36.1752 132.282 36.0749 132 36.0749C131.718 36.0749 131.477 36.1752 131.276 36.3759C131.075 36.5765 130.975 36.8179 130.975 37.0999C130.975 37.382 131.075 37.6233 131.276 37.824C131.477 38.0246 131.718 38.125 132 38.125Z" fill="#A5A1D5"/>
<path d="M140.56 41.5V35.74H142.308C142.369 35.74 142.473 35.7413 142.62 35.744C142.769 35.7467 142.912 35.7573 143.048 35.776C143.485 35.8373 143.851 36 144.144 36.264C144.437 36.528 144.657 36.864 144.804 37.272C144.951 37.68 145.024 38.1293 145.024 38.62C145.024 39.1107 144.951 39.56 144.804 39.968C144.657 40.376 144.437 40.712 144.144 40.976C143.851 41.24 143.485 41.4027 143.048 41.464C142.915 41.48 142.772 41.4907 142.62 41.496C142.468 41.4987 142.364 41.5 142.308 41.5H140.56ZM141.168 40.936H142.308C142.417 40.936 142.535 40.9333 142.66 40.928C142.788 40.92 142.897 40.9067 142.988 40.888C143.324 40.8293 143.595 40.6933 143.8 40.48C144.008 40.2667 144.16 40 144.256 39.68C144.352 39.3573 144.4 39.004 144.4 38.62C144.4 38.2333 144.352 37.8787 144.256 37.556C144.16 37.2333 144.008 36.9667 143.8 36.756C143.592 36.5453 143.321 36.4107 142.988 36.352C142.897 36.3333 142.787 36.3213 142.656 36.316C142.528 36.308 142.412 36.304 142.308 36.304H141.168V40.936ZM145.935 41.5V37.18H146.463V38.22L146.359 38.084C146.407 37.956 146.47 37.8387 146.547 37.732C146.624 37.6227 146.708 37.5333 146.799 37.464C146.911 37.3653 147.042 37.2907 147.191 37.24C147.34 37.1867 147.491 37.156 147.643 37.148C147.795 37.1373 147.934 37.148 148.059 37.18V37.732C147.902 37.692 147.73 37.6827 147.543 37.704C147.356 37.7253 147.184 37.8 147.027 37.928C146.883 38.04 146.775 38.1747 146.703 38.332C146.631 38.4867 146.583 38.652 146.559 38.828C146.535 39.0013 146.523 39.1733 146.523 39.344V41.5H145.935ZM149.89 41.62C149.564 41.62 149.291 41.5613 149.07 41.444C148.851 41.3267 148.687 41.1707 148.578 40.976C148.468 40.7813 148.414 40.5693 148.414 40.34C148.414 40.1053 148.46 39.9053 148.554 39.74C148.65 39.572 148.779 39.4347 148.942 39.328C149.107 39.2213 149.298 39.14 149.514 39.084C149.732 39.0307 149.974 38.984 150.238 38.944C150.504 38.9013 150.764 38.8653 151.018 38.836C151.274 38.804 151.498 38.7733 151.69 38.744L151.482 38.872C151.49 38.4453 151.407 38.1293 151.234 37.924C151.06 37.7187 150.759 37.616 150.33 37.616C150.034 37.616 149.783 37.6827 149.578 37.816C149.375 37.9493 149.232 38.16 149.15 38.448L148.578 38.28C148.676 37.8933 148.875 37.5933 149.174 37.38C149.472 37.1667 149.86 37.06 150.338 37.06C150.732 37.06 151.067 37.1347 151.342 37.284C151.619 37.4307 151.815 37.644 151.93 37.924C151.983 38.0493 152.018 38.1893 152.034 38.344C152.05 38.4987 152.058 38.656 152.058 38.816V41.5H151.534V40.416L151.686 40.48C151.539 40.8507 151.311 41.1333 151.002 41.328C150.692 41.5227 150.322 41.62 149.89 41.62ZM149.958 41.112C150.232 41.112 150.472 41.0627 150.678 40.964C150.883 40.8653 151.048 40.7307 151.174 40.56C151.299 40.3867 151.38 40.192 151.418 39.976C151.45 39.8373 151.467 39.6853 151.47 39.52C151.472 39.352 151.474 39.2267 151.474 39.144L151.698 39.26C151.498 39.2867 151.28 39.3133 151.046 39.34C150.814 39.3667 150.584 39.3973 150.358 39.432C150.134 39.4667 149.931 39.508 149.75 39.556C149.627 39.5907 149.508 39.64 149.394 39.704C149.279 39.7653 149.184 39.848 149.11 39.952C149.038 40.056 149.002 40.1853 149.002 40.34C149.002 40.4653 149.032 40.5867 149.094 40.704C149.158 40.8213 149.259 40.9187 149.398 40.996C149.539 41.0733 149.726 41.112 149.958 41.112ZM153.527 41.5V36.86C153.527 36.748 153.532 36.6373 153.543 36.528C153.556 36.4187 153.582 36.3147 153.619 36.216C153.656 36.1147 153.715 36.0213 153.795 35.936C153.883 35.84 153.979 35.7707 154.083 35.728C154.187 35.6827 154.295 35.6533 154.407 35.64C154.522 35.6267 154.634 35.62 154.743 35.62H155.295V36.116H154.783C154.559 36.116 154.391 36.1707 154.279 36.28C154.17 36.3893 154.115 36.5613 154.115 36.796V41.5H153.527ZM152.779 37.684V37.18H155.295V37.684H152.779ZM158.287 41.5C158.044 41.5507 157.804 41.5707 157.567 41.56C157.332 41.5493 157.122 41.4987 156.935 41.408C156.751 41.3173 156.611 41.176 156.515 40.984C156.438 40.824 156.395 40.6627 156.387 40.5C156.382 40.3347 156.379 40.1467 156.379 39.936V35.98H156.963V39.912C156.963 40.0933 156.964 40.2453 156.967 40.368C156.972 40.488 157 40.5947 157.051 40.688C157.147 40.8667 157.299 40.9733 157.507 41.008C157.718 41.0427 157.978 41.0347 158.287 40.984V41.5ZM155.455 37.684V37.18H158.287V37.684H155.455ZM160.75 41.616C160.243 41.616 159.826 41.5067 159.498 41.288C159.173 41.0693 158.973 40.7653 158.898 40.376L159.498 40.276C159.562 40.5213 159.707 40.7173 159.934 40.864C160.163 41.008 160.446 41.08 160.782 41.08C161.11 41.08 161.369 41.012 161.558 40.876C161.747 40.7373 161.842 40.5493 161.842 40.312C161.842 40.1787 161.811 40.0707 161.75 39.988C161.691 39.9027 161.57 39.824 161.386 39.752C161.202 39.68 160.927 39.5947 160.562 39.496C160.17 39.3893 159.863 39.2827 159.642 39.176C159.421 39.0693 159.263 38.9467 159.17 38.808C159.077 38.6667 159.03 38.4947 159.03 38.292C159.03 38.0467 159.099 37.832 159.238 37.648C159.377 37.4613 159.569 37.3173 159.814 37.216C160.059 37.112 160.345 37.06 160.67 37.06C160.995 37.06 161.286 37.1133 161.542 37.22C161.801 37.324 162.009 37.4707 162.166 37.66C162.323 37.8493 162.417 38.0693 162.446 38.32L161.846 38.428C161.806 38.1747 161.679 37.9747 161.466 37.828C161.255 37.6787 160.987 37.6013 160.662 37.596C160.355 37.588 160.106 37.6467 159.914 37.772C159.722 37.8947 159.626 38.0587 159.626 38.264C159.626 38.3787 159.661 38.4773 159.73 38.56C159.799 38.64 159.925 38.716 160.106 38.788C160.29 38.86 160.551 38.9387 160.89 39.024C161.287 39.1253 161.599 39.232 161.826 39.344C162.053 39.456 162.214 39.588 162.31 39.74C162.406 39.892 162.454 40.08 162.454 40.304C162.454 40.712 162.302 41.0333 161.998 41.268C161.697 41.5 161.281 41.616 160.75 41.616ZM166.399 35.74H167.003L165.467 41.5H164.863L166.399 35.74ZM170.262 43.42L171.098 41.152L171.11 41.824L169.218 37.18H169.842L171.394 41.064H171.138L172.57 37.18H173.17L170.85 43.42H170.262ZM175.512 41.62C175.083 41.62 174.716 41.5227 174.412 41.328C174.108 41.1333 173.875 40.864 173.712 40.52C173.55 40.176 173.468 39.7813 173.468 39.336C173.468 38.8827 173.551 38.4853 173.716 38.144C173.882 37.8027 174.116 37.5373 174.42 37.348C174.727 37.156 175.091 37.06 175.512 37.06C175.944 37.06 176.312 37.1573 176.616 37.352C176.923 37.544 177.156 37.812 177.316 38.156C177.479 38.4973 177.56 38.8907 177.56 39.336C177.56 39.7893 177.479 40.188 177.316 40.532C177.154 40.8733 176.919 41.14 176.612 41.332C176.306 41.524 175.939 41.62 175.512 41.62ZM175.512 41.056C175.992 41.056 176.35 40.8973 176.584 40.58C176.819 40.26 176.936 39.8453 176.936 39.336C176.936 38.8133 176.818 38.3973 176.58 38.088C176.346 37.7787 175.99 37.624 175.512 37.624C175.19 37.624 174.923 37.6973 174.712 37.844C174.504 37.988 174.348 38.1893 174.244 38.448C174.143 38.704 174.092 39 174.092 39.336C174.092 39.856 174.212 40.2733 174.452 40.588C174.692 40.9 175.046 41.056 175.512 41.056ZM180.095 41.608C179.836 41.608 179.609 41.568 179.415 41.488C179.223 41.408 179.059 41.3 178.923 41.164C178.789 41.028 178.681 40.8733 178.599 40.7C178.516 40.524 178.456 40.3387 178.419 40.144C178.381 39.9467 178.363 39.7507 178.363 39.556V37.18H178.955V39.384C178.955 39.6213 178.977 39.8413 179.023 40.044C179.068 40.2467 179.14 40.424 179.239 40.576C179.34 40.7253 179.469 40.8413 179.627 40.924C179.787 41.0067 179.98 41.048 180.207 41.048C180.415 41.048 180.597 41.012 180.755 40.94C180.915 40.868 181.048 40.7653 181.155 40.632C181.264 40.496 181.347 40.332 181.403 40.14C181.459 39.9453 181.487 39.7267 181.487 39.484L181.903 39.576C181.903 40.0187 181.825 40.3907 181.671 40.692C181.516 40.9933 181.303 41.2213 181.031 41.376C180.759 41.5307 180.447 41.608 180.095 41.608ZM181.547 41.5V40.436H181.487V37.18H182.075V41.5H181.547ZM183.193 41.5V37.18H183.721V38.22L183.617 38.084C183.665 37.956 183.727 37.8387 183.805 37.732C183.882 37.6227 183.966 37.5333 184.057 37.464C184.169 37.3653 184.299 37.2907 184.449 37.24C184.598 37.1867 184.749 37.156 184.901 37.148C185.053 37.1373 185.191 37.148 185.317 37.18V37.732C185.159 37.692 184.987 37.6827 184.801 37.704C184.614 37.7253 184.442 37.8 184.285 37.928C184.141 38.04 184.033 38.1747 183.961 38.332C183.889 38.4867 183.841 38.652 183.817 38.828C183.793 39.0013 183.781 39.1733 183.781 39.344V41.5H183.193ZM189.353 41.62C188.951 41.62 188.607 41.52 188.321 41.32C188.036 41.1173 187.817 40.844 187.665 40.5C187.513 40.156 187.437 39.768 187.437 39.336C187.437 38.9067 187.512 38.52 187.661 38.176C187.813 37.832 188.031 37.56 188.313 37.36C188.596 37.16 188.935 37.06 189.329 37.06C189.735 37.06 190.076 37.1587 190.353 37.356C190.631 37.5533 190.84 37.824 190.981 38.168C191.125 38.5093 191.197 38.8987 191.197 39.336C191.197 39.7653 191.127 40.1533 190.985 40.5C190.844 40.844 190.636 41.1173 190.361 41.32C190.087 41.52 189.751 41.62 189.353 41.62ZM189.413 41.072C189.72 41.072 189.973 40.9973 190.173 40.848C190.373 40.6987 190.523 40.4933 190.621 40.232C190.72 39.968 190.769 39.6693 190.769 39.336C190.769 38.9973 190.72 38.6987 190.621 38.44C190.523 38.1787 190.373 37.9747 190.173 37.828C189.976 37.6813 189.727 37.608 189.425 37.608C189.116 37.608 188.86 37.684 188.657 37.836C188.455 37.988 188.304 38.1947 188.205 38.456C188.109 38.7173 188.061 39.0107 188.061 39.336C188.061 39.664 188.111 39.96 188.209 40.224C188.311 40.4853 188.461 40.692 188.661 40.844C188.861 40.996 189.112 41.072 189.413 41.072ZM190.769 41.5V38.248H190.705V35.74H191.297V41.5H190.769ZM194.247 41.62C193.826 41.62 193.461 41.5267 193.151 41.34C192.845 41.1533 192.606 40.8907 192.435 40.552C192.265 40.2133 192.179 39.816 192.179 39.36C192.179 38.888 192.263 38.48 192.431 38.136C192.599 37.792 192.835 37.5267 193.139 37.34C193.446 37.1533 193.807 37.06 194.223 37.06C194.65 37.06 195.014 37.1587 195.315 37.356C195.617 37.5507 195.845 37.8307 195.999 38.196C196.154 38.5613 196.225 38.9973 196.211 39.504H195.611V39.296C195.601 38.736 195.479 38.3133 195.247 38.028C195.018 37.7427 194.682 37.6 194.239 37.6C193.775 37.6 193.419 37.7507 193.171 38.052C192.926 38.3533 192.803 38.7827 192.803 39.34C192.803 39.884 192.926 40.3067 193.171 40.608C193.419 40.9067 193.77 41.056 194.223 41.056C194.533 41.056 194.802 40.9853 195.031 40.844C195.263 40.7 195.446 40.4933 195.579 40.224L196.127 40.436C195.957 40.812 195.705 41.104 195.371 41.312C195.041 41.5173 194.666 41.62 194.247 41.62ZM192.595 39.504V39.012H195.895V39.504H192.595ZM198.711 41.616C198.204 41.616 197.787 41.5067 197.459 41.288C197.134 41.0693 196.934 40.7653 196.859 40.376L197.459 40.276C197.523 40.5213 197.668 40.7173 197.895 40.864C198.124 41.008 198.407 41.08 198.743 41.08C199.071 41.08 199.33 41.012 199.519 40.876C199.708 40.7373 199.803 40.5493 199.803 40.312C199.803 40.1787 199.772 40.0707 199.711 39.988C199.652 39.9027 199.531 39.824 199.347 39.752C199.163 39.68 198.888 39.5947 198.523 39.496C198.131 39.3893 197.824 39.2827 197.603 39.176C197.382 39.0693 197.224 38.9467 197.131 38.808C197.038 38.6667 196.991 38.4947 196.991 38.292C196.991 38.0467 197.06 37.832 197.199 37.648C197.338 37.4613 197.53 37.3173 197.775 37.216C198.02 37.112 198.306 37.06 198.631 37.06C198.956 37.06 199.247 37.1133 199.503 37.22C199.762 37.324 199.97 37.4707 200.127 37.66C200.284 37.8493 200.378 38.0693 200.407 38.32L199.807 38.428C199.767 38.1747 199.64 37.9747 199.427 37.828C199.216 37.6787 198.948 37.6013 198.623 37.596C198.316 37.588 198.067 37.6467 197.875 37.772C197.683 37.8947 197.587 38.0587 197.587 38.264C197.587 38.3787 197.622 38.4773 197.691 38.56C197.76 38.64 197.886 38.716 198.067 38.788C198.251 38.86 198.512 38.9387 198.851 39.024C199.248 39.1253 199.56 39.232 199.787 39.344C200.014 39.456 200.175 39.588 200.271 39.74C200.367 39.892 200.415 40.08 200.415 40.304C200.415 40.712 200.263 41.0333 199.959 41.268C199.658 41.5 199.242 41.616 198.711 41.616ZM201.382 36.36V35.7H201.97V36.36H201.382ZM201.382 41.5V37.18H201.97V41.5H201.382ZM204.885 43.54C204.664 43.54 204.445 43.5067 204.229 43.44C204.016 43.376 203.819 43.2733 203.637 43.132C203.456 42.9933 203.304 42.812 203.181 42.588L203.713 42.292C203.833 42.532 204.001 42.704 204.217 42.808C204.436 42.9147 204.659 42.968 204.885 42.968C205.197 42.968 205.449 42.9093 205.641 42.792C205.836 42.6773 205.977 42.5067 206.065 42.28C206.153 42.0533 206.196 41.7707 206.193 41.432V40.28H206.261V37.18H206.785V41.44C206.785 41.5627 206.781 41.68 206.773 41.792C206.768 41.9067 206.756 42.0187 206.737 42.128C206.687 42.4507 206.581 42.716 206.421 42.924C206.264 43.132 206.056 43.2867 205.797 43.388C205.541 43.4893 205.237 43.54 204.885 43.54ZM204.845 41.62C204.443 41.62 204.099 41.52 203.813 41.32C203.528 41.1173 203.309 40.844 203.157 40.5C203.005 40.156 202.929 39.768 202.929 39.336C202.929 38.9067 203.004 38.52 203.153 38.176C203.305 37.832 203.523 37.56 203.805 37.36C204.088 37.16 204.427 37.06 204.821 37.06C205.227 37.06 205.568 37.1587 205.845 37.356C206.123 37.5533 206.332 37.824 206.473 38.168C206.617 38.5093 206.689 38.8987 206.689 39.336C206.689 39.7653 206.619 40.1533 206.477 40.5C206.336 40.844 206.128 41.1173 205.853 41.32C205.579 41.52 205.243 41.62 204.845 41.62ZM204.905 41.072C205.212 41.072 205.465 40.9973 205.665 40.848C205.865 40.6987 206.015 40.4933 206.113 40.232C206.212 39.968 206.261 39.6693 206.261 39.336C206.261 38.9973 206.212 38.6987 206.113 38.44C206.015 38.1787 205.865 37.9747 205.665 37.828C205.468 37.6813 205.219 37.608 204.917 37.608C204.608 37.608 204.352 37.684 204.149 37.836C203.947 37.988 203.796 38.1947 203.697 38.456C203.601 38.7173 203.553 39.0107 203.553 39.336C203.553 39.664 203.603 39.96 203.701 40.224C203.803 40.4853 203.953 40.692 204.153 40.844C204.353 40.996 204.604 41.072 204.905 41.072ZM211.024 41.5V39.296C211.024 39.056 211.001 38.836 210.956 38.636C210.91 38.4333 210.837 38.2573 210.736 38.108C210.637 37.956 210.508 37.8387 210.348 37.756C210.19 37.6733 209.998 37.632 209.772 37.632C209.564 37.632 209.38 37.668 209.22 37.74C209.062 37.812 208.929 37.916 208.82 38.052C208.713 38.1853 208.632 38.348 208.576 38.54C208.52 38.732 208.492 38.9507 208.492 39.196L208.076 39.104C208.076 38.6613 208.153 38.2893 208.308 37.988C208.462 37.6867 208.676 37.4587 208.948 37.304C209.22 37.1493 209.532 37.072 209.884 37.072C210.142 37.072 210.368 37.112 210.56 37.192C210.754 37.272 210.918 37.38 211.052 37.516C211.188 37.652 211.297 37.808 211.38 37.984C211.462 38.1573 211.522 38.3427 211.56 38.54C211.597 38.7347 211.616 38.9293 211.616 39.124V41.5H211.024ZM207.9 41.5V37.18H208.432V38.244H208.492V41.5H207.9Z" fill="#A5A1D5"/>
<path d="M70.1576 34.1615L77.9287 38.7396L73.8482 39.3749L71.6135 43.0626L70.1576 34.1615Z" fill="#A5A1D4"/>
<rect x="85.5" y="34.4998" width="7" height="7" stroke="#A5A1D4"/>
<path d="M95 36.9998L97 38.9998L99 36.9998" stroke="#A5A1D4"/>
<path d="M108.597 42.9998C108.044 42.9998 107.528 42.8628 107.048 42.5889C106.568 42.3149 106.155 41.9396 105.809 41.4629L104 39.1577L104.401 38.6881C104.584 38.4747 104.808 38.3448 105.076 38.2986C105.343 38.2523 105.591 38.3039 105.819 38.4533L106.377 38.6988V34.6113C106.377 34.4761 106.423 34.3551 106.515 34.2484C106.607 34.1417 106.719 34.0883 106.852 34.0883C106.978 34.0883 107.09 34.1417 107.188 34.2484C107.286 34.3551 107.335 34.4761 107.335 34.6113V40.4918L105.369 39.3071L106.592 40.8973C106.839 41.2388 107.139 41.5021 107.491 41.6871C107.844 41.872 108.218 41.961 108.616 41.9539C109.288 41.9539 109.86 41.6959 110.333 41.1801C110.805 40.6643 111.042 40.0314 111.042 39.2814V35.1236C111.042 34.9884 111.088 34.8674 111.18 34.7607C111.272 34.654 111.384 34.6006 111.517 34.6006C111.643 34.6006 111.756 34.654 111.853 34.7607C111.951 34.8674 112 34.9884 112 35.1236V39.3925C112 40.4099 111.666 41.2655 110.998 41.9592C110.329 42.6529 109.529 42.9998 108.597 42.9998ZM107.932 38.1758V33.5227C107.932 33.3875 107.978 33.2666 108.07 33.1598C108.162 33.0531 108.274 32.9998 108.407 32.9998C108.533 32.9998 108.645 33.0531 108.743 33.1598C108.841 33.2666 108.89 33.3875 108.89 33.5227V38.1758H107.932ZM109.487 38.1758V34.099C109.487 33.9638 109.533 33.8429 109.625 33.7361C109.717 33.6294 109.829 33.5761 109.962 33.5761C110.088 33.5761 110.2 33.6294 110.298 33.7361C110.396 33.8429 110.445 33.9638 110.445 34.099V38.1758H109.487Z" fill="#A5A1D4"/>
<path d="M214.994 151.103L229.746 159.794L222 161L217.758 168L214.994 151.103Z" fill="#B336FF"/>
<rect x="139" y="115" width="30" height="29" fill="#CDD940"/>
<rect x="179" y="128" width="30" height="2" fill="#385297"/>
<rect x="195" y="114" width="30" height="2" transform="rotate(90 195 114)" fill="#385297"/>
<rect x="179" y="76" width="30" height="30" rx="15" fill="#FF368B"/>
<path d="M153.5 77L169 104H138L153.5 77Z" fill="#3DCC65"/>
<rect x="134.5" y="72.5" width="78" height="75" stroke="#0D99FF"/>
<defs>
<linearGradient id="paint0_linear_221_4990" x1="173" y1="0" x2="173" y2="220" gradientUnits="userSpaceOnUse">
<stop stop-color="#36B7FF"/>
<stop offset="1" stop-color="#36B7FF" stop-opacity="0"/>
</linearGradient>
</defs>
</svg>
