<svg width="500" height="449" viewBox="0 0 500 449" fill="none" xmlns="http://www.w3.org/2000/svg">
<g opacity="0.3" clip-path="url(#clip0_208_4700)">
<g opacity="0.9">
<path d="M499.108 260.997C502.109 302.502 431.551 341.423 341.514 347.928C251.476 354.434 176.054 326.061 173.053 284.556C170.052 243.051 240.609 204.131 330.647 197.625C420.684 191.12 496.107 219.492 499.108 260.997Z" stroke="#36B7FF" stroke-width="0.8" stroke-miterlimit="10"/>
<path opacity="0.5" d="M493.114 269.601C494.291 310.109 423.86 345.021 335.801 347.579C247.742 350.136 175.402 319.371 174.225 278.863C173.047 238.355 243.479 203.443 331.537 200.885C419.596 198.327 491.936 229.092 493.114 269.601Z" stroke="#36B7FF" stroke-width="0.8" stroke-miterlimit="10"/>
<path opacity="0.5" d="M332.455 203.903C418.483 205.294 487.702 238.584 487.06 278.258C486.418 317.932 416.158 348.966 330.13 347.575C244.102 346.183 174.882 312.894 175.524 273.22C176.166 233.546 246.427 202.512 332.455 203.903Z" stroke="#36B7FF" stroke-width="0.8" stroke-miterlimit="10"/>
<path opacity="0.5" d="M333.335 207.103C417.389 212.443 483.53 248.188 481.066 286.941C478.602 325.695 408.466 352.781 324.413 347.441C240.36 342.101 174.218 306.356 176.682 267.602C179.146 228.849 249.282 201.763 333.335 207.103Z" stroke="#36B7FF" stroke-width="0.8" stroke-miterlimit="10"/>
<path opacity="0.5" d="M334.206 210.25C416.326 219.545 479.432 257.675 475.157 295.416C470.882 333.157 400.846 356.217 318.726 346.922C236.607 337.627 173.501 299.497 177.775 261.756C182.05 224.015 252.086 200.955 334.206 210.25Z" stroke="#36B7FF" stroke-width="0.8" stroke-miterlimit="10"/>
<path opacity="0.5" d="M335.335 213.365C415.443 226.612 475.437 267.246 469.335 304.125C463.233 341.003 393.345 360.16 313.237 346.913C233.128 333.667 173.134 293.032 179.236 256.153C185.339 219.275 255.226 200.118 335.335 213.365Z" stroke="#36B7FF" stroke-width="0.8" stroke-miterlimit="10"/>
<path opacity="0.5" d="M336.197 216.639C414.312 233.838 471.222 276.895 463.309 312.809C455.396 348.723 385.657 363.894 307.542 346.695C229.428 329.495 172.518 286.438 180.43 250.524C188.343 214.61 258.082 199.439 336.197 216.639Z" stroke="#36B7FF" stroke-width="0.8" stroke-miterlimit="10"/>
<path opacity="0.5" d="M337.051 219.871C413.185 241.025 467.023 286.52 457.302 321.486C447.58 356.452 377.98 367.648 301.845 346.494C225.711 325.34 171.873 279.845 181.595 244.879C191.317 209.913 260.917 198.717 337.051 219.871Z" stroke="#36B7FF" stroke-width="0.8" stroke-miterlimit="10"/>
<path opacity="0.5" d="M337.975 222.893C412.011 247.97 462.648 295.976 451.076 330.118C439.505 364.259 370.106 371.608 296.07 346.531C222.033 321.454 171.396 273.448 182.968 239.306C194.54 205.164 263.939 197.816 337.975 222.893Z" stroke="#36B7FF" stroke-width="0.8" stroke-miterlimit="10"/>
<path opacity="0.5" d="M338.92 225.884C410.975 254.914 458.533 305.37 445.144 338.581C431.755 371.791 362.489 375.18 290.434 346.15C218.379 317.12 170.821 266.664 184.21 233.454C197.599 200.243 266.865 196.854 338.92 225.884Z" stroke="#36B7FF" stroke-width="0.8" stroke-miterlimit="10"/>
<path opacity="0.5" d="M339.989 229.162C410.054 262.143 454.525 315.051 439.318 347.336C424.111 379.621 354.984 379.057 284.919 346.076C214.855 313.095 170.384 260.187 185.591 227.902C200.798 195.617 269.924 196.181 339.989 229.162Z" stroke="#36B7FF" stroke-width="0.8" stroke-miterlimit="10"/>
<path opacity="0.5" d="M340.865 232.342C408.932 269.271 450.307 324.634 433.28 355.998C416.252 387.362 347.269 382.851 279.203 345.922C211.136 308.992 169.761 253.629 186.788 222.265C203.816 190.901 272.799 195.412 340.865 232.342Z" stroke="#36B7FF" stroke-width="0.8" stroke-miterlimit="10"/>
<path opacity="0.5" d="M341.744 235.517C407.802 276.391 446.07 334.207 427.219 364.653C408.367 395.1 339.535 386.647 273.478 345.774C207.42 304.9 169.152 247.084 188.003 216.637C206.854 186.191 275.687 194.644 341.744 235.517Z" stroke="#36B7FF" stroke-width="0.8" stroke-miterlimit="10"/>
<path opacity="0.5" d="M342.623 238.663C406.669 283.472 441.826 343.739 421.149 373.274C400.472 402.808 331.791 390.426 267.745 345.617C203.699 300.809 168.542 240.541 189.219 211.007C209.896 181.472 278.577 193.854 342.623 238.663Z" stroke="#36B7FF" stroke-width="0.8" stroke-miterlimit="10"/>
<path opacity="0.5" d="M343.512 241.806C405.637 290.624 437.811 353.327 415.376 381.859C392.941 410.391 324.392 393.946 262.268 345.129C200.144 296.311 167.969 233.607 190.404 205.076C212.839 176.544 281.388 192.989 343.512 241.806Z" stroke="#36B7FF" stroke-width="0.8" stroke-miterlimit="10"/>
<path opacity="0.5" d="M344.565 245.058C404.675 297.807 433.731 362.973 409.462 390.609C385.194 418.245 316.793 397.886 256.683 345.137C196.573 292.387 167.517 227.221 191.785 199.585C216.054 171.949 284.455 192.308 344.565 245.058Z" stroke="#36B7FF" stroke-width="0.8" stroke-miterlimit="10"/>
<path opacity="0.5" d="M345.489 248.169C403.593 304.866 429.523 372.512 403.405 399.261C377.287 426.009 309.012 401.731 250.907 345.034C192.803 288.337 166.873 220.69 192.991 193.942C219.109 167.193 287.385 191.471 345.489 248.169Z" stroke="#36B7FF" stroke-width="0.8" stroke-miterlimit="10"/>
<path opacity="0.5" d="M346.291 251.392C402.409 312.053 425.287 382.136 397.39 407.928C369.493 433.719 301.385 405.452 245.266 344.791C189.148 284.13 166.27 214.047 194.167 188.255C222.064 162.464 290.172 190.731 346.291 251.392Z" stroke="#36B7FF" stroke-width="0.8" stroke-miterlimit="10"/>
<path opacity="0.3" d="M347.262 254.437C401.333 318.989 421.023 391.528 391.241 416.457C361.46 441.387 293.485 409.266 239.414 344.715C185.344 280.163 165.654 207.624 195.435 182.695C225.217 157.765 293.192 189.885 347.262 254.437Z" stroke="#36B7FF" stroke-width="0.8" stroke-miterlimit="10"/>
<path opacity="0.3" d="M348.312 257.448C400.446 326.025 417.091 401.08 385.489 425.089C353.888 449.098 286.006 412.969 233.872 344.392C181.738 275.816 165.093 200.76 196.695 176.751C228.297 152.742 296.178 188.872 348.312 257.448Z" stroke="#36B7FF" stroke-width="0.8" stroke-miterlimit="10"/>
<path opacity="0.3" d="M349.053 260.689C399.134 333.14 412.697 410.549 379.347 433.588C345.996 456.626 278.362 416.568 228.28 344.117C178.199 271.666 164.635 194.256 197.986 171.218C231.336 148.18 298.971 188.237 349.053 260.689Z" stroke="#36B7FF" stroke-width="0.8" stroke-miterlimit="10"/>
<path opacity="0.3" d="M350.15 263.949C398.22 340.331 408.626 420.213 373.393 442.373C338.16 464.532 270.63 420.576 222.56 344.194C174.49 267.813 164.083 187.93 199.316 165.771C234.549 143.612 302.08 187.568 350.15 263.949Z" stroke="#36B7FF" stroke-width="0.8" stroke-miterlimit="10"/>
</g>
</g>
<g opacity="0.3" clip-path="url(#clip1_208_4700)">
<g opacity="0.9">
<path d="M0.789107 171.614C-1.86407 134.833 60.5188 100.344 140.125 94.579C219.731 88.814 286.416 113.957 289.069 150.737C291.722 187.517 229.339 222.007 149.733 227.772C70.1268 233.537 3.44228 208.394 0.789107 171.614Z" stroke="#36B7FF" stroke-width="0.8" stroke-miterlimit="10"/>
<path opacity="0.5" d="M6.08852 163.99C5.04757 128.093 67.3192 97.1551 145.176 94.8885C223.033 92.622 286.992 119.885 288.033 155.782C289.074 191.679 226.803 222.616 148.946 224.883C71.0888 227.149 7.12948 199.887 6.08852 163.99Z" stroke="#36B7FF" stroke-width="0.8" stroke-miterlimit="10"/>
<path opacity="0.5" d="M148.135 222.209C72.0731 220.976 10.8731 191.476 11.4407 156.318C12.0083 121.161 74.1286 93.6596 150.19 94.8923C226.252 96.1251 287.452 125.625 286.884 160.783C286.317 195.94 224.196 223.441 148.135 222.209Z" stroke="#36B7FF" stroke-width="0.8" stroke-miterlimit="10"/>
<path opacity="0.5" d="M147.356 219.373C73.0407 214.641 14.5621 182.965 16.7405 148.623C18.9188 114.282 80.9293 90.2785 155.245 95.0108C229.56 99.7432 288.039 131.419 285.86 165.761C283.682 200.102 221.672 224.105 147.356 219.373Z" stroke="#36B7FF" stroke-width="0.8" stroke-miterlimit="10"/>
<path opacity="0.5" d="M146.586 216.585C73.9804 208.348 18.1855 174.558 21.9649 141.114C25.7443 107.669 87.6667 87.2339 160.273 95.4707C232.878 103.708 288.673 137.497 284.894 170.942C281.114 204.386 219.192 224.821 146.586 216.585Z" stroke="#36B7FF" stroke-width="0.8" stroke-miterlimit="10"/>
<path opacity="0.5" d="M145.588 213.824C74.7604 202.085 21.717 166.076 27.1123 133.396C32.5077 100.716 94.2986 83.7392 165.126 95.4782C235.954 107.217 288.997 143.226 283.602 175.906C278.207 208.587 216.416 225.563 145.588 213.824Z" stroke="#36B7FF" stroke-width="0.8" stroke-miterlimit="10"/>
<path opacity="0.5" d="M144.826 210.922C75.7609 195.681 25.4442 157.526 32.4402 125.7C39.4363 93.8744 101.096 80.4303 170.161 95.6718C239.226 110.913 289.542 149.069 282.546 180.894C275.55 212.72 213.891 226.164 144.826 210.922Z" stroke="#36B7FF" stroke-width="0.8" stroke-miterlimit="10"/>
<path opacity="0.5" d="M144.071 208.059C76.7568 189.313 29.1562 148.997 37.7517 118.012C46.3472 87.0262 107.884 77.1042 175.198 95.8502C242.511 114.596 290.112 154.912 281.517 185.897C272.921 216.883 211.384 226.805 144.071 208.059Z" stroke="#36B7FF" stroke-width="0.8" stroke-miterlimit="10"/>
<path opacity="0.5" d="M143.254 205.381C77.7955 183.158 33.0248 140.617 43.2559 110.362C53.4871 80.1068 114.846 73.595 180.305 95.8172C245.763 118.039 290.534 160.581 280.303 190.836C270.072 221.091 208.713 227.603 143.254 205.381Z" stroke="#36B7FF" stroke-width="0.8" stroke-miterlimit="10"/>
<path opacity="0.5" d="M142.419 202.73C78.7116 177.005 36.6631 132.293 48.5009 102.863C60.3387 73.4326 121.58 70.4293 185.287 96.1546C248.994 121.88 291.043 166.592 279.205 196.022C267.367 225.452 206.126 228.456 142.419 202.73Z" stroke="#36B7FF" stroke-width="0.8" stroke-miterlimit="10"/>
<path opacity="0.5" d="M141.473 199.825C79.5255 170.599 40.2067 123.713 53.652 95.1038C67.0973 66.4941 128.215 66.9941 190.163 96.2205C252.11 125.447 291.429 172.332 277.984 200.942C264.538 229.552 203.42 229.052 141.473 199.825Z" stroke="#36B7FF" stroke-width="0.8" stroke-miterlimit="10"/>
<path opacity="0.5" d="M140.699 197.007C80.5179 164.282 43.9361 115.221 58.9911 87.4274C74.046 59.6336 135.037 63.6315 195.218 96.3568C255.399 129.082 291.98 178.143 276.925 205.936C261.87 233.73 200.88 229.732 140.699 197.007Z" stroke="#36B7FF" stroke-width="0.8" stroke-miterlimit="10"/>
<path opacity="0.5" d="M139.922 194.194C81.517 157.973 47.6823 106.739 64.3496 79.7583C81.0169 52.7778 141.875 60.2682 200.279 96.4887C258.684 132.709 292.518 183.944 275.851 210.924C259.184 237.905 198.326 230.414 139.922 194.194Z" stroke="#36B7FF" stroke-width="0.8" stroke-miterlimit="10"/>
<path opacity="0.5" d="M139.144 191.406C82.5185 151.698 51.4343 98.2916 69.7159 72.1191C87.9975 45.9466 148.722 56.9192 205.348 96.627C261.974 136.335 293.058 189.741 274.776 215.914C256.495 242.086 195.77 231.114 139.144 191.406Z" stroke="#36B7FF" stroke-width="0.8" stroke-miterlimit="10"/>
<path opacity="0.5" d="M138.358 188.621C83.4314 145.36 54.9844 89.7947 74.8201 64.511C94.6559 39.2273 155.263 53.8001 210.19 97.0603C265.117 140.32 293.564 195.886 273.728 221.17C253.892 246.453 193.285 231.881 138.358 188.621Z" stroke="#36B7FF" stroke-width="0.8" stroke-miterlimit="10"/>
<path opacity="0.5" d="M137.427 185.739C84.2814 138.994 58.5921 81.2467 80.0486 56.7568C101.505 32.2668 161.982 50.3079 215.128 97.0528C268.274 143.798 293.963 201.545 272.507 226.035C251.05 250.525 190.573 232.484 137.427 185.739Z" stroke="#36B7FF" stroke-width="0.8" stroke-miterlimit="10"/>
<path opacity="0.5" d="M136.61 182.982C85.2378 132.739 62.3119 72.7938 85.4041 49.0902C108.496 25.3865 168.862 46.9009 220.234 97.1438C271.607 147.387 294.533 207.332 271.441 231.036C248.349 254.74 187.983 233.225 136.61 182.982Z" stroke="#36B7FF" stroke-width="0.8" stroke-miterlimit="10"/>
<path opacity="0.5" d="M135.902 180.125C86.2847 126.37 66.0573 64.2651 90.7224 41.4098C115.388 18.5546 175.605 43.604 225.222 97.3593C274.839 151.115 295.066 213.22 270.401 236.075C245.736 258.93 185.519 233.881 135.902 180.125Z" stroke="#36B7FF" stroke-width="0.8" stroke-miterlimit="10"/>
<path opacity="0.3" d="M135.043 177.427C87.2365 120.224 69.8276 55.9429 96.1587 33.8513C122.49 11.7598 182.59 40.2235 230.396 97.4268C278.202 154.63 295.611 218.911 269.28 241.003C242.949 263.094 182.849 234.631 135.043 177.427Z" stroke="#36B7FF" stroke-width="0.8" stroke-miterlimit="10"/>
<path opacity="0.3" d="M134.114 174.759C88.0202 113.989 73.3037 47.4782 101.244 26.2023C129.185 4.92644 189.202 36.9427 235.296 97.7125C281.39 158.482 296.107 224.994 268.166 246.269C240.226 267.545 180.209 235.529 134.114 174.759Z" stroke="#36B7FF" stroke-width="0.8" stroke-miterlimit="10"/>
<path opacity="0.3" d="M133.46 171.888C89.1802 107.684 77.1884 39.0866 106.675 18.6711C136.162 -1.74451 195.961 33.7527 240.24 97.9562C284.52 162.16 296.511 230.757 267.025 251.173C237.538 271.588 177.739 236.091 133.46 171.888Z" stroke="#36B7FF" stroke-width="0.8" stroke-miterlimit="10"/>
<path opacity="0.3" d="M132.49 168.998C89.9888 101.312 80.788 30.5227 111.939 10.8862C143.09 -8.75033 202.797 30.2017 245.298 97.888C287.799 165.574 296.999 236.363 265.848 256C234.697 275.636 174.991 236.684 132.49 168.998Z" stroke="#36B7FF" stroke-width="0.8" stroke-miterlimit="10"/>
</g>
</g>
<path d="M75 124H425L420 319L75 324V124Z" fill="#0B2158"/>
<circle cx="86" cy="135" r="2" fill="#FF5652"/>
<circle cx="92" cy="135" r="2" fill="#FFBD2F"/>
<circle cx="98" cy="135" r="2" fill="#00C83A"/>
<rect x="259" y="169" width="126" height="30" fill="#11275F"/>
<rect x="259" y="209" width="126" height="30" fill="#1D3574"/>
<rect x="259" y="249" width="126" height="30" fill="#CDD940"/>
<rect x="293" y="257" width="76" height="2" fill="white"/>
<rect x="293" y="263" width="51" height="2" fill="white"/>
<rect x="293" y="269" width="30" height="2" fill="white"/>
<path d="M274.667 271H271.556C271.128 271 270.762 270.848 270.457 270.543C270.152 270.238 270 269.872 270 269.444V264C270 263.028 270.185 262.117 270.554 261.268C270.924 260.419 271.423 259.68 272.051 259.051C272.68 258.423 273.419 257.924 274.268 257.554C275.117 257.185 276.028 257 277 257C277.972 257 278.883 257.185 279.732 257.554C280.581 257.924 281.32 258.423 281.949 259.051C282.577 259.68 283.076 260.419 283.446 261.268C283.815 262.117 284 263.028 284 264V269.444C284 269.872 283.848 270.238 283.543 270.543C283.238 270.848 282.872 271 282.444 271H279.333V264.778H282.444V264C282.444 262.483 281.916 261.197 280.86 260.14C279.803 259.084 278.517 258.556 277 258.556C275.483 258.556 274.197 259.084 273.14 260.14C272.084 261.197 271.556 262.483 271.556 264V264.778H274.667V271Z" fill="white"/>
<rect x="116" y="169" width="126" height="30" fill="#11275F"/>
<rect x="116" y="249" width="126" height="30" fill="#1D3574"/>
<rect x="116" y="209" width="126" height="30" fill="#3DCC65"/>
<rect x="151" y="217" width="72" height="2" fill="white"/>
<rect x="151" y="223" width="51" height="2" fill="white"/>
<rect x="151" y="229" width="61" height="2" fill="white"/>
<path fill-rule="evenodd" clip-rule="evenodd" d="M135 227.914C135.774 227.914 136.531 227.684 137.174 227.254C137.818 226.824 138.32 226.213 138.616 225.497C138.912 224.782 138.989 223.995 138.838 223.236C138.687 222.477 138.315 221.78 137.767 221.232C137.22 220.685 136.522 220.312 135.763 220.161C135.004 220.01 134.217 220.088 133.502 220.384C132.786 220.68 132.175 221.182 131.745 221.826C131.315 222.469 131.086 223.226 131.086 224C131.087 225.038 131.5 226.032 132.233 226.766C132.967 227.5 133.962 227.913 135 227.914ZM126 222.882L128.221 222.657C128.285 222.65 128.346 222.624 128.394 222.582C128.443 222.54 128.477 222.484 128.491 222.421C128.654 221.749 128.921 221.106 129.281 220.515C129.315 220.46 129.33 220.397 129.326 220.333C129.322 220.269 129.298 220.207 129.258 220.157L127.844 218.426L129.425 216.846L131.157 218.257C131.207 218.298 131.268 218.322 131.332 218.326C131.396 218.331 131.46 218.315 131.515 218.282C132.105 217.921 132.748 217.654 133.421 217.492C133.483 217.477 133.54 217.443 133.582 217.394C133.624 217.346 133.65 217.285 133.657 217.222L133.881 215H136.116L136.343 217.221C136.35 217.285 136.376 217.346 136.418 217.394C136.46 217.442 136.517 217.477 136.579 217.492C137.252 217.654 137.895 217.921 138.485 218.282C138.54 218.315 138.604 218.331 138.668 218.326C138.732 218.322 138.793 218.298 138.843 218.257L140.575 216.846L142.156 218.426L140.742 220.157C140.702 220.207 140.677 220.268 140.673 220.332C140.668 220.396 140.684 220.46 140.717 220.515C141.078 221.105 141.345 221.748 141.509 222.421C141.523 222.483 141.557 222.539 141.605 222.582C141.653 222.624 141.714 222.65 141.777 222.657L144 222.882V225.117L141.779 225.343C141.715 225.349 141.655 225.375 141.606 225.418C141.558 225.46 141.524 225.516 141.509 225.579C141.346 226.251 141.079 226.895 140.718 227.485C140.684 227.54 140.668 227.604 140.673 227.668C140.677 227.732 140.702 227.793 140.743 227.843L142.156 229.573L140.575 231.154L138.843 229.742C138.793 229.701 138.732 229.677 138.667 229.673C138.603 229.669 138.539 229.684 138.483 229.718C137.894 230.078 137.251 230.345 136.579 230.508C136.517 230.523 136.461 230.557 136.418 230.605C136.376 230.654 136.35 230.714 136.344 230.778L136.116 233H133.881L133.657 230.778C133.65 230.715 133.624 230.654 133.582 230.606C133.54 230.558 133.484 230.524 133.421 230.508C132.749 230.346 132.105 230.079 131.515 229.718C131.46 229.685 131.396 229.669 131.332 229.674C131.268 229.678 131.207 229.702 131.157 229.742L129.425 231.154L127.845 229.573L129.258 227.842C129.298 227.792 129.322 227.731 129.326 227.667C129.33 227.603 129.314 227.539 129.281 227.484C128.921 226.894 128.655 226.251 128.491 225.579C128.476 225.517 128.442 225.46 128.394 225.418C128.345 225.376 128.285 225.35 128.221 225.343L126 225.117V222.882Z" fill="white"/>
<defs>
<clipPath id="clip0_208_4700">
<rect width="328" height="257" fill="white" transform="matrix(1 0 0 -1 172 449)"/>
</clipPath>
<clipPath id="clip1_208_4700">
<rect width="290" height="262" fill="white" transform="matrix(-1 0 0 1 290 0)"/>
</clipPath>
</defs>
</svg>
