<svg width="43" height="30" viewBox="0 0 43 30" fill="none" xmlns="http://www.w3.org/2000/svg">
<path d="M31.8949 8.78683C31.8949 8.78683 28.4084 19.8094 28.1243 20.7192C28.021 19.7834 25.4643 0 25.4643 0C19.5243 0 16.3477 4.26343 14.6691 8.76083C14.6691 8.76083 10.4336 19.8094 10.0721 20.7452C10.0462 19.8873 9.42643 8.89081 9.42643 8.89081C9.06487 3.37955 4.05465 0.0259963 0 0.0259963L4.90691 30C11.1309 29.974 14.4883 25.7366 16.2444 21.2392C16.2444 21.2392 19.9892 11.4905 20.1441 11.0485C20.17 11.4645 22.83 30 22.83 30C29.0799 30 32.4372 26.0225 34.245 21.6811L43 0.0259963C36.8276 0.0259963 33.5736 4.26343 31.8949 8.78683Z" fill="#4353FF"/>
</svg>
