<svg width="48" height="48" viewBox="0 0 48 48" fill="none" xmlns="http://www.w3.org/2000/svg">
<path fill-rule="evenodd" clip-rule="evenodd" d="M24 24C24 19.9499 27.2832 16.6667 31.3333 16.6667C35.3834 16.6667 38.6667 19.9499 38.6667 24C38.6667 28.0501 35.3834 31.3333 31.3333 31.3333C27.2832 31.3333 24 28.0501 24 24Z" fill="#1ABCFE"/>
<path fill-rule="evenodd" clip-rule="evenodd" d="M9.33325 38.6667C9.33325 34.6166 12.6165 31.3333 16.6666 31.3333H23.9999V38.6667C23.9999 42.7168 20.7167 46 16.6666 46C12.6165 46 9.33325 42.7168 9.33325 38.6667Z" fill="#0ACF83"/>
<path fill-rule="evenodd" clip-rule="evenodd" d="M24 2V16.6667H31.3333C35.3834 16.6667 38.6667 13.3834 38.6667 9.33333C38.6667 5.28325 35.3834 2 31.3333 2H24Z" fill="#FF7262"/>
<path fill-rule="evenodd" clip-rule="evenodd" d="M9.33325 9.33333C9.33325 13.3834 12.6165 16.6667 16.6666 16.6667H23.9999V2H16.6666C12.6165 2 9.33325 5.28325 9.33325 9.33333Z" fill="#F24E1E"/>
<path fill-rule="evenodd" clip-rule="evenodd" d="M9.33325 24C9.33325 28.0501 12.6165 31.3333 16.6666 31.3333H23.9999V16.6667H16.6666C12.6165 16.6667 9.33325 19.9499 9.33325 24Z" fill="#A259FF"/>
</svg>
