<svg width="48" height="48" viewBox="0 0 48 48" fill="none" xmlns="http://www.w3.org/2000/svg">
<path fill-rule="evenodd" clip-rule="evenodd" d="M11.6 6.2417L23.9999 5L36.3999 6.2417L45.9999 18.4483L23.9999 42.7142L2 18.4483L11.6 6.2417Z" fill="#FDB300"/>
<path d="M10.911 18.4483L23.9998 42.7143L2 18.4483H10.911ZM37.089 18.4483L24.0002 42.7143L46 18.4483" fill="#EA6C00"/>
<path fill-rule="evenodd" clip-rule="evenodd" d="M10.9109 18.4483H37.0886L23.9997 42.7143" fill="#FDAD00"/>
<path d="M23.9997 5L11.5998 6.2415L10.9109 18.4482L23.9997 5ZM24 5L36.3999 6.2415L37.0888 18.4482" fill="#FDD231"/>
<path d="M46 18.4481L36.4001 6.24146L37.089 18.4481H46ZM2 18.4481L11.5999 6.24146L10.911 18.4481" fill="#FDAD00"/>
<path fill-rule="evenodd" clip-rule="evenodd" d="M23.9997 5L10.9109 18.4482H37.0886" fill="#FEEEB7"/>
</svg>
