<svg width="39" height="39" viewBox="0 0 39 39" fill="none" xmlns="http://www.w3.org/2000/svg">
<path d="M1.45031 0C1.03251 0 0.64969 0.17623 0.389983 0.465028C0.155993 0.709558 0.0105401 1.0422 0 1.40394V1.50006C0.00463763 1.67166 0.0383659 1.83271 0.0986551 1.98069C0.101185 1.99376 0.106666 2.0043 0.111303 2.01737C0.158523 2.12909 0.217969 2.23281 0.293436 2.32936C0.319153 2.36604 0.348244 2.39976 0.379443 2.43054C0.384502 2.43855 0.392091 2.44614 0.400101 2.45415L5.02298 7.94258L6.6921 9.92369L11.6898 15.8548L13.3589 17.833L17.8334 23.1452L19.4996 25.1233V38.9995C19.591 38.9995 19.6796 38.997 19.7677 38.9894C20.6438 38.9274 21.4343 38.5526 22.0296 37.978C22.0325 37.978 22.0325 37.978 22.0325 37.975L22.5237 37.3903L34.5255 23.1452L38.6336 18.2672C38.6542 18.2465 38.6724 18.2229 38.6909 18.1998C38.779 18.0906 38.849 17.9679 38.9009 17.833C38.9662 17.6719 39 17.4953 39 17.3076V1.45074C39 1.06834 38.8515 0.717146 38.6074 0.462498C38.3448 0.17623 37.9674 0 37.5463 0H1.45031Z" fill="url(#paint0_linear_220_2840)"/>
<path fill-rule="evenodd" clip-rule="evenodd" d="M1.45031 0C1.03251 0 0.64969 0.17623 0.389983 0.465028C0.155993 0.709558 0.0105401 1.0422 0 1.40394V1.50006C0.00463763 1.67166 0.0383659 1.83271 0.0986551 1.98069C0.101185 1.99376 0.106666 2.0043 0.111303 2.01737C0.158523 2.12909 0.217969 2.23281 0.293436 2.32936C0.319153 2.36604 0.348244 2.39976 0.379443 2.43054C0.384502 2.43855 0.392091 2.44614 0.400101 2.45415L5.02298 7.94258L6.6921 9.92369L11.6898 15.8548L13.3589 17.833L17.8334 23.1452L19.4996 25.1233V38.9995C19.591 38.9995 19.6796 38.997 19.7677 38.9894C20.6438 38.9274 21.4343 38.5526 22.0296 37.978C22.0325 37.978 22.0325 37.978 22.0325 37.975L22.5237 37.3903L34.5255 23.1452L38.6336 18.2672C38.6542 18.2465 38.6724 18.2229 38.6909 18.1998C38.779 18.0906 38.849 17.9679 38.9009 17.833C38.9662 17.6719 39 17.4953 39 17.3076V1.45074C39 1.06834 38.8515 0.717146 38.6074 0.462498C38.3448 0.17623 37.9674 0 37.5463 0H1.45031Z" fill="#FD5552"/>
<path fill-rule="evenodd" clip-rule="evenodd" d="M19.5 33.0666V38.9994C18.5172 38.9994 17.6255 38.6095 16.9699 37.9775C16.9674 37.9775 16.9674 37.9775 16.9674 37.9754L16.4762 37.3902L4.47447 23.1451L0.389983 18.2958C0.379443 18.2907 0.371854 18.2802 0.366373 18.2696L0.301446 18.1946C0.296387 18.1891 0.293436 18.1841 0.288799 18.1786C0.21038 18.0723 0.142924 17.9577 0.0986555 17.8329C0.0387879 17.6849 0.00505923 17.5238 0 17.3573V17.2586C0 17.2274 0.00253004 17.1958 0.00801088 17.1646C0.0362583 16.8375 0.176652 16.5457 0.389983 16.3172C0.652642 16.0339 1.03208 15.8547 1.45031 15.8547H4.99473L6.66132 17.8329L11.1358 23.1451L18.4725 31.8524L19.4974 33.0692L19.5 33.0666Z" fill="#FCD1CA"/>
<path fill-rule="evenodd" clip-rule="evenodd" d="M19.5 25.1245V33.0658L19.4974 33.0684L18.4738 31.8521L11.1371 23.1455L6.66175 17.8342L4.99473 15.8548L0.363 10.3604C0.343606 10.3389 0.324213 10.3145 0.304819 10.2896C0.219656 10.1804 0.148826 10.0586 0.0973906 9.92407C0.0392094 9.77566 0.00505923 9.61461 0 9.44428V9.34647C0.00969686 8.98347 0.155994 8.65673 0.389983 8.40841C0.650955 8.12045 1.03082 7.94254 1.45031 7.94254H5.02382L6.69337 9.92407L11.6906 15.8548L13.3576 17.8342L17.833 23.1455L19.5 25.1245Z" fill="#FF9D8D"/>
<defs>
<linearGradient id="paint0_linear_220_2840" x1="3504.8" y1="-461.707" x2="501.641" y2="2541.52" gradientUnits="userSpaceOnUse">
<stop stop-color="#FF6660"/>
<stop offset="1" stop-color="#FB4444"/>
</linearGradient>
</defs>
</svg>
