<svg width="48" height="48" viewBox="0 0 48 48" fill="none" xmlns="http://www.w3.org/2000/svg">
<path d="M4 38.2013V10.4583C4 10.2696 4.08111 10.1618 4.27035 10.1618C7.06417 10.1618 9.85672 10 12.6513 10C17.1859 10 22.0958 11.5076 23.8169 16.1202C24.2224 17.2525 24.4387 18.4119 24.4387 19.6251C24.4387 21.9438 23.898 23.858 22.8166 25.3678C19.7958 29.5854 14.56 29.5198 9.86666 29.5198V38.1744C9.90336 38.4306 9.6788 38.5518 9.46113 38.5518H4.32442C4.10814 38.5518 4 38.444 4 38.2013ZM9.8937 15.3653V24.4242C11.7546 24.5567 13.702 24.5711 15.49 23.9928C17.464 23.4392 18.545 21.7777 18.545 19.7869C18.5999 18.0905 17.6492 16.4628 16.0307 15.8506C14.2642 15.1364 11.8006 15.0936 9.8937 15.3653Z" fill="#31A8FF"/>
<path d="M41.301 22.6344C40.4829 22.2152 39.6117 21.9086 38.7111 21.7228C37.5538 21.458 32.9891 20.5307 32.9873 22.8514C33.0278 24.1471 35.143 24.7818 36.0777 25.152C39.3586 26.2473 43.0715 28.205 42.9985 32.1406C43.0988 37.04 38.2168 38.9985 34.0319 38.999C31.8533 39.0209 29.5838 38.6928 27.5899 37.7835C27.3996 37.6856 27.2771 37.4761 27.2853 37.2626V32.5747C27.2638 32.3867 27.4713 32.2224 27.6335 32.3576C29.587 33.5064 31.9026 34.0641 34.1625 34.0939C35.1601 34.0939 37.1374 33.9999 37.1224 32.5747C37.1224 31.2069 34.7571 30.5781 33.8143 30.2306C32.4476 29.7563 31.1517 29.0992 29.9621 28.2773C28.2998 27.1244 27.2569 25.2758 27.2853 23.2421C27.2755 18.629 31.7694 16.5583 35.8166 16.5574C37.7086 16.5422 39.7403 16.6784 41.5015 17.4255C41.7548 17.498 41.8072 17.7574 41.8061 17.9898V22.3739C41.8222 22.6461 41.5114 22.7387 41.301 22.6344Z" fill="#31A8FF"/>
</svg>
