<svg width="48" height="48" viewBox="0 0 48 48" fill="none" xmlns="http://www.w3.org/2000/svg">
<path d="M25.526 11.6719L18.1339 24.4798L26.0426 38.0804C26.207 38.3887 26.0426 38.4568 25.8042 38.4568H20.1609C19.7634 38.4568 19.4852 38.4421 19.3262 38.1637C18.7959 37.0791 18.266 36.0013 17.7365 34.9305C17.2062 33.8601 16.6432 32.7684 16.0475 31.6555C15.4514 30.5435 14.8619 29.417 14.279 28.2762C13.7487 29.389 13.1591 30.5015 12.5899 31.6138C12.0199 32.7265 11.4569 33.8321 10.9009 34.9305C10.3445 36.0295 9.77492 37.1212 9.19203 38.2055C9.08585 38.4558 8.90012 38.4816 8.63555 38.4816H3.19097C2.97705 38.4816 2.95123 38.317 3.07177 38.122L10.7419 24.8969L3.2704 11.6301C3.13468 11.4409 3.25149 11.2391 3.46916 11.2547H9.07272C9.31535 11.2406 9.52979 11.3344 9.66886 11.5468C10.1458 12.6594 10.6757 13.7719 11.2585 14.8843C11.841 15.997 12.4306 17.0956 13.0271 18.1801C13.6232 19.2648 14.2128 20.3634 14.7162 21.476C15.2458 20.3358 15.7823 19.2233 16.3257 18.1384C16.8685 17.0537 17.4248 15.962 17.9948 14.8634C18.5643 13.765 19.1141 12.6734 19.6441 11.5884C19.7146 11.3505 19.8829 11.2299 20.1211 11.2547H25.3272C25.526 11.2547 25.6082 11.5324 25.526 11.6719Z" fill="#FF61F6"/>
<path d="M36.9317 38.9985C33.4268 39.0544 29.7556 37.5775 27.9102 34.305C27.0091 32.734 26.5587 30.7662 26.559 28.4017C26.544 26.487 27.0101 24.6019 27.9102 22.9365C30.2327 18.6873 34.9115 17.0952 39.3559 17.513V9.29422C39.3559 9.09994 39.4354 9.00219 39.5944 9.00219H44.6018C44.7387 8.98165 44.8598 9.10879 44.8404 9.25246V33.9087C44.8404 34.926 44.9388 35.9397 44.9993 36.9542C45.0091 37.1275 44.9111 37.2989 44.7608 37.3714C42.2866 38.4546 39.6096 38.9859 36.9317 38.9985ZM39.3559 33.8252V22.4359C35.7261 21.4036 32.2018 24.2334 32.2023 28.1514C32.1161 32.202 35.5276 35.0006 39.3559 33.8252Z" fill="#FF61F6"/>
</svg>
