<svg width="38" height="33" viewBox="0 0 38 33" fill="none" xmlns="http://www.w3.org/2000/svg">
<path d="M8.49523 6.89498C10.3554 6.89498 11.9136 5.40264 11.9136 3.44671C11.9136 1.49212 10.3554 0 8.49523 0C6.63509 0 5.07725 1.49212 5.07725 3.44671C5.07725 5.40241 6.63509 6.89498 8.49523 6.89498ZM1.40746 25.358C1.20658 26.2328 1.10581 27.1774 1.10581 27.948C1.10581 30.9843 2.71436 33 6.13278 33C8.96781 33 11.2662 31.2768 12.9211 28.4941L11.9106 32.6451H17.5402L20.7577 19.4358C21.5621 16.0913 23.1204 14.3553 25.4833 14.3553C27.3432 14.3553 28.4993 15.5394 28.4993 17.494C28.4993 18.0602 28.449 18.6771 28.2479 19.3463L26.5889 25.4179C26.3375 26.2927 26.2374 27.168 26.2374 27.9907C26.2374 30.8731 27.8958 32.9814 31.3645 32.9814C34.3304 32.9814 36.6929 31.0271 38 26.3444L35.7884 25.4705C34.6823 28.6075 33.7271 29.1747 32.973 29.1747C32.2189 29.1747 31.8167 28.6606 31.8167 27.632C31.8167 27.1689 31.9177 26.655 32.0681 26.0361L33.6771 20.1209C34.0791 18.7319 34.2301 17.5002 34.2301 16.3686C34.2301 11.9434 31.6158 9.634 28.449 9.634C25.4833 9.634 22.4668 12.3723 20.9591 15.2543L22.0646 10.0815H13.4691L12.2625 14.6377H16.2842L13.8077 24.7865C11.8629 29.2116 8.29064 29.2835 7.84232 29.1808C7.10613 29.0107 6.63531 28.7246 6.63531 27.7455C6.63531 27.1805 6.73585 26.369 6.98722 25.3906L10.7578 10.0815H1.20658L0 14.6377H3.971L1.40746 25.358Z" fill="#FF3366"/>
</svg>
