<svg width="500" height="449" viewBox="0 0 500 449" fill="none" xmlns="http://www.w3.org/2000/svg">
<g opacity="0.3" clip-path="url(#clip0_199_19799)">
<g opacity="0.9">
<path d="M499.108 188.003C502.109 146.498 431.551 107.577 341.514 101.072C251.476 94.5664 176.054 122.939 173.053 164.444C170.052 205.949 240.609 244.869 330.647 251.375C420.684 257.88 496.107 229.508 499.108 188.003Z" stroke="#36B7FF" stroke-width="0.8" stroke-miterlimit="10"/>
<path opacity="0.5" d="M493.114 179.399C494.291 138.891 423.86 103.979 335.801 101.421C247.742 98.8638 175.402 129.629 174.225 170.137C173.047 210.645 243.479 245.557 331.537 248.115C419.596 250.673 491.936 219.908 493.114 179.399Z" stroke="#36B7FF" stroke-width="0.8" stroke-miterlimit="10"/>
<path opacity="0.5" d="M332.455 245.097C418.483 243.706 487.702 210.416 487.06 170.742C486.418 131.068 416.158 100.034 330.13 101.425C244.102 102.817 174.882 136.106 175.524 175.78C176.166 215.454 246.427 246.488 332.455 245.097Z" stroke="#36B7FF" stroke-width="0.8" stroke-miterlimit="10"/>
<path opacity="0.5" d="M333.335 241.897C417.389 236.557 483.53 200.812 481.066 162.059C478.602 123.305 408.466 96.2187 324.413 101.559C240.36 106.899 174.218 142.644 176.682 181.398C179.146 220.151 249.282 247.237 333.335 241.897Z" stroke="#36B7FF" stroke-width="0.8" stroke-miterlimit="10"/>
<path opacity="0.5" d="M334.206 238.75C416.326 229.455 479.432 191.325 475.157 153.584C470.882 115.843 400.846 92.7828 318.726 102.078C236.607 111.373 173.501 149.503 177.775 187.244C182.05 224.985 252.086 248.045 334.206 238.75Z" stroke="#36B7FF" stroke-width="0.8" stroke-miterlimit="10"/>
<path opacity="0.5" d="M335.335 235.635C415.443 222.388 475.437 181.754 469.335 144.875C463.233 107.997 393.345 88.8396 313.237 102.087C233.128 115.333 173.134 155.968 179.236 192.847C185.339 229.725 255.226 248.882 335.335 235.635Z" stroke="#36B7FF" stroke-width="0.8" stroke-miterlimit="10"/>
<path opacity="0.5" d="M336.197 232.361C414.312 215.162 471.222 172.105 463.309 136.191C455.396 100.277 385.657 85.1059 307.542 102.305C229.428 119.505 172.518 162.562 180.43 198.476C188.343 234.39 258.082 249.561 336.197 232.361Z" stroke="#36B7FF" stroke-width="0.8" stroke-miterlimit="10"/>
<path opacity="0.5" d="M337.051 229.129C413.185 207.975 467.023 162.48 457.302 127.514C447.58 92.5485 377.98 81.3518 301.845 102.506C225.711 123.66 171.873 169.155 181.595 204.121C191.317 239.087 260.917 250.283 337.051 229.129Z" stroke="#36B7FF" stroke-width="0.8" stroke-miterlimit="10"/>
<path opacity="0.5" d="M337.975 226.107C412.011 201.03 462.648 153.024 451.076 118.882C439.505 84.7405 370.106 77.3921 296.07 102.469C222.033 127.546 171.396 175.552 182.968 209.694C194.54 243.836 263.939 251.184 337.975 226.107Z" stroke="#36B7FF" stroke-width="0.8" stroke-miterlimit="10"/>
<path opacity="0.5" d="M338.92 223.116C410.975 194.086 458.533 143.63 445.144 110.419C431.755 77.2087 362.489 73.8196 290.434 102.85C218.379 131.88 170.821 182.336 184.21 215.546C197.599 248.757 266.865 252.146 338.92 223.116Z" stroke="#36B7FF" stroke-width="0.8" stroke-miterlimit="10"/>
<path opacity="0.5" d="M339.989 219.838C410.054 186.857 454.525 133.949 439.318 101.664C424.111 69.3788 354.984 69.943 284.919 102.924C214.855 135.905 170.384 188.813 185.591 221.098C200.798 253.383 269.924 252.819 339.989 219.838Z" stroke="#36B7FF" stroke-width="0.8" stroke-miterlimit="10"/>
<path opacity="0.5" d="M340.865 216.658C408.932 179.729 450.307 124.366 433.28 93.0018C416.252 61.6376 347.269 66.149 279.203 103.078C211.136 140.008 169.761 195.371 186.788 226.735C203.816 258.099 272.799 253.588 340.865 216.658Z" stroke="#36B7FF" stroke-width="0.8" stroke-miterlimit="10"/>
<path opacity="0.5" d="M341.744 213.483C407.802 172.609 446.07 114.793 427.219 84.3467C408.367 53.9002 339.535 62.3529 273.478 103.226C207.42 144.1 169.152 201.916 188.003 232.363C206.854 262.809 275.687 254.356 341.744 213.483Z" stroke="#36B7FF" stroke-width="0.8" stroke-miterlimit="10"/>
<path opacity="0.5" d="M342.623 210.337C406.669 165.528 441.826 105.261 421.149 75.7264C400.472 46.1917 331.791 58.5738 267.745 103.383C203.699 148.191 168.542 208.459 189.219 237.993C209.896 267.528 278.577 255.146 342.623 210.337Z" stroke="#36B7FF" stroke-width="0.8" stroke-miterlimit="10"/>
<path opacity="0.5" d="M343.512 207.194C405.637 158.376 437.811 95.6725 415.376 67.1409C392.941 38.6092 324.392 55.054 262.268 103.871C200.144 152.689 167.969 215.393 190.404 243.924C212.839 272.456 281.388 256.011 343.512 207.194Z" stroke="#36B7FF" stroke-width="0.8" stroke-miterlimit="10"/>
<path opacity="0.5" d="M344.565 203.942C404.675 151.193 433.731 86.027 409.462 58.3909C385.194 30.7549 316.793 51.1136 256.683 103.863C196.573 156.613 167.517 221.779 191.785 249.415C216.054 277.051 284.455 256.692 344.565 203.942Z" stroke="#36B7FF" stroke-width="0.8" stroke-miterlimit="10"/>
<path opacity="0.5" d="M345.489 200.831C403.593 144.134 429.523 76.488 403.405 49.7393C377.287 22.9907 309.012 47.2688 250.907 103.966C192.803 160.663 166.873 228.31 192.991 255.058C219.109 281.807 287.385 257.529 345.489 200.831Z" stroke="#36B7FF" stroke-width="0.8" stroke-miterlimit="10"/>
<path opacity="0.5" d="M346.291 197.608C402.409 136.947 425.287 66.8637 397.39 41.0724C369.493 15.2811 301.385 43.5485 245.266 104.209C189.148 164.87 166.27 234.953 194.167 260.745C222.064 286.536 290.172 258.269 346.291 197.608Z" stroke="#36B7FF" stroke-width="0.8" stroke-miterlimit="10"/>
<path opacity="0.3" d="M347.262 194.563C401.333 130.011 421.023 57.4724 391.241 32.5429C361.46 7.6134 293.485 39.7336 239.414 104.285C185.344 168.837 165.654 241.376 195.435 266.305C225.217 291.235 293.192 259.115 347.262 194.563Z" stroke="#36B7FF" stroke-width="0.8" stroke-miterlimit="10"/>
<path opacity="0.3" d="M348.312 191.552C400.446 122.975 417.091 47.9201 385.489 23.9111C353.888 -0.0979047 286.006 36.0312 233.872 104.608C181.738 173.184 165.093 248.24 196.695 272.249C228.297 296.258 296.178 260.128 348.312 191.552Z" stroke="#36B7FF" stroke-width="0.8" stroke-miterlimit="10"/>
<path opacity="0.3" d="M349.053 188.311C399.134 115.86 412.697 38.4507 379.347 15.4125C345.996 -7.62571 278.362 32.4315 228.28 104.883C178.199 177.334 164.635 254.744 197.986 277.782C231.336 300.82 298.971 260.763 349.053 188.311Z" stroke="#36B7FF" stroke-width="0.8" stroke-miterlimit="10"/>
<path opacity="0.3" d="M350.15 185.051C398.22 108.669 408.626 28.7865 373.393 6.62746C338.16 -15.5316 270.63 28.4243 222.56 104.806C174.49 181.187 164.083 261.07 199.316 283.229C234.549 305.388 302.08 261.432 350.15 185.051Z" stroke="#36B7FF" stroke-width="0.8" stroke-miterlimit="10"/>
</g>
</g>
<g opacity="0.3" clip-path="url(#clip1_199_19799)">
<g opacity="0.9">
<path d="M0.789107 277.386C-1.86407 314.167 60.5188 348.656 140.125 354.421C219.731 360.186 286.416 335.043 289.069 298.263C291.722 261.483 229.339 226.993 149.733 221.228C70.1268 215.463 3.44228 240.606 0.789107 277.386Z" stroke="#36B7FF" stroke-width="0.8" stroke-miterlimit="10"/>
<path opacity="0.5" d="M6.08852 285.01C5.04757 320.907 67.3192 351.845 145.176 354.111C223.033 356.378 286.992 329.115 288.033 293.218C289.074 257.321 226.803 226.384 148.946 224.117C71.0888 221.851 7.12948 249.113 6.08852 285.01Z" stroke="#36B7FF" stroke-width="0.8" stroke-miterlimit="10"/>
<path opacity="0.5" d="M148.135 226.791C72.0731 228.024 10.8731 257.524 11.4407 292.682C12.0083 327.839 74.1286 355.34 150.19 354.108C226.252 352.875 287.452 323.375 286.884 288.217C286.317 253.06 224.196 225.559 148.135 226.791Z" stroke="#36B7FF" stroke-width="0.8" stroke-miterlimit="10"/>
<path opacity="0.5" d="M147.356 229.627C73.0407 234.359 14.5621 266.035 16.7405 300.377C18.9188 334.718 80.9293 358.722 155.245 353.989C229.56 349.257 288.039 317.581 285.86 283.239C283.682 248.898 221.672 224.895 147.356 229.627Z" stroke="#36B7FF" stroke-width="0.8" stroke-miterlimit="10"/>
<path opacity="0.5" d="M146.586 232.415C73.9804 240.652 18.1855 274.442 21.9649 307.886C25.7443 341.331 87.6667 361.766 160.273 353.529C232.878 345.292 288.673 311.503 284.894 278.058C281.114 244.614 219.192 224.179 146.586 232.415Z" stroke="#36B7FF" stroke-width="0.8" stroke-miterlimit="10"/>
<path opacity="0.5" d="M145.588 235.176C74.7604 246.915 21.717 282.924 27.1123 315.604C32.5077 348.284 94.2986 365.261 165.126 353.522C235.954 341.783 288.997 305.774 283.602 273.094C278.207 240.413 216.416 223.437 145.588 235.176Z" stroke="#36B7FF" stroke-width="0.8" stroke-miterlimit="10"/>
<path opacity="0.5" d="M144.826 238.078C75.7609 253.319 25.4442 291.474 32.4402 323.3C39.4363 355.126 101.096 368.57 170.161 353.328C239.226 338.087 289.542 299.931 282.546 268.106C275.55 236.28 213.891 222.836 144.826 238.078Z" stroke="#36B7FF" stroke-width="0.8" stroke-miterlimit="10"/>
<path opacity="0.5" d="M144.071 240.941C76.7568 259.687 29.1562 300.003 37.7517 330.988C46.3472 361.974 107.884 371.896 175.198 353.15C242.511 334.404 290.112 294.088 281.517 263.103C272.921 232.117 211.384 222.195 144.071 240.941Z" stroke="#36B7FF" stroke-width="0.8" stroke-miterlimit="10"/>
<path opacity="0.5" d="M143.254 243.619C77.7955 265.842 33.0248 308.383 43.2559 338.638C53.4871 368.893 114.846 375.405 180.305 353.183C245.763 330.961 290.534 288.419 280.303 258.164C270.072 227.909 208.713 221.397 143.254 243.619Z" stroke="#36B7FF" stroke-width="0.8" stroke-miterlimit="10"/>
<path opacity="0.5" d="M142.419 246.27C78.7116 271.995 36.6631 316.707 48.5009 346.137C60.3387 375.567 121.58 378.571 185.287 352.845C248.994 327.12 291.043 282.408 279.205 252.978C267.367 223.548 206.126 220.544 142.419 246.27Z" stroke="#36B7FF" stroke-width="0.8" stroke-miterlimit="10"/>
<path opacity="0.5" d="M141.473 249.175C79.5255 278.401 40.2067 325.287 53.652 353.896C67.0973 382.506 128.215 382.006 190.163 352.779C252.11 323.553 291.429 276.668 277.984 248.058C264.538 219.448 203.42 219.948 141.473 249.175Z" stroke="#36B7FF" stroke-width="0.8" stroke-miterlimit="10"/>
<path opacity="0.5" d="M140.699 251.993C80.5179 284.718 43.9361 333.779 58.9911 361.573C74.046 389.366 135.037 385.369 195.218 352.643C255.399 319.918 291.98 270.857 276.925 243.064C261.87 215.27 200.88 219.268 140.699 251.993Z" stroke="#36B7FF" stroke-width="0.8" stroke-miterlimit="10"/>
<path opacity="0.5" d="M139.922 254.806C81.517 291.027 47.6823 342.261 64.3496 369.242C81.0169 396.222 141.875 388.732 200.279 352.511C258.684 316.291 292.518 265.056 275.851 238.076C259.184 211.095 198.326 218.586 139.922 254.806Z" stroke="#36B7FF" stroke-width="0.8" stroke-miterlimit="10"/>
<path opacity="0.5" d="M139.144 257.594C82.5185 297.302 51.4343 350.708 69.7159 376.881C87.9975 403.053 148.722 392.081 205.348 352.373C261.974 312.665 293.058 259.259 274.776 233.086C256.495 206.914 195.77 217.886 139.144 257.594Z" stroke="#36B7FF" stroke-width="0.8" stroke-miterlimit="10"/>
<path opacity="0.5" d="M138.358 260.379C83.4314 303.64 54.9844 359.205 74.8201 384.489C94.6559 409.773 155.263 395.2 210.19 351.94C265.117 308.68 293.564 253.114 273.728 227.83C253.892 202.547 193.285 217.119 138.358 260.379Z" stroke="#36B7FF" stroke-width="0.8" stroke-miterlimit="10"/>
<path opacity="0.5" d="M137.427 263.261C84.2814 310.006 58.5921 367.753 80.0486 392.243C101.505 416.733 161.982 398.692 215.128 351.947C268.274 305.202 293.963 247.455 272.507 222.965C251.05 198.475 190.573 216.516 137.427 263.261Z" stroke="#36B7FF" stroke-width="0.8" stroke-miterlimit="10"/>
<path opacity="0.5" d="M136.61 266.018C85.2378 316.261 62.3119 376.206 85.4041 399.91C108.496 423.613 168.862 402.099 220.234 351.856C271.607 301.613 294.533 241.668 271.441 217.964C248.349 194.26 187.983 215.775 136.61 266.018Z" stroke="#36B7FF" stroke-width="0.8" stroke-miterlimit="10"/>
<path opacity="0.5" d="M135.902 268.875C86.2847 322.63 66.0573 384.735 90.7224 407.59C115.388 430.445 175.605 405.396 225.222 351.641C274.839 297.885 295.066 235.78 270.401 212.925C245.736 190.07 185.519 215.119 135.902 268.875Z" stroke="#36B7FF" stroke-width="0.8" stroke-miterlimit="10"/>
<path opacity="0.3" d="M135.043 271.573C87.2365 328.776 69.8276 393.057 96.1587 415.149C122.49 437.24 182.59 408.777 230.396 351.573C278.202 294.37 295.611 230.089 269.28 207.997C242.949 185.906 182.849 214.369 135.043 271.573Z" stroke="#36B7FF" stroke-width="0.8" stroke-miterlimit="10"/>
<path opacity="0.3" d="M134.114 274.241C88.0202 335.011 73.3037 401.522 101.244 422.798C129.185 444.074 189.202 412.057 235.296 351.287C281.39 290.518 296.107 224.006 268.166 202.731C240.226 181.455 180.209 213.471 134.114 274.241Z" stroke="#36B7FF" stroke-width="0.8" stroke-miterlimit="10"/>
<path opacity="0.3" d="M133.46 277.112C89.1802 341.316 77.1884 409.913 106.675 430.329C136.162 450.745 195.961 415.247 240.24 351.044C284.52 286.84 296.511 218.243 267.025 197.827C237.538 177.412 177.739 212.909 133.46 277.112Z" stroke="#36B7FF" stroke-width="0.8" stroke-miterlimit="10"/>
<path opacity="0.3" d="M132.49 280.002C89.9888 347.688 80.788 418.477 111.939 438.114C143.09 457.75 202.797 418.798 245.298 351.112C287.799 283.426 296.999 212.637 265.848 193C234.697 173.364 174.991 212.316 132.49 280.002Z" stroke="#36B7FF" stroke-width="0.8" stroke-miterlimit="10"/>
</g>
</g>
<rect x="75" y="124" width="350" height="200" fill="#0B2158"/>
<rect x="77" y="126" width="346" height="19" fill="#001241"/>
<rect x="78" y="145" width="42" height="177" fill="#11275F"/>
<rect x="84" y="158" width="27" height="5" fill="#1D3574"/>
<rect x="84" y="166" width="27" height="2" fill="#1D3574"/>
<rect x="84" y="177" width="27" height="2" fill="#1D3574"/>
<rect x="84" y="182" width="19" height="2" fill="#1D3574"/>
<rect x="84" y="192" width="22" height="2" fill="#1D3574"/>
<rect x="84" y="187" width="14" height="2" fill="#1D3574"/>
<rect x="84" y="296" width="27" height="2" fill="#1D3574"/>
<rect x="84" y="301" width="19" height="2" fill="#1D3574"/>
<rect x="84" y="311" width="22" height="2" fill="#1D3574"/>
<rect x="84" y="306" width="14" height="2" fill="#1D3574"/>
<rect x="84" y="203" width="27" height="2" fill="#1D3574"/>
<rect x="84" y="208" width="19" height="2" fill="#1D3574"/>
<rect x="84" y="218" width="22" height="2" fill="#1D3574"/>
<rect x="84" y="213" width="14" height="2" fill="#1D3574"/>
<rect width="27" height="1" transform="matrix(1 0 0 -1 84 250)" fill="#1D3574"/>
<rect width="19" height="1" transform="matrix(1 0 0 -1 84 245)" fill="#1D3574"/>
<rect width="22" height="1" transform="matrix(1 0 0 -1 84 235)" fill="#1D3574"/>
<rect width="14" height="1" transform="matrix(1 0 0 -1 84 240)" fill="#1D3574"/>
<circle cx="86" cy="135" r="2" fill="#FF5652"/>
<circle cx="92" cy="135" r="2" fill="#FFBD2F"/>
<circle cx="98" cy="135" r="2" fill="#00C83A"/>
<path d="M209.049 137.534C209.499 137.227 209.968 136.999 210.457 136.849C210.945 136.7 211.46 136.625 212 136.625C212.54 136.625 213.055 136.7 213.543 136.849C214.032 136.999 214.501 137.227 214.951 137.534C215.262 137.192 215.498 136.805 215.659 136.372C215.819 135.94 215.9 135.482 215.9 135C215.9 133.92 215.52 132.999 214.76 132.24C213.999 131.48 213.078 131.1 211.997 131.1C210.916 131.1 209.996 131.48 209.237 132.24C208.479 132.999 208.1 133.92 208.1 135C208.1 135.482 208.18 135.94 208.341 136.372C208.502 136.805 208.738 137.192 209.049 137.534ZM212 135.775C211.535 135.775 211.14 135.612 210.814 135.286C210.488 134.961 210.325 134.565 210.325 134.1C210.325 133.635 210.488 133.24 210.814 132.914C211.14 132.588 211.535 132.425 212 132.425C212.465 132.425 212.86 132.588 213.186 132.914C213.512 133.24 213.675 133.635 213.675 134.1C213.675 134.565 213.512 134.96 213.186 135.286C212.86 135.612 212.465 135.775 212 135.775ZM212.003 139.55C211.375 139.55 210.784 139.432 210.231 139.197C209.678 138.961 209.194 138.636 208.779 138.221C208.364 137.806 208.039 137.322 207.803 136.769C207.568 136.217 207.45 135.625 207.45 134.994C207.45 134.364 207.568 133.774 207.803 133.225C208.039 132.676 208.364 132.195 208.779 131.78C209.194 131.364 209.678 131.039 210.231 130.804C210.783 130.568 211.375 130.45 212.006 130.45C212.636 130.45 213.226 130.568 213.775 130.804C214.324 131.039 214.806 131.364 215.221 131.78C215.636 132.195 215.961 132.677 216.197 133.228C216.432 133.779 216.55 134.368 216.55 134.997C216.55 135.625 216.432 136.216 216.197 136.769C215.961 137.322 215.636 137.806 215.221 138.221C214.806 138.636 214.323 138.961 213.772 139.197C213.222 139.432 212.632 139.55 212.003 139.55ZM212 138.9C212.443 138.9 212.878 138.823 213.305 138.67C213.732 138.516 214.121 138.297 214.471 138.011C214.113 137.776 213.725 137.595 213.307 137.467C212.89 137.339 212.454 137.275 212 137.275C211.546 137.275 211.107 137.336 210.684 137.458C210.261 137.58 209.876 137.765 209.529 138.011C209.879 138.297 210.267 138.516 210.695 138.67C211.122 138.823 211.557 138.9 212 138.9ZM212 135.125C212.282 135.125 212.523 135.025 212.724 134.824C212.925 134.624 213.025 134.382 213.025 134.1C213.025 133.818 212.925 133.577 212.724 133.376C212.523 133.175 212.282 133.075 212 133.075C211.718 133.075 211.477 133.175 211.276 133.376C211.075 133.577 210.975 133.818 210.975 134.1C210.975 134.382 211.075 134.624 211.276 134.824C211.477 135.025 211.718 135.125 212 135.125Z" fill="#9DB9FF"/>
<path d="M220.56 138.5V132.74H222.308C222.369 132.74 222.473 132.741 222.62 132.744C222.769 132.747 222.912 132.757 223.048 132.776C223.485 132.837 223.851 133 224.144 133.264C224.437 133.528 224.657 133.864 224.804 134.272C224.951 134.68 225.024 135.129 225.024 135.62C225.024 136.111 224.951 136.56 224.804 136.968C224.657 137.376 224.437 137.712 224.144 137.976C223.851 138.24 223.485 138.403 223.048 138.464C222.915 138.48 222.772 138.491 222.62 138.496C222.468 138.499 222.364 138.5 222.308 138.5H220.56ZM221.168 137.936H222.308C222.417 137.936 222.535 137.933 222.66 137.928C222.788 137.92 222.897 137.907 222.988 137.888C223.324 137.829 223.595 137.693 223.8 137.48C224.008 137.267 224.16 137 224.256 136.68C224.352 136.357 224.4 136.004 224.4 135.62C224.4 135.233 224.352 134.879 224.256 134.556C224.16 134.233 224.008 133.967 223.8 133.756C223.592 133.545 223.321 133.411 222.988 133.352C222.897 133.333 222.787 133.321 222.656 133.316C222.528 133.308 222.412 133.304 222.308 133.304H221.168V137.936ZM225.935 138.5V134.18H226.463V135.22L226.359 135.084C226.407 134.956 226.47 134.839 226.547 134.732C226.624 134.623 226.708 134.533 226.799 134.464C226.911 134.365 227.042 134.291 227.191 134.24C227.34 134.187 227.491 134.156 227.643 134.148C227.795 134.137 227.934 134.148 228.059 134.18V134.732C227.902 134.692 227.73 134.683 227.543 134.704C227.356 134.725 227.184 134.8 227.027 134.928C226.883 135.04 226.775 135.175 226.703 135.332C226.631 135.487 226.583 135.652 226.559 135.828C226.535 136.001 226.523 136.173 226.523 136.344V138.5H225.935ZM229.89 138.62C229.564 138.62 229.291 138.561 229.07 138.444C228.851 138.327 228.687 138.171 228.578 137.976C228.468 137.781 228.414 137.569 228.414 137.34C228.414 137.105 228.46 136.905 228.554 136.74C228.65 136.572 228.779 136.435 228.942 136.328C229.107 136.221 229.298 136.14 229.514 136.084C229.732 136.031 229.974 135.984 230.238 135.944C230.504 135.901 230.764 135.865 231.018 135.836C231.274 135.804 231.498 135.773 231.69 135.744L231.482 135.872C231.49 135.445 231.407 135.129 231.234 134.924C231.06 134.719 230.759 134.616 230.33 134.616C230.034 134.616 229.783 134.683 229.578 134.816C229.375 134.949 229.232 135.16 229.15 135.448L228.578 135.28C228.676 134.893 228.875 134.593 229.174 134.38C229.472 134.167 229.86 134.06 230.338 134.06C230.732 134.06 231.067 134.135 231.342 134.284C231.619 134.431 231.815 134.644 231.93 134.924C231.983 135.049 232.018 135.189 232.034 135.344C232.05 135.499 232.058 135.656 232.058 135.816V138.5H231.534V137.416L231.686 137.48C231.539 137.851 231.311 138.133 231.002 138.328C230.692 138.523 230.322 138.62 229.89 138.62ZM229.958 138.112C230.232 138.112 230.472 138.063 230.678 137.964C230.883 137.865 231.048 137.731 231.174 137.56C231.299 137.387 231.38 137.192 231.418 136.976C231.45 136.837 231.467 136.685 231.47 136.52C231.472 136.352 231.474 136.227 231.474 136.144L231.698 136.26C231.498 136.287 231.28 136.313 231.046 136.34C230.814 136.367 230.584 136.397 230.358 136.432C230.134 136.467 229.931 136.508 229.75 136.556C229.627 136.591 229.508 136.64 229.394 136.704C229.279 136.765 229.184 136.848 229.11 136.952C229.038 137.056 229.002 137.185 229.002 137.34C229.002 137.465 229.032 137.587 229.094 137.704C229.158 137.821 229.259 137.919 229.398 137.996C229.539 138.073 229.726 138.112 229.958 138.112ZM233.527 138.5V133.86C233.527 133.748 233.532 133.637 233.543 133.528C233.556 133.419 233.582 133.315 233.619 133.216C233.656 133.115 233.715 133.021 233.795 132.936C233.883 132.84 233.979 132.771 234.083 132.728C234.187 132.683 234.295 132.653 234.407 132.64C234.522 132.627 234.634 132.62 234.743 132.62H235.295V133.116H234.783C234.559 133.116 234.391 133.171 234.279 133.28C234.17 133.389 234.115 133.561 234.115 133.796V138.5H233.527ZM232.779 134.684V134.18H235.295V134.684H232.779ZM238.287 138.5C238.044 138.551 237.804 138.571 237.567 138.56C237.332 138.549 237.122 138.499 236.935 138.408C236.751 138.317 236.611 138.176 236.515 137.984C236.438 137.824 236.395 137.663 236.387 137.5C236.382 137.335 236.379 137.147 236.379 136.936V132.98H236.963V136.912C236.963 137.093 236.964 137.245 236.967 137.368C236.972 137.488 237 137.595 237.051 137.688C237.147 137.867 237.299 137.973 237.507 138.008C237.718 138.043 237.978 138.035 238.287 137.984V138.5ZM235.455 134.684V134.18H238.287V134.684H235.455ZM240.75 138.616C240.243 138.616 239.826 138.507 239.498 138.288C239.173 138.069 238.973 137.765 238.898 137.376L239.498 137.276C239.562 137.521 239.707 137.717 239.934 137.864C240.163 138.008 240.446 138.08 240.782 138.08C241.11 138.08 241.369 138.012 241.558 137.876C241.747 137.737 241.842 137.549 241.842 137.312C241.842 137.179 241.811 137.071 241.75 136.988C241.691 136.903 241.57 136.824 241.386 136.752C241.202 136.68 240.927 136.595 240.562 136.496C240.17 136.389 239.863 136.283 239.642 136.176C239.421 136.069 239.263 135.947 239.17 135.808C239.077 135.667 239.03 135.495 239.03 135.292C239.03 135.047 239.099 134.832 239.238 134.648C239.377 134.461 239.569 134.317 239.814 134.216C240.059 134.112 240.345 134.06 240.67 134.06C240.995 134.06 241.286 134.113 241.542 134.22C241.801 134.324 242.009 134.471 242.166 134.66C242.323 134.849 242.417 135.069 242.446 135.32L241.846 135.428C241.806 135.175 241.679 134.975 241.466 134.828C241.255 134.679 240.987 134.601 240.662 134.596C240.355 134.588 240.106 134.647 239.914 134.772C239.722 134.895 239.626 135.059 239.626 135.264C239.626 135.379 239.661 135.477 239.73 135.56C239.799 135.64 239.925 135.716 240.106 135.788C240.29 135.86 240.551 135.939 240.89 136.024C241.287 136.125 241.599 136.232 241.826 136.344C242.053 136.456 242.214 136.588 242.31 136.74C242.406 136.892 242.454 137.08 242.454 137.304C242.454 137.712 242.302 138.033 241.998 138.268C241.697 138.5 241.281 138.616 240.75 138.616ZM246.399 132.74H247.003L245.467 138.5H244.863L246.399 132.74ZM250.262 140.42L251.098 138.152L251.11 138.824L249.218 134.18H249.842L251.394 138.064H251.138L252.57 134.18H253.17L250.85 140.42H250.262ZM255.512 138.62C255.083 138.62 254.716 138.523 254.412 138.328C254.108 138.133 253.875 137.864 253.712 137.52C253.55 137.176 253.468 136.781 253.468 136.336C253.468 135.883 253.551 135.485 253.716 135.144C253.882 134.803 254.116 134.537 254.42 134.348C254.727 134.156 255.091 134.06 255.512 134.06C255.944 134.06 256.312 134.157 256.616 134.352C256.923 134.544 257.156 134.812 257.316 135.156C257.479 135.497 257.56 135.891 257.56 136.336C257.56 136.789 257.479 137.188 257.316 137.532C257.154 137.873 256.919 138.14 256.612 138.332C256.306 138.524 255.939 138.62 255.512 138.62ZM255.512 138.056C255.992 138.056 256.35 137.897 256.584 137.58C256.819 137.26 256.936 136.845 256.936 136.336C256.936 135.813 256.818 135.397 256.58 135.088C256.346 134.779 255.99 134.624 255.512 134.624C255.19 134.624 254.923 134.697 254.712 134.844C254.504 134.988 254.348 135.189 254.244 135.448C254.143 135.704 254.092 136 254.092 136.336C254.092 136.856 254.212 137.273 254.452 137.588C254.692 137.9 255.046 138.056 255.512 138.056ZM260.095 138.608C259.836 138.608 259.609 138.568 259.415 138.488C259.223 138.408 259.059 138.3 258.923 138.164C258.789 138.028 258.681 137.873 258.599 137.7C258.516 137.524 258.456 137.339 258.419 137.144C258.381 136.947 258.363 136.751 258.363 136.556V134.18H258.955V136.384C258.955 136.621 258.977 136.841 259.023 137.044C259.068 137.247 259.14 137.424 259.239 137.576C259.34 137.725 259.469 137.841 259.627 137.924C259.787 138.007 259.98 138.048 260.207 138.048C260.415 138.048 260.597 138.012 260.755 137.94C260.915 137.868 261.048 137.765 261.155 137.632C261.264 137.496 261.347 137.332 261.403 137.14C261.459 136.945 261.487 136.727 261.487 136.484L261.903 136.576C261.903 137.019 261.825 137.391 261.671 137.692C261.516 137.993 261.303 138.221 261.031 138.376C260.759 138.531 260.447 138.608 260.095 138.608ZM261.547 138.5V137.436H261.487V134.18H262.075V138.5H261.547ZM263.193 138.5V134.18H263.721V135.22L263.617 135.084C263.665 134.956 263.727 134.839 263.805 134.732C263.882 134.623 263.966 134.533 264.057 134.464C264.169 134.365 264.299 134.291 264.449 134.24C264.598 134.187 264.749 134.156 264.901 134.148C265.053 134.137 265.191 134.148 265.317 134.18V134.732C265.159 134.692 264.987 134.683 264.801 134.704C264.614 134.725 264.442 134.8 264.285 134.928C264.141 135.04 264.033 135.175 263.961 135.332C263.889 135.487 263.841 135.652 263.817 135.828C263.793 136.001 263.781 136.173 263.781 136.344V138.5H263.193ZM269.353 138.62C268.951 138.62 268.607 138.52 268.321 138.32C268.036 138.117 267.817 137.844 267.665 137.5C267.513 137.156 267.437 136.768 267.437 136.336C267.437 135.907 267.512 135.52 267.661 135.176C267.813 134.832 268.031 134.56 268.313 134.36C268.596 134.16 268.935 134.06 269.329 134.06C269.735 134.06 270.076 134.159 270.353 134.356C270.631 134.553 270.84 134.824 270.981 135.168C271.125 135.509 271.197 135.899 271.197 136.336C271.197 136.765 271.127 137.153 270.985 137.5C270.844 137.844 270.636 138.117 270.361 138.32C270.087 138.52 269.751 138.62 269.353 138.62ZM269.413 138.072C269.72 138.072 269.973 137.997 270.173 137.848C270.373 137.699 270.523 137.493 270.621 137.232C270.72 136.968 270.769 136.669 270.769 136.336C270.769 135.997 270.72 135.699 270.621 135.44C270.523 135.179 270.373 134.975 270.173 134.828C269.976 134.681 269.727 134.608 269.425 134.608C269.116 134.608 268.86 134.684 268.657 134.836C268.455 134.988 268.304 135.195 268.205 135.456C268.109 135.717 268.061 136.011 268.061 136.336C268.061 136.664 268.111 136.96 268.209 137.224C268.311 137.485 268.461 137.692 268.661 137.844C268.861 137.996 269.112 138.072 269.413 138.072ZM270.769 138.5V135.248H270.705V132.74H271.297V138.5H270.769ZM274.247 138.62C273.826 138.62 273.461 138.527 273.151 138.34C272.845 138.153 272.606 137.891 272.435 137.552C272.265 137.213 272.179 136.816 272.179 136.36C272.179 135.888 272.263 135.48 272.431 135.136C272.599 134.792 272.835 134.527 273.139 134.34C273.446 134.153 273.807 134.06 274.223 134.06C274.65 134.06 275.014 134.159 275.315 134.356C275.617 134.551 275.845 134.831 275.999 135.196C276.154 135.561 276.225 135.997 276.211 136.504H275.611V136.296C275.601 135.736 275.479 135.313 275.247 135.028C275.018 134.743 274.682 134.6 274.239 134.6C273.775 134.6 273.419 134.751 273.171 135.052C272.926 135.353 272.803 135.783 272.803 136.34C272.803 136.884 272.926 137.307 273.171 137.608C273.419 137.907 273.77 138.056 274.223 138.056C274.533 138.056 274.802 137.985 275.031 137.844C275.263 137.7 275.446 137.493 275.579 137.224L276.127 137.436C275.957 137.812 275.705 138.104 275.371 138.312C275.041 138.517 274.666 138.62 274.247 138.62ZM272.595 136.504V136.012H275.895V136.504H272.595ZM278.711 138.616C278.204 138.616 277.787 138.507 277.459 138.288C277.134 138.069 276.934 137.765 276.859 137.376L277.459 137.276C277.523 137.521 277.668 137.717 277.895 137.864C278.124 138.008 278.407 138.08 278.743 138.08C279.071 138.08 279.33 138.012 279.519 137.876C279.708 137.737 279.803 137.549 279.803 137.312C279.803 137.179 279.772 137.071 279.711 136.988C279.652 136.903 279.531 136.824 279.347 136.752C279.163 136.68 278.888 136.595 278.523 136.496C278.131 136.389 277.824 136.283 277.603 136.176C277.382 136.069 277.224 135.947 277.131 135.808C277.038 135.667 276.991 135.495 276.991 135.292C276.991 135.047 277.06 134.832 277.199 134.648C277.338 134.461 277.53 134.317 277.775 134.216C278.02 134.112 278.306 134.06 278.631 134.06C278.956 134.06 279.247 134.113 279.503 134.22C279.762 134.324 279.97 134.471 280.127 134.66C280.284 134.849 280.378 135.069 280.407 135.32L279.807 135.428C279.767 135.175 279.64 134.975 279.427 134.828C279.216 134.679 278.948 134.601 278.623 134.596C278.316 134.588 278.067 134.647 277.875 134.772C277.683 134.895 277.587 135.059 277.587 135.264C277.587 135.379 277.622 135.477 277.691 135.56C277.76 135.64 277.886 135.716 278.067 135.788C278.251 135.86 278.512 135.939 278.851 136.024C279.248 136.125 279.56 136.232 279.787 136.344C280.014 136.456 280.175 136.588 280.271 136.74C280.367 136.892 280.415 137.08 280.415 137.304C280.415 137.712 280.263 138.033 279.959 138.268C279.658 138.5 279.242 138.616 278.711 138.616ZM281.382 133.36V132.7H281.97V133.36H281.382ZM281.382 138.5V134.18H281.97V138.5H281.382ZM284.885 140.54C284.664 140.54 284.445 140.507 284.229 140.44C284.016 140.376 283.819 140.273 283.637 140.132C283.456 139.993 283.304 139.812 283.181 139.588L283.713 139.292C283.833 139.532 284.001 139.704 284.217 139.808C284.436 139.915 284.659 139.968 284.885 139.968C285.197 139.968 285.449 139.909 285.641 139.792C285.836 139.677 285.977 139.507 286.065 139.28C286.153 139.053 286.196 138.771 286.193 138.432V137.28H286.261V134.18H286.785V138.44C286.785 138.563 286.781 138.68 286.773 138.792C286.768 138.907 286.756 139.019 286.737 139.128C286.687 139.451 286.581 139.716 286.421 139.924C286.264 140.132 286.056 140.287 285.797 140.388C285.541 140.489 285.237 140.54 284.885 140.54ZM284.845 138.62C284.443 138.62 284.099 138.52 283.813 138.32C283.528 138.117 283.309 137.844 283.157 137.5C283.005 137.156 282.929 136.768 282.929 136.336C282.929 135.907 283.004 135.52 283.153 135.176C283.305 134.832 283.523 134.56 283.805 134.36C284.088 134.16 284.427 134.06 284.821 134.06C285.227 134.06 285.568 134.159 285.845 134.356C286.123 134.553 286.332 134.824 286.473 135.168C286.617 135.509 286.689 135.899 286.689 136.336C286.689 136.765 286.619 137.153 286.477 137.5C286.336 137.844 286.128 138.117 285.853 138.32C285.579 138.52 285.243 138.62 284.845 138.62ZM284.905 138.072C285.212 138.072 285.465 137.997 285.665 137.848C285.865 137.699 286.015 137.493 286.113 137.232C286.212 136.968 286.261 136.669 286.261 136.336C286.261 135.997 286.212 135.699 286.113 135.44C286.015 135.179 285.865 134.975 285.665 134.828C285.468 134.681 285.219 134.608 284.917 134.608C284.608 134.608 284.352 134.684 284.149 134.836C283.947 134.988 283.796 135.195 283.697 135.456C283.601 135.717 283.553 136.011 283.553 136.336C283.553 136.664 283.603 136.96 283.701 137.224C283.803 137.485 283.953 137.692 284.153 137.844C284.353 137.996 284.604 138.072 284.905 138.072ZM291.024 138.5V136.296C291.024 136.056 291.001 135.836 290.956 135.636C290.91 135.433 290.837 135.257 290.736 135.108C290.637 134.956 290.508 134.839 290.348 134.756C290.19 134.673 289.998 134.632 289.772 134.632C289.564 134.632 289.38 134.668 289.22 134.74C289.062 134.812 288.929 134.916 288.82 135.052C288.713 135.185 288.632 135.348 288.576 135.54C288.52 135.732 288.492 135.951 288.492 136.196L288.076 136.104C288.076 135.661 288.153 135.289 288.308 134.988C288.462 134.687 288.676 134.459 288.948 134.304C289.22 134.149 289.532 134.072 289.884 134.072C290.142 134.072 290.368 134.112 290.56 134.192C290.754 134.272 290.918 134.38 291.052 134.516C291.188 134.652 291.297 134.808 291.38 134.984C291.462 135.157 291.522 135.343 291.56 135.54C291.597 135.735 291.616 135.929 291.616 136.124V138.5H291.024ZM287.9 138.5V134.18H288.432V135.244H288.492V138.5H287.9Z" fill="#9DB9FF"/>
<rect x="120" y="145" width="238" height="177" fill="#061C53"/>
<rect x="367" y="195" width="6" height="6" fill="#6E8DDC"/>
<rect x="375" y="195" width="6" height="6" fill="#4E6DBB"/>
<rect x="383" y="195" width="6" height="6" fill="#3C59A3"/>
<rect x="391" y="195" width="6" height="6" fill="#2A468C"/>
<rect x="399" y="195" width="6" height="6" fill="#1D3574"/>
<rect x="407" y="195" width="6" height="6" fill="#11275F"/>
<path d="M113.158 131.162L120.929 135.74L116.848 136.375L114.613 140.063L113.158 131.162Z" fill="#32509F"/>
<rect x="128.5" y="131.5" width="7" height="7" stroke="#32509F"/>
<path d="M138 134L140 136L142 134" stroke="#32509F"/>
<path d="M151.597 140C151.044 140 150.528 139.863 150.048 139.589C149.568 139.315 149.155 138.94 148.809 138.463L147 136.158L147.401 135.688C147.584 135.475 147.808 135.345 148.076 135.299C148.343 135.253 148.591 135.304 148.819 135.454L149.377 135.699V131.612C149.377 131.476 149.423 131.355 149.515 131.249C149.607 131.142 149.719 131.089 149.852 131.089C149.978 131.089 150.09 131.142 150.188 131.249C150.286 131.355 150.335 131.476 150.335 131.612V137.492L148.369 136.307L149.592 137.898C149.839 138.239 150.139 138.502 150.491 138.687C150.844 138.872 151.218 138.961 151.616 138.954C152.288 138.954 152.86 138.696 153.333 138.18C153.805 137.665 154.042 137.032 154.042 136.282V132.124C154.042 131.989 154.088 131.868 154.18 131.761C154.272 131.654 154.384 131.601 154.517 131.601C154.643 131.601 154.756 131.654 154.853 131.761C154.951 131.868 155 131.989 155 132.124V136.393C155 137.41 154.666 138.266 153.998 138.959C153.329 139.653 152.529 140 151.597 140ZM150.932 135.176V130.523C150.932 130.388 150.978 130.267 151.07 130.16C151.162 130.053 151.274 130 151.407 130C151.533 130 151.645 130.053 151.743 130.16C151.841 130.267 151.89 130.388 151.89 130.523V135.176H150.932ZM152.487 135.176V131.099C152.487 130.964 152.533 130.843 152.625 130.736C152.717 130.63 152.829 130.576 152.962 130.576C153.088 130.576 153.2 130.63 153.298 130.736C153.396 130.843 153.445 130.964 153.445 131.099V135.176H152.487Z" fill="#32509F"/>
<rect x="367" y="158" width="27" height="2" fill="#1D3574"/>
<rect x="367" y="163" width="19" height="2" fill="#1D3574"/>
<rect x="367" y="173" width="22" height="2" fill="#1D3574"/>
<rect x="367" y="168" width="14" height="2" fill="#1D3574"/>
<rect width="27" height="1" transform="matrix(1 0 0 -1 367 229)" fill="#1D3574"/>
<rect width="19" height="1" transform="matrix(1 0 0 -1 367 224)" fill="#1D3574"/>
<rect width="22" height="1" transform="matrix(1 0 0 -1 367 214)" fill="#1D3574"/>
<rect width="14" height="1" transform="matrix(1 0 0 -1 367 219)" fill="#1D3574"/>
<rect x="367" y="187" width="6" height="6" fill="#5648FF"/>
<rect x="375" y="187" width="6" height="6" fill="#36B7FF"/>
<rect x="383" y="187" width="6" height="6" fill="#CDD940"/>
<rect x="391" y="187" width="6" height="6" fill="#FF368B"/>
<rect x="399" y="187" width="6" height="6" fill="#B336FF"/>
<rect x="407" y="187" width="6" height="6" fill="#3DCC65"/>
<path d="M289.994 272.103L304.746 280.794L297 282L292.758 289L289.994 272.103Z" fill="#B336FF"/>
<rect x="214" y="235" width="30" height="29" fill="#CDD940"/>
<rect x="254" y="248" width="30" height="2" fill="#385297"/>
<rect x="270" y="234" width="30" height="2" transform="rotate(90 270 234)" fill="#385297"/>
<rect x="254" y="196" width="30" height="30" rx="15" fill="#FF368B"/>
<path d="M228.5 197L244 224H213L228.5 197Z" fill="#3DCC65"/>
<rect x="209.5" y="192.5" width="78" height="75" stroke="#0A67B9"/>
<defs>
<clipPath id="clip0_199_19799">
<rect width="328" height="257" fill="white" transform="translate(172)"/>
</clipPath>
<clipPath id="clip1_199_19799">
<rect width="290" height="262" fill="white" transform="matrix(-1 0 0 -1 290 449)"/>
</clipPath>
</defs>
</svg>
