<svg width="251" height="160" viewBox="0 0 251 160" fill="none" xmlns="http://www.w3.org/2000/svg">
<rect opacity="0.3" width="251" height="160" fill="url(#paint0_linear_208_3537)"/>
<path d="M25 20H226L218.717 132.727L25 140V20Z" fill="white"/>
<rect x="25" y="20" width="34.058" height="119.565" fill="#001345"/>
<path d="M32 24C29.7915 24 28 25.7913 28 28C28 30.2087 29.7915 32 32 32C34.2085 32 36 30.2087 36 28C36 25.7913 34.2085 24 32 24ZM33.3378 25.5701C33.6547 25.5701 33.9116 25.8312 33.9116 26.1538C33.9116 26.4765 33.6547 26.7376 33.3378 26.7376C33.0209 26.7376 32.764 26.4765 32.764 26.1538C32.764 25.8312 33.0209 25.5701 33.3378 25.5701ZM33.9199 28.6936C33.9199 29.7896 33.0425 30.4333 32.0033 30.4333C30.9508 30.4333 30.0801 29.7896 30.0801 28.6936V26.1173C30.0801 25.8162 30.3169 25.5684 30.6205 25.5684C30.9308 25.5684 31.1877 25.8146 31.1877 26.1173V28.6869C31.1877 29.3039 31.5997 29.5019 32.005 29.5019C32.4103 29.5019 32.814 29.3023 32.814 28.6869V27.7538C32.814 27.4528 33.0709 27.205 33.3812 27.205C33.6847 27.205 33.9216 27.4511 33.9216 27.7538V28.6936H33.9199Z" fill="white"/>
<rect x="25" y="37.3914" width="34.058" height="7.97101" fill="#5648FF"/>
<circle cx="30.0725" cy="52.609" r="2.17391" fill="#384974"/>
<rect x="33.6957" y="51.1597" width="20.2899" height="2.89855" fill="#384974"/>
<circle cx="30.0725" cy="60.5797" r="2.17391" fill="#384974"/>
<rect x="33.6957" y="59.1304" width="12.3188" height="2.89855" fill="#384974"/>
<circle cx="30.0725" cy="68.5509" r="2.17391" fill="#384974"/>
<rect x="33.6957" y="67.1016" width="7.97101" height="2.89855" fill="#384974"/>
<circle cx="30.0725" cy="76.5218" r="2.17391" fill="#384974"/>
<rect x="33.6957" y="75.0725" width="15.2174" height="2.89855" fill="#384974"/>
<circle cx="30.0725" cy="84.4928" r="2.17391" fill="#384974"/>
<rect x="33.6957" y="83.0437" width="11.5942" height="2.89855" fill="#384974"/>
<circle cx="30.0725" cy="92.464" r="2.17391" fill="#384974"/>
<rect x="33.6957" y="91.0146" width="7.97101" height="2.89855" fill="#384974"/>
<circle cx="30.0725" cy="100.435" r="2.17391" fill="#384974"/>
<rect x="33.6957" y="98.9856" width="13.0435" height="2.89855" fill="#384974"/>
<circle cx="30.0725" cy="108.406" r="2.17391" fill="#384974"/>
<rect x="33.6957" y="106.957" width="5.7971" height="2.89855" fill="#384974"/>
<circle cx="30.0725" cy="116.377" r="2.17391" fill="#384974"/>
<rect x="33.6957" y="114.928" width="16.6667" height="2.89855" fill="#384974"/>
<circle cx="30.0725" cy="124.348" r="2.17391" fill="#384974"/>
<rect x="33.6957" y="122.899" width="10.1449" height="2.89855" fill="#384974"/>
<circle cx="30.0725" cy="132.319" r="2.17391" fill="#384974"/>
<rect x="33.6957" y="130.87" width="5.7971" height="2.89855" fill="#384974"/>
<path d="M59.0579 43.913V38.8406L56.884 41.3768L59.0579 43.913Z" fill="white"/>
<rect x="72" y="65" width="2" height="9" fill="#3DCC65"/>
<rect x="76" y="65" width="2" height="9" fill="#3DCC65"/>
<rect x="80" y="65" width="2" height="9" fill="#3DCC65"/>
<rect x="84" y="65" width="2" height="9" fill="#FF368B"/>
<rect x="88" y="65" width="2" height="9" fill="#FF368B"/>
<rect x="92" y="65" width="2" height="9" fill="#3DCC65"/>
<rect x="96" y="65" width="2" height="9" fill="#3DCC65"/>
<rect x="100" y="65" width="2" height="9" fill="#FF368B"/>
<rect x="104" y="65" width="2" height="9" fill="#FF368B"/>
<rect x="108" y="65" width="2" height="9" fill="#3DCC65"/>
<rect x="112" y="65" width="2" height="9" fill="#3DCC65"/>
<rect x="116" y="65" width="2" height="9" fill="#3DCC65"/>
<rect x="120" y="65" width="2" height="9" fill="#3DCC65"/>
<rect x="124" y="65" width="2" height="9" fill="#FF368B"/>
<rect x="128" y="65" width="2" height="9" fill="#FF368B"/>
<rect x="132" y="65" width="2" height="9" fill="#FF368B"/>
<rect x="136" y="65" width="2" height="9" fill="#FF368B"/>
<rect x="140" y="65" width="2" height="9" fill="#FF368B"/>
<rect x="144" y="65" width="2" height="9" fill="#3DCC65"/>
<rect x="148" y="65" width="2" height="9" fill="#3DCC65"/>
<rect x="152" y="65" width="2" height="9" fill="#3DCC65"/>
<rect x="156" y="65" width="2" height="9" fill="#3DCC65"/>
<rect x="160" y="65" width="2" height="9" fill="#3DCC65"/>
<rect x="164" y="65" width="2" height="9" fill="#3DCC65"/>
<rect x="168" y="65" width="2" height="9" fill="#FF368B"/>
<rect x="172" y="65" width="2" height="9" fill="#3DCC65"/>
<rect x="176" y="65" width="2" height="9" fill="#3DCC65"/>
<rect x="180" y="65" width="2" height="9" fill="#3DCC65"/>
<rect x="184" y="65" width="2" height="9" fill="#3DCC65"/>
<rect x="188" y="65" width="2" height="9" fill="#3DCC65"/>
<rect x="192" y="65" width="2" height="9" fill="#FF368B"/>
<rect x="196" y="65" width="2" height="9" fill="#FF368B"/>
<rect x="200" y="65" width="2" height="9" fill="#3DCC65"/>
<rect x="204" y="65" width="2" height="9" fill="#3DCC65"/>
<path d="M73.332 59L72.069 54.68H72.828L73.689 57.8L74.547 54.686L75.306 54.68L76.167 57.8L77.025 54.68H77.784L76.524 59H75.81L74.925 55.928L74.046 59H73.332ZM79.3891 59.09C79.0611 59.09 78.7731 59.019 78.5251 58.877C78.2771 58.735 78.0831 58.538 77.9431 58.286C77.8051 58.034 77.7361 57.744 77.7361 57.416C77.7361 57.062 77.8041 56.755 77.9401 56.495C78.0761 56.233 78.2651 56.03 78.5071 55.886C78.7491 55.742 79.0291 55.67 79.3471 55.67C79.6831 55.67 79.9681 55.749 80.2021 55.907C80.4381 56.063 80.6131 56.284 80.7271 56.57C80.8411 56.856 80.8841 57.193 80.8561 57.581H80.1391V57.317C80.1371 56.965 80.0751 56.708 79.9531 56.546C79.8311 56.384 79.6391 56.303 79.3771 56.303C79.0811 56.303 78.8611 56.395 78.7171 56.579C78.5731 56.761 78.5011 57.028 78.5011 57.38C78.5011 57.708 78.5731 57.962 78.7171 58.142C78.8611 58.322 79.0711 58.412 79.3471 58.412C79.5251 58.412 79.6781 58.373 79.8061 58.295C79.9361 58.215 80.0361 58.1 80.1061 57.95L80.8201 58.166C80.6961 58.458 80.5041 58.685 80.2441 58.847C79.9861 59.009 79.7011 59.09 79.3891 59.09ZM78.2731 57.581V57.035H80.5021V57.581H78.2731ZM83.0825 59.09C82.7665 59.09 82.5015 59.015 82.2875 58.865C82.0735 58.715 81.9125 58.511 81.8045 58.253C81.6965 57.993 81.6425 57.702 81.6425 57.38C81.6425 57.054 81.6965 56.762 81.8045 56.504C81.9125 56.246 82.0705 56.043 82.2785 55.895C82.4885 55.745 82.7475 55.67 83.0555 55.67C83.3615 55.67 83.6265 55.745 83.8505 55.895C84.0765 56.043 84.2515 56.246 84.3755 56.504C84.4995 56.76 84.5615 57.052 84.5615 57.38C84.5615 57.704 84.5005 57.995 84.3785 58.253C84.2565 58.511 84.0845 58.715 83.8625 58.865C83.6405 59.015 83.3805 59.09 83.0825 59.09ZM81.5195 59V54.68H82.2485V56.726H82.1585V59H81.5195ZM82.9715 58.442C83.1595 58.442 83.3145 58.395 83.4365 58.301C83.5585 58.207 83.6485 58.08 83.7065 57.92C83.7665 57.758 83.7965 57.578 83.7965 57.38C83.7965 57.184 83.7665 57.006 83.7065 56.846C83.6465 56.684 83.5535 56.556 83.4275 56.462C83.3015 56.366 83.1415 56.318 82.9475 56.318C82.7635 56.318 82.6135 56.363 82.4975 56.453C82.3815 56.541 82.2955 56.665 82.2395 56.825C82.1855 56.983 82.1585 57.168 82.1585 57.38C82.1585 57.59 82.1855 57.775 82.2395 57.935C82.2955 58.095 82.3825 58.22 82.5005 58.31C82.6205 58.398 82.7775 58.442 82.9715 58.442ZM86.3976 59.09C85.9976 59.09 85.6726 59 85.4226 58.82C85.1726 58.64 85.0206 58.387 84.9666 58.061L85.7046 57.947C85.7426 58.107 85.8266 58.233 85.9566 58.325C86.0866 58.417 86.2506 58.463 86.4486 58.463C86.6226 58.463 86.7566 58.429 86.8506 58.361C86.9466 58.291 86.9946 58.196 86.9946 58.076C86.9946 58.002 86.9766 57.943 86.9406 57.899C86.9066 57.853 86.8306 57.809 86.7126 57.767C86.5946 57.725 86.4136 57.672 86.1696 57.608C85.8976 57.536 85.6816 57.459 85.5216 57.377C85.3616 57.293 85.2466 57.194 85.1766 57.08C85.1066 56.966 85.0716 56.828 85.0716 56.666C85.0716 56.464 85.1246 56.288 85.2306 56.138C85.3366 55.988 85.4846 55.873 85.6746 55.793C85.8646 55.711 86.0886 55.67 86.3466 55.67C86.5986 55.67 86.8216 55.709 87.0156 55.787C87.2116 55.865 87.3696 55.976 87.4896 56.12C87.6096 56.264 87.6836 56.433 87.7116 56.627L86.9736 56.759C86.9556 56.621 86.8926 56.512 86.7846 56.432C86.6786 56.352 86.5366 56.307 86.3586 56.297C86.1886 56.287 86.0516 56.313 85.9476 56.375C85.8436 56.435 85.7916 56.52 85.7916 56.63C85.7916 56.692 85.8126 56.745 85.8546 56.789C85.8966 56.833 85.9806 56.877 86.1066 56.921C86.2346 56.965 86.4246 57.019 86.6766 57.083C86.9346 57.149 87.1406 57.225 87.2946 57.311C87.4506 57.395 87.5626 57.496 87.6306 57.614C87.7006 57.732 87.7356 57.875 87.7356 58.043C87.7356 58.369 87.6166 58.625 87.3786 58.811C87.1426 58.997 86.8156 59.09 86.3976 59.09ZM88.4527 55.268V54.605H89.1757V55.268H88.4527ZM88.4527 59V55.76H89.1757V59H88.4527ZM91.9733 59C91.7593 59.04 91.5493 59.057 91.3433 59.051C91.1393 59.047 90.9563 59.01 90.7943 58.94C90.6323 58.868 90.5093 58.755 90.4253 58.601C90.3513 58.461 90.3123 58.318 90.3083 58.172C90.3043 58.026 90.3023 57.861 90.3023 57.677V54.86H91.0223V57.635C91.0223 57.765 91.0233 57.879 91.0253 57.977C91.0293 58.075 91.0503 58.155 91.0883 58.217C91.1603 58.337 91.2753 58.404 91.4333 58.418C91.5913 58.432 91.7713 58.424 91.9733 58.394V59ZM89.7143 56.327V55.76H91.9733V56.327H89.7143ZM93.9789 59.09C93.6509 59.09 93.3629 59.019 93.1149 58.877C92.8669 58.735 92.6729 58.538 92.5329 58.286C92.3949 58.034 92.3259 57.744 92.3259 57.416C92.3259 57.062 92.3939 56.755 92.5299 56.495C92.6659 56.233 92.8549 56.03 93.0969 55.886C93.3389 55.742 93.6189 55.67 93.9369 55.67C94.2729 55.67 94.5579 55.749 94.7919 55.907C95.0279 56.063 95.2029 56.284 95.3169 56.57C95.4309 56.856 95.4739 57.193 95.4459 57.581H94.7289V57.317C94.7269 56.965 94.6649 56.708 94.5429 56.546C94.4209 56.384 94.2289 56.303 93.9669 56.303C93.6709 56.303 93.4509 56.395 93.3069 56.579C93.1629 56.761 93.0909 57.028 93.0909 57.38C93.0909 57.708 93.1629 57.962 93.3069 58.142C93.4509 58.322 93.6609 58.412 93.9369 58.412C94.1149 58.412 94.2679 58.373 94.3959 58.295C94.5259 58.215 94.6259 58.1 94.6959 57.95L95.4099 58.166C95.2859 58.458 95.0939 58.685 94.8339 58.847C94.5759 59.009 94.2909 59.09 93.9789 59.09ZM92.8629 57.581V57.035H95.0919V57.581H92.8629ZM99.5575 59V57.44C99.5575 57.338 99.5505 57.225 99.5365 57.101C99.5225 56.977 99.4895 56.858 99.4375 56.744C99.3875 56.628 99.3115 56.533 99.2095 56.459C99.1095 56.385 98.9735 56.348 98.8015 56.348C98.7095 56.348 98.6185 56.363 98.5285 56.393C98.4385 56.423 98.3565 56.475 98.2825 56.549C98.2105 56.621 98.1525 56.721 98.1085 56.849C98.0645 56.975 98.0425 57.137 98.0425 57.335L97.6135 57.152C97.6135 56.876 97.6665 56.626 97.7725 56.402C97.8805 56.178 98.0385 56 98.2465 55.868C98.4545 55.734 98.7105 55.667 99.0145 55.667C99.2545 55.667 99.4525 55.707 99.6085 55.787C99.7645 55.867 99.8885 55.969 99.9805 56.093C100.072 56.217 100.14 56.349 100.184 56.489C100.228 56.629 100.256 56.762 100.268 56.888C100.282 57.012 100.289 57.113 100.289 57.191V59H99.5575ZM97.3105 59V54.68H97.9555V56.954H98.0425V59H97.3105ZM102.545 59.09C102.217 59.09 101.929 59.019 101.681 58.877C101.433 58.735 101.239 58.538 101.099 58.286C100.961 58.034 100.892 57.744 100.892 57.416C100.892 57.062 100.96 56.755 101.096 56.495C101.232 56.233 101.421 56.03 101.663 55.886C101.905 55.742 102.185 55.67 102.503 55.67C102.839 55.67 103.124 55.749 103.358 55.907C103.594 56.063 103.769 56.284 103.883 56.57C103.997 56.856 104.04 57.193 104.012 57.581H103.295V57.317C103.293 56.965 103.231 56.708 103.109 56.546C102.987 56.384 102.795 56.303 102.533 56.303C102.237 56.303 102.017 56.395 101.873 56.579C101.729 56.761 101.657 57.028 101.657 57.38C101.657 57.708 101.729 57.962 101.873 58.142C102.017 58.322 102.227 58.412 102.503 58.412C102.681 58.412 102.834 58.373 102.962 58.295C103.092 58.215 103.192 58.1 103.262 57.95L103.976 58.166C103.852 58.458 103.66 58.685 103.4 58.847C103.142 59.009 102.857 59.09 102.545 59.09ZM101.429 57.581V57.035H103.658V57.581H101.429ZM105.529 59.09C105.295 59.09 105.097 59.046 104.935 58.958C104.773 58.868 104.65 58.749 104.566 58.601C104.484 58.453 104.443 58.29 104.443 58.112C104.443 57.956 104.469 57.816 104.521 57.692C104.573 57.566 104.653 57.458 104.761 57.368C104.869 57.276 105.009 57.201 105.181 57.143C105.311 57.101 105.463 57.063 105.637 57.029C105.813 56.995 106.003 56.964 106.207 56.936C106.413 56.906 106.628 56.874 106.852 56.84L106.594 56.987C106.596 56.763 106.546 56.598 106.444 56.492C106.342 56.386 106.17 56.333 105.928 56.333C105.782 56.333 105.641 56.367 105.505 56.435C105.369 56.503 105.274 56.62 105.22 56.786L104.56 56.579C104.64 56.305 104.792 56.085 105.016 55.919C105.242 55.753 105.546 55.67 105.928 55.67C106.216 55.67 106.469 55.717 106.687 55.811C106.907 55.905 107.07 56.059 107.176 56.273C107.234 56.387 107.269 56.504 107.281 56.624C107.293 56.742 107.299 56.871 107.299 57.011V59H106.666V58.298L106.771 58.412C106.625 58.646 106.454 58.818 106.258 58.928C106.064 59.036 105.821 59.09 105.529 59.09ZM105.673 58.514C105.837 58.514 105.977 58.485 106.093 58.427C106.209 58.369 106.301 58.298 106.369 58.214C106.439 58.13 106.486 58.051 106.51 57.977C106.548 57.885 106.569 57.78 106.573 57.662C106.579 57.542 106.582 57.445 106.582 57.371L106.804 57.437C106.586 57.471 106.399 57.501 106.243 57.527C106.087 57.553 105.953 57.578 105.841 57.602C105.729 57.624 105.63 57.649 105.544 57.677C105.46 57.707 105.389 57.742 105.331 57.782C105.273 57.822 105.228 57.868 105.196 57.92C105.166 57.972 105.151 58.033 105.151 58.103C105.151 58.183 105.171 58.254 105.211 58.316C105.251 58.376 105.309 58.424 105.385 58.46C105.463 58.496 105.559 58.514 105.673 58.514ZM108.14 59V54.59H108.863V59H108.14ZM111.661 59C111.447 59.04 111.237 59.057 111.031 59.051C110.827 59.047 110.644 59.01 110.482 58.94C110.32 58.868 110.197 58.755 110.113 58.601C110.039 58.461 110 58.318 109.996 58.172C109.992 58.026 109.99 57.861 109.99 57.677V54.86H110.71V57.635C110.71 57.765 110.711 57.879 110.713 57.977C110.717 58.075 110.738 58.155 110.776 58.217C110.848 58.337 110.963 58.404 111.121 58.418C111.279 58.432 111.459 58.424 111.661 58.394V59ZM109.402 56.327V55.76H111.661V56.327H109.402ZM114.599 59V57.44C114.599 57.338 114.592 57.225 114.578 57.101C114.564 56.977 114.531 56.858 114.479 56.744C114.429 56.628 114.353 56.533 114.251 56.459C114.151 56.385 114.015 56.348 113.843 56.348C113.751 56.348 113.66 56.363 113.57 56.393C113.48 56.423 113.398 56.475 113.324 56.549C113.252 56.621 113.194 56.721 113.15 56.849C113.106 56.975 113.084 57.137 113.084 57.335L112.655 57.152C112.655 56.876 112.708 56.626 112.814 56.402C112.922 56.178 113.08 56 113.288 55.868C113.496 55.734 113.752 55.667 114.056 55.667C114.296 55.667 114.494 55.707 114.65 55.787C114.806 55.867 114.93 55.969 115.021 56.093C115.113 56.217 115.182 56.349 115.226 56.489C115.27 56.629 115.298 56.762 115.31 56.888C115.324 57.012 115.331 57.113 115.331 57.191V59H114.599ZM112.352 59V54.68H112.997V56.954H113.084V59H112.352Z" fill="#001345"/>
<path d="M127.639 35L129.127 31.364H127.24V30.68H129.901V31.364L128.419 35H127.639ZM131.855 35.081C131.639 35.081 131.435 35.039 131.243 34.955C131.051 34.871 130.884 34.752 130.742 34.598C130.602 34.444 130.501 34.262 130.439 34.052L131.138 33.863C131.188 34.035 131.279 34.168 131.411 34.262C131.545 34.354 131.692 34.399 131.852 34.397C131.994 34.397 132.121 34.364 132.233 34.298C132.345 34.232 132.433 34.143 132.497 34.031C132.561 33.917 132.593 33.79 132.593 33.65C132.593 33.436 132.524 33.257 132.386 33.113C132.248 32.969 132.07 32.897 131.852 32.897C131.786 32.897 131.721 32.906 131.657 32.924C131.595 32.942 131.535 32.967 131.477 32.999L131.147 32.429L132.599 31.187L132.662 31.361H130.607V30.68H133.256V31.364L132.089 32.486L132.083 32.273C132.345 32.291 132.568 32.364 132.752 32.492C132.938 32.62 133.08 32.785 133.178 32.987C133.278 33.189 133.328 33.41 133.328 33.65C133.328 33.922 133.261 34.166 133.127 34.382C132.995 34.598 132.817 34.769 132.593 34.895C132.371 35.019 132.125 35.081 131.855 35.081Z" fill="#001345"/>
<path d="M127.28 41V38.12H127.768L129.104 40.15V38.12H129.592V41H129.104L127.768 38.97V41H127.28ZM131.133 41.06C130.914 41.06 130.722 41.0127 130.557 40.918C130.392 40.8233 130.262 40.692 130.169 40.524C130.077 40.356 130.031 40.1627 130.031 39.944C130.031 39.708 130.076 39.5033 130.167 39.33C130.258 39.1553 130.384 39.02 130.545 38.924C130.706 38.828 130.893 38.78 131.105 38.78C131.329 38.78 131.519 38.8327 131.675 38.938C131.832 39.042 131.949 39.1893 132.025 39.38C132.101 39.5707 132.13 39.7953 132.111 40.054H131.633V39.878C131.632 39.6433 131.59 39.472 131.509 39.364C131.428 39.256 131.3 39.202 131.125 39.202C130.928 39.202 130.781 39.2633 130.685 39.386C130.589 39.5073 130.541 39.6853 130.541 39.92C130.541 40.1387 130.589 40.308 130.685 40.428C130.781 40.548 130.921 40.608 131.105 40.608C131.224 40.608 131.326 40.582 131.411 40.53C131.498 40.4767 131.564 40.4 131.611 40.3L132.087 40.444C132.004 40.6387 131.876 40.79 131.703 40.898C131.531 41.006 131.341 41.06 131.133 41.06ZM130.389 40.054V39.69H131.875V40.054H130.389ZM132.939 41L132.279 38.836L132.751 38.84L133.173 40.226L133.601 38.84H134.007L134.433 40.226L134.857 38.84H135.329L134.669 41H134.293L133.803 39.514L133.315 41H132.939ZM137.301 41.062C137.141 41.062 137.009 41.0353 136.905 40.982C136.801 40.9287 136.718 40.8607 136.657 40.778C136.596 40.6953 136.55 40.6073 136.521 40.514C136.492 40.4207 136.472 40.3327 136.463 40.25C136.455 40.166 136.451 40.098 136.451 40.046V38.84H136.939V39.88C136.939 39.9467 136.944 40.022 136.953 40.106C136.962 40.1887 136.984 40.2687 137.017 40.346C137.052 40.422 137.102 40.4847 137.169 40.534C137.237 40.5833 137.328 40.608 137.443 40.608C137.504 40.608 137.565 40.598 137.625 40.578C137.685 40.558 137.739 40.524 137.787 40.476C137.836 40.4267 137.876 40.3593 137.905 40.274C137.934 40.1887 137.949 40.0807 137.949 39.95L138.235 40.072C138.235 40.256 138.199 40.4227 138.127 40.572C138.056 40.7213 137.952 40.8407 137.813 40.93C137.674 41.018 137.504 41.062 137.301 41.062ZM138.007 41V40.33H137.949V38.84H138.433V41H138.007ZM139.829 41.06C139.562 41.06 139.346 41 139.179 40.88C139.012 40.76 138.911 40.5913 138.875 40.374L139.367 40.298C139.392 40.4047 139.448 40.4887 139.535 40.55C139.622 40.6113 139.731 40.642 139.863 40.642C139.979 40.642 140.068 40.6193 140.131 40.574C140.195 40.5273 140.227 40.464 140.227 40.384C140.227 40.3347 140.215 40.2953 140.191 40.266C140.168 40.2353 140.118 40.206 140.039 40.178C139.96 40.15 139.84 40.1147 139.677 40.072C139.496 40.024 139.352 39.9727 139.245 39.918C139.138 39.862 139.062 39.796 139.015 39.72C138.968 39.644 138.945 39.552 138.945 39.444C138.945 39.3093 138.98 39.192 139.051 39.092C139.122 38.992 139.22 38.9153 139.347 38.862C139.474 38.8073 139.623 38.78 139.795 38.78C139.963 38.78 140.112 38.806 140.241 38.858C140.372 38.91 140.477 38.984 140.557 39.08C140.637 39.176 140.686 39.2887 140.705 39.418L140.213 39.506C140.201 39.414 140.159 39.3413 140.087 39.288C140.016 39.2347 139.922 39.2047 139.803 39.198C139.69 39.1913 139.598 39.2087 139.529 39.25C139.46 39.29 139.425 39.3467 139.425 39.42C139.425 39.4613 139.439 39.4967 139.467 39.526C139.495 39.5553 139.551 39.5847 139.635 39.614C139.72 39.6433 139.847 39.6793 140.015 39.722C140.187 39.766 140.324 39.8167 140.427 39.874C140.531 39.93 140.606 39.9973 140.651 40.076C140.698 40.1547 140.721 40.25 140.721 40.362C140.721 40.5793 140.642 40.75 140.483 40.874C140.326 40.998 140.108 41.06 139.829 41.06ZM142.141 41.06C141.922 41.06 141.73 41.0127 141.565 40.918C141.4 40.8233 141.27 40.692 141.177 40.524C141.085 40.356 141.039 40.1627 141.039 39.944C141.039 39.708 141.084 39.5033 141.175 39.33C141.266 39.1553 141.392 39.02 141.553 38.924C141.714 38.828 141.901 38.78 142.113 38.78C142.337 38.78 142.527 38.8327 142.683 38.938C142.84 39.042 142.957 39.1893 143.033 39.38C143.109 39.5707 143.138 39.7953 143.119 40.054H142.641V39.878C142.64 39.6433 142.598 39.472 142.517 39.364C142.436 39.256 142.308 39.202 142.133 39.202C141.936 39.202 141.789 39.2633 141.693 39.386C141.597 39.5073 141.549 39.6853 141.549 39.92C141.549 40.1387 141.597 40.308 141.693 40.428C141.789 40.548 141.929 40.608 142.113 40.608C142.232 40.608 142.334 40.582 142.419 40.53C142.506 40.4767 142.572 40.4 142.619 40.3L143.095 40.444C143.012 40.6387 142.884 40.79 142.711 40.898C142.539 41.006 142.349 41.06 142.141 41.06ZM141.397 40.054V39.69H142.883V40.054H141.397ZM143.565 41V38.84H143.991V39.366L143.939 39.298C143.966 39.226 144.001 39.1607 144.045 39.102C144.09 39.042 144.144 38.9927 144.207 38.954C144.26 38.918 144.319 38.89 144.383 38.87C144.448 38.8487 144.515 38.836 144.583 38.832C144.651 38.8267 144.717 38.8293 144.781 38.84V39.29C144.717 39.2713 144.643 39.2653 144.559 39.272C144.476 39.2787 144.402 39.302 144.335 39.342C144.268 39.378 144.214 39.424 144.171 39.48C144.13 39.536 144.099 39.6 144.079 39.672C144.059 39.7427 144.049 39.8193 144.049 39.902V41H143.565ZM145.919 41.06C145.652 41.06 145.435 41 145.269 40.88C145.102 40.76 145.001 40.5913 144.965 40.374L145.457 40.298C145.482 40.4047 145.538 40.4887 145.625 40.55C145.711 40.6113 145.821 40.642 145.953 40.642C146.069 40.642 146.158 40.6193 146.221 40.574C146.285 40.5273 146.317 40.464 146.317 40.384C146.317 40.3347 146.305 40.2953 146.281 40.266C146.258 40.2353 146.207 40.206 146.129 40.178C146.05 40.15 145.929 40.1147 145.767 40.072C145.585 40.024 145.441 39.9727 145.335 39.918C145.228 39.862 145.151 39.796 145.105 39.72C145.058 39.644 145.035 39.552 145.035 39.444C145.035 39.3093 145.07 39.192 145.141 39.092C145.211 38.992 145.31 38.9153 145.437 38.862C145.563 38.8073 145.713 38.78 145.885 38.78C146.053 38.78 146.201 38.806 146.331 38.858C146.461 38.91 146.567 38.984 146.647 39.08C146.727 39.176 146.776 39.2887 146.795 39.418L146.303 39.506C146.291 39.414 146.249 39.3413 146.177 39.288C146.106 39.2347 146.011 39.2047 145.893 39.198C145.779 39.1913 145.688 39.2087 145.619 39.25C145.549 39.29 145.515 39.3467 145.515 39.42C145.515 39.4613 145.529 39.4967 145.557 39.526C145.585 39.5553 145.641 39.5847 145.725 39.614C145.81 39.6433 145.937 39.6793 146.105 39.722C146.277 39.766 146.414 39.8167 146.517 39.874C146.621 39.93 146.695 39.9973 146.741 40.076C146.787 40.1547 146.811 40.25 146.811 40.362C146.811 40.5793 146.731 40.75 146.573 40.874C146.415 40.998 146.197 41.06 145.919 41.06Z" fill="#97A3C1"/>
<path d="M155.815 30.596C156.097 30.596 156.351 30.663 156.577 30.797C156.803 30.929 156.981 31.113 157.111 31.349C157.243 31.583 157.309 31.853 157.309 32.159V33.476C157.309 33.802 157.243 34.087 157.111 34.331C156.981 34.573 156.798 34.76 156.562 34.892C156.326 35.024 156.05 35.09 155.734 35.09C155.516 35.09 155.31 35.053 155.116 34.979C154.922 34.903 154.748 34.787 154.594 34.631L155.113 34.124C155.191 34.214 155.284 34.285 155.392 34.337C155.502 34.387 155.616 34.412 155.734 34.412C155.902 34.412 156.049 34.373 156.175 34.295C156.301 34.215 156.399 34.112 156.469 33.986C156.539 33.858 156.574 33.721 156.574 33.575V32.858L156.703 33.002C156.581 33.146 156.433 33.259 156.259 33.341C156.085 33.421 155.902 33.461 155.71 33.461C155.44 33.461 155.2 33.399 154.99 33.275C154.782 33.151 154.618 32.983 154.498 32.771C154.38 32.557 154.321 32.315 154.321 32.045C154.321 31.775 154.389 31.531 154.525 31.313C154.661 31.093 154.842 30.919 155.068 30.791C155.296 30.661 155.545 30.596 155.815 30.596ZM155.815 31.286C155.675 31.286 155.547 31.32 155.431 31.388C155.315 31.456 155.223 31.548 155.155 31.664C155.087 31.778 155.053 31.905 155.053 32.045C155.053 32.185 155.086 32.313 155.152 32.429C155.22 32.545 155.311 32.637 155.425 32.705C155.541 32.773 155.669 32.807 155.809 32.807C155.949 32.807 156.077 32.773 156.193 32.705C156.309 32.637 156.401 32.545 156.469 32.429C156.539 32.313 156.574 32.185 156.574 32.045C156.574 31.909 156.54 31.784 156.472 31.67C156.404 31.554 156.312 31.461 156.196 31.391C156.082 31.321 155.955 31.286 155.815 31.286ZM159.56 35.09C159.274 35.09 159.02 35.032 158.798 34.916C158.576 34.8 158.402 34.639 158.276 34.433C158.15 34.227 158.087 33.991 158.087 33.725C158.087 33.487 158.142 33.266 158.252 33.062C158.362 32.858 158.523 32.695 158.735 32.573L158.72 32.804C158.554 32.678 158.425 32.533 158.333 32.369C158.243 32.203 158.198 32.017 158.198 31.811C158.198 31.563 158.256 31.348 158.372 31.166C158.49 30.984 158.651 30.843 158.855 30.743C159.059 30.641 159.294 30.59 159.56 30.59C159.826 30.59 160.061 30.641 160.265 30.743C160.471 30.843 160.632 30.984 160.748 31.166C160.866 31.348 160.925 31.563 160.925 31.811C160.925 32.017 160.881 32.202 160.793 32.366C160.707 32.53 160.576 32.678 160.4 32.81L160.397 32.576C160.605 32.694 160.764 32.856 160.874 33.062C160.986 33.266 161.042 33.487 161.042 33.725C161.042 33.991 160.978 34.227 160.85 34.433C160.724 34.639 160.549 34.8 160.325 34.916C160.103 35.032 159.848 35.09 159.56 35.09ZM159.56 34.409C159.772 34.409 159.944 34.351 160.076 34.235C160.21 34.119 160.277 33.949 160.277 33.725C160.277 33.501 160.211 33.331 160.079 33.215C159.947 33.097 159.774 33.038 159.56 33.038C159.348 33.038 159.177 33.097 159.047 33.215C158.917 33.331 158.852 33.501 158.852 33.725C158.852 33.949 158.917 34.119 159.047 34.235C159.177 34.351 159.348 34.409 159.56 34.409ZM159.56 32.351C159.738 32.351 159.882 32.307 159.992 32.219C160.104 32.129 160.16 31.993 160.16 31.811C160.16 31.629 160.104 31.494 159.992 31.406C159.882 31.316 159.738 31.271 159.56 31.271C159.384 31.271 159.24 31.316 159.128 31.406C159.018 31.494 158.963 31.629 158.963 31.811C158.963 31.993 159.018 32.129 159.128 32.219C159.24 32.307 159.384 32.351 159.56 32.351Z" fill="#001345"/>
<path d="M154.972 41V38.572H154.04V38.12H156.386V38.572H155.454V41H154.972ZM157.339 41.06C157.123 41.06 156.935 41.0113 156.773 40.914C156.612 40.8167 156.487 40.6827 156.397 40.512C156.309 40.34 156.265 40.1427 156.265 39.92C156.265 39.6933 156.311 39.4947 156.401 39.324C156.492 39.1533 156.618 39.02 156.779 38.924C156.941 38.828 157.127 38.78 157.339 38.78C157.557 38.78 157.746 38.8287 157.907 38.926C158.069 39.0233 158.194 39.158 158.283 39.33C158.373 39.5007 158.417 39.6973 158.417 39.92C158.417 40.144 158.372 40.342 158.281 40.514C158.192 40.6847 158.067 40.8187 157.905 40.916C157.744 41.012 157.555 41.06 157.339 41.06ZM157.339 40.608C157.531 40.608 157.674 40.544 157.767 40.416C157.861 40.288 157.907 40.1227 157.907 39.92C157.907 39.7107 157.86 39.544 157.765 39.42C157.671 39.2947 157.529 39.232 157.339 39.232C157.21 39.232 157.103 39.2613 157.019 39.32C156.937 39.3773 156.875 39.458 156.835 39.562C156.795 39.6647 156.775 39.784 156.775 39.92C156.775 40.1293 156.823 40.2967 156.917 40.422C157.013 40.546 157.154 40.608 157.339 40.608ZM160.124 41C159.981 41.0267 159.841 41.038 159.704 41.034C159.568 41.0313 159.446 41.0067 159.338 40.96C159.23 40.912 159.148 40.8367 159.092 40.734C159.043 40.6407 159.017 40.5453 159.014 40.448C159.011 40.3507 159.01 40.2407 159.01 40.118V38.24H159.49V40.09C159.49 40.1767 159.491 40.2527 159.492 40.318C159.495 40.3833 159.509 40.4367 159.534 40.478C159.582 40.558 159.659 40.6027 159.764 40.612C159.869 40.6213 159.989 40.616 160.124 40.596V41ZM158.618 39.218V38.84H160.124V39.218H158.618ZM161.193 41.06C161.037 41.06 160.905 41.0307 160.797 40.972C160.689 40.912 160.607 40.8327 160.551 40.734C160.496 40.6353 160.469 40.5267 160.469 40.408C160.469 40.304 160.486 40.2107 160.521 40.128C160.555 40.044 160.609 39.972 160.681 39.912C160.753 39.8507 160.846 39.8007 160.961 39.762C161.047 39.734 161.149 39.7087 161.265 39.686C161.382 39.6633 161.509 39.6427 161.645 39.624C161.782 39.604 161.925 39.5827 162.075 39.56L161.903 39.658C161.904 39.5087 161.871 39.3987 161.803 39.328C161.735 39.2573 161.62 39.222 161.459 39.222C161.361 39.222 161.267 39.2447 161.177 39.29C161.086 39.3353 161.023 39.4133 160.987 39.524L160.547 39.386C160.6 39.2033 160.701 39.0567 160.851 38.946C161.001 38.8353 161.204 38.78 161.459 38.78C161.651 38.78 161.819 38.8113 161.965 38.874C162.111 38.9367 162.22 39.0393 162.291 39.182C162.329 39.258 162.353 39.336 162.361 39.416C162.369 39.4947 162.373 39.5807 162.373 39.674V41H161.951V40.532L162.021 40.608C161.923 40.764 161.809 40.8787 161.679 40.952C161.549 41.024 161.387 41.06 161.193 41.06ZM161.289 40.676C161.398 40.676 161.491 40.6567 161.569 40.618C161.646 40.5793 161.707 40.532 161.753 40.476C161.799 40.42 161.831 40.3673 161.847 40.318C161.872 40.2567 161.886 40.1867 161.889 40.108C161.893 40.028 161.895 39.9633 161.895 39.914L162.043 39.958C161.897 39.9807 161.773 40.0007 161.669 40.018C161.565 40.0353 161.475 40.052 161.401 40.068C161.326 40.0827 161.26 40.0993 161.203 40.118C161.147 40.138 161.099 40.1613 161.061 40.188C161.022 40.2147 160.992 40.2453 160.971 40.28C160.951 40.3147 160.941 40.3553 160.941 40.402C160.941 40.4553 160.954 40.5027 160.981 40.544C161.007 40.584 161.046 40.616 161.097 40.64C161.149 40.664 161.213 40.676 161.289 40.676ZM162.933 41V38.06H163.415V41H162.933ZM165.625 41.062C165.465 41.062 165.333 41.0353 165.229 40.982C165.125 40.9287 165.042 40.8607 164.981 40.778C164.92 40.6953 164.874 40.6073 164.845 40.514C164.816 40.4207 164.796 40.3327 164.787 40.25C164.779 40.166 164.775 40.098 164.775 40.046V38.84H165.263V39.88C165.263 39.9467 165.268 40.022 165.277 40.106C165.286 40.1887 165.308 40.2687 165.341 40.346C165.376 40.422 165.426 40.4847 165.493 40.534C165.561 40.5833 165.652 40.608 165.767 40.608C165.828 40.608 165.889 40.598 165.949 40.578C166.009 40.558 166.063 40.524 166.111 40.476C166.16 40.4267 166.2 40.3593 166.229 40.274C166.258 40.1887 166.273 40.0807 166.273 39.95L166.559 40.072C166.559 40.256 166.523 40.4227 166.451 40.572C166.38 40.7213 166.276 40.8407 166.137 40.93C165.998 41.018 165.828 41.062 165.625 41.062ZM166.331 41V40.33H166.273V38.84H166.757V41H166.331ZM168.153 41.06C167.886 41.06 167.67 41 167.503 40.88C167.336 40.76 167.235 40.5913 167.199 40.374L167.691 40.298C167.716 40.4047 167.772 40.4887 167.859 40.55C167.946 40.6113 168.055 40.642 168.187 40.642C168.303 40.642 168.392 40.6193 168.455 40.574C168.519 40.5273 168.551 40.464 168.551 40.384C168.551 40.3347 168.539 40.2953 168.515 40.266C168.492 40.2353 168.442 40.206 168.363 40.178C168.284 40.15 168.164 40.1147 168.001 40.072C167.82 40.024 167.676 39.9727 167.569 39.918C167.462 39.862 167.386 39.796 167.339 39.72C167.292 39.644 167.269 39.552 167.269 39.444C167.269 39.3093 167.304 39.192 167.375 39.092C167.446 38.992 167.544 38.9153 167.671 38.862C167.798 38.8073 167.947 38.78 168.119 38.78C168.287 38.78 168.436 38.806 168.565 38.858C168.696 38.91 168.801 38.984 168.881 39.08C168.961 39.176 169.01 39.2887 169.029 39.418L168.537 39.506C168.525 39.414 168.483 39.3413 168.411 39.288C168.34 39.2347 168.246 39.2047 168.127 39.198C168.014 39.1913 167.922 39.2087 167.853 39.25C167.784 39.29 167.749 39.3467 167.749 39.42C167.749 39.4613 167.763 39.4967 167.791 39.526C167.819 39.5553 167.875 39.5847 167.959 39.614C168.044 39.6433 168.171 39.6793 168.339 39.722C168.511 39.766 168.648 39.8167 168.751 39.874C168.855 39.93 168.93 39.9973 168.975 40.076C169.022 40.1547 169.045 40.25 169.045 40.362C169.045 40.5793 168.966 40.75 168.807 40.874C168.65 40.998 168.432 41.06 168.153 41.06ZM170.465 41.06C170.246 41.06 170.054 41.0127 169.889 40.918C169.724 40.8233 169.594 40.692 169.501 40.524C169.409 40.356 169.363 40.1627 169.363 39.944C169.363 39.708 169.408 39.5033 169.499 39.33C169.59 39.1553 169.716 39.02 169.877 38.924C170.038 38.828 170.225 38.78 170.437 38.78C170.661 38.78 170.851 38.8327 171.007 38.938C171.164 39.042 171.281 39.1893 171.357 39.38C171.433 39.5707 171.462 39.7953 171.443 40.054H170.965V39.878C170.964 39.6433 170.922 39.472 170.841 39.364C170.76 39.256 170.632 39.202 170.457 39.202C170.26 39.202 170.113 39.2633 170.017 39.386C169.921 39.5073 169.873 39.6853 169.873 39.92C169.873 40.1387 169.921 40.308 170.017 40.428C170.113 40.548 170.253 40.608 170.437 40.608C170.556 40.608 170.658 40.582 170.743 40.53C170.83 40.4767 170.896 40.4 170.943 40.3L171.419 40.444C171.336 40.6387 171.208 40.79 171.035 40.898C170.863 41.006 170.673 41.06 170.465 41.06ZM169.721 40.054V39.69H171.207V40.054H169.721ZM171.889 41V38.84H172.315V39.366L172.263 39.298C172.29 39.226 172.325 39.1607 172.369 39.102C172.415 39.042 172.469 38.9927 172.531 38.954C172.585 38.918 172.643 38.89 172.707 38.87C172.773 38.8487 172.839 38.836 172.907 38.832C172.975 38.8267 173.041 38.8293 173.105 38.84V39.29C173.041 39.2713 172.967 39.2653 172.883 39.272C172.801 39.2787 172.726 39.302 172.659 39.342C172.593 39.378 172.538 39.424 172.495 39.48C172.454 39.536 172.423 39.6 172.403 39.672C172.383 39.7427 172.373 39.8193 172.373 39.902V41H171.889ZM174.243 41.06C173.976 41.06 173.76 41 173.593 40.88C173.426 40.76 173.325 40.5913 173.289 40.374L173.781 40.298C173.806 40.4047 173.862 40.4887 173.949 40.55C174.036 40.6113 174.145 40.642 174.277 40.642C174.393 40.642 174.482 40.6193 174.545 40.574C174.609 40.5273 174.641 40.464 174.641 40.384C174.641 40.3347 174.629 40.2953 174.605 40.266C174.582 40.2353 174.532 40.206 174.453 40.178C174.374 40.15 174.254 40.1147 174.091 40.072C173.91 40.024 173.766 39.9727 173.659 39.918C173.552 39.862 173.476 39.796 173.429 39.72C173.382 39.644 173.359 39.552 173.359 39.444C173.359 39.3093 173.394 39.192 173.465 39.092C173.536 38.992 173.634 38.9153 173.761 38.862C173.888 38.8073 174.037 38.78 174.209 38.78C174.377 38.78 174.526 38.806 174.655 38.858C174.786 38.91 174.891 38.984 174.971 39.08C175.051 39.176 175.1 39.2887 175.119 39.418L174.627 39.506C174.615 39.414 174.573 39.3413 174.501 39.288C174.43 39.2347 174.336 39.2047 174.217 39.198C174.104 39.1913 174.012 39.2087 173.943 39.25C173.874 39.29 173.839 39.3467 173.839 39.42C173.839 39.4613 173.853 39.4967 173.881 39.526C173.909 39.5553 173.965 39.5847 174.049 39.614C174.134 39.6433 174.261 39.6793 174.429 39.722C174.601 39.766 174.738 39.8167 174.841 39.874C174.945 39.93 175.02 39.9973 175.065 40.076C175.112 40.1547 175.135 40.25 175.135 40.362C175.135 40.5793 175.056 40.75 174.897 40.874C174.74 40.998 174.522 41.06 174.243 41.06Z" fill="#97A3C1"/>
<path d="M186.815 30.596C187.097 30.596 187.351 30.663 187.577 30.797C187.803 30.929 187.981 31.113 188.111 31.349C188.243 31.583 188.309 31.853 188.309 32.159V33.476C188.309 33.802 188.243 34.087 188.111 34.331C187.981 34.573 187.798 34.76 187.562 34.892C187.326 35.024 187.05 35.09 186.734 35.09C186.516 35.09 186.31 35.053 186.116 34.979C185.922 34.903 185.748 34.787 185.594 34.631L186.113 34.124C186.191 34.214 186.284 34.285 186.392 34.337C186.502 34.387 186.616 34.412 186.734 34.412C186.902 34.412 187.049 34.373 187.175 34.295C187.301 34.215 187.399 34.112 187.469 33.986C187.539 33.858 187.574 33.721 187.574 33.575V32.858L187.703 33.002C187.581 33.146 187.433 33.259 187.259 33.341C187.085 33.421 186.902 33.461 186.71 33.461C186.44 33.461 186.2 33.399 185.99 33.275C185.782 33.151 185.618 32.983 185.498 32.771C185.38 32.557 185.321 32.315 185.321 32.045C185.321 31.775 185.389 31.531 185.525 31.313C185.661 31.093 185.842 30.919 186.068 30.791C186.296 30.661 186.545 30.596 186.815 30.596ZM186.815 31.286C186.675 31.286 186.547 31.32 186.431 31.388C186.315 31.456 186.223 31.548 186.155 31.664C186.087 31.778 186.053 31.905 186.053 32.045C186.053 32.185 186.086 32.313 186.152 32.429C186.22 32.545 186.311 32.637 186.425 32.705C186.541 32.773 186.669 32.807 186.809 32.807C186.949 32.807 187.077 32.773 187.193 32.705C187.309 32.637 187.401 32.545 187.469 32.429C187.539 32.313 187.574 32.185 187.574 32.045C187.574 31.909 187.54 31.784 187.472 31.67C187.404 31.554 187.312 31.461 187.196 31.391C187.082 31.321 186.955 31.286 186.815 31.286ZM190.701 35.09C190.395 35.09 190.125 35.025 189.891 34.895C189.657 34.763 189.474 34.58 189.342 34.346C189.212 34.112 189.147 33.842 189.147 33.536V32.144C189.147 31.838 189.212 31.568 189.342 31.334C189.474 31.1 189.657 30.918 189.891 30.788C190.125 30.656 190.395 30.59 190.701 30.59C191.007 30.59 191.276 30.656 191.508 30.788C191.742 30.918 191.925 31.1 192.057 31.334C192.189 31.568 192.255 31.838 192.255 32.144V33.536C192.255 33.842 192.189 34.112 192.057 34.346C191.925 34.58 191.742 34.763 191.508 34.895C191.276 35.025 191.007 35.09 190.701 35.09ZM190.701 34.403C190.853 34.403 190.991 34.367 191.115 34.295C191.239 34.221 191.337 34.123 191.409 34.001C191.481 33.877 191.517 33.739 191.517 33.587V32.09C191.517 31.936 191.481 31.798 191.409 31.676C191.337 31.552 191.239 31.454 191.115 31.382C190.991 31.308 190.853 31.271 190.701 31.271C190.549 31.271 190.411 31.308 190.287 31.382C190.163 31.454 190.065 31.552 189.993 31.676C189.921 31.798 189.885 31.936 189.885 32.09V33.587C189.885 33.739 189.921 33.877 189.993 34.001C190.065 34.123 190.163 34.221 190.287 34.295C190.411 34.367 190.549 34.403 190.701 34.403ZM193.696 35L193.216 34.52L197.059 30.68L197.539 31.163L193.696 35ZM196.639 35.09C196.441 35.09 196.26 35.042 196.096 34.946C195.934 34.848 195.804 34.718 195.706 34.556C195.608 34.392 195.559 34.21 195.559 34.01C195.559 33.814 195.609 33.634 195.709 33.47C195.809 33.306 195.941 33.175 196.105 33.077C196.269 32.979 196.447 32.93 196.639 32.93C196.837 32.93 197.018 32.979 197.182 33.077C197.346 33.173 197.476 33.303 197.572 33.467C197.67 33.629 197.719 33.81 197.719 34.01C197.719 34.21 197.67 34.392 197.572 34.556C197.476 34.718 197.346 34.848 197.182 34.946C197.018 35.042 196.837 35.09 196.639 35.09ZM196.639 34.472C196.721 34.472 196.797 34.451 196.867 34.409C196.939 34.367 196.996 34.311 197.038 34.241C197.08 34.171 197.101 34.094 197.101 34.01C197.101 33.926 197.08 33.849 197.038 33.779C196.996 33.709 196.939 33.653 196.867 33.611C196.797 33.569 196.721 33.548 196.639 33.548C196.555 33.548 196.478 33.569 196.408 33.611C196.338 33.653 196.281 33.709 196.237 33.779C196.195 33.849 196.174 33.926 196.174 34.01C196.174 34.094 196.195 34.171 196.237 34.241C196.281 34.311 196.338 34.367 196.408 34.409C196.478 34.451 196.555 34.472 196.639 34.472ZM194.116 32.75C193.918 32.75 193.737 32.702 193.573 32.606C193.409 32.508 193.278 32.378 193.18 32.216C193.084 32.052 193.036 31.87 193.036 31.67C193.036 31.474 193.086 31.294 193.186 31.13C193.286 30.966 193.418 30.835 193.582 30.737C193.746 30.639 193.924 30.59 194.116 30.59C194.314 30.59 194.494 30.639 194.656 30.737C194.82 30.833 194.951 30.963 195.049 31.127C195.147 31.289 195.196 31.47 195.196 31.67C195.196 31.87 195.147 32.052 195.049 32.216C194.951 32.378 194.82 32.508 194.656 32.606C194.494 32.702 194.314 32.75 194.116 32.75ZM194.116 32.132C194.2 32.132 194.277 32.111 194.347 32.069C194.417 32.027 194.473 31.971 194.515 31.901C194.557 31.831 194.578 31.754 194.578 31.67C194.578 31.586 194.557 31.509 194.515 31.439C194.473 31.369 194.417 31.313 194.347 31.271C194.277 31.229 194.2 31.208 194.116 31.208C194.032 31.208 193.955 31.229 193.885 31.271C193.815 31.313 193.759 31.369 193.717 31.439C193.675 31.509 193.654 31.586 193.654 31.67C193.654 31.754 193.675 31.831 193.717 31.901C193.759 31.971 193.815 32.027 193.885 32.069C193.955 32.111 194.032 32.132 194.116 32.132Z" fill="#001345"/>
<path d="M186.498 41.06C186.21 41.06 185.963 40.9973 185.758 40.872C185.553 40.7453 185.395 40.5693 185.284 40.344C185.175 40.1187 185.12 39.8573 185.12 39.56C185.12 39.2627 185.175 39.0013 185.284 38.776C185.395 38.5507 185.553 38.3753 185.758 38.25C185.963 38.1233 186.21 38.06 186.498 38.06C186.83 38.06 187.107 38.1433 187.328 38.31C187.549 38.4753 187.705 38.6987 187.794 38.98L187.308 39.114C187.252 38.926 187.157 38.7793 187.022 38.674C186.887 38.5673 186.713 38.514 186.498 38.514C186.305 38.514 186.143 38.5573 186.014 38.644C185.886 38.7307 185.789 38.8527 185.724 39.01C185.66 39.166 185.627 39.3493 185.626 39.56C185.626 39.7707 185.658 39.9547 185.722 40.112C185.787 40.268 185.885 40.3893 186.014 40.476C186.143 40.5627 186.305 40.606 186.498 40.606C186.713 40.606 186.887 40.5527 187.022 40.446C187.157 40.3393 187.252 40.1927 187.308 40.006L187.794 40.14C187.705 40.4213 187.549 40.6453 187.328 40.812C187.107 40.9773 186.83 41.06 186.498 41.06ZM188.233 41V38.84H188.659V39.366L188.607 39.298C188.634 39.226 188.669 39.1607 188.713 39.102C188.758 39.042 188.812 38.9927 188.875 38.954C188.928 38.918 188.987 38.89 189.051 38.87C189.116 38.8487 189.183 38.836 189.251 38.832C189.319 38.8267 189.385 38.8293 189.449 38.84V39.29C189.385 39.2713 189.311 39.2653 189.227 39.272C189.144 39.2787 189.07 39.302 189.003 39.342C188.936 39.378 188.882 39.424 188.839 39.48C188.798 39.536 188.767 39.6 188.747 39.672C188.727 39.7427 188.717 39.8193 188.717 39.902V41H188.233ZM190.384 41.06C190.228 41.06 190.096 41.0307 189.988 40.972C189.88 40.912 189.798 40.8327 189.742 40.734C189.687 40.6353 189.66 40.5267 189.66 40.408C189.66 40.304 189.677 40.2107 189.712 40.128C189.747 40.044 189.8 39.972 189.872 39.912C189.944 39.8507 190.037 39.8007 190.152 39.762C190.239 39.734 190.34 39.7087 190.456 39.686C190.573 39.6633 190.7 39.6427 190.836 39.624C190.973 39.604 191.117 39.5827 191.266 39.56L191.094 39.658C191.095 39.5087 191.062 39.3987 190.994 39.328C190.926 39.2573 190.811 39.222 190.65 39.222C190.553 39.222 190.459 39.2447 190.368 39.29C190.277 39.3353 190.214 39.4133 190.178 39.524L189.738 39.386C189.791 39.2033 189.893 39.0567 190.042 38.946C190.193 38.8353 190.395 38.78 190.65 38.78C190.842 38.78 191.011 38.8113 191.156 38.874C191.303 38.9367 191.411 39.0393 191.482 39.182C191.521 39.258 191.544 39.336 191.552 39.416C191.56 39.4947 191.564 39.5807 191.564 39.674V41H191.142V40.532L191.212 40.608C191.115 40.764 191.001 40.8787 190.87 40.952C190.741 41.024 190.579 41.06 190.384 41.06ZM190.48 40.676C190.589 40.676 190.683 40.6567 190.76 40.618C190.837 40.5793 190.899 40.532 190.944 40.476C190.991 40.42 191.022 40.3673 191.038 40.318C191.063 40.2567 191.077 40.1867 191.08 40.108C191.084 40.028 191.086 39.9633 191.086 39.914L191.234 39.958C191.089 39.9807 190.964 40.0007 190.86 40.018C190.756 40.0353 190.667 40.052 190.592 40.068C190.517 40.0827 190.451 40.0993 190.394 40.118C190.338 40.138 190.291 40.1613 190.252 40.188C190.213 40.2147 190.183 40.2453 190.162 40.28C190.142 40.3147 190.132 40.3553 190.132 40.402C190.132 40.4553 190.145 40.5027 190.172 40.544C190.199 40.584 190.237 40.616 190.288 40.64C190.34 40.664 190.404 40.676 190.48 40.676ZM192.919 41.06C192.652 41.06 192.435 41 192.269 40.88C192.102 40.76 192.001 40.5913 191.965 40.374L192.457 40.298C192.482 40.4047 192.538 40.4887 192.625 40.55C192.711 40.6113 192.821 40.642 192.953 40.642C193.069 40.642 193.158 40.6193 193.221 40.574C193.285 40.5273 193.317 40.464 193.317 40.384C193.317 40.3347 193.305 40.2953 193.281 40.266C193.258 40.2353 193.207 40.206 193.129 40.178C193.05 40.15 192.929 40.1147 192.767 40.072C192.585 40.024 192.441 39.9727 192.335 39.918C192.228 39.862 192.151 39.796 192.105 39.72C192.058 39.644 192.035 39.552 192.035 39.444C192.035 39.3093 192.07 39.192 192.141 39.092C192.211 38.992 192.31 38.9153 192.437 38.862C192.563 38.8073 192.713 38.78 192.885 38.78C193.053 38.78 193.201 38.806 193.331 38.858C193.461 38.91 193.567 38.984 193.647 39.08C193.727 39.176 193.776 39.2887 193.795 39.418L193.303 39.506C193.291 39.414 193.249 39.3413 193.177 39.288C193.106 39.2347 193.011 39.2047 192.893 39.198C192.779 39.1913 192.688 39.2087 192.619 39.25C192.549 39.29 192.515 39.3467 192.515 39.42C192.515 39.4613 192.529 39.4967 192.557 39.526C192.585 39.5553 192.641 39.5847 192.725 39.614C192.81 39.6433 192.937 39.6793 193.105 39.722C193.277 39.766 193.414 39.8167 193.517 39.874C193.621 39.93 193.695 39.9973 193.741 40.076C193.787 40.1547 193.811 40.25 193.811 40.362C193.811 40.5793 193.731 40.75 193.573 40.874C193.415 40.998 193.197 41.06 192.919 41.06ZM195.743 41V39.96C195.743 39.892 195.738 39.8167 195.729 39.734C195.719 39.6513 195.697 39.572 195.663 39.496C195.629 39.4187 195.579 39.3553 195.511 39.306C195.444 39.2567 195.353 39.232 195.239 39.232C195.177 39.232 195.117 39.242 195.057 39.262C194.997 39.282 194.942 39.3167 194.893 39.366C194.845 39.414 194.806 39.4807 194.777 39.566C194.747 39.65 194.733 39.758 194.733 39.89L194.447 39.768C194.447 39.584 194.482 39.4173 194.553 39.268C194.625 39.1187 194.73 39 194.869 38.912C195.007 38.8227 195.178 38.778 195.381 38.778C195.541 38.778 195.673 38.8047 195.777 38.858C195.881 38.9113 195.963 38.9793 196.025 39.062C196.086 39.1447 196.131 39.2327 196.161 39.326C196.19 39.4193 196.209 39.508 196.217 39.592C196.226 39.6747 196.231 39.742 196.231 39.794V41H195.743ZM194.245 41V38.12H194.675V39.636H194.733V41H194.245ZM196.713 39.928V39.55H197.913V39.928H196.713ZM198.432 41V38.12H200.166V38.602H198.914V39.32H199.926V39.8H198.914V41H198.432ZM200.526 41V38.84H200.952V39.366L200.9 39.298C200.927 39.226 200.962 39.1607 201.006 39.102C201.051 39.042 201.105 38.9927 201.168 38.954C201.221 38.918 201.28 38.89 201.344 38.87C201.409 38.8487 201.476 38.836 201.544 38.832C201.612 38.8267 201.678 38.8293 201.742 38.84V39.29C201.678 39.2713 201.604 39.2653 201.52 39.272C201.437 39.2787 201.363 39.302 201.296 39.342C201.229 39.378 201.175 39.424 201.132 39.48C201.091 39.536 201.06 39.6 201.04 39.672C201.02 39.7427 201.01 39.8193 201.01 39.902V41H200.526ZM203.067 41.06C202.848 41.06 202.656 41.0127 202.491 40.918C202.325 40.8233 202.196 40.692 202.103 40.524C202.011 40.356 201.965 40.1627 201.965 39.944C201.965 39.708 202.01 39.5033 202.101 39.33C202.191 39.1553 202.317 39.02 202.479 38.924C202.64 38.828 202.827 38.78 203.039 38.78C203.263 38.78 203.453 38.8327 203.609 38.938C203.766 39.042 203.883 39.1893 203.959 39.38C204.035 39.5707 204.063 39.7953 204.045 40.054H203.567V39.878C203.565 39.6433 203.524 39.472 203.443 39.364C203.361 39.256 203.233 39.202 203.059 39.202C202.861 39.202 202.715 39.2633 202.619 39.386C202.523 39.5073 202.475 39.6853 202.475 39.92C202.475 40.1387 202.523 40.308 202.619 40.428C202.715 40.548 202.855 40.608 203.039 40.608C203.157 40.608 203.259 40.582 203.345 40.53C203.431 40.4767 203.498 40.4 203.545 40.3L204.021 40.444C203.938 40.6387 203.81 40.79 203.637 40.898C203.465 41.006 203.275 41.06 203.067 41.06ZM202.323 40.054V39.69H203.809V40.054H202.323ZM205.473 41.06C205.254 41.06 205.062 41.0127 204.897 40.918C204.732 40.8233 204.602 40.692 204.509 40.524C204.417 40.356 204.371 40.1627 204.371 39.944C204.371 39.708 204.416 39.5033 204.507 39.33C204.598 39.1553 204.724 39.02 204.885 38.924C205.046 38.828 205.233 38.78 205.445 38.78C205.669 38.78 205.859 38.8327 206.015 38.938C206.172 39.042 206.289 39.1893 206.365 39.38C206.441 39.5707 206.47 39.7953 206.451 40.054H205.973V39.878C205.972 39.6433 205.93 39.472 205.849 39.364C205.768 39.256 205.64 39.202 205.465 39.202C205.268 39.202 205.121 39.2633 205.025 39.386C204.929 39.5073 204.881 39.6853 204.881 39.92C204.881 40.1387 204.929 40.308 205.025 40.428C205.121 40.548 205.261 40.608 205.445 40.608C205.564 40.608 205.666 40.582 205.751 40.53C205.838 40.4767 205.904 40.4 205.951 40.3L206.427 40.444C206.344 40.6387 206.216 40.79 206.043 40.898C205.871 41.006 205.681 41.06 205.473 41.06ZM204.729 40.054V39.69H206.215V40.054H204.729Z" fill="#97A3C1"/>
<circle cx="79" cy="36" r="7" fill="#FFE0B8"/>
<path d="M80.4501 35.437C80.592 35.437 80.7129 35.3867 80.813 35.286C80.9131 35.1853 80.9631 35.064 80.9631 34.9222C80.9631 34.7804 80.9127 34.6594 80.812 34.5594C80.7113 34.4593 80.5901 34.4093 80.4483 34.4093C80.3064 34.4093 80.1855 34.4596 80.0854 34.5603C79.9853 34.661 79.9353 34.7823 79.9353 34.9241C79.9353 35.0659 79.9857 35.1869 80.0864 35.2869C80.1871 35.387 80.3083 35.437 80.4501 35.437ZM77.5516 35.437C77.6935 35.437 77.8144 35.3867 77.9145 35.286C78.0145 35.1853 78.0646 35.064 78.0646 34.9222C78.0646 34.7804 78.0142 34.6594 77.9135 34.5594C77.8128 34.4593 77.6916 34.4093 77.5498 34.4093C77.4079 34.4093 77.287 34.4596 77.1869 34.5603C77.0868 34.661 77.0368 34.7823 77.0368 34.9241C77.0368 35.0659 77.0872 35.1869 77.1879 35.2869C77.2886 35.387 77.4098 35.437 77.5516 35.437ZM79.0012 36.6406C78.5684 36.6406 78.1738 36.7604 77.8175 36.9999C77.4612 37.2395 77.1962 37.5579 77.0224 37.9552H77.5074C77.6602 37.6822 77.8696 37.4685 78.1356 37.314C78.4017 37.1596 78.6904 37.0823 79.0019 37.0823C79.3153 37.0823 79.6038 37.1603 79.8676 37.3162C80.1314 37.4721 80.342 37.6851 80.4994 37.9552H80.9775C80.8066 37.5551 80.5426 37.236 80.1857 36.9978C79.8288 36.7596 79.4339 36.6406 79.0012 36.6406ZM79.0006 39.9584C78.4532 39.9584 77.9386 39.8545 77.4569 39.6467C76.9751 39.4389 76.5561 39.157 76.1998 38.8008C75.8434 38.4446 75.5613 38.0258 75.3534 37.5442C75.1456 37.0627 75.0416 36.5482 75.0416 36.0008C75.0416 35.4533 75.1455 34.9387 75.3533 34.457C75.5611 33.9752 75.843 33.5562 76.1992 33.1999C76.5554 32.8435 76.9743 32.5614 77.4558 32.3536C77.9373 32.1457 78.4518 32.0417 78.9993 32.0417C79.5467 32.0417 80.0613 32.1456 80.543 32.3534C81.0248 32.5612 81.4438 32.8432 81.8001 33.1994C82.1565 33.5555 82.4386 33.9744 82.6465 34.4559C82.8543 34.9374 82.9583 35.4519 82.9583 35.9994C82.9583 36.5468 82.8544 37.0614 82.6466 37.5432C82.4388 38.0249 82.1568 38.4439 81.8007 38.8003C81.4445 39.1566 81.0256 39.4387 80.5441 39.6466C80.0626 39.8545 79.5481 39.9584 79.0006 39.9584Z" fill="#FEA648"/>
<circle cx="106" cy="36" r="7" fill="#DFF2E4"/>
<path d="M107.45 35.437C107.592 35.437 107.713 35.3867 107.813 35.286C107.913 35.1853 107.963 35.064 107.963 34.9222C107.963 34.7804 107.913 34.6594 107.812 34.5594C107.711 34.4593 107.59 34.4093 107.448 34.4093C107.306 34.4093 107.185 34.4596 107.085 34.5603C106.985 34.661 106.935 34.7823 106.935 34.9241C106.935 35.0659 106.986 35.1869 107.086 35.2869C107.187 35.387 107.308 35.437 107.45 35.437ZM104.552 35.437C104.693 35.437 104.814 35.3867 104.914 35.286C105.015 35.1853 105.065 35.064 105.065 34.9222C105.065 34.7804 105.014 34.6594 104.914 34.5594C104.813 34.4593 104.692 34.4093 104.55 34.4093C104.408 34.4093 104.287 34.4596 104.187 34.5603C104.087 34.661 104.037 34.7823 104.037 34.9241C104.037 35.0659 104.087 35.1869 104.188 35.2869C104.289 35.387 104.41 35.437 104.552 35.437ZM106 38.1592C106.429 38.1592 106.823 38.0423 107.182 37.8084C107.542 37.5745 107.807 37.2613 107.978 36.8687H107.499C107.342 37.1359 107.131 37.3442 106.865 37.4935C106.6 37.6428 106.312 37.7175 106.001 37.7175C105.691 37.7175 105.403 37.6435 105.137 37.4957C104.87 37.3478 104.66 37.1388 104.507 36.8687H104.022C104.196 37.2613 104.462 37.5745 104.82 37.8084C105.177 38.0423 105.571 38.1592 106 38.1592ZM106.001 39.9584C105.453 39.9584 104.939 39.8545 104.457 39.6467C103.975 39.4389 103.556 39.157 103.2 38.8008C102.843 38.4446 102.561 38.0258 102.353 37.5442C102.146 37.0627 102.042 36.5482 102.042 36.0008C102.042 35.4533 102.146 34.9387 102.353 34.457C102.561 33.9752 102.843 33.5562 103.199 33.1999C103.555 32.8435 103.974 32.5614 104.456 32.3536C104.937 32.1457 105.452 32.0417 105.999 32.0417C106.547 32.0417 107.061 32.1456 107.543 32.3534C108.025 32.5612 108.444 32.8432 108.8 33.1994C109.156 33.5555 109.439 33.9744 109.646 34.4559C109.854 34.9374 109.958 35.4519 109.958 35.9994C109.958 36.5468 109.854 37.0614 109.647 37.5432C109.439 38.0249 109.157 38.4439 108.801 38.8003C108.444 39.1566 108.026 39.4387 107.544 39.6466C107.063 39.8545 106.548 39.9584 106.001 39.9584Z" fill="#3DCC65"/>
<rect opacity="0.03" x="85" y="82" width="122" height="38" fill="#3DCC65"/>
<path d="M85 120L206 120" stroke="#E3E8F8" stroke-width="0.8" stroke-linecap="round"/>
<path d="M85 82L85 120" stroke="#E3E8F8" stroke-width="0.8" stroke-linecap="round"/>
<path d="M85 104.353L95.167 94.124L99.4809 87.3653L104.334 93.2106L108.917 93.576L113.771 90.288L118.354 87L122.668 90.836L127.521 91.384L132.105 96.6813L134.801 95.0373L136.688 99.4213L141.272 105.084L146.252 116L150.59 96.6813C152.118 98.995 155.076 105.741 155.292 105.449C155.507 105.157 158.437 104.597 159.875 104.353L163.65 101.796L165.268 104.353L168.424 105.997L171.469 106.911L173.895 111.112L178.479 108.92L183.062 105.997L188 106.911L188.5 103.571L192 100.982L196 104.089L198.5 100.982L203 97.875H207" stroke="#3DCC65" stroke-width="0.5" stroke-linecap="round"/>
<path d="M85.08 128L85.988 125.12H86.694L87.602 128H87.106L86.282 125.416H86.39L85.576 128H85.08ZM85.586 127.376V126.926H87.098V127.376H85.586ZM88.7736 128.062C88.6136 128.062 88.4816 128.035 88.3776 127.982C88.2736 127.929 88.1909 127.861 88.1296 127.778C88.0683 127.695 88.0229 127.607 87.9936 127.514C87.9643 127.421 87.9449 127.333 87.9356 127.25C87.9276 127.166 87.9236 127.098 87.9236 127.046V125.84H88.4116V126.88C88.4116 126.947 88.4163 127.022 88.4256 127.106C88.4349 127.189 88.4563 127.269 88.4896 127.346C88.5243 127.422 88.5749 127.485 88.6416 127.534C88.7096 127.583 88.8009 127.608 88.9156 127.608C88.9769 127.608 89.0376 127.598 89.0976 127.578C89.1576 127.558 89.2116 127.524 89.2596 127.476C89.3089 127.427 89.3483 127.359 89.3776 127.274C89.4069 127.189 89.4216 127.081 89.4216 126.95L89.7076 127.072C89.7076 127.256 89.6716 127.423 89.5996 127.572C89.5289 127.721 89.4243 127.841 89.2856 127.93C89.1469 128.018 88.9763 128.062 88.7736 128.062ZM89.4796 128V127.33H89.4216V125.84H89.9056V128H89.4796ZM91.3755 129.02C91.2555 129.02 91.1402 129.001 91.0295 128.964C90.9202 128.927 90.8215 128.873 90.7335 128.802C90.6455 128.733 90.5735 128.649 90.5175 128.55L90.9615 128.33C91.0028 128.409 91.0608 128.467 91.1355 128.504C91.2115 128.543 91.2922 128.562 91.3775 128.562C91.4775 128.562 91.5668 128.544 91.6455 128.508C91.7242 128.473 91.7848 128.421 91.8275 128.352C91.8715 128.284 91.8922 128.199 91.8895 128.096V127.482H91.9495V125.84H92.3715V128.104C92.3715 128.159 92.3688 128.211 92.3635 128.26C92.3595 128.311 92.3522 128.36 92.3415 128.408C92.3095 128.548 92.2482 128.663 92.1575 128.752C92.0668 128.843 91.9542 128.91 91.8195 128.954C91.6862 128.998 91.5382 129.02 91.3755 129.02ZM91.3335 128.06C91.1348 128.06 90.9615 128.01 90.8135 127.91C90.6655 127.81 90.5508 127.674 90.4695 127.502C90.3882 127.33 90.3475 127.136 90.3475 126.92C90.3475 126.701 90.3882 126.507 90.4695 126.336C90.5522 126.164 90.6688 126.029 90.8195 125.93C90.9702 125.83 91.1475 125.78 91.3515 125.78C91.5568 125.78 91.7288 125.83 91.8675 125.93C92.0075 126.029 92.1135 126.164 92.1855 126.336C92.2575 126.508 92.2935 126.703 92.2935 126.92C92.2935 127.135 92.2575 127.329 92.1855 127.502C92.1135 127.674 92.0062 127.81 91.8635 127.91C91.7208 128.01 91.5442 128.06 91.3335 128.06ZM91.4075 127.628C91.5368 127.628 91.6408 127.599 91.7195 127.54C91.7995 127.48 91.8575 127.397 91.8935 127.29C91.9308 127.183 91.9495 127.06 91.9495 126.92C91.9495 126.779 91.9308 126.655 91.8935 126.55C91.8575 126.443 91.8008 126.361 91.7235 126.302C91.6462 126.242 91.5462 126.212 91.4235 126.212C91.2942 126.212 91.1875 126.244 91.1035 126.308C91.0195 126.371 90.9575 126.456 90.9175 126.564C90.8775 126.671 90.8575 126.789 90.8575 126.92C90.8575 127.052 90.8768 127.172 90.9155 127.28C90.9555 127.387 91.0162 127.471 91.0975 127.534C91.1788 127.597 91.2822 127.628 91.4075 127.628ZM94.2331 128V125.646L93.6931 125.976V125.444L94.2331 125.12H94.7251V128H94.2331ZM96.523 128.06C96.319 128.06 96.139 128.017 95.983 127.93C95.827 127.842 95.705 127.72 95.617 127.564C95.5304 127.408 95.487 127.228 95.487 127.024V126.096C95.487 125.892 95.5304 125.712 95.617 125.556C95.705 125.4 95.827 125.279 95.983 125.192C96.139 125.104 96.319 125.06 96.523 125.06C96.727 125.06 96.9064 125.104 97.061 125.192C97.217 125.279 97.339 125.4 97.427 125.556C97.515 125.712 97.559 125.892 97.559 126.096V127.024C97.559 127.228 97.515 127.408 97.427 127.564C97.339 127.72 97.217 127.842 97.061 127.93C96.9064 128.017 96.727 128.06 96.523 128.06ZM96.523 127.602C96.6244 127.602 96.7164 127.578 96.799 127.53C96.8817 127.481 96.947 127.415 96.995 127.334C97.043 127.251 97.067 127.159 97.067 127.058V126.06C97.067 125.957 97.043 125.865 96.995 125.784C96.947 125.701 96.8817 125.636 96.799 125.588C96.7164 125.539 96.6244 125.514 96.523 125.514C96.4217 125.514 96.3297 125.539 96.247 125.588C96.1644 125.636 96.099 125.701 96.051 125.784C96.003 125.865 95.979 125.957 95.979 126.06V127.058C95.979 127.159 96.003 127.251 96.051 127.334C96.099 127.415 96.1644 127.481 96.247 127.53C96.3297 127.578 96.4217 127.602 96.523 127.602Z" fill="#97A3C1"/>
<path d="M112.08 128L112.988 125.12H113.694L114.602 128H114.106L113.282 125.416H113.39L112.576 128H112.08ZM112.586 127.376V126.926H114.098V127.376H112.586ZM115.774 128.062C115.614 128.062 115.482 128.035 115.378 127.982C115.274 127.929 115.191 127.861 115.13 127.778C115.068 127.695 115.023 127.607 114.994 127.514C114.964 127.421 114.945 127.333 114.936 127.25C114.928 127.166 114.924 127.098 114.924 127.046V125.84H115.412V126.88C115.412 126.947 115.416 127.022 115.426 127.106C115.435 127.189 115.456 127.269 115.49 127.346C115.524 127.422 115.575 127.485 115.642 127.534C115.71 127.583 115.801 127.608 115.916 127.608C115.977 127.608 116.038 127.598 116.098 127.578C116.158 127.558 116.212 127.524 116.26 127.476C116.309 127.427 116.348 127.359 116.378 127.274C116.407 127.189 116.422 127.081 116.422 126.95L116.708 127.072C116.708 127.256 116.672 127.423 116.6 127.572C116.529 127.721 116.424 127.841 116.286 127.93C116.147 128.018 115.976 128.062 115.774 128.062ZM116.48 128V127.33H116.422V125.84H116.906V128H116.48ZM118.376 129.02C118.256 129.02 118.14 129.001 118.03 128.964C117.92 128.927 117.822 128.873 117.734 128.802C117.646 128.733 117.574 128.649 117.518 128.55L117.962 128.33C118.003 128.409 118.061 128.467 118.136 128.504C118.212 128.543 118.292 128.562 118.378 128.562C118.478 128.562 118.567 128.544 118.646 128.508C118.724 128.473 118.785 128.421 118.828 128.352C118.872 128.284 118.892 128.199 118.89 128.096V127.482H118.95V125.84H119.372V128.104C119.372 128.159 119.369 128.211 119.364 128.26C119.36 128.311 119.352 128.36 119.342 128.408C119.31 128.548 119.248 128.663 119.158 128.752C119.067 128.843 118.954 128.91 118.82 128.954C118.686 128.998 118.538 129.02 118.376 129.02ZM118.334 128.06C118.135 128.06 117.962 128.01 117.814 127.91C117.666 127.81 117.551 127.674 117.47 127.502C117.388 127.33 117.348 127.136 117.348 126.92C117.348 126.701 117.388 126.507 117.47 126.336C117.552 126.164 117.669 126.029 117.82 125.93C117.97 125.83 118.148 125.78 118.352 125.78C118.557 125.78 118.729 125.83 118.868 125.93C119.008 126.029 119.114 126.164 119.186 126.336C119.258 126.508 119.294 126.703 119.294 126.92C119.294 127.135 119.258 127.329 119.186 127.502C119.114 127.674 119.006 127.81 118.864 127.91C118.721 128.01 118.544 128.06 118.334 128.06ZM118.408 127.628C118.537 127.628 118.641 127.599 118.72 127.54C118.8 127.48 118.858 127.397 118.894 127.29C118.931 127.183 118.95 127.06 118.95 126.92C118.95 126.779 118.931 126.655 118.894 126.55C118.858 126.443 118.801 126.361 118.724 126.302C118.646 126.242 118.546 126.212 118.424 126.212C118.294 126.212 118.188 126.244 118.104 126.308C118.02 126.371 117.958 126.456 117.918 126.564C117.878 126.671 117.858 126.789 117.858 126.92C117.858 127.052 117.877 127.172 117.916 127.28C117.956 127.387 118.016 127.471 118.098 127.534C118.179 127.597 118.282 127.628 118.408 127.628ZM121.233 128V125.646L120.693 125.976V125.444L121.233 125.12H121.725V128H121.233ZM122.987 128V125.646L122.447 125.976V125.444L122.987 125.12H123.479V128H122.987Z" fill="#97A3C1"/>
<path d="M138.08 128L138.988 125.12H139.694L140.602 128H140.106L139.282 125.416H139.39L138.576 128H138.08ZM138.586 127.376V126.926H140.098V127.376H138.586ZM141.774 128.062C141.614 128.062 141.482 128.035 141.378 127.982C141.274 127.929 141.191 127.861 141.13 127.778C141.068 127.695 141.023 127.607 140.994 127.514C140.964 127.421 140.945 127.333 140.936 127.25C140.928 127.166 140.924 127.098 140.924 127.046V125.84H141.412V126.88C141.412 126.947 141.416 127.022 141.426 127.106C141.435 127.189 141.456 127.269 141.49 127.346C141.524 127.422 141.575 127.485 141.642 127.534C141.71 127.583 141.801 127.608 141.916 127.608C141.977 127.608 142.038 127.598 142.098 127.578C142.158 127.558 142.212 127.524 142.26 127.476C142.309 127.427 142.348 127.359 142.378 127.274C142.407 127.189 142.422 127.081 142.422 126.95L142.708 127.072C142.708 127.256 142.672 127.423 142.6 127.572C142.529 127.721 142.424 127.841 142.286 127.93C142.147 128.018 141.976 128.062 141.774 128.062ZM142.48 128V127.33H142.422V125.84H142.906V128H142.48ZM144.376 129.02C144.256 129.02 144.14 129.001 144.03 128.964C143.92 128.927 143.822 128.873 143.734 128.802C143.646 128.733 143.574 128.649 143.518 128.55L143.962 128.33C144.003 128.409 144.061 128.467 144.136 128.504C144.212 128.543 144.292 128.562 144.378 128.562C144.478 128.562 144.567 128.544 144.646 128.508C144.724 128.473 144.785 128.421 144.828 128.352C144.872 128.284 144.892 128.199 144.89 128.096V127.482H144.95V125.84H145.372V128.104C145.372 128.159 145.369 128.211 145.364 128.26C145.36 128.311 145.352 128.36 145.342 128.408C145.31 128.548 145.248 128.663 145.158 128.752C145.067 128.843 144.954 128.91 144.82 128.954C144.686 128.998 144.538 129.02 144.376 129.02ZM144.334 128.06C144.135 128.06 143.962 128.01 143.814 127.91C143.666 127.81 143.551 127.674 143.47 127.502C143.388 127.33 143.348 127.136 143.348 126.92C143.348 126.701 143.388 126.507 143.47 126.336C143.552 126.164 143.669 126.029 143.82 125.93C143.97 125.83 144.148 125.78 144.352 125.78C144.557 125.78 144.729 125.83 144.868 125.93C145.008 126.029 145.114 126.164 145.186 126.336C145.258 126.508 145.294 126.703 145.294 126.92C145.294 127.135 145.258 127.329 145.186 127.502C145.114 127.674 145.006 127.81 144.864 127.91C144.721 128.01 144.544 128.06 144.334 128.06ZM144.408 127.628C144.537 127.628 144.641 127.599 144.72 127.54C144.8 127.48 144.858 127.397 144.894 127.29C144.931 127.183 144.95 127.06 144.95 126.92C144.95 126.779 144.931 126.655 144.894 126.55C144.858 126.443 144.801 126.361 144.724 126.302C144.646 126.242 144.546 126.212 144.424 126.212C144.294 126.212 144.188 126.244 144.104 126.308C144.02 126.371 143.958 126.456 143.918 126.564C143.878 126.671 143.858 126.789 143.858 126.92C143.858 127.052 143.877 127.172 143.916 127.28C143.956 127.387 144.016 127.471 144.098 127.534C144.179 127.597 144.282 127.628 144.408 127.628ZM147.233 128V125.646L146.693 125.976V125.444L147.233 125.12H147.725V128H147.233ZM148.407 127.996V127.576L149.639 126.478C149.735 126.393 149.802 126.312 149.839 126.236C149.876 126.16 149.895 126.087 149.895 126.016C149.895 125.92 149.874 125.835 149.833 125.76C149.792 125.684 149.734 125.624 149.661 125.58C149.589 125.536 149.506 125.514 149.411 125.514C149.311 125.514 149.222 125.537 149.145 125.584C149.069 125.629 149.01 125.69 148.967 125.766C148.924 125.842 148.904 125.924 148.907 126.012H148.411C148.411 125.82 148.454 125.653 148.539 125.51C148.626 125.367 148.744 125.257 148.895 125.178C149.047 125.099 149.222 125.06 149.421 125.06C149.605 125.06 149.77 125.101 149.917 125.184C150.064 125.265 150.179 125.379 150.263 125.524C150.347 125.668 150.389 125.834 150.389 126.022C150.389 126.159 150.37 126.275 150.333 126.368C150.296 126.461 150.24 126.547 150.165 126.626C150.092 126.705 150 126.792 149.891 126.888L149.017 127.662L148.973 127.542H150.389V127.996H148.407Z" fill="#97A3C1"/>
<path d="M165.08 128L165.988 125.12H166.694L167.602 128H167.106L166.282 125.416H166.39L165.576 128H165.08ZM165.586 127.376V126.926H167.098V127.376H165.586ZM168.774 128.062C168.614 128.062 168.482 128.035 168.378 127.982C168.274 127.929 168.191 127.861 168.13 127.778C168.068 127.695 168.023 127.607 167.994 127.514C167.964 127.421 167.945 127.333 167.936 127.25C167.928 127.166 167.924 127.098 167.924 127.046V125.84H168.412V126.88C168.412 126.947 168.416 127.022 168.426 127.106C168.435 127.189 168.456 127.269 168.49 127.346C168.524 127.422 168.575 127.485 168.642 127.534C168.71 127.583 168.801 127.608 168.916 127.608C168.977 127.608 169.038 127.598 169.098 127.578C169.158 127.558 169.212 127.524 169.26 127.476C169.309 127.427 169.348 127.359 169.378 127.274C169.407 127.189 169.422 127.081 169.422 126.95L169.708 127.072C169.708 127.256 169.672 127.423 169.6 127.572C169.529 127.721 169.424 127.841 169.286 127.93C169.147 128.018 168.976 128.062 168.774 128.062ZM169.48 128V127.33H169.422V125.84H169.906V128H169.48ZM171.376 129.02C171.256 129.02 171.14 129.001 171.03 128.964C170.92 128.927 170.822 128.873 170.734 128.802C170.646 128.733 170.574 128.649 170.518 128.55L170.962 128.33C171.003 128.409 171.061 128.467 171.136 128.504C171.212 128.543 171.292 128.562 171.378 128.562C171.478 128.562 171.567 128.544 171.646 128.508C171.724 128.473 171.785 128.421 171.828 128.352C171.872 128.284 171.892 128.199 171.89 128.096V127.482H171.95V125.84H172.372V128.104C172.372 128.159 172.369 128.211 172.364 128.26C172.36 128.311 172.352 128.36 172.342 128.408C172.31 128.548 172.248 128.663 172.158 128.752C172.067 128.843 171.954 128.91 171.82 128.954C171.686 128.998 171.538 129.02 171.376 129.02ZM171.334 128.06C171.135 128.06 170.962 128.01 170.814 127.91C170.666 127.81 170.551 127.674 170.47 127.502C170.388 127.33 170.348 127.136 170.348 126.92C170.348 126.701 170.388 126.507 170.47 126.336C170.552 126.164 170.669 126.029 170.82 125.93C170.97 125.83 171.148 125.78 171.352 125.78C171.557 125.78 171.729 125.83 171.868 125.93C172.008 126.029 172.114 126.164 172.186 126.336C172.258 126.508 172.294 126.703 172.294 126.92C172.294 127.135 172.258 127.329 172.186 127.502C172.114 127.674 172.006 127.81 171.864 127.91C171.721 128.01 171.544 128.06 171.334 128.06ZM171.408 127.628C171.537 127.628 171.641 127.599 171.72 127.54C171.8 127.48 171.858 127.397 171.894 127.29C171.931 127.183 171.95 127.06 171.95 126.92C171.95 126.779 171.931 126.655 171.894 126.55C171.858 126.443 171.801 126.361 171.724 126.302C171.646 126.242 171.546 126.212 171.424 126.212C171.294 126.212 171.188 126.244 171.104 126.308C171.02 126.371 170.958 126.456 170.918 126.564C170.878 126.671 170.858 126.789 170.858 126.92C170.858 127.052 170.877 127.172 170.916 127.28C170.956 127.387 171.016 127.471 171.098 127.534C171.179 127.597 171.282 127.628 171.408 127.628ZM174.233 128V125.646L173.693 125.976V125.444L174.233 125.12H174.725V128H174.233ZM176.311 128.054C176.167 128.054 176.031 128.026 175.903 127.97C175.775 127.914 175.664 127.835 175.569 127.732C175.476 127.629 175.408 127.508 175.367 127.368L175.833 127.242C175.866 127.357 175.927 127.445 176.015 127.508C176.104 127.569 176.202 127.599 176.309 127.598C176.404 127.598 176.488 127.576 176.563 127.532C176.638 127.488 176.696 127.429 176.739 127.354C176.782 127.278 176.803 127.193 176.803 127.1C176.803 126.957 176.757 126.838 176.665 126.742C176.573 126.646 176.454 126.598 176.309 126.598C176.265 126.598 176.222 126.604 176.179 126.616C176.138 126.628 176.098 126.645 176.059 126.666L175.839 126.286L176.807 125.458L176.849 125.574H175.479V125.12H177.245V125.576L176.467 126.324L176.463 126.182C176.638 126.194 176.786 126.243 176.909 126.328C177.033 126.413 177.128 126.523 177.193 126.658C177.26 126.793 177.293 126.94 177.293 127.1C177.293 127.281 177.248 127.444 177.159 127.588C177.071 127.732 176.952 127.846 176.803 127.93C176.655 128.013 176.491 128.054 176.311 128.054Z" fill="#97A3C1"/>
<path d="M192.08 128L192.988 125.12H193.694L194.602 128H194.106L193.282 125.416H193.39L192.576 128H192.08ZM192.586 127.376V126.926H194.098V127.376H192.586ZM195.774 128.062C195.614 128.062 195.482 128.035 195.378 127.982C195.274 127.929 195.191 127.861 195.13 127.778C195.068 127.695 195.023 127.607 194.994 127.514C194.964 127.421 194.945 127.333 194.936 127.25C194.928 127.166 194.924 127.098 194.924 127.046V125.84H195.412V126.88C195.412 126.947 195.416 127.022 195.426 127.106C195.435 127.189 195.456 127.269 195.49 127.346C195.524 127.422 195.575 127.485 195.642 127.534C195.71 127.583 195.801 127.608 195.916 127.608C195.977 127.608 196.038 127.598 196.098 127.578C196.158 127.558 196.212 127.524 196.26 127.476C196.309 127.427 196.348 127.359 196.378 127.274C196.407 127.189 196.422 127.081 196.422 126.95L196.708 127.072C196.708 127.256 196.672 127.423 196.6 127.572C196.529 127.721 196.424 127.841 196.286 127.93C196.147 128.018 195.976 128.062 195.774 128.062ZM196.48 128V127.33H196.422V125.84H196.906V128H196.48ZM198.376 129.02C198.256 129.02 198.14 129.001 198.03 128.964C197.92 128.927 197.822 128.873 197.734 128.802C197.646 128.733 197.574 128.649 197.518 128.55L197.962 128.33C198.003 128.409 198.061 128.467 198.136 128.504C198.212 128.543 198.292 128.562 198.378 128.562C198.478 128.562 198.567 128.544 198.646 128.508C198.724 128.473 198.785 128.421 198.828 128.352C198.872 128.284 198.892 128.199 198.89 128.096V127.482H198.95V125.84H199.372V128.104C199.372 128.159 199.369 128.211 199.364 128.26C199.36 128.311 199.352 128.36 199.342 128.408C199.31 128.548 199.248 128.663 199.158 128.752C199.067 128.843 198.954 128.91 198.82 128.954C198.686 128.998 198.538 129.02 198.376 129.02ZM198.334 128.06C198.135 128.06 197.962 128.01 197.814 127.91C197.666 127.81 197.551 127.674 197.47 127.502C197.388 127.33 197.348 127.136 197.348 126.92C197.348 126.701 197.388 126.507 197.47 126.336C197.552 126.164 197.669 126.029 197.82 125.93C197.97 125.83 198.148 125.78 198.352 125.78C198.557 125.78 198.729 125.83 198.868 125.93C199.008 126.029 199.114 126.164 199.186 126.336C199.258 126.508 199.294 126.703 199.294 126.92C199.294 127.135 199.258 127.329 199.186 127.502C199.114 127.674 199.006 127.81 198.864 127.91C198.721 128.01 198.544 128.06 198.334 128.06ZM198.408 127.628C198.537 127.628 198.641 127.599 198.72 127.54C198.8 127.48 198.858 127.397 198.894 127.29C198.931 127.183 198.95 127.06 198.95 126.92C198.95 126.779 198.931 126.655 198.894 126.55C198.858 126.443 198.801 126.361 198.724 126.302C198.646 126.242 198.546 126.212 198.424 126.212C198.294 126.212 198.188 126.244 198.104 126.308C198.02 126.371 197.958 126.456 197.918 126.564C197.878 126.671 197.858 126.789 197.858 126.92C197.858 127.052 197.877 127.172 197.916 127.28C197.956 127.387 198.016 127.471 198.098 127.534C198.179 127.597 198.282 127.628 198.408 127.628ZM201.233 128V125.646L200.693 125.976V125.444L201.233 125.12H201.725V128H201.233ZM203.683 128V127.524H202.407V127.074L203.329 125.12H203.879L202.957 127.074H203.683V126.324H204.171V127.074H204.441V127.524H204.171V128H203.683Z" fill="#97A3C1"/>
<path d="M79.476 86V85.524H78.2V85.074L79.122 83.12H79.672L78.75 85.074H79.476V84.324H79.964V85.074H80.234V85.524H79.964V86H79.476ZM81.2136 86V83.646L80.6736 83.976V83.444L81.2136 83.12H81.7056V86H81.2136Z" fill="#97A3C1"/>
<path d="M79.476 96V95.524H78.2V95.074L79.122 93.12H79.672L78.75 95.074H79.476V94.324H79.964V95.074H80.234V95.524H79.964V96H79.476ZM80.6336 95.996V95.576L81.8656 94.478C81.9616 94.3927 82.0283 94.312 82.0656 94.236C82.1029 94.16 82.1216 94.0867 82.1216 94.016C82.1216 93.92 82.1009 93.8347 82.0596 93.76C82.0183 93.684 81.9609 93.624 81.8876 93.58C81.8156 93.536 81.7323 93.514 81.6376 93.514C81.5376 93.514 81.4489 93.5373 81.3716 93.584C81.2956 93.6293 81.2363 93.69 81.1936 93.766C81.1509 93.842 81.1309 93.924 81.1336 94.012H80.6376C80.6376 93.82 80.6803 93.6527 80.7656 93.51C80.8523 93.3673 80.9709 93.2567 81.1216 93.178C81.2736 93.0993 81.4489 93.06 81.6476 93.06C81.8316 93.06 81.9969 93.1013 82.1436 93.184C82.2903 93.2653 82.4056 93.3787 82.4896 93.524C82.5736 93.668 82.6156 93.834 82.6156 94.022C82.6156 94.1593 82.5969 94.2747 82.5596 94.368C82.5223 94.4613 82.4663 94.5473 82.3916 94.626C82.3183 94.7047 82.2269 94.792 82.1176 94.888L81.2436 95.662L81.1996 95.542H82.6156V95.996H80.6336Z" fill="#97A3C1"/>
<path d="M79.476 109V108.524H78.2V108.074L79.122 106.12H79.672L78.75 108.074H79.476V107.324H79.964V108.074H80.234V108.524H79.964V109H79.476ZM81.5376 109.054C81.3936 109.054 81.2576 109.026 81.1296 108.97C81.0016 108.914 80.8903 108.835 80.7956 108.732C80.7023 108.629 80.6349 108.508 80.5936 108.368L81.0596 108.242C81.0929 108.357 81.1536 108.445 81.2416 108.508C81.3309 108.569 81.4289 108.599 81.5356 108.598C81.6303 108.598 81.7149 108.576 81.7896 108.532C81.8643 108.488 81.9229 108.429 81.9656 108.354C82.0083 108.278 82.0296 108.193 82.0296 108.1C82.0296 107.957 81.9836 107.838 81.8916 107.742C81.7996 107.646 81.6809 107.598 81.5356 107.598C81.4916 107.598 81.4483 107.604 81.4056 107.616C81.3643 107.628 81.3243 107.645 81.2856 107.666L81.0656 107.286L82.0336 106.458L82.0756 106.574H80.7056V106.12H82.4716V106.576L81.6936 107.324L81.6896 107.182C81.8643 107.194 82.0129 107.243 82.1356 107.328C82.2596 107.413 82.3543 107.523 82.4196 107.658C82.4863 107.793 82.5196 107.94 82.5196 108.1C82.5196 108.281 82.4749 108.444 82.3856 108.588C82.2976 108.732 82.1789 108.846 82.0296 108.93C81.8816 109.013 81.7176 109.054 81.5376 109.054Z" fill="#97A3C1"/>
<path d="M79.476 121V120.524H78.2V120.074L79.122 118.12H79.672L78.75 120.074H79.476V119.324H79.964V120.074H80.234V120.524H79.964V121H79.476ZM81.8627 121V120.524H80.5867V120.074L81.5087 118.12H82.0587L81.1367 120.074H81.8627V119.324H82.3507V120.074H82.6207V120.524H82.3507V121H81.8627Z" fill="#97A3C1"/>
<path d="M74 115.334L71.84 115.965V115.586L73.4 115.155L71.843 114.726L71.84 114.347L73.4 113.916L71.84 113.487V113.108L74 113.738V114.095L72.464 114.537L74 114.977V115.334ZM74 111.914C74.02 112.021 74.0285 112.126 74.0255 112.229C74.0235 112.331 74.005 112.422 73.97 112.503C73.934 112.584 73.8775 112.646 73.8005 112.688C73.7305 112.725 73.659 112.744 73.586 112.746C73.513 112.748 73.4305 112.749 73.3385 112.749H71.93V112.389H73.3175C73.3825 112.389 73.4395 112.389 73.4885 112.388C73.5375 112.386 73.5775 112.375 73.6085 112.356C73.6685 112.32 73.702 112.263 73.709 112.184C73.716 112.105 73.712 112.015 73.697 111.914H74ZM72.6635 113.043H72.38V111.914H72.6635V113.043ZM74.045 110.998C74.045 111.147 74.0075 111.277 73.9325 111.388C73.8575 111.499 73.7555 111.585 73.6265 111.646C73.4975 111.707 73.352 111.737 73.19 111.737C73.026 111.737 72.88 111.707 72.752 111.646C72.623 111.584 72.5215 111.496 72.4475 111.383C72.3725 111.27 72.335 111.137 72.335 110.984C72.335 110.83 72.3725 110.701 72.4475 110.597C72.5215 110.492 72.623 110.413 72.752 110.359C72.881 110.305 73.027 110.278 73.19 110.278C73.351 110.278 73.4965 110.305 73.6265 110.359C73.7555 110.413 73.8575 110.493 73.9325 110.6C74.0075 110.707 74.045 110.84 74.045 110.998ZM73.721 110.942C73.721 110.845 73.699 110.767 73.655 110.708C73.61 110.648 73.5475 110.605 73.4675 110.578C73.3875 110.55 73.295 110.536 73.19 110.536C73.084 110.536 72.9915 110.55 72.9125 110.578C72.8325 110.605 72.7705 110.647 72.7265 110.705C72.6815 110.763 72.659 110.838 72.659 110.93C72.659 111.027 72.683 111.107 72.731 111.17C72.778 111.233 72.842 111.28 72.923 111.31C73.003 111.34 73.092 111.355 73.19 111.355C73.289 111.355 73.379 111.34 73.46 111.311C73.54 111.281 73.6035 111.236 73.6505 111.175C73.6975 111.114 73.721 111.036 73.721 110.942ZM74 110.536H72.863V110.581H71.84V110.216H74V110.536ZM74 109.736H73.6295V109.365H74V109.736ZM74 108.434L71.84 107.753V107.224L74 106.543V106.915L72.062 107.533V107.452L74 108.062V108.434ZM73.532 108.055H73.1945V106.921H73.532V108.055ZM74 105.954L72.38 106.542V106.18L73.5545 105.772L72.38 105.366V105.003L74 105.591V105.954ZM74.045 104.055C74.045 104.219 74.0095 104.363 73.9385 104.487C73.8675 104.611 73.769 104.708 73.643 104.778C73.517 104.847 73.372 104.882 73.208 104.882C73.031 104.882 72.8775 104.848 72.7475 104.78C72.6165 104.712 72.515 104.617 72.443 104.496C72.371 104.375 72.335 104.235 72.335 104.076C72.335 103.908 72.3745 103.766 72.4535 103.649C72.5315 103.531 72.642 103.443 72.785 103.386C72.928 103.329 73.0965 103.308 73.2905 103.322V103.68H73.1585C72.9825 103.681 72.854 103.712 72.773 103.773C72.692 103.834 72.6515 103.93 72.6515 104.061C72.6515 104.209 72.6975 104.319 72.7895 104.391C72.8805 104.463 73.014 104.499 73.19 104.499C73.354 104.499 73.481 104.463 73.571 104.391C73.661 104.319 73.706 104.214 73.706 104.076C73.706 103.987 73.6865 103.911 73.6475 103.847C73.6075 103.782 73.55 103.732 73.475 103.697L73.583 103.34C73.729 103.402 73.8425 103.498 73.9235 103.628C74.0045 103.757 74.045 103.899 74.045 104.055ZM73.2905 104.613H73.0175V103.499H73.2905V104.613ZM74 102.987H72.38V102.668H72.7745L72.7235 102.707C72.6695 102.687 72.6205 102.66 72.5765 102.627C72.5315 102.593 72.4945 102.553 72.4655 102.506C72.4385 102.466 72.4175 102.422 72.4025 102.374C72.3865 102.325 72.377 102.275 72.374 102.224C72.37 102.173 72.372 102.123 72.38 102.075H72.7175C72.7035 102.123 72.699 102.179 72.704 102.242C72.709 102.304 72.7265 102.36 72.7565 102.41C72.7835 102.46 72.818 102.501 72.86 102.533C72.902 102.564 72.95 102.587 73.004 102.602C73.057 102.617 73.1145 102.624 73.1765 102.624H74V102.987ZM74.045 101.374C74.045 101.491 74.023 101.59 73.979 101.671C73.934 101.752 73.8745 101.814 73.8005 101.856C73.7265 101.897 73.645 101.917 73.556 101.917C73.478 101.917 73.408 101.904 73.346 101.878C73.283 101.852 73.229 101.812 73.184 101.758C73.138 101.704 73.1005 101.634 73.0715 101.548C73.0505 101.483 73.0315 101.407 73.0145 101.32C72.9975 101.232 72.982 101.137 72.968 101.035C72.953 100.932 72.937 100.825 72.92 100.713L72.9935 100.842C72.8815 100.841 72.799 100.866 72.746 100.917C72.693 100.968 72.6665 101.054 72.6665 101.175C72.6665 101.248 72.6835 101.318 72.7175 101.386C72.7515 101.454 72.81 101.502 72.893 101.529L72.7895 101.859C72.6525 101.819 72.5425 101.743 72.4595 101.631C72.3765 101.518 72.335 101.366 72.335 101.175C72.335 101.031 72.3585 100.904 72.4055 100.795C72.4525 100.685 72.5295 100.604 72.6365 100.551C72.6935 100.522 72.752 100.504 72.812 100.498C72.871 100.492 72.9355 100.489 73.0055 100.489H74V100.806H73.649L73.706 100.753C73.823 100.826 73.909 100.912 73.964 101.01C74.018 101.107 74.045 101.228 74.045 101.374ZM73.757 101.302C73.757 101.22 73.7425 101.15 73.7135 101.092C73.6845 101.034 73.649 100.988 73.607 100.954C73.565 100.919 73.5255 100.896 73.4885 100.884C73.4425 100.865 73.39 100.854 73.331 100.852C73.271 100.849 73.2225 100.848 73.1855 100.848L73.2185 100.737C73.2355 100.846 73.2505 100.939 73.2635 101.017C73.2765 101.095 73.289 101.162 73.301 101.218C73.312 101.274 73.3245 101.324 73.3385 101.367C73.3535 101.409 73.371 101.444 73.391 101.473C73.411 101.502 73.434 101.525 73.46 101.541C73.486 101.556 73.5165 101.563 73.5515 101.563C73.5915 101.563 73.627 101.553 73.658 101.533C73.688 101.513 73.712 101.484 73.73 101.446C73.748 101.407 73.757 101.359 73.757 101.302ZM74.765 99.4176C74.765 99.5076 74.751 99.5941 74.723 99.6771C74.695 99.7591 74.6545 99.8331 74.6015 99.8991C74.5495 99.9651 74.4865 100.019 74.4125 100.061L74.2475 99.7281C74.3065 99.6971 74.35 99.6536 74.378 99.5976C74.407 99.5406 74.4215 99.4801 74.4215 99.4161C74.4215 99.3411 74.408 99.2741 74.381 99.2151C74.355 99.1561 74.316 99.1106 74.264 99.0786C74.213 99.0456 74.149 99.0301 74.072 99.0321H73.6115V98.9871H72.38V98.6706H74.078C74.119 98.6706 74.158 98.6726 74.195 98.6766C74.233 98.6796 74.27 98.6851 74.306 98.6931C74.411 98.7171 74.497 98.7631 74.564 98.8311C74.632 98.8991 74.6825 98.9836 74.7155 99.0846C74.7485 99.1846 74.765 99.2956 74.765 99.4176ZM74.045 99.4491C74.045 99.5981 74.0075 99.7281 73.9325 99.8391C73.8575 99.9501 73.7555 100.036 73.6265 100.097C73.4975 100.158 73.352 100.189 73.19 100.189C73.026 100.189 72.88 100.158 72.752 100.097C72.623 100.035 72.5215 99.9476 72.4475 99.8346C72.3725 99.7216 72.335 99.5886 72.335 99.4356C72.335 99.2816 72.3725 99.1526 72.4475 99.0486C72.5215 98.9436 72.623 98.8641 72.752 98.8101C72.881 98.7561 73.027 98.7291 73.19 98.7291C73.351 98.7291 73.4965 98.7561 73.6265 98.8101C73.7555 98.8641 73.8575 98.9446 73.9325 99.0516C74.0075 99.1586 74.045 99.2911 74.045 99.4491ZM73.721 99.3936C73.721 99.2966 73.699 99.2186 73.655 99.1596C73.61 99.0996 73.5475 99.0561 73.4675 99.0291C73.3875 99.0011 73.295 98.9871 73.19 98.9871C73.084 98.9871 72.9915 99.0011 72.9125 99.0291C72.8325 99.0561 72.7705 99.0986 72.7265 99.1566C72.6815 99.2146 72.659 99.2896 72.659 99.3816C72.659 99.4786 72.683 99.5586 72.731 99.6216C72.778 99.6846 72.842 99.7311 72.923 99.7611C73.003 99.7911 73.092 99.8061 73.19 99.8061C73.289 99.8061 73.379 99.7916 73.46 99.7626C73.54 99.7326 73.6035 99.6871 73.6505 99.6261C73.6975 99.5651 73.721 99.4876 73.721 99.3936ZM74.045 97.5135C74.045 97.6775 74.0095 97.8215 73.9385 97.9455C73.8675 98.0695 73.769 98.1665 73.643 98.2365C73.517 98.3055 73.372 98.34 73.208 98.34C73.031 98.34 72.8775 98.306 72.7475 98.238C72.6165 98.17 72.515 98.0755 72.443 97.9545C72.371 97.8335 72.335 97.6935 72.335 97.5345C72.335 97.3665 72.3745 97.224 72.4535 97.107C72.5315 96.989 72.642 96.9015 72.785 96.8445C72.928 96.7875 73.0965 96.766 73.2905 96.78V97.1385H73.1585C72.9825 97.1395 72.854 97.1705 72.773 97.2315C72.692 97.2925 72.6515 97.3885 72.6515 97.5195C72.6515 97.6675 72.6975 97.7775 72.7895 97.8495C72.8805 97.9215 73.014 97.9575 73.19 97.9575C73.354 97.9575 73.481 97.9215 73.571 97.8495C73.661 97.7775 73.706 97.6725 73.706 97.5345C73.706 97.4455 73.6865 97.369 73.6475 97.305C73.6075 97.24 73.55 97.19 73.475 97.155L73.583 96.798C73.729 96.86 73.8425 96.956 73.9235 97.086C74.0045 97.215 74.045 97.3575 74.045 97.5135ZM73.2905 98.0715H73.0175V96.957H73.2905V98.0715ZM74 95.8447H71.84V94.9522C71.84 94.9312 71.841 94.9042 71.843 94.8712C71.844 94.8382 71.847 94.8077 71.852 94.7797C71.871 94.6547 71.9125 94.5517 71.9765 94.4707C72.0405 94.3887 72.1215 94.3282 72.2195 94.2892C72.3165 94.2492 72.4245 94.2292 72.5435 94.2292C72.7195 94.2292 72.871 94.2737 72.998 94.3627C73.124 94.4517 73.202 94.5882 73.232 94.7722L73.2455 94.9267V95.4832H74V95.8447ZM74 94.6042L73.121 95.0302L73.04 94.6627L74 94.1947V94.6042ZM72.908 95.4832V94.9672C72.908 94.9472 72.907 94.9247 72.905 94.8997C72.903 94.8747 72.899 94.8517 72.893 94.8307C72.878 94.7707 72.8515 94.7237 72.8135 94.6897C72.7755 94.6547 72.7325 94.6302 72.6845 94.6162C72.6365 94.6012 72.5895 94.5937 72.5435 94.5937C72.4975 94.5937 72.4505 94.6012 72.4025 94.6162C72.3535 94.6302 72.31 94.6547 72.272 94.6897C72.234 94.7237 72.2075 94.7707 72.1925 94.8307C72.1865 94.8517 72.183 94.8747 72.182 94.8997C72.18 94.9247 72.179 94.9472 72.179 94.9672V95.4832H72.908ZM74.045 93.4112C74.045 93.5282 74.023 93.6272 73.979 93.7082C73.934 93.7892 73.8745 93.8507 73.8005 93.8927C73.7265 93.9337 73.645 93.9542 73.556 93.9542C73.478 93.9542 73.408 93.9412 73.346 93.9152C73.283 93.8892 73.229 93.8492 73.184 93.7952C73.138 93.7412 73.1005 93.6712 73.0715 93.5852C73.0505 93.5202 73.0315 93.4442 73.0145 93.3572C72.9975 93.2692 72.982 93.1742 72.968 93.0722C72.953 92.9692 72.937 92.8617 72.92 92.7497L72.9935 92.8787C72.8815 92.8777 72.799 92.9027 72.746 92.9537C72.693 93.0047 72.6665 93.0907 72.6665 93.2117C72.6665 93.2847 72.6835 93.3552 72.7175 93.4232C72.7515 93.4912 72.81 93.5387 72.893 93.5657L72.7895 93.8957C72.6525 93.8557 72.5425 93.7797 72.4595 93.6677C72.3765 93.5547 72.335 93.4027 72.335 93.2117C72.335 93.0677 72.3585 92.9412 72.4055 92.8322C72.4525 92.7222 72.5295 92.6407 72.6365 92.5877C72.6935 92.5587 72.752 92.5412 72.812 92.5352C72.871 92.5292 72.9355 92.5262 73.0055 92.5262H74V92.8427H73.649L73.706 92.7902C73.823 92.8632 73.909 92.9487 73.964 93.0467C74.018 93.1437 74.045 93.2652 74.045 93.4112ZM73.757 93.3392C73.757 93.2572 73.7425 93.1872 73.7135 93.1292C73.6845 93.0712 73.649 93.0252 73.607 92.9912C73.565 92.9562 73.5255 92.9327 73.4885 92.9207C73.4425 92.9017 73.39 92.8912 73.331 92.8892C73.271 92.8862 73.2225 92.8847 73.1855 92.8847L73.2185 92.7737C73.2355 92.8827 73.2505 92.9762 73.2635 93.0542C73.2765 93.1322 73.289 93.1992 73.301 93.2552C73.312 93.3112 73.3245 93.3607 73.3385 93.4037C73.3535 93.4457 73.371 93.4812 73.391 93.5102C73.411 93.5392 73.434 93.5617 73.46 93.5777C73.486 93.5927 73.5165 93.6002 73.5515 93.6002C73.5915 93.6002 73.627 93.5902 73.658 93.5702C73.688 93.5502 73.712 93.5212 73.73 93.4832C73.748 93.4442 73.757 93.3962 73.757 93.3392ZM74 91.0152H73.22C73.169 91.0152 73.1125 91.0187 73.0505 91.0257C72.9885 91.0327 72.929 91.0492 72.872 91.0752C72.814 91.1002 72.7665 91.1382 72.7295 91.1892C72.6925 91.2392 72.674 91.3072 72.674 91.3932C72.674 91.4392 72.6815 91.4847 72.6965 91.5297C72.7115 91.5747 72.7375 91.6157 72.7745 91.6527C72.8105 91.6887 72.8605 91.7177 72.9245 91.7397C72.9875 91.7617 73.0685 91.7727 73.1675 91.7727L73.076 91.9872C72.938 91.9872 72.813 91.9607 72.701 91.9077C72.589 91.8537 72.5 91.7747 72.434 91.6707C72.367 91.5667 72.3335 91.4387 72.3335 91.2867C72.3335 91.1667 72.3535 91.0677 72.3935 90.9897C72.4335 90.9117 72.4845 90.8497 72.5465 90.8037C72.6085 90.7577 72.6745 90.7237 72.7445 90.7017C72.8145 90.6797 72.881 90.6657 72.944 90.6597C73.006 90.6527 73.0565 90.6492 73.0955 90.6492H74V91.0152ZM74 92.1387H72.38V91.8162H72.8825V91.7727H74V92.1387ZM74 90.2608L71.84 90.2578V89.8918H73.16L72.38 89.2993V88.8478L73.19 89.4763L74 88.7938V89.2723L73.22 89.8918H74V90.2608Z" fill="#384973"/>
<circle cx="135" cy="95" r="2" fill="white"/>
<circle cx="135" cy="95" r="1" fill="#3DCC65"/>
<defs>
<linearGradient id="paint0_linear_208_3537" x1="125.5" y1="0" x2="125.5" y2="160" gradientUnits="userSpaceOnUse">
<stop stop-color="#001345"/>
<stop offset="1" stop-color="#001345" stop-opacity="0"/>
</linearGradient>
</defs>
</svg>
