<svg width="251" height="160" viewBox="0 0 251 160" fill="none" xmlns="http://www.w3.org/2000/svg">
<rect opacity="0.35" width="251" height="160" fill="url(#paint0_linear_208_3526)"/>
<rect x="101.19" y="33" width="53" height="55" fill="white"/>
<path d="M127.69 17.4024L154.19 33L127.69 48.0282L101.19 33L127.69 17.4024Z" fill="white"/>
<path d="M127.69 17.4024L154.19 33L127.69 48.0282L101.19 33L127.69 17.4024Z" fill="white"/>
<path d="M127.69 17.4024L154.19 33L127.69 48.0282L101.19 33L127.69 17.4024Z" fill="#F7EBFF"/>
<path d="M127.69 23.8769L143.19 33L127.69 41.7901L112.19 33L127.69 23.8769Z" fill="#EBDBF5"/>
<path d="M127.69 26.8198L138.19 33L127.69 38.9546L117.19 33L127.69 26.8198Z" fill="white"/>
<path d="M127.69 30.3513L132.19 33L127.69 35.552L123.19 33L127.69 30.3513Z" fill="#EDD0FF"/>
<path d="M127.69 72.9024L154.19 88L127.69 103.528L101.19 88L127.69 72.9024Z" fill="white"/>
<path d="M101.19 88V33L127.69 48V103.5L101.19 88Z" fill="#F9F0FF"/>
<path d="M101.19 49V48L127.69 63V64L101.19 49Z" fill="#EBDBF5"/>
<path d="M101.19 68V67L127.69 82V83L101.19 68Z" fill="#EBDBF5"/>
<path d="M154.19 49V48L127.69 63V64L154.19 49Z" fill="#F7EBFF"/>
<path d="M154.19 68V67L127.69 82V83L154.19 68Z" fill="#F7EBFF"/>
<rect x="52" y="50" width="53" height="55" fill="white"/>
<path d="M78.5 34.4024L105 50L78.5 65.0282L52 50L78.5 34.4024Z" fill="white"/>
<path d="M78.5 34.4024L105 50L78.5 65.0282L52 50L78.5 34.4024Z" fill="white"/>
<path d="M78.5 34.4024L105 50L78.5 65.0282L52 50L78.5 34.4024Z" fill="#F7EBFF"/>
<path d="M78.5 40.8769L94 50L78.5 58.7901L63 50L78.5 40.8769Z" fill="#EBDBF5"/>
<path d="M78.5 43.8198L89 50L78.5 55.9546L68 50L78.5 43.8198Z" fill="white"/>
<path d="M78.5 47.3513L83 50L78.5 52.552L74 50L78.5 47.3513Z" fill="#EDD0FF"/>
<path d="M78.5 89.9024L105 105L78.5 120.528L52 105L78.5 89.9024Z" fill="white"/>
<path d="M52 105V50L78.5 65V120.5L52 105Z" fill="#F9F0FF"/>
<path d="M52 66V65L78.5 80V81L52 66Z" fill="#EBDBF5"/>
<path d="M52 85V84L78.5 99V100L52 85Z" fill="#EBDBF5"/>
<path d="M105 66V65L78.5 80V81L105 66Z" fill="#F7EBFF"/>
<path d="M105 85V84L78.5 99V100L105 85Z" fill="#F7EBFF"/>
<rect x="146.088" y="50" width="53" height="55" fill="white"/>
<path d="M172.588 34.4024L199.088 50L172.588 65.0282L146.088 50L172.588 34.4024Z" fill="white"/>
<path d="M172.588 34.4024L199.088 50L172.588 65.0282L146.088 50L172.588 34.4024Z" fill="white"/>
<path d="M172.588 34.4024L199.088 50L172.588 65.0282L146.088 50L172.588 34.4024Z" fill="#F7EBFF"/>
<path d="M172.588 40.8769L188.088 50L172.588 58.7901L157.088 50L172.588 40.8769Z" fill="#EBDBF5"/>
<path d="M172.588 43.8198L183.088 50L172.588 55.9546L162.088 50L172.588 43.8198Z" fill="white"/>
<path d="M172.588 47.3513L177.088 50L172.588 52.552L168.088 50L172.588 47.3513Z" fill="#EDD0FF"/>
<path d="M172.588 89.9024L199.088 105L172.588 120.528L146.088 105L172.588 89.9024Z" fill="white"/>
<path d="M146.088 105V50L172.588 65V120.5L146.088 105Z" fill="#F9F0FF"/>
<path d="M146.088 66V65L172.588 80V81L146.088 66Z" fill="#EBDBF5"/>
<path d="M146.088 85V84L172.588 99V100L146.088 85Z" fill="#EBDBF5"/>
<path d="M199.088 66V65L172.588 80V81L199.088 66Z" fill="#F7EBFF"/>
<path d="M199.088 85V84L172.588 99V100L199.088 85Z" fill="#F7EBFF"/>
<rect x="101.19" y="72" width="53" height="55" fill="white"/>
<path d="M127.69 56.4024L154.19 72L127.69 87.0282L101.19 72L127.69 56.4024Z" fill="white"/>
<path d="M127.69 56.4024L154.19 72L127.69 87.0282L101.19 72L127.69 56.4024Z" fill="white"/>
<path d="M127.69 56.4024L154.19 72L127.69 87.0282L101.19 72L127.69 56.4024Z" fill="#F7EBFF"/>
<path d="M127.69 62.8769L143.19 72L127.69 80.7901L112.19 72L127.69 62.8769Z" fill="#EBDBF5"/>
<path d="M127.69 65.8198L138.19 72L127.69 77.9546L117.19 72L127.69 65.8198Z" fill="white"/>
<path d="M127.69 69.3513L132.19 72L127.69 74.552L123.19 72L127.69 69.3513Z" fill="#EDD0FF"/>
<path d="M127.69 111.902L154.19 127L127.69 142.528L101.19 127L127.69 111.902Z" fill="white"/>
<path d="M101.19 127V72L127.69 87V142.5L101.19 127Z" fill="#F9F0FF"/>
<path d="M101.19 88V87L127.69 102V103L101.19 88Z" fill="#EBDBF5"/>
<path d="M101.19 107V106L127.69 121V122L101.19 107Z" fill="#EBDBF5"/>
<path d="M154.19 88V87L127.69 102V103L154.19 88Z" fill="#F7EBFF"/>
<path d="M154.19 107V106L127.69 121V122L154.19 107Z" fill="#F7EBFF"/>
<defs>
<linearGradient id="paint0_linear_208_3526" x1="125.5" y1="0" x2="125.5" y2="160" gradientUnits="userSpaceOnUse">
<stop stop-color="#B336FF"/>
<stop offset="1" stop-color="#B336FF" stop-opacity="0"/>
</linearGradient>
</defs>
</svg>
