<svg width="251" height="160" viewBox="0 0 251 160" fill="none" xmlns="http://www.w3.org/2000/svg">
<rect opacity="0.5" width="251" height="160" fill="url(#paint0_linear_208_3508)"/>
<path d="M25 20H225.22L216.98 131.554L25 139.697V20Z" fill="white"/>
<g clip-path="url(#clip0_208_3508)">
<path d="M113.184 70.5948C139.301 70.5948 161.473 87.4035 169.369 110.742H189.806C185.257 78.2974 157.264 53.3237 123.404 53.3237C89.5436 53.3237 61.5488 78.2974 57 110.742C64.8959 87.4035 87.0673 70.5948 113.184 70.5948Z" fill="url(#paint1_linear_208_3508)"/>
<path d="M117.973 45C100.984 45 85.2859 50.4908 72.5688 59.7861C84.4737 52.2354 98.6108 47.861 113.776 47.861C151.544 47.861 182.935 74.9973 189.346 110.745H194C188.792 73.5937 156.741 45 117.973 45Z" fill="url(#paint2_linear_208_3508)"/>
<path d="M79.6291 88.1183L82.3378 90.4258C84.5817 89.1483 86.9382 88.0389 89.384 87.1187L87.0814 83.0316C84.4455 84.51 81.9528 86.2149 79.6291 88.116V88.1183ZM88.8418 82.0904L91.5528 86.362C93.7404 85.6544 95.9937 85.0962 98.3033 84.6945L97.0217 78.7599C94.1816 79.6404 91.4495 80.7568 88.8442 82.0881L88.8418 82.0904ZM71.5478 96.4024L73.2026 97.1171C75.4324 95.0548 77.8523 93.1958 80.4342 91.5679L78.134 89.3889C75.7258 91.5165 73.5218 93.866 71.5478 96.4024ZM65.708 105.871C67.4731 103.238 69.487 100.789 71.7145 98.5487L70.4188 97.9088C68.6209 100.405 67.0389 103.068 65.7057 105.873L65.708 105.871ZM100.611 84.3512C102.653 84.0966 104.73 83.9635 106.842 83.9635C106.962 83.9635 107.082 83.9635 107.201 83.9658L107.847 76.6416C104.796 76.9055 101.819 77.4357 98.9441 78.2064L100.613 84.3512H100.611ZM112.384 76.4431C111.518 76.4431 110.659 76.4665 109.804 76.5085L109.539 84.0359C111.807 84.1573 114.034 84.4329 116.21 84.8486L119.451 76.9242C117.142 76.6089 114.78 76.4454 112.384 76.4454V76.4431ZM121.315 77.2115L118.48 85.3344C120.876 85.9089 123.202 86.6586 125.448 87.5672L131.577 80.1145C128.307 78.8113 124.876 77.8304 121.315 77.2115ZM133.192 80.7895L127.523 88.4663C130.086 89.6434 132.53 91.0331 134.832 92.6095L143.543 86.8595C140.36 84.4563 136.891 82.4127 133.192 80.7895ZM154.912 98.7052L145.183 102.117C147.359 104.775 149.26 107.664 150.845 110.742H161.074C159.551 106.438 157.469 102.398 154.912 98.7052ZM144.775 87.8171L136.581 93.8637C139.252 95.8699 141.71 98.1377 143.921 100.632L154.152 97.6309C151.472 93.9641 148.317 90.6617 144.777 87.8171H144.775Z" fill="#AAB4CF"/>
<path d="M105.35 111.427C105.728 109.106 104.144 106.919 101.811 106.542C99.4788 106.166 97.2809 107.742 96.9023 110.063C96.5236 112.384 98.1076 114.571 100.44 114.948C102.773 115.324 104.971 113.748 105.35 111.427Z" fill="#97A3C1"/>
<path d="M104.242 105.583C105.54 106.361 106.518 107.608 106.943 109.089L125.784 93.5039L104.244 105.583H104.242Z" fill="#97A3C1"/>
</g>
<defs>
<linearGradient id="paint0_linear_208_3508" x1="125.5" y1="0" x2="125.5" y2="160" gradientUnits="userSpaceOnUse">
<stop stop-color="#CDD940"/>
<stop offset="1" stop-color="#CDD940" stop-opacity="0"/>
</linearGradient>
<linearGradient id="paint1_linear_208_3508" x1="189.806" y1="110.965" x2="14.3471" y2="110.965" gradientUnits="userSpaceOnUse">
<stop stop-color="#CDD940"/>
<stop offset="1" stop-color="#CDD940" stop-opacity="0"/>
</linearGradient>
<linearGradient id="paint2_linear_208_3508" x1="194" y1="111" x2="33.5691" y2="111" gradientUnits="userSpaceOnUse">
<stop stop-color="#CDD940"/>
<stop offset="1" stop-color="#CDD940" stop-opacity="0"/>
</linearGradient>
<clipPath id="clip0_208_3508">
<rect width="137" height="70" fill="white" transform="translate(57 45)"/>
</clipPath>
</defs>
</svg>
