<svg width="251" height="160" viewBox="0 0 251 160" fill="none" xmlns="http://www.w3.org/2000/svg">
<rect opacity="0.4" width="251" height="160" fill="url(#paint0_linear_208_3499)"/>
<path d="M25 20H226L218.717 132.319L25 139.565V20Z" fill="white"/>
<rect x="25" y="20" width="34.058" height="119.565" fill="#001345"/>
<path d="M32 24C29.7915 24 28 25.7913 28 28C28 30.2087 29.7915 32 32 32C34.2085 32 36 30.2087 36 28C36 25.7913 34.2085 24 32 24ZM33.3378 25.5701C33.6547 25.5701 33.9116 25.8312 33.9116 26.1538C33.9116 26.4765 33.6547 26.7376 33.3378 26.7376C33.0209 26.7376 32.764 26.4765 32.764 26.1538C32.764 25.8312 33.0209 25.5701 33.3378 25.5701ZM33.9199 28.6936C33.9199 29.7896 33.0425 30.4333 32.0033 30.4333C30.9508 30.4333 30.0801 29.7896 30.0801 28.6936V26.1173C30.0801 25.8162 30.3169 25.5684 30.6205 25.5684C30.9308 25.5684 31.1877 25.8146 31.1877 26.1173V28.6869C31.1877 29.3039 31.5997 29.5019 32.005 29.5019C32.4103 29.5019 32.814 29.3023 32.814 28.6869V27.7538C32.814 27.4528 33.0709 27.205 33.3812 27.205C33.6847 27.205 33.9216 27.4511 33.9216 27.7538V28.6936H33.9199Z" fill="white"/>
<rect x="25" y="37.3914" width="34.058" height="7.97101" fill="#5648FF"/>
<circle cx="30.0725" cy="52.609" r="2.17391" fill="#384974"/>
<rect x="33.6957" y="51.1597" width="20.2899" height="2.89855" fill="#384974"/>
<circle cx="30.0725" cy="60.5797" r="2.17391" fill="#384974"/>
<rect x="33.6957" y="59.1304" width="12.3188" height="2.89855" fill="#384974"/>
<circle cx="30.0725" cy="68.5509" r="2.17391" fill="#384974"/>
<rect x="33.6957" y="67.1016" width="7.97101" height="2.89855" fill="#384974"/>
<circle cx="30.0725" cy="76.5218" r="2.17391" fill="#384974"/>
<rect x="33.6957" y="75.0725" width="15.2174" height="2.89855" fill="#384974"/>
<circle cx="30.0725" cy="84.4928" r="2.17391" fill="#384974"/>
<rect x="33.6957" y="83.0437" width="11.5942" height="2.89855" fill="#384974"/>
<circle cx="30.0725" cy="92.464" r="2.17391" fill="#384974"/>
<rect x="33.6957" y="91.0146" width="7.97101" height="2.89855" fill="#384974"/>
<circle cx="30.0725" cy="100.435" r="2.17391" fill="#384974"/>
<rect x="33.6957" y="98.9856" width="13.0435" height="2.89855" fill="#384974"/>
<circle cx="30.0725" cy="108.406" r="2.17391" fill="#384974"/>
<rect x="33.6957" y="106.957" width="5.7971" height="2.89855" fill="#384974"/>
<circle cx="30.0725" cy="116.377" r="2.17391" fill="#384974"/>
<rect x="33.6957" y="114.928" width="16.6667" height="2.89855" fill="#384974"/>
<circle cx="30.0725" cy="124.348" r="2.17391" fill="#384974"/>
<rect x="33.6957" y="122.899" width="10.1449" height="2.89855" fill="#384974"/>
<circle cx="30.0725" cy="132.319" r="2.17391" fill="#384974"/>
<rect x="33.6957" y="130.87" width="5.7971" height="2.89855" fill="#384974"/>
<path d="M59.0579 43.913V38.8406L56.884 41.3768L59.0579 43.913Z" fill="white"/>
<rect x="73.5507" y="68.5508" width="30.4348" height="6.52174" fill="#0085BA"/>
<g opacity="0.5">
<rect x="118.478" y="68.5508" width="28.2609" height="0.724638" fill="#0085BA"/>
<rect x="118.478" y="71.4495" width="13.0435" height="0.724638" fill="#0085BA"/>
</g>
<g opacity="0.5">
<rect x="158.333" y="68.5508" width="28.2609" height="0.724638" fill="#0085BA"/>
<rect x="158.333" y="71.4495" width="13.0435" height="0.724638" fill="#0085BA"/>
</g>
<rect x="73.5507" y="36.6667" width="41.3043" height="7.24638" fill="#F1F1F1"/>
<rect x="73.5507" y="50.4348" width="23.1884" height="7.24638" fill="#F1F1F1"/>
<rect x="122.101" y="36.6667" width="23.1884" height="7.24638" fill="#F1F1F1"/>
<rect x="103.985" y="50.4348" width="23.1884" height="7.24638" fill="#F1F1F1"/>
<rect x="134.42" y="50.4348" width="53.6232" height="7.24638" fill="#F1F1F1"/>
<rect x="152.536" y="36.6667" width="50.7246" height="7.24638" fill="#F1F1F1"/>
<rect x="73.5507" y="93.9131" width="27.5362" height="3.62319" fill="#E6E6E6"/>
<rect x="73.5507" y="102.609" width="27.5362" height="3.62319" fill="#E6E6E6"/>
<rect x="73.5507" y="111.304" width="27.5362" height="3.62319" fill="#E6E6E6"/>
<rect x="73.5507" y="120" width="48.5507" height="3.62319" fill="#E6E6E6"/>
<rect x="104.71" y="102.609" width="22.4638" height="3.62319" fill="#E6E6E6"/>
<rect x="104.71" y="111.304" width="35.5072" height="3.62319" fill="#E6E6E6"/>
<rect x="130.797" y="102.609" width="22.4638" height="3.62319" fill="#E6E6E6"/>
<rect x="143.841" y="111.304" width="22.4638" height="3.62319" fill="#E6E6E6"/>
<rect x="104.71" y="93.9131" width="12.3188" height="3.62319" fill="#E6E6E6"/>
<defs>
<linearGradient id="paint0_linear_208_3499" x1="125.5" y1="0" x2="125.5" y2="160" gradientUnits="userSpaceOnUse">
<stop stop-color="#5648FF"/>
<stop offset="1" stop-color="#5648FF" stop-opacity="0"/>
</linearGradient>
</defs>
</svg>
