<svg width="251" height="160" viewBox="0 0 251 160" fill="none" xmlns="http://www.w3.org/2000/svg">
<rect opacity="0.5" width="251" height="160" fill="url(#paint0_linear_208_3427)"/>
<path d="M25 20H225.22L216.98 131.554L25 139.697V20Z" fill="white"/>
<path fill-rule="evenodd" clip-rule="evenodd" d="M117 110C117 114.418 120.582 118 125 118C129.418 118 133 114.418 133 110L117 110Z" fill="#AAB4CF"/>
<rect x="130" y="106" width="4" height="2" transform="rotate(90 130 106)" fill="#AAB4CF"/>
<rect x="126" y="116" width="6" height="2" transform="rotate(90 126 116)" fill="#AAB4CF"/>
<rect x="122" y="106" width="4" height="2" transform="rotate(90 122 106)" fill="#AAB4CF"/>
<rect x="51" y="94" width="148" height="5" fill="#E2E1EF"/>
<rect x="51" y="94" width="103" height="5" fill="#3DCC65"/>
<g opacity="0.5">
<g clip-path="url(#clip0_208_3427)">
<path opacity="0.5" d="M117.127 59.4427C118.658 59.4427 119.899 58.2014 119.899 56.6701C119.899 55.1388 118.658 53.8975 117.127 53.8975C115.595 53.8975 114.354 55.1388 114.354 56.6701C114.354 58.2014 115.595 59.4427 117.127 59.4427Z" fill="#001345"/>
<path opacity="0.2" d="M134.966 56.984C136.295 56.984 137.372 55.9066 137.372 54.5776C137.372 53.2485 136.295 52.1711 134.966 52.1711C133.637 52.1711 132.559 53.2485 132.559 54.5776C132.559 55.9066 133.637 56.984 134.966 56.984Z" fill="#001345"/>
<path opacity="0.1" d="M132.769 44.8472C133.867 44.8472 134.757 43.9572 134.757 42.8593C134.757 41.7614 133.867 40.8713 132.769 40.8713C131.671 40.8713 130.781 41.7614 130.781 42.8593C130.781 43.9572 131.671 44.8472 132.769 44.8472Z" fill="#001345"/>
<path opacity="0.75" d="M114.942 52.6747C116.567 52.6747 117.885 51.3894 117.885 49.804C117.885 48.2186 116.567 46.9333 114.942 46.9333C113.317 46.9333 112 48.2186 112 49.804C112 51.3894 113.317 52.6747 114.942 52.6747Z" fill="#001345"/>
<path opacity="0.4" d="M123.395 62.9999C124.872 62.9999 126.07 61.833 126.07 60.3934C126.07 58.9539 124.872 57.7869 123.395 57.7869C121.918 57.7869 120.72 58.9539 120.72 60.3934C120.72 61.833 121.918 62.9999 123.395 62.9999Z" fill="#001345"/>
<path opacity="0.3" d="M130.269 61.858C131.673 61.858 132.811 60.7502 132.811 59.3837C132.811 58.0172 131.673 56.9094 130.269 56.9094C128.866 56.9094 127.728 58.0172 127.728 59.3837C127.728 60.7502 128.866 61.858 130.269 61.858Z" fill="#001345"/>
<path opacity="0.85" d="M118.125 46.008C119.824 46.008 121.202 44.6637 121.202 43.0053C121.202 41.347 119.824 40.0027 118.125 40.0027C116.427 40.0027 115.049 41.347 115.049 43.0053C115.049 44.6637 116.427 46.008 118.125 46.008Z" fill="#001345"/>
<path opacity="0.15" d="M135.726 50.5563C136.982 50.5563 138 49.5572 138 48.3248C138 47.0923 136.982 46.0933 135.726 46.0933C134.471 46.0933 133.453 47.0923 133.453 48.3248C133.453 49.5572 134.471 50.5563 135.726 50.5563Z" fill="#001345"/>
<path d="M125.759 43.4869C127.55 43.4869 129.002 42.0348 129.002 40.2435C129.002 38.4521 127.55 37 125.759 37C123.967 37 122.515 38.4521 122.515 40.2435C122.515 42.0348 123.967 43.4869 125.759 43.4869Z" fill="#001345"/>
</g>
</g>
<path d="M99.914 84.21C99.144 84.21 98.4627 84.0513 97.87 83.734C97.282 83.4167 96.82 82.9687 96.484 82.39C96.148 81.8113 95.98 81.1347 95.98 80.36V73.927L97.016 73.92V80.227C97.016 80.7497 97.1047 81.2023 97.282 81.585C97.4593 81.963 97.6903 82.2757 97.975 82.523C98.2643 82.7657 98.5793 82.9453 98.92 83.062C99.2607 83.1787 99.592 83.237 99.914 83.237C100.241 83.237 100.574 83.1787 100.915 83.062C101.256 82.9453 101.568 82.7657 101.853 82.523C102.138 82.2757 102.369 81.963 102.546 81.585C102.723 81.2023 102.812 80.7497 102.812 80.227V73.92H103.848V80.36C103.848 81.1347 103.68 81.8113 103.344 82.39C103.008 82.964 102.544 83.412 101.951 83.734C101.363 84.0513 100.684 84.21 99.914 84.21ZM109.205 84.21C108.51 84.21 107.922 84.035 107.441 83.685C106.96 83.3303 106.596 82.852 106.349 82.25C106.102 81.6433 105.978 80.9643 105.978 80.213C105.978 79.4477 106.102 78.7663 106.349 78.169C106.601 77.567 106.97 77.0933 107.455 76.748C107.94 76.4027 108.538 76.23 109.247 76.23C109.938 76.23 110.53 76.405 111.025 76.755C111.52 77.105 111.898 77.581 112.159 78.183C112.425 78.785 112.558 79.4617 112.558 80.213C112.558 80.969 112.425 81.648 112.159 82.25C111.893 82.852 111.51 83.3303 111.011 83.685C110.512 84.035 109.91 84.21 109.205 84.21ZM105.803 87.36V76.44H106.727V82.131H106.839V87.36H105.803ZM109.1 83.251C109.627 83.251 110.066 83.118 110.416 82.852C110.766 82.586 111.027 82.2243 111.2 81.767C111.377 81.305 111.466 80.787 111.466 80.213C111.466 79.6437 111.38 79.1303 111.207 78.673C111.034 78.2157 110.771 77.854 110.416 77.588C110.066 77.322 109.62 77.189 109.079 77.189C108.552 77.189 108.113 77.3173 107.763 77.574C107.418 77.8307 107.159 78.1877 106.986 78.645C106.813 79.0977 106.727 79.6203 106.727 80.213C106.727 80.7963 106.813 81.319 106.986 81.781C107.159 82.2383 107.42 82.5977 107.77 82.859C108.12 83.1203 108.563 83.251 109.1 83.251ZM117.028 84.21C116.324 84.21 115.722 84.035 115.222 83.685C114.723 83.3303 114.34 82.852 114.074 82.25C113.808 81.648 113.675 80.969 113.675 80.213C113.675 79.4617 113.806 78.785 114.067 78.183C114.333 77.581 114.714 77.105 115.208 76.755C115.703 76.405 116.296 76.23 116.986 76.23C117.696 76.23 118.293 76.4027 118.778 76.748C119.264 77.0933 119.63 77.567 119.877 78.169C120.129 78.7663 120.255 79.4477 120.255 80.213C120.255 80.9643 120.132 81.6433 119.884 82.25C119.637 82.852 119.273 83.3303 118.792 83.685C118.312 84.035 117.724 84.21 117.028 84.21ZM117.133 83.251C117.67 83.251 118.113 83.1203 118.463 82.859C118.813 82.5977 119.075 82.2383 119.247 81.781C119.42 81.319 119.506 80.7963 119.506 80.213C119.506 79.6203 119.42 79.0977 119.247 78.645C119.075 78.1877 118.813 77.8307 118.463 77.574C118.118 77.3173 117.682 77.189 117.154 77.189C116.613 77.189 116.165 77.322 115.81 77.588C115.456 77.854 115.192 78.2157 115.019 78.673C114.851 79.1303 114.767 79.6437 114.767 80.213C114.767 80.787 114.854 81.305 115.026 81.767C115.204 82.2243 115.467 82.586 115.817 82.852C116.167 83.118 116.606 83.251 117.133 83.251ZM119.506 84V78.309H119.394V73.92H120.43V84H119.506ZM124.557 84.21C123.988 84.21 123.509 84.1073 123.122 83.902C122.739 83.6967 122.452 83.4237 122.261 83.083C122.07 82.7423 121.974 82.3713 121.974 81.97C121.974 81.5593 122.056 81.2093 122.219 80.92C122.387 80.626 122.613 80.3857 122.898 80.199C123.187 80.0123 123.521 79.87 123.899 79.772C124.282 79.6787 124.704 79.597 125.166 79.527C125.633 79.4523 126.088 79.3893 126.531 79.338C126.979 79.282 127.371 79.2283 127.707 79.177L127.343 79.401C127.357 78.6543 127.212 78.1013 126.909 77.742C126.606 77.3827 126.078 77.203 125.327 77.203C124.809 77.203 124.37 77.3197 124.011 77.553C123.656 77.7863 123.407 78.155 123.262 78.659L122.261 78.365C122.434 77.6883 122.781 77.1633 123.304 76.79C123.827 76.4167 124.506 76.23 125.341 76.23C126.032 76.23 126.617 76.3607 127.098 76.622C127.583 76.8787 127.926 77.252 128.127 77.742C128.22 77.9613 128.281 78.2063 128.309 78.477C128.337 78.7477 128.351 79.023 128.351 79.303V84H127.434V82.103L127.7 82.215C127.443 82.8637 127.044 83.3583 126.503 83.699C125.962 84.0397 125.313 84.21 124.557 84.21ZM124.676 83.321C125.157 83.321 125.577 83.2347 125.936 83.062C126.295 82.8893 126.585 82.6537 126.804 82.355C127.023 82.0517 127.166 81.711 127.231 81.333C127.287 81.0903 127.317 80.8243 127.322 80.535C127.327 80.241 127.329 80.0217 127.329 79.877L127.721 80.08C127.371 80.1267 126.991 80.1733 126.58 80.22C126.174 80.2667 125.773 80.3203 125.376 80.381C124.984 80.4417 124.629 80.514 124.312 80.598C124.097 80.6587 123.89 80.745 123.689 80.857C123.488 80.9643 123.323 81.109 123.192 81.291C123.066 81.473 123.003 81.6993 123.003 81.97C123.003 82.1893 123.057 82.4017 123.164 82.607C123.276 82.8123 123.453 82.9827 123.696 83.118C123.943 83.2533 124.27 83.321 124.676 83.321ZM134.289 84C133.865 84.0887 133.445 84.1237 133.029 84.105C132.619 84.0863 132.25 83.9977 131.923 83.839C131.601 83.6803 131.356 83.433 131.188 83.097C131.053 82.817 130.978 82.5347 130.964 82.25C130.955 81.9607 130.95 81.6317 130.95 81.263V74.34H131.972V81.221C131.972 81.5383 131.975 81.8043 131.979 82.019C131.989 82.229 132.038 82.4157 132.126 82.579C132.294 82.8917 132.56 83.0783 132.924 83.139C133.293 83.1997 133.748 83.1857 134.289 83.097V84ZM129.333 77.322V76.44H134.289V77.322H129.333ZM135.919 75.005V73.85H136.948V75.005H135.919ZM135.919 84V76.44H136.948V84H135.919ZM144.506 84V80.143C144.506 79.723 144.467 79.338 144.387 78.988C144.308 78.6333 144.18 78.3253 144.002 78.064C143.83 77.798 143.603 77.5927 143.323 77.448C143.048 77.3033 142.712 77.231 142.315 77.231C141.951 77.231 141.629 77.294 141.349 77.42C141.074 77.546 140.841 77.728 140.649 77.966C140.463 78.1993 140.32 78.484 140.222 78.82C140.124 79.156 140.075 79.5387 140.075 79.968L139.347 79.807C139.347 79.0323 139.483 78.3813 139.753 77.854C140.024 77.3267 140.397 76.9277 140.873 76.657C141.349 76.3863 141.895 76.251 142.511 76.251C142.964 76.251 143.358 76.321 143.694 76.461C144.035 76.601 144.322 76.79 144.555 77.028C144.793 77.266 144.985 77.539 145.129 77.847C145.274 78.1503 145.379 78.4747 145.444 78.82C145.51 79.1607 145.542 79.5013 145.542 79.842V84H144.506ZM139.039 84V76.44H139.97V78.302H140.075V84H139.039ZM150.362 87.57C149.975 87.57 149.592 87.5117 149.214 87.395C148.841 87.283 148.495 87.1033 148.178 86.856C147.861 86.6133 147.595 86.296 147.38 85.904L148.311 85.386C148.521 85.806 148.815 86.107 149.193 86.289C149.576 86.4757 149.965 86.569 150.362 86.569C150.908 86.569 151.349 86.4663 151.685 86.261C152.026 86.0603 152.273 85.7617 152.427 85.365C152.581 84.9683 152.656 84.4737 152.651 83.881V81.865H152.77V76.44H153.687V83.895C153.687 84.1097 153.68 84.315 153.666 84.511C153.657 84.7117 153.636 84.9077 153.603 85.099C153.514 85.6637 153.33 86.128 153.05 86.492C152.775 86.856 152.411 87.1267 151.958 87.304C151.51 87.4813 150.978 87.57 150.362 87.57ZM150.292 84.21C149.587 84.21 148.985 84.035 148.486 83.685C147.987 83.3303 147.604 82.852 147.338 82.25C147.072 81.648 146.939 80.969 146.939 80.213C146.939 79.4617 147.07 78.785 147.331 78.183C147.597 77.581 147.977 77.105 148.472 76.755C148.967 76.405 149.559 76.23 150.25 76.23C150.959 76.23 151.557 76.4027 152.042 76.748C152.527 77.0933 152.894 77.567 153.141 78.169C153.393 78.7663 153.519 79.4477 153.519 80.213C153.519 80.9643 153.395 81.6433 153.148 82.25C152.901 82.852 152.537 83.3303 152.056 83.685C151.575 84.035 150.987 84.21 150.292 84.21ZM150.397 83.251C150.934 83.251 151.377 83.1203 151.727 82.859C152.077 82.5977 152.338 82.2383 152.511 81.781C152.684 81.319 152.77 80.7963 152.77 80.213C152.77 79.6203 152.684 79.0977 152.511 78.645C152.338 78.1877 152.077 77.8307 151.727 77.574C151.382 77.3173 150.945 77.189 150.418 77.189C149.877 77.189 149.429 77.322 149.074 77.588C148.719 77.854 148.456 78.2157 148.283 78.673C148.115 79.1303 148.031 79.6437 148.031 80.213C148.031 80.787 148.117 81.305 148.29 81.767C148.467 82.2243 148.731 82.586 149.081 82.852C149.431 83.118 149.87 83.251 150.397 83.251Z" fill="#97A3C1"/>
<defs>
<linearGradient id="paint0_linear_208_3427" x1="125.5" y1="0" x2="125.5" y2="160" gradientUnits="userSpaceOnUse">
<stop stop-color="#3DCC65"/>
<stop offset="1" stop-color="#3DCC65" stop-opacity="0"/>
</linearGradient>
<clipPath id="clip0_208_3427">
<rect width="26" height="26" fill="white" transform="translate(112 37)"/>
</clipPath>
</defs>
</svg>
