<svg width="73" height="72" viewBox="0 0 73 72" fill="none" xmlns="http://www.w3.org/2000/svg">
<circle cx="36.5" cy="36" r="36" fill="#5648FF"/>
<path d="M26.6068 30.2907H41.703V26.6305C41.703 25.1858 41.1973 23.9574 40.1859 22.9454C39.1746 21.9334 37.947 21.4275 36.5032 21.4275C35.0595 21.4275 33.8308 21.9334 32.8172 22.9454C31.8037 23.9574 31.297 25.1858 31.297 26.6305H29.203C29.203 24.602 29.913 22.8787 31.3331 21.4606C32.7531 20.0425 34.4764 19.3335 36.5029 19.3335C38.5294 19.3335 40.2517 20.0432 41.6698 21.4627C43.0879 22.8822 43.7969 24.6048 43.7969 26.6305V30.2907H46.3931C47.1044 30.2907 47.7168 30.5456 48.23 31.0552C48.7433 31.5649 48.9999 32.179 48.9999 32.8975V49.2265C48.9999 49.9379 48.7433 50.5502 48.23 51.0634C47.7168 51.5767 47.1044 51.8333 46.3931 51.8333H26.6068C25.8955 51.8333 25.2832 51.5767 24.7699 51.0634C24.2566 50.5502 24 49.9379 24 49.2265V32.8975C24 32.179 24.2566 31.5649 24.7699 31.0552C25.2832 30.5456 25.8955 30.2907 26.6068 30.2907ZM36.5046 43.9167C37.2928 43.9167 37.9649 43.6413 38.5208 43.0905C39.0767 42.5397 39.3546 41.875 39.3546 41.0962C39.3546 40.3348 39.0751 39.663 38.5161 39.0807C37.9571 38.4985 37.2835 38.2073 36.4953 38.2073C35.7071 38.2073 35.0351 38.4985 34.4792 39.0807C33.9233 39.663 33.6453 40.3394 33.6453 41.1101C33.6453 41.8807 33.9248 42.5411 34.4838 43.0914C35.0428 43.6416 35.7164 43.9167 36.5046 43.9167Z" fill="white"/>
</svg>
