<svg width="73" height="72" viewBox="0 0 73 72" fill="none" xmlns="http://www.w3.org/2000/svg">
<circle cx="36.5" cy="36" r="36" fill="#5648FF"/>
<path d="M25.6775 51.4957C24.9611 51.4957 24.3475 51.2403 23.8368 50.7296C23.326 50.2188 23.0706 49.6053 23.0706 48.8889V26.8613H25.1646V48.8889C25.1646 49.0172 25.218 49.1347 25.3248 49.2415C25.4317 49.3484 25.5492 49.4018 25.6775 49.4018H42.5192V51.4957H25.6775ZM30.6987 46.4744C29.9824 46.4744 29.3689 46.219 28.8581 45.7083C28.3473 45.1975 28.0919 44.584 28.0919 43.8676V23.2694C28.0919 22.5531 28.3473 21.9395 28.8581 21.4287C29.3689 20.918 29.9824 20.6626 30.6987 20.6626H46.297C47.0133 20.6626 47.6268 20.918 48.1376 21.4287C48.6484 21.9395 48.9038 22.5531 48.9038 23.2694V43.8676C48.9038 44.584 48.6484 45.1975 48.1376 45.7083C47.6268 46.219 47.0133 46.4744 46.297 46.4744H30.6987Z" fill="white"/>
</svg>
