<svg width="73" height="72" viewBox="0 0 73 72" fill="none" xmlns="http://www.w3.org/2000/svg">
<circle cx="36.5" cy="36" r="36" fill="#5648FF"/>
<path d="M20.6667 48.4999V45.359H24.0001V26.1068C24.0001 25.3955 24.2567 24.7832 24.77 24.2699C25.2832 23.7566 25.8956 23.5 26.6069 23.5H50.6667V25.594H26.6069C26.4573 25.594 26.3345 25.642 26.2383 25.7382C26.1421 25.8344 26.094 25.9573 26.094 26.1068V45.359H35.6613V48.4999H20.6667ZM40.5332 48.4999C40.1639 48.4999 39.8543 48.375 39.6045 48.1252C39.3547 47.8754 39.2297 47.5658 39.2297 47.1965V30.1453C39.2297 29.776 39.3547 29.4664 39.6045 29.2166C39.8543 28.9668 40.1639 28.8419 40.5332 28.8419H51.0459C51.4152 28.8419 51.7248 28.9668 51.9746 29.2166C52.2244 29.4664 52.3493 29.776 52.3493 30.1453V47.1965C52.3493 47.5658 52.2244 47.8754 51.9746 48.1252C51.7248 48.375 51.4152 48.4999 51.0459 48.4999H40.5332Z" fill="white"/>
</svg>
