<svg width="73" height="72" viewBox="0 0 73 72" fill="none" xmlns="http://www.w3.org/2000/svg">
<circle cx="36.5" cy="36" r="36" fill="#5648FF"/>
<path d="M36.5 50.1666C34.827 50.1666 33.283 49.751 31.8681 48.9199C30.4532 48.0887 29.3804 46.9765 28.6496 45.5833H23.9039V43.4894H27.7864C27.6155 42.8505 27.5179 42.1441 27.4937 41.3702C27.4695 40.5964 27.4573 39.7372 27.4573 38.7927H23.9039V36.6988H27.4573C27.4573 35.7215 27.4695 34.8166 27.4937 33.984C27.5179 33.1513 27.6304 32.438 27.8313 31.844H23.9039V29.7501H28.7287C29.1176 29.072 29.6411 28.418 30.2992 27.788C30.9574 27.158 31.639 26.6767 32.3441 26.3441L29.2522 23.2629L30.6603 21.8655L34.3697 25.5749C35.0314 25.374 35.749 25.2736 36.5224 25.2736C37.2959 25.2736 38.0171 25.374 38.6859 25.5749L42.4338 21.8655L43.8418 23.2629L40.7606 26.3441C41.4544 26.6767 42.126 27.1608 42.7756 27.7965C43.4252 28.4322 43.9444 29.0834 44.3333 29.7501H49.1132V31.844H45.1688C45.3696 32.4594 45.4821 33.178 45.5063 34C45.5306 34.822 45.5427 35.7215 45.5427 36.6988H49.1132V38.7927H45.5427C45.5427 39.7372 45.5306 40.5964 45.5063 41.3702C45.4821 42.1441 45.3846 42.8505 45.2136 43.4894H49.1132V45.5833H44.3675C43.6552 46.9765 42.5888 48.0887 41.1683 48.9199C39.7477 49.751 38.1916 50.1666 36.5 50.1666ZM33.4231 42.25H39.5769V40.156H33.4231V42.25ZM33.4231 35.3184H39.5769V33.2244H33.4231V35.3184Z" fill="white"/>
</svg>
