<svg width="73" height="72" viewBox="0 0 73 72" fill="none" xmlns="http://www.w3.org/2000/svg">
<circle cx="36.5" cy="36" r="36" fill="#5648FF"/>
<path d="M34.1731 41.5769C34.7714 42.1752 35.5369 42.4535 36.4695 42.4118C37.4022 42.3701 38.0833 42.0363 38.5128 41.4102L47.4956 28.3697L34.4231 37.3205C33.7863 37.7564 33.4332 38.4225 33.3638 39.3189C33.2943 40.2152 33.5641 40.9679 34.1731 41.5769ZM24.7521 48.4999C24.3433 48.4999 23.9639 48.4004 23.6138 48.2013C23.2637 48.0022 22.9886 47.7235 22.7885 47.3653C22.0983 46.1338 21.5721 44.8429 21.21 43.4925C20.8478 42.142 20.6667 40.7613 20.6667 39.3504C20.6667 37.1623 21.0828 35.1052 21.9151 33.1789C22.7474 31.2527 23.8761 29.5741 25.3013 28.1432C26.7265 26.7123 28.3994 25.5807 30.32 24.7484C32.2406 23.9161 34.2856 23.5 36.4551 23.5C38.6374 23.5 40.6926 23.912 42.6207 24.7361C44.5487 25.5602 46.2309 26.6854 47.6671 28.1117C49.1034 29.5379 50.2391 31.2063 51.0742 33.117C51.9093 35.0276 52.3261 37.074 52.3247 39.2564C52.3304 40.6908 52.1593 42.099 51.8114 43.4807C51.4634 44.8625 50.9365 46.1787 50.2307 47.4294C50.0227 47.7877 49.7393 48.0556 49.3803 48.2333C49.0213 48.4111 48.641 48.4999 48.2393 48.4999H24.7521Z" fill="white"/>
</svg>
