<svg width="73" height="72" viewBox="0 0 73 72" fill="none" xmlns="http://www.w3.org/2000/svg">
<circle cx="36.5" cy="36" r="36" fill="#5648FF"/>
<path d="M28.733 26.9915C28.2102 26.9915 27.7664 27.1745 27.4017 27.5405C27.0371 27.9065 26.8547 28.3509 26.8547 28.8738C26.8547 29.3966 27.0377 29.8404 27.4037 30.2051C27.7697 30.5697 28.2142 30.7521 28.737 30.7521C29.2599 30.7521 29.7037 30.5691 30.0683 30.2031C30.433 29.8371 30.6153 29.3926 30.6153 28.8698C30.6153 28.3469 30.4323 27.9031 30.0663 27.5384C29.7003 27.1738 29.2559 26.9915 28.733 26.9915ZM28.733 42.9145C28.2102 42.9145 27.7664 43.0975 27.4017 43.4635C27.0371 43.8295 26.8547 44.2739 26.8547 44.7968C26.8547 45.3197 27.0377 45.7634 27.4037 46.1281C27.7697 46.4928 28.2142 46.6751 28.737 46.6751C29.2599 46.6751 29.7037 46.4921 30.0683 46.1261C30.433 45.7601 30.6153 45.3156 30.6153 44.7928C30.6153 44.2699 30.4323 43.8262 30.0663 43.4615C29.7003 43.0968 29.2559 42.9145 28.733 42.9145ZM23.6838 22.3633H49.301C49.699 22.3633 50.026 22.491 50.2822 22.7465C50.5385 23.002 50.6666 23.3352 50.6666 23.7462V33.7991C50.6666 34.2649 50.5385 34.6478 50.2822 34.9476C50.026 35.2474 49.699 35.3974 49.301 35.3974H23.6838C23.296 35.3974 22.974 35.2474 22.7177 34.9476C22.4615 34.6478 22.3334 34.2649 22.3334 33.7991V23.7462C22.3334 23.3352 22.4615 23.002 22.7177 22.7465C22.974 22.491 23.296 22.3633 23.6838 22.3633ZM23.6838 38.2692H49.1773C49.5875 38.2692 49.9383 38.4249 50.2296 38.7362C50.521 39.0476 50.6666 39.4107 50.6666 39.8255V49.7007C50.6666 50.2071 50.521 50.6037 50.2296 50.8903C49.9383 51.177 49.5875 51.3204 49.1773 51.3204H23.8227C23.3939 51.3204 23.0385 51.177 22.7565 50.8903C22.4744 50.6037 22.3334 50.2071 22.3334 49.7007V39.8255C22.3334 39.4107 22.4559 39.0476 22.7009 38.7362C22.9459 38.4249 23.2735 38.2692 23.6838 38.2692Z" fill="white"/>
</svg>
