<svg width="386" height="386" viewBox="0 0 386 386" fill="none" xmlns="http://www.w3.org/2000/svg">
<path d="M69.3297 298.429L82.8546 312.542L78.2091 316.952L69.0945 307.426L65.037 311.307L73.0932 319.716L68.4477 324.126L60.3915 315.718L56.3341 319.599L65.4487 329.125L60.8032 333.535L47.2783 319.422L69.3297 298.429Z" fill="#5648FF"/>
<path d="M106.435 348.236L106.847 365.995L100.319 362.114L100.025 350.412L89.617 355.763L83.0898 351.882L98.8492 343.708L98.4964 325.597L105.024 329.478L105.259 341.474L115.902 335.946L122.43 339.827L106.435 348.236Z" fill="#5648FF"/>
<path d="M142.305 347.53L153.478 350.471C159.123 351.941 162.004 356.88 160.476 362.525C159.005 368.171 154.125 371.052 148.421 369.582L143.422 368.288L140.717 378.638L134.543 376.991L142.305 347.53ZM150.067 363.349C152.125 363.878 153.772 362.937 154.301 360.82C154.83 358.762 153.89 357.115 151.831 356.586L146.833 355.293L145.069 361.996L150.067 363.349Z" fill="#5648FF"/>
<path d="M184.879 355.41L204.461 355.116L204.578 361.526L191.406 361.761L191.524 367.406L203.167 367.23L203.285 373.639L191.642 373.816L191.759 379.461L204.931 379.226L205.049 385.635L185.467 385.929L184.879 355.41Z" fill="#5648FF"/>
<path d="M250.857 376.991L242.213 368.347L239.214 369.229L242.154 379.52L235.98 381.284L227.629 351.999L238.743 348.824C244.153 347.295 249.387 350.177 250.916 355.586C252.033 359.468 250.916 363.172 248.211 365.583L257.972 374.992L250.857 376.991ZM237.45 362.996L242.389 361.584C244.389 360.996 245.329 359.35 244.741 357.292C244.153 355.292 242.507 354.352 240.449 354.94L235.509 356.351L237.45 362.996Z" fill="#5648FF"/>
<path d="M277.848 338.827L271.497 342.708L268.145 337.24L286.316 326.185L289.667 331.653L283.317 335.534L295.842 356.116L290.373 359.467L277.848 338.827Z" fill="#5648FF"/>
<path d="M317.188 307.132L308.367 316.6L303.722 312.248L320.187 294.666L328.066 321.48L337.357 311.542L342.003 315.894L325.067 334.006L317.188 307.132Z" fill="#5648FF"/>
<path d="M192.759 51.6297C114.903 51.6297 51.7473 114.961 51.7473 193.053C51.7473 271.144 114.903 334.476 192.759 334.476C270.615 334.476 333.77 271.144 333.77 193.053C333.77 114.961 270.615 51.6297 192.759 51.6297ZM239.919 107.141C251.092 107.141 260.148 116.373 260.148 127.781C260.148 139.189 251.092 148.421 239.919 148.421C228.747 148.421 219.691 139.189 219.691 127.781C219.691 116.373 228.747 107.141 239.919 107.141ZM260.442 217.574C260.442 256.326 229.511 279.083 192.876 279.083C155.771 279.083 125.076 256.326 125.076 217.574V126.487C125.076 115.843 133.426 107.082 144.128 107.082C155.066 107.082 164.121 115.785 164.121 126.487V217.339C164.121 239.155 178.646 246.153 192.935 246.153C207.225 246.153 221.455 239.096 221.455 217.339V184.35C221.455 173.706 230.511 164.945 241.448 164.945C252.151 164.945 260.501 173.648 260.501 184.35V217.574H260.442Z" fill="#5648FF"/>
<path d="M19.4641 266.264C9.64382 243.036 4.7043 218.397 4.7043 192.994C4.7043 167.591 9.70263 142.893 19.4641 119.725C28.9315 97.3203 42.5151 77.1506 59.7446 59.8623C77.033 42.5739 97.1439 28.9903 119.489 19.5229C142.658 9.70262 167.297 4.7043 192.7 4.7043C218.103 4.7043 242.742 9.70262 265.911 19.5229C288.315 28.9903 308.426 42.5739 325.655 59.8623C342.944 77.1506 356.469 97.3203 365.936 119.725C375.756 142.952 380.696 167.591 380.696 192.994C380.696 218.397 375.697 243.095 365.936 266.264C360.526 279.024 353.822 291.079 345.825 302.31L349.177 305.662C371.993 273.967 385.4 235.039 385.4 192.994C385.4 86.3828 299.135 0 192.641 0C86.1475 0 0 86.3828 0 192.994C0 236.92 14.7009 277.436 39.3985 309.896L42.7504 306.544C33.3418 294.195 25.5796 280.729 19.4641 266.264Z" fill="#5648FF"/>
</svg>
